M48
;DRILL file {KiCad 5.0.0-rc2-dev-unknown-482fd86~64~ubuntu18.04.1} date Thu May 10 18:32:32 2018
;FORMAT={-:-/ absolute / inch / decimal}
FMAT,2
INCH,TZ
T1C0.0236
T2C0.0295
T3C0.0315
T4C0.0335
T5C0.0354
T6C0.0390
T7C0.0394
T8C0.0512
T9C0.0551
T10C0.1063
%
G90
G05
M72
T1
X4.7047Y-3.9961
X4.7244Y-3.7598
X4.7244Y-4.2717
X4.9016Y-4.2717
X5.1575Y-4.1339
X5.3346Y-3.5236
X5.4724Y-4.0945
X5.4921Y-2.9528
X5.5709Y-3.5236
X5.7677Y-3.937
X5.9055Y-4.3504
X6.1024Y-3.5827
X6.122Y-4.3701
X6.2992Y-3.3661
X6.9094Y-2.874
T2
X5.5311Y-3.94
X5.5811Y-3.89
X5.5811Y-3.99
X5.9504Y-3.94
X6.0004Y-3.89
X6.0004Y-3.99
X5.1138Y-3.94
X5.1638Y-3.89
X5.1638Y-3.99
X6.3677Y-3.94
X6.4177Y-3.89
X6.4177Y-3.99
T3
X5.5315Y-3.7117
X5.8315Y-3.7117
X5.1134Y-3.7121
X5.4134Y-3.7121
X6.3681Y-3.7113
X6.6681Y-3.7113
X5.0591Y-4.1378
X5.3591Y-4.1378
X5.5815Y-4.1374
X5.6815Y-4.1374
X5.7815Y-4.1374
X5.8815Y-4.1374
X5.9815Y-4.1374
X5.95Y-3.7113
X6.25Y-3.7113
T4
X7.0079Y-4.0551
X7.2047Y-4.0551
T5
X4.6047Y-4.6063
X4.7047Y-4.6063
T6
X5.4035Y-4.6516
X5.5807Y-4.6516
X5.7874Y-4.6516
X5.9646Y-4.6516
X6.5551Y-4.6516
X6.7323Y-4.6516
X4.3791Y-2.6827
X4.3791Y-2.8598
X6.939Y-4.6516
X7.1161Y-4.6516
X6.1713Y-4.6516
X6.3484Y-4.6516
T7
X5.3098Y-2.6472
X5.3098Y-2.7472
X5.4098Y-2.6472
X5.4098Y-2.7472
X5.5098Y-2.6472
X5.5098Y-2.7472
X5.6098Y-2.6472
X5.6098Y-2.7472
X5.7098Y-2.6472
X5.7098Y-2.7472
X5.8098Y-2.6472
X5.8098Y-2.7472
X5.9098Y-2.6472
X5.9098Y-2.7472
X6.0098Y-2.6472
X6.0098Y-2.7472
X6.1098Y-2.6472
X6.1098Y-2.7472
X6.2098Y-2.6472
X6.2098Y-2.7472
X6.3098Y-2.6472
X6.3098Y-2.7472
X6.4098Y-2.6472
X6.4098Y-2.7472
X6.5098Y-2.6472
X6.5098Y-2.7472
X6.6098Y-2.6472
X6.6098Y-2.7472
X6.7098Y-2.6472
X6.7098Y-2.7472
X6.8098Y-2.6472
X6.8098Y-2.7472
X6.9098Y-2.6472
X6.9098Y-2.7472
X7.0098Y-2.6472
X7.0098Y-2.7472
X7.1098Y-2.6472
X7.1098Y-2.7472
X7.2098Y-2.6472
X7.2098Y-2.7472
T8
X5.3543Y-4.5535
X5.6303Y-4.5535
X5.7382Y-4.5535
X6.0142Y-4.5535
X6.5059Y-4.5535
X6.7819Y-4.5535
X4.4772Y-2.6335
X4.4772Y-2.9094
X6.8898Y-4.5535
X7.1657Y-4.5535
X6.122Y-4.5535
X6.398Y-4.5535
T9
X4.3425Y-3.9575
X4.3425Y-4.3512
X4.7244Y-3.8591
X4.7244Y-4.1543
X4.7244Y-4.4496
X4.8228Y-3.9575
X4.8228Y-4.3512
X4.9213Y-4.1543
X4.3425Y-3.1622
X4.3425Y-3.5559
X4.7244Y-3.0638
X4.7244Y-3.3591
X4.7244Y-3.6543
X4.8228Y-3.1622
X4.8228Y-3.5559
X4.9213Y-3.3591
T10
X5.1181Y-2.6969
X7.4016Y-2.6969
X5.1181Y-4.626
X7.4016Y-4.626
T0
M30
