G04 #@! TF.GenerationSoftware,KiCad,Pcbnew,5.0.0-rc2-dev-unknown-482fd86~64~ubuntu18.04.1*
G04 #@! TF.CreationDate,2018-05-09T13:23:50+02:00*
G04 #@! TF.ProjectId,Pi1541 Ad-on Board,5069313534312041642D6F6E20426F61,0.9*
G04 #@! TF.SameCoordinates,Original*
G04 #@! TF.FileFunction,Soldermask,Bot*
G04 #@! TF.FilePolarity,Negative*
%FSLAX46Y46*%
G04 Gerber Fmt 4.6, Leading zero omitted, Abs format (unit mm)*
G04 Created by KiCad (PCBNEW 5.0.0-rc2-dev-unknown-482fd86~64~ubuntu18.04.1) date Wed May  9 13:23:50 2018*
%MOMM*%
%LPD*%
G01*
G04 APERTURE LIST*
%ADD10C,0.100000*%
%ADD11C,2.500000*%
%ADD12C,1.300000*%
%ADD13R,1.300000X1.300000*%
%ADD14R,1.600000X1.600000*%
%ADD15O,1.600000X1.600000*%
%ADD16C,5.400000*%
%ADD17C,1.600000*%
%ADD18R,1.850000X1.850000*%
%ADD19C,1.850000*%
%ADD20R,1.700000X1.700000*%
%ADD21O,1.700000X1.700000*%
%ADD22C,2.100000*%
%ADD23C,1.750000*%
%ADD24R,1.800000X1.800000*%
%ADD25C,1.800000*%
G04 APERTURE END LIST*
D10*
X111000000Y-121000000D02*
G75*
G02X107500000Y-117500000I0J3500000D01*
G01*
X107500000Y-68500000D02*
G75*
G02X111000000Y-65000000I3500000J0D01*
G01*
X107500000Y-68500000D02*
X107500000Y-117500000D01*
X191500000Y-117500000D02*
G75*
G02X188000000Y-121000000I-3500000J0D01*
G01*
X188000000Y-65000000D02*
G75*
G02X191500000Y-68500000I0J-3500000D01*
G01*
X191500000Y-117500000D02*
X191500000Y-68500000D01*
X111000000Y-121000000D02*
X188000000Y-121000000D01*
X111000000Y-65000000D02*
X188000000Y-65000000D01*
D11*
X125000000Y-82850000D03*
X122500000Y-77850000D03*
X122500000Y-87850000D03*
X120000000Y-75350000D03*
X120000000Y-82850000D03*
X120000000Y-90350000D03*
X110300000Y-87850000D03*
X110300000Y-77850000D03*
X110300000Y-98050000D03*
X110300000Y-108050000D03*
X120000000Y-110550000D03*
X120000000Y-103050000D03*
X120000000Y-95550000D03*
X122500000Y-108050000D03*
X122500000Y-98050000D03*
X125000000Y-103050000D03*
D12*
X129890000Y-98870000D03*
X131160000Y-100140000D03*
D13*
X131160000Y-97600000D03*
X141760000Y-97600000D03*
D12*
X141760000Y-100140000D03*
X140490000Y-98870000D03*
X151140000Y-98870000D03*
X152410000Y-100140000D03*
D13*
X152410000Y-97600000D03*
X163010000Y-97600000D03*
D12*
X163010000Y-100140000D03*
X161740000Y-98870000D03*
D14*
X141770000Y-105090000D03*
D15*
X144310000Y-105090000D03*
X146850000Y-105090000D03*
X149390000Y-105090000D03*
X151930000Y-105090000D03*
D16*
X130000000Y-68500000D03*
X188000000Y-68500000D03*
X188000000Y-117500000D03*
X130000000Y-117500000D03*
D17*
X129880000Y-93080000D03*
D15*
X137500000Y-93080000D03*
X148120000Y-93070000D03*
D17*
X140500000Y-93070000D03*
X151130000Y-93060000D03*
D15*
X158750000Y-93060000D03*
X169370000Y-93060000D03*
D17*
X161750000Y-93060000D03*
D18*
X183000000Y-103000000D03*
D19*
X178000000Y-103000000D03*
D17*
X128500000Y-105100000D03*
D15*
X136120000Y-105100000D03*
D20*
X134870000Y-69780000D03*
D21*
X134870000Y-67240000D03*
X137410000Y-69780000D03*
X137410000Y-67240000D03*
X139950000Y-69780000D03*
X139950000Y-67240000D03*
X142490000Y-69780000D03*
X142490000Y-67240000D03*
X145030000Y-69780000D03*
X145030000Y-67240000D03*
X147570000Y-69780000D03*
X147570000Y-67240000D03*
X150110000Y-69780000D03*
X150110000Y-67240000D03*
X152650000Y-69780000D03*
X152650000Y-67240000D03*
X155190000Y-69780000D03*
X155190000Y-67240000D03*
X157730000Y-69780000D03*
X157730000Y-67240000D03*
X160270000Y-69780000D03*
X160270000Y-67240000D03*
X162810000Y-69780000D03*
X162810000Y-67240000D03*
X165350000Y-69780000D03*
X165350000Y-67240000D03*
X167890000Y-69780000D03*
X167890000Y-67240000D03*
X170430000Y-69780000D03*
X170430000Y-67240000D03*
X172970000Y-69780000D03*
X172970000Y-67240000D03*
X175510000Y-69780000D03*
X175510000Y-67240000D03*
X178050000Y-69780000D03*
X178050000Y-67240000D03*
X180590000Y-69780000D03*
X180590000Y-67240000D03*
X183130000Y-69780000D03*
X183130000Y-67240000D03*
D22*
X136000000Y-115660000D03*
D23*
X137250000Y-118150000D03*
X141750000Y-118150000D03*
D22*
X143010000Y-115660000D03*
X152760000Y-115660000D03*
D23*
X151500000Y-118150000D03*
X147000000Y-118150000D03*
D22*
X145750000Y-115660000D03*
X155500000Y-115660000D03*
D23*
X156750000Y-118150000D03*
X161250000Y-118150000D03*
D22*
X162510000Y-115660000D03*
X172260000Y-115660000D03*
D23*
X171000000Y-118150000D03*
X166500000Y-118150000D03*
D22*
X165250000Y-115660000D03*
X175000000Y-115660000D03*
D23*
X176250000Y-118150000D03*
X180750000Y-118150000D03*
D22*
X182010000Y-115660000D03*
D24*
X119500000Y-117000000D03*
D25*
X116960000Y-117000000D03*
M02*
