G04 #@! TF.GenerationSoftware,KiCad,Pcbnew,(5.0.0-rc2-dev-756-g45dad4ded)*
G04 #@! TF.CreationDate,2018-05-20T06:56:17+02:00*
G04 #@! TF.ProjectId,Pi1541 Ad-on Board,5069313534312041642D6F6E20426F61,0.97*
G04 #@! TF.SameCoordinates,Original*
G04 #@! TF.FileFunction,Copper,L2,Bot,Signal*
G04 #@! TF.FilePolarity,Positive*
%FSLAX46Y46*%
G04 Gerber Fmt 4.6, Leading zero omitted, Abs format (unit mm)*
G04 Created by KiCad (PCBNEW (5.0.0-rc2-dev-756-g45dad4ded)) date Sun May 20 06:56:17 2018*
%MOMM*%
%LPD*%
G01*
G04 APERTURE LIST*
G04 #@! TA.AperFunction,NonConductor*
%ADD10C,0.100000*%
G04 #@! TD*
G04 #@! TA.AperFunction,ComponentPad*
%ADD11C,2.500000*%
G04 #@! TD*
G04 #@! TA.AperFunction,ComponentPad*
%ADD12R,1.850000X1.850000*%
G04 #@! TD*
G04 #@! TA.AperFunction,ComponentPad*
%ADD13C,1.850000*%
G04 #@! TD*
G04 #@! TA.AperFunction,ComponentPad*
%ADD14R,1.800000X1.800000*%
G04 #@! TD*
G04 #@! TA.AperFunction,ComponentPad*
%ADD15C,1.800000*%
G04 #@! TD*
G04 #@! TA.AperFunction,SMDPad,CuDef*
%ADD16R,1.120000X1.400000*%
G04 #@! TD*
G04 #@! TA.AperFunction,SMDPad,CuDef*
%ADD17R,1.500000X0.970000*%
G04 #@! TD*
G04 #@! TA.AperFunction,SMDPad,CuDef*
%ADD18R,0.970000X1.500000*%
G04 #@! TD*
G04 #@! TA.AperFunction,ComponentPad*
%ADD19C,5.400000*%
G04 #@! TD*
G04 #@! TA.AperFunction,ComponentPad*
%ADD20C,2.100000*%
G04 #@! TD*
G04 #@! TA.AperFunction,ComponentPad*
%ADD21C,1.750000*%
G04 #@! TD*
G04 #@! TA.AperFunction,SMDPad,CuDef*
%ADD22R,0.450000X1.450000*%
G04 #@! TD*
G04 #@! TA.AperFunction,ComponentPad*
%ADD23R,1.700000X1.700000*%
G04 #@! TD*
G04 #@! TA.AperFunction,ComponentPad*
%ADD24O,1.700000X1.700000*%
G04 #@! TD*
G04 #@! TA.AperFunction,ViaPad*
%ADD25C,0.800000*%
G04 #@! TD*
G04 #@! TA.AperFunction,Conductor*
%ADD26C,0.400000*%
G04 #@! TD*
G04 #@! TA.AperFunction,Conductor*
%ADD27C,0.254000*%
G04 #@! TD*
G04 APERTURE END LIST*
D10*
X111000000Y-121000000D02*
G75*
G02X107500000Y-117500000I0J3500000D01*
G01*
X107500000Y-68500000D02*
G75*
G02X111000000Y-65000000I3500000J0D01*
G01*
X107500000Y-68500000D02*
X107500000Y-117500000D01*
X191500000Y-117500000D02*
G75*
G02X188000000Y-121000000I-3500000J0D01*
G01*
X188000000Y-65000000D02*
G75*
G02X191500000Y-68500000I0J-3500000D01*
G01*
X191500000Y-117500000D02*
X191500000Y-68500000D01*
X111000000Y-121000000D02*
X188000000Y-121000000D01*
X111000000Y-65000000D02*
X188000000Y-65000000D01*
D11*
G04 #@! TO.P,J2,6*
G04 #@! TO.N,IEC-~RESET*
X125000000Y-85320000D03*
G04 #@! TO.P,J2,2*
G04 #@! TO.N,GND*
X122500000Y-80320000D03*
G04 #@! TO.P,J2,4*
G04 #@! TO.N,IEC-CLK*
X122500000Y-90320000D03*
G04 #@! TO.P,J2,1*
G04 #@! TO.N,IEC-SRQ*
X120000000Y-77820000D03*
G04 #@! TO.P,J2,3*
G04 #@! TO.N,IEC-ATN*
X120000000Y-85320000D03*
G04 #@! TO.P,J2,5*
G04 #@! TO.N,IEC-DATA*
X120000000Y-92820000D03*
G04 #@! TO.P,J2,*
G04 #@! TO.N,*
X110300000Y-90320000D03*
X110300000Y-80320000D03*
G04 #@! TD*
G04 #@! TO.P,J3,*
G04 #@! TO.N,*
X110300000Y-100520000D03*
X110300000Y-110520000D03*
G04 #@! TO.P,J3,5*
G04 #@! TO.N,IEC-DATA*
X120000000Y-113020000D03*
G04 #@! TO.P,J3,3*
G04 #@! TO.N,IEC-ATN*
X120000000Y-105520000D03*
G04 #@! TO.P,J3,1*
G04 #@! TO.N,IEC-SRQ*
X120000000Y-98020000D03*
G04 #@! TO.P,J3,4*
G04 #@! TO.N,IEC-CLK*
X122500000Y-110520000D03*
G04 #@! TO.P,J3,2*
G04 #@! TO.N,GND*
X122500000Y-100520000D03*
G04 #@! TO.P,J3,6*
G04 #@! TO.N,IEC-~RESET*
X125000000Y-105520000D03*
G04 #@! TD*
D12*
G04 #@! TO.P,PIEZO1,1*
G04 #@! TO.N,GND*
X185380000Y-103320000D03*
D13*
G04 #@! TO.P,PIEZO1,2*
G04 #@! TO.N,PIEZO*
X180380000Y-103320000D03*
G04 #@! TD*
D14*
G04 #@! TO.P,D1,1*
G04 #@! TO.N,GND*
X119500000Y-117000000D03*
D15*
G04 #@! TO.P,D1,2*
G04 #@! TO.N,Net-(D1-Pad2)*
X116960000Y-117000000D03*
G04 #@! TD*
D16*
G04 #@! TO.P,R1,1*
G04 #@! TO.N,Net-(D1-Pad2)*
X123750000Y-118250000D03*
G04 #@! TO.P,R1,2*
G04 #@! TO.N,ACT_LED*
X125510000Y-118250000D03*
G04 #@! TD*
D17*
G04 #@! TO.P,C1,1*
G04 #@! TO.N,+3V3*
X145100000Y-96245000D03*
G04 #@! TO.P,C1,2*
G04 #@! TO.N,Net-(C1-Pad2)*
X145100000Y-98155000D03*
G04 #@! TD*
G04 #@! TO.P,C2,2*
G04 #@! TO.N,Net-(C2-Pad2)*
X145100000Y-101145000D03*
G04 #@! TO.P,C2,1*
G04 #@! TO.N,+5V*
X145100000Y-103055000D03*
G04 #@! TD*
D18*
G04 #@! TO.P,C3,2*
G04 #@! TO.N,SW1_BTN*
X138545000Y-112700000D03*
G04 #@! TO.P,C3,1*
G04 #@! TO.N,GND*
X140455000Y-112700000D03*
G04 #@! TD*
G04 #@! TO.P,C4,1*
G04 #@! TO.N,GND*
X150255000Y-112700000D03*
G04 #@! TO.P,C4,2*
G04 #@! TO.N,SW2_BTN*
X148345000Y-112700000D03*
G04 #@! TD*
G04 #@! TO.P,C5,2*
G04 #@! TO.N,SW3_BTN*
X158145000Y-112700000D03*
G04 #@! TO.P,C5,1*
G04 #@! TO.N,GND*
X160055000Y-112700000D03*
G04 #@! TD*
G04 #@! TO.P,C6,1*
G04 #@! TO.N,GND*
X169855000Y-112700000D03*
G04 #@! TO.P,C6,2*
G04 #@! TO.N,SW4_BTN*
X167945000Y-112700000D03*
G04 #@! TD*
G04 #@! TO.P,C7,1*
G04 #@! TO.N,GND*
X179555000Y-112700000D03*
G04 #@! TO.P,C7,2*
G04 #@! TO.N,SW5_BTN*
X177645000Y-112700000D03*
G04 #@! TD*
D17*
G04 #@! TO.P,C8,2*
G04 #@! TO.N,IEC-~RESET*
X116700000Y-69445000D03*
G04 #@! TO.P,C8,1*
G04 #@! TO.N,GND*
X116700000Y-71355000D03*
G04 #@! TD*
D19*
G04 #@! TO.P,MK1,1*
G04 #@! TO.N,GND*
X130000000Y-68500000D03*
G04 #@! TD*
G04 #@! TO.P,MK2,1*
G04 #@! TO.N,GND*
X188000000Y-68500000D03*
G04 #@! TD*
G04 #@! TO.P,MK3,1*
G04 #@! TO.N,GND*
X188000000Y-117500000D03*
G04 #@! TD*
G04 #@! TO.P,MK4,1*
G04 #@! TO.N,GND*
X130000000Y-117500000D03*
G04 #@! TD*
D20*
G04 #@! TO.P,SW1,*
G04 #@! TO.N,*
X143010000Y-115660000D03*
D21*
G04 #@! TO.P,SW1,2*
G04 #@! TO.N,GND*
X141750000Y-118150000D03*
G04 #@! TO.P,SW1,1*
G04 #@! TO.N,SW1_BTN*
X137250000Y-118150000D03*
D20*
G04 #@! TO.P,SW1,*
G04 #@! TO.N,*
X136000000Y-115660000D03*
G04 #@! TD*
G04 #@! TO.P,SW2,*
G04 #@! TO.N,*
X145750000Y-115660000D03*
D21*
G04 #@! TO.P,SW2,1*
G04 #@! TO.N,SW2_BTN*
X147000000Y-118150000D03*
G04 #@! TO.P,SW2,2*
G04 #@! TO.N,GND*
X151500000Y-118150000D03*
D20*
G04 #@! TO.P,SW2,*
G04 #@! TO.N,*
X152760000Y-115660000D03*
G04 #@! TD*
G04 #@! TO.P,SW3,*
G04 #@! TO.N,*
X162510000Y-115660000D03*
D21*
G04 #@! TO.P,SW3,2*
G04 #@! TO.N,GND*
X161250000Y-118150000D03*
G04 #@! TO.P,SW3,1*
G04 #@! TO.N,SW3_BTN*
X156750000Y-118150000D03*
D20*
G04 #@! TO.P,SW3,*
G04 #@! TO.N,*
X155500000Y-115660000D03*
G04 #@! TD*
G04 #@! TO.P,SW4,*
G04 #@! TO.N,*
X165250000Y-115660000D03*
D21*
G04 #@! TO.P,SW4,1*
G04 #@! TO.N,SW4_BTN*
X166500000Y-118150000D03*
G04 #@! TO.P,SW4,2*
G04 #@! TO.N,GND*
X171000000Y-118150000D03*
D20*
G04 #@! TO.P,SW4,*
G04 #@! TO.N,*
X172260000Y-115660000D03*
G04 #@! TD*
G04 #@! TO.P,SW5,*
G04 #@! TO.N,*
X182010000Y-115660000D03*
D21*
G04 #@! TO.P,SW5,2*
G04 #@! TO.N,GND*
X180750000Y-118150000D03*
G04 #@! TO.P,SW5,1*
G04 #@! TO.N,SW5_BTN*
X176250000Y-118150000D03*
D20*
G04 #@! TO.P,SW5,*
G04 #@! TO.N,*
X175000000Y-115660000D03*
G04 #@! TD*
G04 #@! TO.P,SW6,*
G04 #@! TO.N,*
X113720000Y-73900000D03*
D21*
G04 #@! TO.P,SW6,2*
G04 #@! TO.N,GND*
X111230000Y-72640000D03*
G04 #@! TO.P,SW6,1*
G04 #@! TO.N,IEC-~RESET*
X111230000Y-68140000D03*
D20*
G04 #@! TO.P,SW6,*
G04 #@! TO.N,*
X113720000Y-66890000D03*
G04 #@! TD*
D22*
G04 #@! TO.P,U1,1*
G04 #@! TO.N,SRQ*
X149675000Y-96650000D03*
G04 #@! TO.P,U1,2*
G04 #@! TO.N,Net-(C1-Pad2)*
X150325000Y-96650000D03*
G04 #@! TO.P,U1,3*
G04 #@! TO.N,ATN*
X150975000Y-96650000D03*
G04 #@! TO.P,U1,4*
G04 #@! TO.N,CLK*
X151625000Y-96650000D03*
G04 #@! TO.P,U1,5*
G04 #@! TO.N,DATA*
X152275000Y-96650000D03*
G04 #@! TO.P,U1,6*
G04 #@! TO.N,~RESET*
X152925000Y-96650000D03*
G04 #@! TO.P,U1,7*
G04 #@! TO.N,N/C*
X153575000Y-96650000D03*
G04 #@! TO.P,U1,8*
X154225000Y-96650000D03*
G04 #@! TO.P,U1,9*
X154875000Y-96650000D03*
G04 #@! TO.P,U1,10*
G04 #@! TO.N,+3V3*
X155525000Y-96650000D03*
G04 #@! TO.P,U1,11*
G04 #@! TO.N,GND*
X155525000Y-102550000D03*
G04 #@! TO.P,U1,12*
G04 #@! TO.N,N/C*
X154875000Y-102550000D03*
G04 #@! TO.P,U1,13*
X154225000Y-102550000D03*
G04 #@! TO.P,U1,14*
X153575000Y-102550000D03*
G04 #@! TO.P,U1,15*
G04 #@! TO.N,IEC-~RESET*
X152925000Y-102550000D03*
G04 #@! TO.P,U1,16*
G04 #@! TO.N,IEC-DATA*
X152275000Y-102550000D03*
G04 #@! TO.P,U1,17*
G04 #@! TO.N,IEC-CLK*
X151625000Y-102550000D03*
G04 #@! TO.P,U1,18*
G04 #@! TO.N,IEC-ATN*
X150975000Y-102550000D03*
G04 #@! TO.P,U1,19*
G04 #@! TO.N,Net-(C2-Pad2)*
X150325000Y-102550000D03*
G04 #@! TO.P,U1,20*
G04 #@! TO.N,IEC-SRQ*
X149675000Y-102550000D03*
G04 #@! TD*
D23*
G04 #@! TO.P,J4,1*
G04 #@! TO.N,+3V3*
X145140000Y-93340000D03*
D24*
G04 #@! TO.P,J4,2*
G04 #@! TO.N,SRQ*
X147680000Y-93340000D03*
G04 #@! TO.P,J4,3*
G04 #@! TO.N,ATN*
X150220000Y-93340000D03*
G04 #@! TO.P,J4,4*
G04 #@! TO.N,CLK*
X152760000Y-93340000D03*
G04 #@! TO.P,J4,5*
G04 #@! TO.N,DATA*
X155300000Y-93340000D03*
G04 #@! TO.P,J4,6*
G04 #@! TO.N,~RESET*
X157840000Y-93340000D03*
G04 #@! TO.P,J4,7*
G04 #@! TO.N,N/C*
X160380000Y-93340000D03*
G04 #@! TO.P,J4,8*
X162920000Y-93340000D03*
G04 #@! TO.P,J4,9*
X165460000Y-93340000D03*
G04 #@! TO.P,J4,10*
G04 #@! TO.N,+3V3*
X168000000Y-93340000D03*
G04 #@! TD*
G04 #@! TO.P,J5,10*
G04 #@! TO.N,GND*
X168000000Y-106040000D03*
G04 #@! TO.P,J5,9*
G04 #@! TO.N,N/C*
X165460000Y-106040000D03*
G04 #@! TO.P,J5,8*
X162920000Y-106040000D03*
G04 #@! TO.P,J5,7*
X160380000Y-106040000D03*
G04 #@! TO.P,J5,6*
G04 #@! TO.N,IEC-~RESET*
X157840000Y-106040000D03*
G04 #@! TO.P,J5,5*
G04 #@! TO.N,IEC-DATA*
X155300000Y-106040000D03*
G04 #@! TO.P,J5,4*
G04 #@! TO.N,IEC-CLK*
X152760000Y-106040000D03*
G04 #@! TO.P,J5,3*
G04 #@! TO.N,IEC-ATN*
X150220000Y-106040000D03*
G04 #@! TO.P,J5,2*
G04 #@! TO.N,IEC-SRQ*
X147680000Y-106040000D03*
D23*
G04 #@! TO.P,J5,1*
G04 #@! TO.N,+5V*
X145140000Y-106040000D03*
G04 #@! TD*
G04 #@! TO.P,J1,1*
G04 #@! TO.N,+3V3*
X134900000Y-69760000D03*
D24*
G04 #@! TO.P,J1,2*
G04 #@! TO.N,+5V*
X134900000Y-67220000D03*
G04 #@! TO.P,J1,3*
G04 #@! TO.N,ATN*
X137440000Y-69760000D03*
G04 #@! TO.P,J1,4*
G04 #@! TO.N,+5V*
X137440000Y-67220000D03*
G04 #@! TO.P,J1,5*
G04 #@! TO.N,~RESET*
X139980000Y-69760000D03*
G04 #@! TO.P,J1,6*
G04 #@! TO.N,GND*
X139980000Y-67220000D03*
G04 #@! TO.P,J1,7*
G04 #@! TO.N,SW4_BTN*
X142520000Y-69760000D03*
G04 #@! TO.P,J1,8*
G04 #@! TO.N,N/C*
X142520000Y-67220000D03*
G04 #@! TO.P,J1,9*
G04 #@! TO.N,GND*
X145060000Y-69760000D03*
G04 #@! TO.P,J1,10*
G04 #@! TO.N,N/C*
X145060000Y-67220000D03*
G04 #@! TO.P,J1,11*
G04 #@! TO.N,CLK*
X147600000Y-69760000D03*
G04 #@! TO.P,J1,12*
G04 #@! TO.N,DATA*
X147600000Y-67220000D03*
G04 #@! TO.P,J1,13*
G04 #@! TO.N,SW1_BTN*
X150140000Y-69760000D03*
G04 #@! TO.P,J1,14*
G04 #@! TO.N,GND*
X150140000Y-67220000D03*
G04 #@! TO.P,J1,15*
G04 #@! TO.N,SW2_BTN*
X152680000Y-69760000D03*
G04 #@! TO.P,J1,16*
G04 #@! TO.N,SW3_BTN*
X152680000Y-67220000D03*
G04 #@! TO.P,J1,17*
G04 #@! TO.N,+3V3*
X155220000Y-69760000D03*
G04 #@! TO.P,J1,18*
G04 #@! TO.N,N/C*
X155220000Y-67220000D03*
G04 #@! TO.P,J1,19*
X157760000Y-69760000D03*
G04 #@! TO.P,J1,20*
G04 #@! TO.N,GND*
X157760000Y-67220000D03*
G04 #@! TO.P,J1,21*
G04 #@! TO.N,N/C*
X160300000Y-69760000D03*
G04 #@! TO.P,J1,22*
X160300000Y-67220000D03*
G04 #@! TO.P,J1,23*
X162840000Y-69760000D03*
G04 #@! TO.P,J1,24*
X162840000Y-67220000D03*
G04 #@! TO.P,J1,25*
G04 #@! TO.N,GND*
X165380000Y-69760000D03*
G04 #@! TO.P,J1,26*
G04 #@! TO.N,N/C*
X165380000Y-67220000D03*
G04 #@! TO.P,J1,27*
X167920000Y-69760000D03*
G04 #@! TO.P,J1,28*
X167920000Y-67220000D03*
G04 #@! TO.P,J1,29*
G04 #@! TO.N,SW5_BTN*
X170460000Y-69760000D03*
G04 #@! TO.P,J1,30*
G04 #@! TO.N,GND*
X170460000Y-67220000D03*
G04 #@! TO.P,J1,31*
G04 #@! TO.N,N/C*
X173000000Y-69760000D03*
G04 #@! TO.P,J1,32*
X173000000Y-67220000D03*
G04 #@! TO.P,J1,33*
G04 #@! TO.N,PIEZO*
X175540000Y-69760000D03*
G04 #@! TO.P,J1,34*
G04 #@! TO.N,GND*
X175540000Y-67220000D03*
G04 #@! TO.P,J1,35*
G04 #@! TO.N,SRQ*
X178080000Y-69760000D03*
G04 #@! TO.P,J1,36*
G04 #@! TO.N,ACT_LED*
X178080000Y-67220000D03*
G04 #@! TO.P,J1,37*
G04 #@! TO.N,N/C*
X180620000Y-69760000D03*
G04 #@! TO.P,J1,38*
X180620000Y-67220000D03*
G04 #@! TO.P,J1,39*
G04 #@! TO.N,GND*
X183160000Y-69760000D03*
G04 #@! TO.P,J1,40*
G04 #@! TO.N,N/C*
X183160000Y-67220000D03*
G04 #@! TD*
D25*
G04 #@! TO.N,GND*
X155026600Y-103913100D03*
X119900000Y-109200000D03*
X125100000Y-108500000D03*
X125100000Y-111900000D03*
X121300000Y-95600000D03*
X176600000Y-109100000D03*
X178400000Y-99700000D03*
X138000000Y-73700000D03*
X150700000Y-73700000D03*
X155700000Y-78600000D03*
X155300000Y-72300000D03*
X141200000Y-91900000D03*
X149900000Y-86300000D03*
X148000000Y-96300000D03*
X148000000Y-102700000D03*
X160200000Y-98500000D03*
X162800000Y-98500000D03*
X162900000Y-86300000D03*
G04 #@! TO.N,+3V3*
X156555600Y-94617300D03*
G04 #@! TO.N,SW1_BTN*
X164078100Y-104763400D03*
G04 #@! TD*
D26*
G04 #@! TO.N,GND*
X139980000Y-67220000D02*
X141230300Y-67220000D01*
X145060000Y-68509700D02*
X142001900Y-68509700D01*
X142001900Y-68509700D02*
X141230300Y-67738100D01*
X141230300Y-67738100D02*
X141230300Y-67220000D01*
X145060000Y-68659800D02*
X145060000Y-68509700D01*
X145060000Y-69760000D02*
X145060000Y-68659800D01*
X150140000Y-67220000D02*
X148889700Y-67220000D01*
X148889700Y-67220000D02*
X148889700Y-66673000D01*
X148889700Y-66673000D02*
X148143400Y-65926700D01*
X148143400Y-65926700D02*
X147045900Y-65926700D01*
X147045900Y-65926700D02*
X146330000Y-66642600D01*
X146330000Y-66642600D02*
X146330000Y-67757800D01*
X146330000Y-67757800D02*
X145578100Y-68509700D01*
X145578100Y-68509700D02*
X145060000Y-68509700D01*
X122500000Y-80320000D02*
X118349600Y-84470400D01*
X118349600Y-84470400D02*
X118349600Y-93703700D01*
X118349600Y-93703700D02*
X122500000Y-97854100D01*
X122500000Y-97854100D02*
X122500000Y-100520000D01*
X116700000Y-72240300D02*
X116810700Y-72240300D01*
X116810700Y-72240300D02*
X122500000Y-77929600D01*
X122500000Y-77929600D02*
X122500000Y-80320000D01*
X155525000Y-103675300D02*
X155287200Y-103913100D01*
X155287200Y-103913100D02*
X155026600Y-103913100D01*
X155525000Y-102550000D02*
X155525000Y-103675300D01*
X116700000Y-71797600D02*
X112072400Y-71797600D01*
X112072400Y-71797600D02*
X111230000Y-72640000D01*
X116700000Y-71797600D02*
X116700000Y-72240300D01*
X116700000Y-71355000D02*
X116700000Y-71797600D01*
X168000000Y-109250000D02*
X164390300Y-109250000D01*
X164390300Y-109250000D02*
X160940300Y-112700000D01*
X168969700Y-112700000D02*
X168969700Y-110219700D01*
X168969700Y-110219700D02*
X168000000Y-109250000D01*
X168000000Y-109250000D02*
X168000000Y-107290300D01*
X160055000Y-112700000D02*
X160940300Y-112700000D01*
X160055000Y-116955000D02*
X160055000Y-112700000D01*
X161250000Y-118150000D02*
X160055000Y-116955000D01*
X160055000Y-116955000D02*
X157582500Y-119427500D01*
X157582500Y-119427500D02*
X152777500Y-119427500D01*
X152777500Y-119427500D02*
X151500000Y-118150000D01*
X150255000Y-112700000D02*
X150255000Y-113850300D01*
X150655400Y-117527500D02*
X148755300Y-119427600D01*
X148755300Y-119427600D02*
X143027600Y-119427600D01*
X143027600Y-119427600D02*
X141750000Y-118150000D01*
X151500000Y-118150000D02*
X150877500Y-117527500D01*
X150877500Y-117527500D02*
X150655400Y-117527500D01*
X150655400Y-117527500D02*
X150655400Y-114250700D01*
X150655400Y-114250700D02*
X150255000Y-113850300D01*
X119500000Y-117000000D02*
X119500000Y-115699700D01*
X119500000Y-115699700D02*
X118317200Y-114516900D01*
X118317200Y-114516900D02*
X118317200Y-104702800D01*
X118317200Y-104702800D02*
X122500000Y-100520000D01*
X185380000Y-103320000D02*
X185380000Y-104645300D01*
X179555000Y-112700000D02*
X179555000Y-110470300D01*
X179555000Y-110470300D02*
X185380000Y-104645300D01*
X180750000Y-118150000D02*
X179555000Y-116955000D01*
X179555000Y-116955000D02*
X179555000Y-112700000D01*
X168000000Y-106040000D02*
X168000000Y-107290300D01*
X169855000Y-112700000D02*
X168969700Y-112700000D01*
X171000000Y-118150000D02*
X169855000Y-117005000D01*
X169855000Y-117005000D02*
X169855000Y-112700000D01*
X141750000Y-118150000D02*
X140455000Y-116855000D01*
X140455000Y-116855000D02*
X140455000Y-112700000D01*
G04 #@! TO.N,+5V*
X136893000Y-68470300D02*
X136150500Y-69212800D01*
X136150500Y-69212800D02*
X136150500Y-94105500D01*
X136150500Y-94105500D02*
X144214700Y-102169700D01*
X144214700Y-102169700D02*
X145100000Y-102169700D01*
X137440000Y-68470300D02*
X136893000Y-68470300D01*
X136893000Y-68470300D02*
X136150300Y-67727600D01*
X136150300Y-67727600D02*
X136150300Y-67220000D01*
X134900000Y-67220000D02*
X136150300Y-67220000D01*
X145140000Y-106040000D02*
X145140000Y-104789700D01*
X145140000Y-104789700D02*
X145100000Y-104749700D01*
X145100000Y-104749700D02*
X145100000Y-103055000D01*
X145100000Y-103055000D02*
X145100000Y-102169700D01*
X137440000Y-67220000D02*
X137440000Y-68470300D01*
G04 #@! TO.N,+3V3*
X155525000Y-96650000D02*
X155525000Y-95524700D01*
X155525000Y-95524700D02*
X155648200Y-95524700D01*
X155648200Y-95524700D02*
X156555600Y-94617300D01*
X145140000Y-93340000D02*
X145140000Y-94590300D01*
X145140000Y-94590300D02*
X145100000Y-94630300D01*
X145100000Y-94630300D02*
X145100000Y-96245000D01*
G04 #@! TO.N,IEC-~RESET*
X116700000Y-69445000D02*
X116700000Y-70330300D01*
X116700000Y-70330300D02*
X117585300Y-70330300D01*
X117585300Y-70330300D02*
X125000000Y-77745000D01*
X125000000Y-77745000D02*
X125000000Y-85320000D01*
X111230000Y-68140000D02*
X112535000Y-69445000D01*
X112535000Y-69445000D02*
X116700000Y-69445000D01*
X125000000Y-85320000D02*
X125366700Y-85686700D01*
X125366700Y-85686700D02*
X125366700Y-105153300D01*
X154030000Y-106540500D02*
X154030000Y-105195600D01*
X154030000Y-105195600D02*
X152925000Y-104090600D01*
X152925000Y-104090600D02*
X152925000Y-102550000D01*
X156589700Y-106040000D02*
X156589700Y-106587000D01*
X156589700Y-106587000D02*
X155873200Y-107303500D01*
X155873200Y-107303500D02*
X154793000Y-107303500D01*
X154793000Y-107303500D02*
X154030000Y-106540500D01*
X154030000Y-106540500D02*
X153260100Y-107310400D01*
X153260100Y-107310400D02*
X127523800Y-107310400D01*
X127523800Y-107310400D02*
X125366700Y-105153300D01*
X125366700Y-105153300D02*
X125000000Y-105520000D01*
X157840000Y-106040000D02*
X156589700Y-106040000D01*
G04 #@! TO.N,IEC-CLK*
X151625000Y-102550000D02*
X151625000Y-103675300D01*
X152760000Y-106040000D02*
X152760000Y-104789700D01*
X152760000Y-104789700D02*
X151645600Y-103675300D01*
X151645600Y-103675300D02*
X151625000Y-103675300D01*
X122500000Y-90320000D02*
X124758700Y-92578700D01*
X124758700Y-92578700D02*
X124758700Y-101826900D01*
X124758700Y-101826900D02*
X122500000Y-104085600D01*
X122500000Y-104085600D02*
X122500000Y-110520000D01*
G04 #@! TO.N,IEC-ATN*
X120000000Y-105520000D02*
X124154400Y-101365600D01*
X124154400Y-101365600D02*
X124154400Y-94474400D01*
X124154400Y-94474400D02*
X120000000Y-90320000D01*
X120000000Y-90320000D02*
X120000000Y-85320000D01*
X150220000Y-106040000D02*
X150220000Y-104789700D01*
X150220000Y-104789700D02*
X150975000Y-104034700D01*
X150975000Y-104034700D02*
X150975000Y-102550000D01*
G04 #@! TO.N,IEC-DATA*
X152275000Y-102550000D02*
X152275000Y-101424700D01*
X155300000Y-106040000D02*
X155300000Y-104789700D01*
X155300000Y-104789700D02*
X156150400Y-103939300D01*
X156150400Y-103939300D02*
X156150400Y-101646500D01*
X156150400Y-101646500D02*
X155928600Y-101424700D01*
X155928600Y-101424700D02*
X152275000Y-101424700D01*
G04 #@! TO.N,Net-(D1-Pad2)*
X123750000Y-118250000D02*
X122789700Y-118250000D01*
X122789700Y-118250000D02*
X122739300Y-118300400D01*
X122739300Y-118300400D02*
X118260400Y-118300400D01*
X118260400Y-118300400D02*
X116960000Y-117000000D01*
G04 #@! TO.N,ACT_LED*
X125510000Y-117149700D02*
X128267000Y-114392700D01*
X128267000Y-114392700D02*
X131673600Y-114392700D01*
X131673600Y-114392700D02*
X137362700Y-120081800D01*
X137362700Y-120081800D02*
X176136000Y-120081800D01*
X176136000Y-120081800D02*
X178669600Y-117548200D01*
X178669600Y-117548200D02*
X178669600Y-109320800D01*
X178669600Y-109320800D02*
X181728800Y-106261600D01*
X181728800Y-106261600D02*
X181728800Y-101769700D01*
X181728800Y-101769700D02*
X179330300Y-99371200D01*
X179330300Y-99371200D02*
X179330300Y-69173500D01*
X179330300Y-69173500D02*
X178627100Y-68470300D01*
X178627100Y-68470300D02*
X178080000Y-68470300D01*
X125510000Y-118250000D02*
X125510000Y-117149700D01*
X178080000Y-67220000D02*
X178080000Y-68470300D01*
G04 #@! TO.N,SW4_BTN*
X166500000Y-118150000D02*
X167945000Y-116705000D01*
X167945000Y-116705000D02*
X167945000Y-112700000D01*
G04 #@! TO.N,SW1_BTN*
X150140000Y-69760000D02*
X150140000Y-68509700D01*
X150140000Y-68509700D02*
X150687100Y-68509700D01*
X150687100Y-68509700D02*
X151390300Y-67806500D01*
X151390300Y-67806500D02*
X151390300Y-66692800D01*
X151390300Y-66692800D02*
X152170800Y-65912300D01*
X152170800Y-65912300D02*
X153205900Y-65912300D01*
X153205900Y-65912300D02*
X153949800Y-66656200D01*
X153949800Y-66656200D02*
X153949800Y-67732000D01*
X153949800Y-67732000D02*
X154727400Y-68509600D01*
X154727400Y-68509600D02*
X155805800Y-68509600D01*
X155805800Y-68509600D02*
X156490000Y-69193800D01*
X156490000Y-69193800D02*
X156490000Y-73589700D01*
X156490000Y-73589700D02*
X164170400Y-81270100D01*
X164170400Y-81270100D02*
X164170400Y-104671100D01*
X164170400Y-104671100D02*
X164078100Y-104763400D01*
X137250000Y-118150000D02*
X138545000Y-116855000D01*
X138545000Y-116855000D02*
X138545000Y-112700000D01*
G04 #@! TO.N,SW2_BTN*
X148345000Y-112700000D02*
X149230300Y-112700000D01*
X152680000Y-69760000D02*
X152680000Y-83513000D01*
X152680000Y-83513000D02*
X159110000Y-89943000D01*
X159110000Y-89943000D02*
X159110000Y-106542200D01*
X159110000Y-106542200D02*
X154897400Y-110754800D01*
X154897400Y-110754800D02*
X150290200Y-110754800D01*
X150290200Y-110754800D02*
X149230300Y-111814700D01*
X149230300Y-111814700D02*
X149230300Y-112700000D01*
X147000000Y-118150000D02*
X148345000Y-116805000D01*
X148345000Y-116805000D02*
X148345000Y-112700000D01*
G04 #@! TO.N,SW3_BTN*
X159030300Y-112700000D02*
X159030300Y-111814700D01*
X159030300Y-111814700D02*
X161650000Y-109195000D01*
X161650000Y-109195000D02*
X161650000Y-80319000D01*
X161650000Y-80319000D02*
X153950000Y-72619000D01*
X153950000Y-72619000D02*
X153950000Y-69222200D01*
X153950000Y-69222200D02*
X153198100Y-68470300D01*
X153198100Y-68470300D02*
X152680000Y-68470300D01*
X152680000Y-67220000D02*
X152680000Y-68470300D01*
X158145000Y-112700000D02*
X159030300Y-112700000D01*
X156750000Y-118150000D02*
X158145000Y-116755000D01*
X158145000Y-116755000D02*
X158145000Y-112700000D01*
G04 #@! TO.N,SW5_BTN*
X170460000Y-69760000D02*
X170460000Y-105957600D01*
X170460000Y-105957600D02*
X177202400Y-112700000D01*
X177202400Y-112700000D02*
X177202400Y-117197600D01*
X177202400Y-117197600D02*
X176250000Y-118150000D01*
X177645000Y-112700000D02*
X177202400Y-112700000D01*
G04 #@! TO.N,IEC-SRQ*
X149675000Y-102550000D02*
X149675000Y-103675300D01*
X147680000Y-106040000D02*
X147680000Y-104789700D01*
X147680000Y-104789700D02*
X148794400Y-103675300D01*
X148794400Y-103675300D02*
X149675000Y-103675300D01*
G04 #@! TO.N,PIEZO*
X175540000Y-69760000D02*
X175540000Y-98480000D01*
X175540000Y-98480000D02*
X180380000Y-103320000D01*
G04 #@! TO.N,Net-(C1-Pad2)*
X145100000Y-98155000D02*
X146250300Y-98155000D01*
X150325000Y-96650000D02*
X150325000Y-97775300D01*
X150325000Y-97775300D02*
X146630000Y-97775300D01*
X146630000Y-97775300D02*
X146250300Y-98155000D01*
G04 #@! TO.N,Net-(C2-Pad2)*
X145100000Y-101145000D02*
X146250300Y-101145000D01*
X150325000Y-102550000D02*
X150325000Y-101424700D01*
X150325000Y-101424700D02*
X146530000Y-101424700D01*
X146530000Y-101424700D02*
X146250300Y-101145000D01*
G04 #@! TO.N,ATN*
X150220000Y-93340000D02*
X150220000Y-92089700D01*
X150220000Y-92089700D02*
X141250000Y-83119700D01*
X141250000Y-83119700D02*
X141250000Y-69245900D01*
X141250000Y-69245900D02*
X140494100Y-68490000D01*
X140494100Y-68490000D02*
X139413300Y-68490000D01*
X139413300Y-68490000D02*
X138690300Y-69213000D01*
X138690300Y-69213000D02*
X138690300Y-69760000D01*
X150220000Y-93340000D02*
X150220000Y-94590300D01*
X150220000Y-94590300D02*
X150975000Y-95345300D01*
X150975000Y-95345300D02*
X150975000Y-96650000D01*
X137440000Y-69760000D02*
X138690300Y-69760000D01*
G04 #@! TO.N,~RESET*
X139980000Y-69760000D02*
X139980000Y-94836100D01*
X139980000Y-94836100D02*
X144199400Y-99055500D01*
X144199400Y-99055500D02*
X151644800Y-99055500D01*
X151644800Y-99055500D02*
X152925000Y-97775300D01*
X152925000Y-97775300D02*
X155980600Y-97775300D01*
X155980600Y-97775300D02*
X157840000Y-95915900D01*
X157840000Y-95915900D02*
X157840000Y-93340000D01*
X152925000Y-96650000D02*
X152925000Y-97775300D01*
G04 #@! TO.N,CLK*
X152760000Y-93340000D02*
X152760000Y-94590300D01*
X152760000Y-93340000D02*
X152760000Y-92089700D01*
X147600000Y-69760000D02*
X147600000Y-86929700D01*
X147600000Y-86929700D02*
X152760000Y-92089700D01*
X152760000Y-94590300D02*
X152250000Y-94590300D01*
X152250000Y-94590300D02*
X151625000Y-95215300D01*
X151625000Y-95215300D02*
X151625000Y-96650000D01*
G04 #@! TO.N,DATA*
X147600000Y-67220000D02*
X147600000Y-68470300D01*
X147600000Y-68470300D02*
X148147100Y-68470300D01*
X148147100Y-68470300D02*
X148850300Y-69173500D01*
X148850300Y-69173500D02*
X148850300Y-82567100D01*
X148850300Y-82567100D02*
X154049700Y-87766500D01*
X154049700Y-87766500D02*
X154049700Y-93340000D01*
X155300000Y-93340000D02*
X154049700Y-93340000D01*
X154049700Y-93340000D02*
X154049700Y-94170100D01*
X154049700Y-94170100D02*
X152695100Y-95524700D01*
X152695100Y-95524700D02*
X152275000Y-95524700D01*
X152275000Y-96650000D02*
X152275000Y-95524700D01*
G04 #@! TO.N,SRQ*
X147680000Y-93340000D02*
X147680000Y-94590300D01*
X149675000Y-96650000D02*
X149675000Y-95524700D01*
X147680000Y-94590300D02*
X148740600Y-94590300D01*
X148740600Y-94590300D02*
X149675000Y-95524700D01*
G04 #@! TD*
D27*
G04 #@! TO.N,GND*
G36*
X112291526Y-65935524D02*
X112035000Y-66554833D01*
X112035000Y-66839030D01*
X111530358Y-66630000D01*
X110929642Y-66630000D01*
X110374654Y-66859884D01*
X109949884Y-67284654D01*
X109720000Y-67839642D01*
X109720000Y-68440358D01*
X109949884Y-68995346D01*
X110374654Y-69420116D01*
X110929642Y-69650000D01*
X111530358Y-69650000D01*
X111550705Y-69641572D01*
X111886415Y-69977282D01*
X111932999Y-70047001D01*
X112209199Y-70231552D01*
X112452763Y-70280000D01*
X112535000Y-70296358D01*
X112617237Y-70280000D01*
X115420155Y-70280000D01*
X115492191Y-70387809D01*
X115517353Y-70404622D01*
X115411673Y-70510302D01*
X115315000Y-70743691D01*
X115315000Y-71069250D01*
X115473750Y-71228000D01*
X116573000Y-71228000D01*
X116573000Y-71208000D01*
X116827000Y-71208000D01*
X116827000Y-71228000D01*
X116847000Y-71228000D01*
X116847000Y-71482000D01*
X116827000Y-71482000D01*
X116827000Y-72316250D01*
X116985750Y-72475000D01*
X117576310Y-72475000D01*
X117809699Y-72378327D01*
X117988327Y-72199698D01*
X118071949Y-71997816D01*
X124165000Y-78090869D01*
X124165000Y-79389391D01*
X124126123Y-79295533D01*
X123833320Y-79166285D01*
X122679605Y-80320000D01*
X123833320Y-81473715D01*
X124126123Y-81344467D01*
X124165000Y-81242982D01*
X124165001Y-83625558D01*
X123932233Y-83721974D01*
X123401974Y-84252233D01*
X123115000Y-84945050D01*
X123115000Y-85694950D01*
X123401974Y-86387767D01*
X123932233Y-86918026D01*
X124531700Y-87166333D01*
X124531700Y-91170833D01*
X124288585Y-90927717D01*
X124385000Y-90694950D01*
X124385000Y-89945050D01*
X124098026Y-89252233D01*
X123567767Y-88721974D01*
X122874950Y-88435000D01*
X122125050Y-88435000D01*
X121432233Y-88721974D01*
X120901974Y-89252233D01*
X120835000Y-89413923D01*
X120835000Y-87014441D01*
X121067767Y-86918026D01*
X121598026Y-86387767D01*
X121885000Y-85694950D01*
X121885000Y-84945050D01*
X121598026Y-84252233D01*
X121067767Y-83721974D01*
X120374950Y-83435000D01*
X119625050Y-83435000D01*
X118932233Y-83721974D01*
X118401974Y-84252233D01*
X118115000Y-84945050D01*
X118115000Y-85694950D01*
X118401974Y-86387767D01*
X118932233Y-86918026D01*
X119165001Y-87014441D01*
X119165000Y-90237767D01*
X119148643Y-90320000D01*
X119165000Y-90402233D01*
X119165000Y-90402236D01*
X119213448Y-90645800D01*
X119397999Y-90922001D01*
X119467720Y-90968587D01*
X119490051Y-90990918D01*
X118932233Y-91221974D01*
X118401974Y-91752233D01*
X118115000Y-92445050D01*
X118115000Y-93194950D01*
X118401974Y-93887767D01*
X118932233Y-94418026D01*
X119625050Y-94705000D01*
X120374950Y-94705000D01*
X121067767Y-94418026D01*
X121598026Y-93887767D01*
X121829082Y-93329949D01*
X123319401Y-94820269D01*
X123319400Y-98815319D01*
X122824194Y-98625612D01*
X122074565Y-98645750D01*
X121720340Y-98792475D01*
X121885000Y-98394950D01*
X121885000Y-97645050D01*
X121598026Y-96952233D01*
X121067767Y-96421974D01*
X120374950Y-96135000D01*
X119625050Y-96135000D01*
X118932233Y-96421974D01*
X118401974Y-96952233D01*
X118115000Y-97645050D01*
X118115000Y-98394950D01*
X118401974Y-99087767D01*
X118932233Y-99618026D01*
X119625050Y-99905000D01*
X120374950Y-99905000D01*
X120781532Y-99736588D01*
X120605612Y-100195806D01*
X120625750Y-100945435D01*
X120873877Y-101544467D01*
X121166680Y-101673715D01*
X122320395Y-100520000D01*
X122306253Y-100505858D01*
X122485858Y-100326253D01*
X122500000Y-100340395D01*
X122514143Y-100326253D01*
X122693748Y-100505858D01*
X122679605Y-100520000D01*
X122693748Y-100534143D01*
X122514143Y-100713748D01*
X122500000Y-100699605D01*
X121346285Y-101853320D01*
X121475533Y-102146123D01*
X121994283Y-102344849D01*
X120607717Y-103731415D01*
X120374950Y-103635000D01*
X119625050Y-103635000D01*
X118932233Y-103921974D01*
X118401974Y-104452233D01*
X118115000Y-105145050D01*
X118115000Y-105894950D01*
X118401974Y-106587767D01*
X118932233Y-107118026D01*
X119625050Y-107405000D01*
X120374950Y-107405000D01*
X121067767Y-107118026D01*
X121598026Y-106587767D01*
X121665000Y-106426077D01*
X121665001Y-108825559D01*
X121432233Y-108921974D01*
X120901974Y-109452233D01*
X120615000Y-110145050D01*
X120615000Y-110894950D01*
X120784741Y-111304741D01*
X120374950Y-111135000D01*
X119625050Y-111135000D01*
X118932233Y-111421974D01*
X118401974Y-111952233D01*
X118115000Y-112645050D01*
X118115000Y-113394950D01*
X118401974Y-114087767D01*
X118932233Y-114618026D01*
X119625050Y-114905000D01*
X120374950Y-114905000D01*
X121067767Y-114618026D01*
X121598026Y-114087767D01*
X121885000Y-113394950D01*
X121885000Y-112645050D01*
X121715259Y-112235259D01*
X122125050Y-112405000D01*
X122874950Y-112405000D01*
X123567767Y-112118026D01*
X124098026Y-111587767D01*
X124385000Y-110894950D01*
X124385000Y-110145050D01*
X124098026Y-109452233D01*
X123567767Y-108921974D01*
X123335000Y-108825559D01*
X123335000Y-106426077D01*
X123401974Y-106587767D01*
X123932233Y-107118026D01*
X124625050Y-107405000D01*
X125374950Y-107405000D01*
X126067767Y-107118026D01*
X126109163Y-107076630D01*
X126875215Y-107842683D01*
X126921799Y-107912401D01*
X127197999Y-108096952D01*
X127441563Y-108145400D01*
X127441566Y-108145400D01*
X127523799Y-108161757D01*
X127606032Y-108145400D01*
X153177867Y-108145400D01*
X153260100Y-108161757D01*
X153342333Y-108145400D01*
X153342337Y-108145400D01*
X153585901Y-108096952D01*
X153862101Y-107912401D01*
X153908687Y-107842680D01*
X154030000Y-107721368D01*
X154144414Y-107835782D01*
X154190999Y-107905501D01*
X154467199Y-108090052D01*
X154793000Y-108154858D01*
X154875237Y-108138500D01*
X155790967Y-108138500D01*
X155873200Y-108154857D01*
X155955433Y-108138500D01*
X155955437Y-108138500D01*
X156199001Y-108090052D01*
X156475201Y-107905501D01*
X156521787Y-107835780D01*
X157055656Y-107301912D01*
X157123853Y-107347480D01*
X154551533Y-109919800D01*
X150372437Y-109919800D01*
X150290200Y-109903442D01*
X150207963Y-109919800D01*
X149964399Y-109968248D01*
X149688199Y-110152799D01*
X149641615Y-110222517D01*
X148698020Y-111166113D01*
X148628299Y-111212699D01*
X148568256Y-111302560D01*
X147860000Y-111302560D01*
X147612235Y-111351843D01*
X147402191Y-111492191D01*
X147261843Y-111702235D01*
X147212560Y-111950000D01*
X147212560Y-113450000D01*
X147261843Y-113697765D01*
X147402191Y-113907809D01*
X147510001Y-113979846D01*
X147510000Y-116459132D01*
X147320705Y-116648428D01*
X147300358Y-116640000D01*
X147152950Y-116640000D01*
X147178474Y-116614476D01*
X147435000Y-115995167D01*
X147435000Y-115324833D01*
X147178474Y-114705524D01*
X146704476Y-114231526D01*
X146085167Y-113975000D01*
X145414833Y-113975000D01*
X144795524Y-114231526D01*
X144380000Y-114647050D01*
X143964476Y-114231526D01*
X143345167Y-113975000D01*
X142674833Y-113975000D01*
X142055524Y-114231526D01*
X141581526Y-114705524D01*
X141325000Y-115324833D01*
X141325000Y-115995167D01*
X141581526Y-116614476D01*
X141611629Y-116644579D01*
X141384542Y-116654421D01*
X140950884Y-116834047D01*
X140867545Y-117087940D01*
X141750000Y-117970395D01*
X141764143Y-117956253D01*
X141943748Y-118135858D01*
X141929605Y-118150000D01*
X142812060Y-119032455D01*
X143065953Y-118949116D01*
X143271590Y-118384694D01*
X143245579Y-117784542D01*
X143065953Y-117350884D01*
X143048027Y-117345000D01*
X143345167Y-117345000D01*
X143964476Y-117088474D01*
X144380000Y-116672950D01*
X144795524Y-117088474D01*
X145414833Y-117345000D01*
X145699030Y-117345000D01*
X145490000Y-117849642D01*
X145490000Y-118450358D01*
X145719884Y-119005346D01*
X145961338Y-119246800D01*
X142621052Y-119246800D01*
X142632455Y-119212060D01*
X141750000Y-118329605D01*
X140867545Y-119212060D01*
X140878948Y-119246800D01*
X138288662Y-119246800D01*
X138530116Y-119005346D01*
X138760000Y-118450358D01*
X138760000Y-117915306D01*
X140228410Y-117915306D01*
X140254421Y-118515458D01*
X140434047Y-118949116D01*
X140687940Y-119032455D01*
X141570395Y-118150000D01*
X140687940Y-117267545D01*
X140434047Y-117350884D01*
X140228410Y-117915306D01*
X138760000Y-117915306D01*
X138760000Y-117849642D01*
X138751572Y-117829295D01*
X139077283Y-117503585D01*
X139147001Y-117457001D01*
X139331552Y-117180801D01*
X139380000Y-116937237D01*
X139380000Y-116937236D01*
X139396358Y-116855000D01*
X139380000Y-116772763D01*
X139380000Y-113979845D01*
X139487809Y-113907809D01*
X139504622Y-113882647D01*
X139610302Y-113988327D01*
X139843691Y-114085000D01*
X140169250Y-114085000D01*
X140328000Y-113926250D01*
X140328000Y-112827000D01*
X140582000Y-112827000D01*
X140582000Y-113926250D01*
X140740750Y-114085000D01*
X141066309Y-114085000D01*
X141299698Y-113988327D01*
X141478327Y-113809699D01*
X141575000Y-113576310D01*
X141575000Y-112985750D01*
X141416250Y-112827000D01*
X140582000Y-112827000D01*
X140328000Y-112827000D01*
X140308000Y-112827000D01*
X140308000Y-112573000D01*
X140328000Y-112573000D01*
X140328000Y-111473750D01*
X140582000Y-111473750D01*
X140582000Y-112573000D01*
X141416250Y-112573000D01*
X141575000Y-112414250D01*
X141575000Y-111823690D01*
X141478327Y-111590301D01*
X141299698Y-111411673D01*
X141066309Y-111315000D01*
X140740750Y-111315000D01*
X140582000Y-111473750D01*
X140328000Y-111473750D01*
X140169250Y-111315000D01*
X139843691Y-111315000D01*
X139610302Y-111411673D01*
X139504622Y-111517353D01*
X139487809Y-111492191D01*
X139277765Y-111351843D01*
X139030000Y-111302560D01*
X138060000Y-111302560D01*
X137812235Y-111351843D01*
X137602191Y-111492191D01*
X137461843Y-111702235D01*
X137412560Y-111950000D01*
X137412560Y-113450000D01*
X137461843Y-113697765D01*
X137602191Y-113907809D01*
X137710001Y-113979846D01*
X137710000Y-116509132D01*
X137570705Y-116648428D01*
X137550358Y-116640000D01*
X137402950Y-116640000D01*
X137428474Y-116614476D01*
X137685000Y-115995167D01*
X137685000Y-115324833D01*
X137428474Y-114705524D01*
X136954476Y-114231526D01*
X136335167Y-113975000D01*
X135664833Y-113975000D01*
X135045524Y-114231526D01*
X134571526Y-114705524D01*
X134315000Y-115324833D01*
X134315000Y-115853232D01*
X132322187Y-113860420D01*
X132275601Y-113790699D01*
X131999401Y-113606148D01*
X131755837Y-113557700D01*
X131755833Y-113557700D01*
X131673600Y-113541343D01*
X131591367Y-113557700D01*
X128349237Y-113557700D01*
X128267000Y-113541342D01*
X128184763Y-113557700D01*
X127941199Y-113606148D01*
X127664999Y-113790699D01*
X127618415Y-113860417D01*
X124977718Y-116501115D01*
X124908000Y-116547699D01*
X124861416Y-116617417D01*
X124723448Y-116823900D01*
X124697349Y-116955107D01*
X124630000Y-117000109D01*
X124557765Y-116951843D01*
X124310000Y-116902560D01*
X123190000Y-116902560D01*
X122942235Y-116951843D01*
X122732191Y-117092191D01*
X122591843Y-117302235D01*
X122563726Y-117443591D01*
X122463899Y-117463448D01*
X122460978Y-117465400D01*
X121035000Y-117465400D01*
X121035000Y-117285750D01*
X120876250Y-117127000D01*
X119627000Y-117127000D01*
X119627000Y-117147000D01*
X119373000Y-117147000D01*
X119373000Y-117127000D01*
X119353000Y-117127000D01*
X119353000Y-116873000D01*
X119373000Y-116873000D01*
X119373000Y-115623750D01*
X119627000Y-115623750D01*
X119627000Y-116873000D01*
X120876250Y-116873000D01*
X121035000Y-116714250D01*
X121035000Y-115973690D01*
X120938327Y-115740301D01*
X120759698Y-115561673D01*
X120526309Y-115465000D01*
X119785750Y-115465000D01*
X119627000Y-115623750D01*
X119373000Y-115623750D01*
X119214250Y-115465000D01*
X118473691Y-115465000D01*
X118240302Y-115561673D01*
X118061673Y-115740301D01*
X118005861Y-115875044D01*
X117829507Y-115698690D01*
X117265330Y-115465000D01*
X116654670Y-115465000D01*
X116090493Y-115698690D01*
X115658690Y-116130493D01*
X115425000Y-116694670D01*
X115425000Y-117305330D01*
X115658690Y-117869507D01*
X116090493Y-118301310D01*
X116654670Y-118535000D01*
X117265330Y-118535000D01*
X117299838Y-118520706D01*
X117611816Y-118832685D01*
X117658399Y-118902401D01*
X117728114Y-118948983D01*
X117728115Y-118948984D01*
X117859170Y-119036552D01*
X117934599Y-119086952D01*
X118178163Y-119135400D01*
X118178166Y-119135400D01*
X118260399Y-119151757D01*
X118342632Y-119135400D01*
X122579438Y-119135400D01*
X122591843Y-119197765D01*
X122732191Y-119407809D01*
X122942235Y-119548157D01*
X123190000Y-119597440D01*
X124310000Y-119597440D01*
X124557765Y-119548157D01*
X124630000Y-119499891D01*
X124702235Y-119548157D01*
X124950000Y-119597440D01*
X126070000Y-119597440D01*
X126317765Y-119548157D01*
X126527809Y-119407809D01*
X126668157Y-119197765D01*
X126717440Y-118950000D01*
X126717440Y-118287347D01*
X127169117Y-119383716D01*
X127176341Y-119394528D01*
X127619809Y-119700586D01*
X129820395Y-117500000D01*
X129806253Y-117485858D01*
X129985858Y-117306253D01*
X130000000Y-117320395D01*
X130014143Y-117306253D01*
X130193748Y-117485858D01*
X130179605Y-117500000D01*
X132380191Y-119700586D01*
X132823659Y-119394528D01*
X133333725Y-118169748D01*
X133335512Y-117235479D01*
X136415031Y-120315000D01*
X131900504Y-120315000D01*
X132200586Y-119880191D01*
X130000000Y-117679605D01*
X127799414Y-119880191D01*
X128099496Y-120315000D01*
X111037095Y-120315000D01*
X110396386Y-120245397D01*
X109820936Y-120051736D01*
X109300490Y-119739021D01*
X108859337Y-119321844D01*
X108518062Y-118819672D01*
X108292579Y-118255925D01*
X108188886Y-117629568D01*
X108185000Y-117490434D01*
X108185000Y-110145050D01*
X108415000Y-110145050D01*
X108415000Y-110894950D01*
X108701974Y-111587767D01*
X109232233Y-112118026D01*
X109925050Y-112405000D01*
X110674950Y-112405000D01*
X111367767Y-112118026D01*
X111898026Y-111587767D01*
X112185000Y-110894950D01*
X112185000Y-110145050D01*
X111898026Y-109452233D01*
X111367767Y-108921974D01*
X110674950Y-108635000D01*
X109925050Y-108635000D01*
X109232233Y-108921974D01*
X108701974Y-109452233D01*
X108415000Y-110145050D01*
X108185000Y-110145050D01*
X108185000Y-100145050D01*
X108415000Y-100145050D01*
X108415000Y-100894950D01*
X108701974Y-101587767D01*
X109232233Y-102118026D01*
X109925050Y-102405000D01*
X110674950Y-102405000D01*
X111367767Y-102118026D01*
X111898026Y-101587767D01*
X112185000Y-100894950D01*
X112185000Y-100145050D01*
X111898026Y-99452233D01*
X111367767Y-98921974D01*
X110674950Y-98635000D01*
X109925050Y-98635000D01*
X109232233Y-98921974D01*
X108701974Y-99452233D01*
X108415000Y-100145050D01*
X108185000Y-100145050D01*
X108185000Y-89945050D01*
X108415000Y-89945050D01*
X108415000Y-90694950D01*
X108701974Y-91387767D01*
X109232233Y-91918026D01*
X109925050Y-92205000D01*
X110674950Y-92205000D01*
X111367767Y-91918026D01*
X111898026Y-91387767D01*
X112185000Y-90694950D01*
X112185000Y-89945050D01*
X111898026Y-89252233D01*
X111367767Y-88721974D01*
X110674950Y-88435000D01*
X109925050Y-88435000D01*
X109232233Y-88721974D01*
X108701974Y-89252233D01*
X108415000Y-89945050D01*
X108185000Y-89945050D01*
X108185000Y-79945050D01*
X108415000Y-79945050D01*
X108415000Y-80694950D01*
X108701974Y-81387767D01*
X109232233Y-81918026D01*
X109925050Y-82205000D01*
X110674950Y-82205000D01*
X111367767Y-81918026D01*
X111632473Y-81653320D01*
X121346285Y-81653320D01*
X121475533Y-81946123D01*
X122175806Y-82214388D01*
X122925435Y-82194250D01*
X123524467Y-81946123D01*
X123653715Y-81653320D01*
X122500000Y-80499605D01*
X121346285Y-81653320D01*
X111632473Y-81653320D01*
X111898026Y-81387767D01*
X112185000Y-80694950D01*
X112185000Y-79945050D01*
X111898026Y-79252233D01*
X111367767Y-78721974D01*
X110674950Y-78435000D01*
X109925050Y-78435000D01*
X109232233Y-78721974D01*
X108701974Y-79252233D01*
X108415000Y-79945050D01*
X108185000Y-79945050D01*
X108185000Y-77445050D01*
X118115000Y-77445050D01*
X118115000Y-78194950D01*
X118401974Y-78887767D01*
X118932233Y-79418026D01*
X119625050Y-79705000D01*
X120374950Y-79705000D01*
X120781532Y-79536588D01*
X120605612Y-79995806D01*
X120625750Y-80745435D01*
X120873877Y-81344467D01*
X121166680Y-81473715D01*
X122320395Y-80320000D01*
X122306253Y-80305858D01*
X122485858Y-80126253D01*
X122500000Y-80140395D01*
X123653715Y-78986680D01*
X123524467Y-78693877D01*
X122824194Y-78425612D01*
X122074565Y-78445750D01*
X121720340Y-78592475D01*
X121885000Y-78194950D01*
X121885000Y-77445050D01*
X121598026Y-76752233D01*
X121067767Y-76221974D01*
X120374950Y-75935000D01*
X119625050Y-75935000D01*
X118932233Y-76221974D01*
X118401974Y-76752233D01*
X118115000Y-77445050D01*
X108185000Y-77445050D01*
X108185000Y-73702060D01*
X110347545Y-73702060D01*
X110430884Y-73955953D01*
X110995306Y-74161590D01*
X111595458Y-74135579D01*
X112029116Y-73955953D01*
X112035000Y-73938027D01*
X112035000Y-74235167D01*
X112291526Y-74854476D01*
X112765524Y-75328474D01*
X113384833Y-75585000D01*
X114055167Y-75585000D01*
X114674476Y-75328474D01*
X115148474Y-74854476D01*
X115405000Y-74235167D01*
X115405000Y-73564833D01*
X115148474Y-72945524D01*
X114674476Y-72471526D01*
X114055167Y-72215000D01*
X113384833Y-72215000D01*
X112765524Y-72471526D01*
X112735421Y-72501629D01*
X112725579Y-72274542D01*
X112545953Y-71840884D01*
X112292060Y-71757545D01*
X111409605Y-72640000D01*
X111423748Y-72654143D01*
X111244143Y-72833748D01*
X111230000Y-72819605D01*
X110347545Y-73702060D01*
X108185000Y-73702060D01*
X108185000Y-72405306D01*
X109708410Y-72405306D01*
X109734421Y-73005458D01*
X109914047Y-73439116D01*
X110167940Y-73522455D01*
X111050395Y-72640000D01*
X110167940Y-71757545D01*
X109914047Y-71840884D01*
X109708410Y-72405306D01*
X108185000Y-72405306D01*
X108185000Y-71577940D01*
X110347545Y-71577940D01*
X111230000Y-72460395D01*
X112049645Y-71640750D01*
X115315000Y-71640750D01*
X115315000Y-71966309D01*
X115411673Y-72199698D01*
X115590301Y-72378327D01*
X115823690Y-72475000D01*
X116414250Y-72475000D01*
X116573000Y-72316250D01*
X116573000Y-71482000D01*
X115473750Y-71482000D01*
X115315000Y-71640750D01*
X112049645Y-71640750D01*
X112112455Y-71577940D01*
X112029116Y-71324047D01*
X111464694Y-71118410D01*
X110864542Y-71144421D01*
X110430884Y-71324047D01*
X110347545Y-71577940D01*
X108185000Y-71577940D01*
X108185000Y-68537095D01*
X108254603Y-67896386D01*
X108448264Y-67320936D01*
X108760977Y-66800491D01*
X109178153Y-66359339D01*
X109680328Y-66018061D01*
X110244074Y-65792579D01*
X110870431Y-65688886D01*
X111009566Y-65685000D01*
X112542050Y-65685000D01*
X112291526Y-65935524D01*
X112291526Y-65935524D01*
G37*
X112291526Y-65935524D02*
X112035000Y-66554833D01*
X112035000Y-66839030D01*
X111530358Y-66630000D01*
X110929642Y-66630000D01*
X110374654Y-66859884D01*
X109949884Y-67284654D01*
X109720000Y-67839642D01*
X109720000Y-68440358D01*
X109949884Y-68995346D01*
X110374654Y-69420116D01*
X110929642Y-69650000D01*
X111530358Y-69650000D01*
X111550705Y-69641572D01*
X111886415Y-69977282D01*
X111932999Y-70047001D01*
X112209199Y-70231552D01*
X112452763Y-70280000D01*
X112535000Y-70296358D01*
X112617237Y-70280000D01*
X115420155Y-70280000D01*
X115492191Y-70387809D01*
X115517353Y-70404622D01*
X115411673Y-70510302D01*
X115315000Y-70743691D01*
X115315000Y-71069250D01*
X115473750Y-71228000D01*
X116573000Y-71228000D01*
X116573000Y-71208000D01*
X116827000Y-71208000D01*
X116827000Y-71228000D01*
X116847000Y-71228000D01*
X116847000Y-71482000D01*
X116827000Y-71482000D01*
X116827000Y-72316250D01*
X116985750Y-72475000D01*
X117576310Y-72475000D01*
X117809699Y-72378327D01*
X117988327Y-72199698D01*
X118071949Y-71997816D01*
X124165000Y-78090869D01*
X124165000Y-79389391D01*
X124126123Y-79295533D01*
X123833320Y-79166285D01*
X122679605Y-80320000D01*
X123833320Y-81473715D01*
X124126123Y-81344467D01*
X124165000Y-81242982D01*
X124165001Y-83625558D01*
X123932233Y-83721974D01*
X123401974Y-84252233D01*
X123115000Y-84945050D01*
X123115000Y-85694950D01*
X123401974Y-86387767D01*
X123932233Y-86918026D01*
X124531700Y-87166333D01*
X124531700Y-91170833D01*
X124288585Y-90927717D01*
X124385000Y-90694950D01*
X124385000Y-89945050D01*
X124098026Y-89252233D01*
X123567767Y-88721974D01*
X122874950Y-88435000D01*
X122125050Y-88435000D01*
X121432233Y-88721974D01*
X120901974Y-89252233D01*
X120835000Y-89413923D01*
X120835000Y-87014441D01*
X121067767Y-86918026D01*
X121598026Y-86387767D01*
X121885000Y-85694950D01*
X121885000Y-84945050D01*
X121598026Y-84252233D01*
X121067767Y-83721974D01*
X120374950Y-83435000D01*
X119625050Y-83435000D01*
X118932233Y-83721974D01*
X118401974Y-84252233D01*
X118115000Y-84945050D01*
X118115000Y-85694950D01*
X118401974Y-86387767D01*
X118932233Y-86918026D01*
X119165001Y-87014441D01*
X119165000Y-90237767D01*
X119148643Y-90320000D01*
X119165000Y-90402233D01*
X119165000Y-90402236D01*
X119213448Y-90645800D01*
X119397999Y-90922001D01*
X119467720Y-90968587D01*
X119490051Y-90990918D01*
X118932233Y-91221974D01*
X118401974Y-91752233D01*
X118115000Y-92445050D01*
X118115000Y-93194950D01*
X118401974Y-93887767D01*
X118932233Y-94418026D01*
X119625050Y-94705000D01*
X120374950Y-94705000D01*
X121067767Y-94418026D01*
X121598026Y-93887767D01*
X121829082Y-93329949D01*
X123319401Y-94820269D01*
X123319400Y-98815319D01*
X122824194Y-98625612D01*
X122074565Y-98645750D01*
X121720340Y-98792475D01*
X121885000Y-98394950D01*
X121885000Y-97645050D01*
X121598026Y-96952233D01*
X121067767Y-96421974D01*
X120374950Y-96135000D01*
X119625050Y-96135000D01*
X118932233Y-96421974D01*
X118401974Y-96952233D01*
X118115000Y-97645050D01*
X118115000Y-98394950D01*
X118401974Y-99087767D01*
X118932233Y-99618026D01*
X119625050Y-99905000D01*
X120374950Y-99905000D01*
X120781532Y-99736588D01*
X120605612Y-100195806D01*
X120625750Y-100945435D01*
X120873877Y-101544467D01*
X121166680Y-101673715D01*
X122320395Y-100520000D01*
X122306253Y-100505858D01*
X122485858Y-100326253D01*
X122500000Y-100340395D01*
X122514143Y-100326253D01*
X122693748Y-100505858D01*
X122679605Y-100520000D01*
X122693748Y-100534143D01*
X122514143Y-100713748D01*
X122500000Y-100699605D01*
X121346285Y-101853320D01*
X121475533Y-102146123D01*
X121994283Y-102344849D01*
X120607717Y-103731415D01*
X120374950Y-103635000D01*
X119625050Y-103635000D01*
X118932233Y-103921974D01*
X118401974Y-104452233D01*
X118115000Y-105145050D01*
X118115000Y-105894950D01*
X118401974Y-106587767D01*
X118932233Y-107118026D01*
X119625050Y-107405000D01*
X120374950Y-107405000D01*
X121067767Y-107118026D01*
X121598026Y-106587767D01*
X121665000Y-106426077D01*
X121665001Y-108825559D01*
X121432233Y-108921974D01*
X120901974Y-109452233D01*
X120615000Y-110145050D01*
X120615000Y-110894950D01*
X120784741Y-111304741D01*
X120374950Y-111135000D01*
X119625050Y-111135000D01*
X118932233Y-111421974D01*
X118401974Y-111952233D01*
X118115000Y-112645050D01*
X118115000Y-113394950D01*
X118401974Y-114087767D01*
X118932233Y-114618026D01*
X119625050Y-114905000D01*
X120374950Y-114905000D01*
X121067767Y-114618026D01*
X121598026Y-114087767D01*
X121885000Y-113394950D01*
X121885000Y-112645050D01*
X121715259Y-112235259D01*
X122125050Y-112405000D01*
X122874950Y-112405000D01*
X123567767Y-112118026D01*
X124098026Y-111587767D01*
X124385000Y-110894950D01*
X124385000Y-110145050D01*
X124098026Y-109452233D01*
X123567767Y-108921974D01*
X123335000Y-108825559D01*
X123335000Y-106426077D01*
X123401974Y-106587767D01*
X123932233Y-107118026D01*
X124625050Y-107405000D01*
X125374950Y-107405000D01*
X126067767Y-107118026D01*
X126109163Y-107076630D01*
X126875215Y-107842683D01*
X126921799Y-107912401D01*
X127197999Y-108096952D01*
X127441563Y-108145400D01*
X127441566Y-108145400D01*
X127523799Y-108161757D01*
X127606032Y-108145400D01*
X153177867Y-108145400D01*
X153260100Y-108161757D01*
X153342333Y-108145400D01*
X153342337Y-108145400D01*
X153585901Y-108096952D01*
X153862101Y-107912401D01*
X153908687Y-107842680D01*
X154030000Y-107721368D01*
X154144414Y-107835782D01*
X154190999Y-107905501D01*
X154467199Y-108090052D01*
X154793000Y-108154858D01*
X154875237Y-108138500D01*
X155790967Y-108138500D01*
X155873200Y-108154857D01*
X155955433Y-108138500D01*
X155955437Y-108138500D01*
X156199001Y-108090052D01*
X156475201Y-107905501D01*
X156521787Y-107835780D01*
X157055656Y-107301912D01*
X157123853Y-107347480D01*
X154551533Y-109919800D01*
X150372437Y-109919800D01*
X150290200Y-109903442D01*
X150207963Y-109919800D01*
X149964399Y-109968248D01*
X149688199Y-110152799D01*
X149641615Y-110222517D01*
X148698020Y-111166113D01*
X148628299Y-111212699D01*
X148568256Y-111302560D01*
X147860000Y-111302560D01*
X147612235Y-111351843D01*
X147402191Y-111492191D01*
X147261843Y-111702235D01*
X147212560Y-111950000D01*
X147212560Y-113450000D01*
X147261843Y-113697765D01*
X147402191Y-113907809D01*
X147510001Y-113979846D01*
X147510000Y-116459132D01*
X147320705Y-116648428D01*
X147300358Y-116640000D01*
X147152950Y-116640000D01*
X147178474Y-116614476D01*
X147435000Y-115995167D01*
X147435000Y-115324833D01*
X147178474Y-114705524D01*
X146704476Y-114231526D01*
X146085167Y-113975000D01*
X145414833Y-113975000D01*
X144795524Y-114231526D01*
X144380000Y-114647050D01*
X143964476Y-114231526D01*
X143345167Y-113975000D01*
X142674833Y-113975000D01*
X142055524Y-114231526D01*
X141581526Y-114705524D01*
X141325000Y-115324833D01*
X141325000Y-115995167D01*
X141581526Y-116614476D01*
X141611629Y-116644579D01*
X141384542Y-116654421D01*
X140950884Y-116834047D01*
X140867545Y-117087940D01*
X141750000Y-117970395D01*
X141764143Y-117956253D01*
X141943748Y-118135858D01*
X141929605Y-118150000D01*
X142812060Y-119032455D01*
X143065953Y-118949116D01*
X143271590Y-118384694D01*
X143245579Y-117784542D01*
X143065953Y-117350884D01*
X143048027Y-117345000D01*
X143345167Y-117345000D01*
X143964476Y-117088474D01*
X144380000Y-116672950D01*
X144795524Y-117088474D01*
X145414833Y-117345000D01*
X145699030Y-117345000D01*
X145490000Y-117849642D01*
X145490000Y-118450358D01*
X145719884Y-119005346D01*
X145961338Y-119246800D01*
X142621052Y-119246800D01*
X142632455Y-119212060D01*
X141750000Y-118329605D01*
X140867545Y-119212060D01*
X140878948Y-119246800D01*
X138288662Y-119246800D01*
X138530116Y-119005346D01*
X138760000Y-118450358D01*
X138760000Y-117915306D01*
X140228410Y-117915306D01*
X140254421Y-118515458D01*
X140434047Y-118949116D01*
X140687940Y-119032455D01*
X141570395Y-118150000D01*
X140687940Y-117267545D01*
X140434047Y-117350884D01*
X140228410Y-117915306D01*
X138760000Y-117915306D01*
X138760000Y-117849642D01*
X138751572Y-117829295D01*
X139077283Y-117503585D01*
X139147001Y-117457001D01*
X139331552Y-117180801D01*
X139380000Y-116937237D01*
X139380000Y-116937236D01*
X139396358Y-116855000D01*
X139380000Y-116772763D01*
X139380000Y-113979845D01*
X139487809Y-113907809D01*
X139504622Y-113882647D01*
X139610302Y-113988327D01*
X139843691Y-114085000D01*
X140169250Y-114085000D01*
X140328000Y-113926250D01*
X140328000Y-112827000D01*
X140582000Y-112827000D01*
X140582000Y-113926250D01*
X140740750Y-114085000D01*
X141066309Y-114085000D01*
X141299698Y-113988327D01*
X141478327Y-113809699D01*
X141575000Y-113576310D01*
X141575000Y-112985750D01*
X141416250Y-112827000D01*
X140582000Y-112827000D01*
X140328000Y-112827000D01*
X140308000Y-112827000D01*
X140308000Y-112573000D01*
X140328000Y-112573000D01*
X140328000Y-111473750D01*
X140582000Y-111473750D01*
X140582000Y-112573000D01*
X141416250Y-112573000D01*
X141575000Y-112414250D01*
X141575000Y-111823690D01*
X141478327Y-111590301D01*
X141299698Y-111411673D01*
X141066309Y-111315000D01*
X140740750Y-111315000D01*
X140582000Y-111473750D01*
X140328000Y-111473750D01*
X140169250Y-111315000D01*
X139843691Y-111315000D01*
X139610302Y-111411673D01*
X139504622Y-111517353D01*
X139487809Y-111492191D01*
X139277765Y-111351843D01*
X139030000Y-111302560D01*
X138060000Y-111302560D01*
X137812235Y-111351843D01*
X137602191Y-111492191D01*
X137461843Y-111702235D01*
X137412560Y-111950000D01*
X137412560Y-113450000D01*
X137461843Y-113697765D01*
X137602191Y-113907809D01*
X137710001Y-113979846D01*
X137710000Y-116509132D01*
X137570705Y-116648428D01*
X137550358Y-116640000D01*
X137402950Y-116640000D01*
X137428474Y-116614476D01*
X137685000Y-115995167D01*
X137685000Y-115324833D01*
X137428474Y-114705524D01*
X136954476Y-114231526D01*
X136335167Y-113975000D01*
X135664833Y-113975000D01*
X135045524Y-114231526D01*
X134571526Y-114705524D01*
X134315000Y-115324833D01*
X134315000Y-115853232D01*
X132322187Y-113860420D01*
X132275601Y-113790699D01*
X131999401Y-113606148D01*
X131755837Y-113557700D01*
X131755833Y-113557700D01*
X131673600Y-113541343D01*
X131591367Y-113557700D01*
X128349237Y-113557700D01*
X128267000Y-113541342D01*
X128184763Y-113557700D01*
X127941199Y-113606148D01*
X127664999Y-113790699D01*
X127618415Y-113860417D01*
X124977718Y-116501115D01*
X124908000Y-116547699D01*
X124861416Y-116617417D01*
X124723448Y-116823900D01*
X124697349Y-116955107D01*
X124630000Y-117000109D01*
X124557765Y-116951843D01*
X124310000Y-116902560D01*
X123190000Y-116902560D01*
X122942235Y-116951843D01*
X122732191Y-117092191D01*
X122591843Y-117302235D01*
X122563726Y-117443591D01*
X122463899Y-117463448D01*
X122460978Y-117465400D01*
X121035000Y-117465400D01*
X121035000Y-117285750D01*
X120876250Y-117127000D01*
X119627000Y-117127000D01*
X119627000Y-117147000D01*
X119373000Y-117147000D01*
X119373000Y-117127000D01*
X119353000Y-117127000D01*
X119353000Y-116873000D01*
X119373000Y-116873000D01*
X119373000Y-115623750D01*
X119627000Y-115623750D01*
X119627000Y-116873000D01*
X120876250Y-116873000D01*
X121035000Y-116714250D01*
X121035000Y-115973690D01*
X120938327Y-115740301D01*
X120759698Y-115561673D01*
X120526309Y-115465000D01*
X119785750Y-115465000D01*
X119627000Y-115623750D01*
X119373000Y-115623750D01*
X119214250Y-115465000D01*
X118473691Y-115465000D01*
X118240302Y-115561673D01*
X118061673Y-115740301D01*
X118005861Y-115875044D01*
X117829507Y-115698690D01*
X117265330Y-115465000D01*
X116654670Y-115465000D01*
X116090493Y-115698690D01*
X115658690Y-116130493D01*
X115425000Y-116694670D01*
X115425000Y-117305330D01*
X115658690Y-117869507D01*
X116090493Y-118301310D01*
X116654670Y-118535000D01*
X117265330Y-118535000D01*
X117299838Y-118520706D01*
X117611816Y-118832685D01*
X117658399Y-118902401D01*
X117728114Y-118948983D01*
X117728115Y-118948984D01*
X117859170Y-119036552D01*
X117934599Y-119086952D01*
X118178163Y-119135400D01*
X118178166Y-119135400D01*
X118260399Y-119151757D01*
X118342632Y-119135400D01*
X122579438Y-119135400D01*
X122591843Y-119197765D01*
X122732191Y-119407809D01*
X122942235Y-119548157D01*
X123190000Y-119597440D01*
X124310000Y-119597440D01*
X124557765Y-119548157D01*
X124630000Y-119499891D01*
X124702235Y-119548157D01*
X124950000Y-119597440D01*
X126070000Y-119597440D01*
X126317765Y-119548157D01*
X126527809Y-119407809D01*
X126668157Y-119197765D01*
X126717440Y-118950000D01*
X126717440Y-118287347D01*
X127169117Y-119383716D01*
X127176341Y-119394528D01*
X127619809Y-119700586D01*
X129820395Y-117500000D01*
X129806253Y-117485858D01*
X129985858Y-117306253D01*
X130000000Y-117320395D01*
X130014143Y-117306253D01*
X130193748Y-117485858D01*
X130179605Y-117500000D01*
X132380191Y-119700586D01*
X132823659Y-119394528D01*
X133333725Y-118169748D01*
X133335512Y-117235479D01*
X136415031Y-120315000D01*
X131900504Y-120315000D01*
X132200586Y-119880191D01*
X130000000Y-117679605D01*
X127799414Y-119880191D01*
X128099496Y-120315000D01*
X111037095Y-120315000D01*
X110396386Y-120245397D01*
X109820936Y-120051736D01*
X109300490Y-119739021D01*
X108859337Y-119321844D01*
X108518062Y-118819672D01*
X108292579Y-118255925D01*
X108188886Y-117629568D01*
X108185000Y-117490434D01*
X108185000Y-110145050D01*
X108415000Y-110145050D01*
X108415000Y-110894950D01*
X108701974Y-111587767D01*
X109232233Y-112118026D01*
X109925050Y-112405000D01*
X110674950Y-112405000D01*
X111367767Y-112118026D01*
X111898026Y-111587767D01*
X112185000Y-110894950D01*
X112185000Y-110145050D01*
X111898026Y-109452233D01*
X111367767Y-108921974D01*
X110674950Y-108635000D01*
X109925050Y-108635000D01*
X109232233Y-108921974D01*
X108701974Y-109452233D01*
X108415000Y-110145050D01*
X108185000Y-110145050D01*
X108185000Y-100145050D01*
X108415000Y-100145050D01*
X108415000Y-100894950D01*
X108701974Y-101587767D01*
X109232233Y-102118026D01*
X109925050Y-102405000D01*
X110674950Y-102405000D01*
X111367767Y-102118026D01*
X111898026Y-101587767D01*
X112185000Y-100894950D01*
X112185000Y-100145050D01*
X111898026Y-99452233D01*
X111367767Y-98921974D01*
X110674950Y-98635000D01*
X109925050Y-98635000D01*
X109232233Y-98921974D01*
X108701974Y-99452233D01*
X108415000Y-100145050D01*
X108185000Y-100145050D01*
X108185000Y-89945050D01*
X108415000Y-89945050D01*
X108415000Y-90694950D01*
X108701974Y-91387767D01*
X109232233Y-91918026D01*
X109925050Y-92205000D01*
X110674950Y-92205000D01*
X111367767Y-91918026D01*
X111898026Y-91387767D01*
X112185000Y-90694950D01*
X112185000Y-89945050D01*
X111898026Y-89252233D01*
X111367767Y-88721974D01*
X110674950Y-88435000D01*
X109925050Y-88435000D01*
X109232233Y-88721974D01*
X108701974Y-89252233D01*
X108415000Y-89945050D01*
X108185000Y-89945050D01*
X108185000Y-79945050D01*
X108415000Y-79945050D01*
X108415000Y-80694950D01*
X108701974Y-81387767D01*
X109232233Y-81918026D01*
X109925050Y-82205000D01*
X110674950Y-82205000D01*
X111367767Y-81918026D01*
X111632473Y-81653320D01*
X121346285Y-81653320D01*
X121475533Y-81946123D01*
X122175806Y-82214388D01*
X122925435Y-82194250D01*
X123524467Y-81946123D01*
X123653715Y-81653320D01*
X122500000Y-80499605D01*
X121346285Y-81653320D01*
X111632473Y-81653320D01*
X111898026Y-81387767D01*
X112185000Y-80694950D01*
X112185000Y-79945050D01*
X111898026Y-79252233D01*
X111367767Y-78721974D01*
X110674950Y-78435000D01*
X109925050Y-78435000D01*
X109232233Y-78721974D01*
X108701974Y-79252233D01*
X108415000Y-79945050D01*
X108185000Y-79945050D01*
X108185000Y-77445050D01*
X118115000Y-77445050D01*
X118115000Y-78194950D01*
X118401974Y-78887767D01*
X118932233Y-79418026D01*
X119625050Y-79705000D01*
X120374950Y-79705000D01*
X120781532Y-79536588D01*
X120605612Y-79995806D01*
X120625750Y-80745435D01*
X120873877Y-81344467D01*
X121166680Y-81473715D01*
X122320395Y-80320000D01*
X122306253Y-80305858D01*
X122485858Y-80126253D01*
X122500000Y-80140395D01*
X123653715Y-78986680D01*
X123524467Y-78693877D01*
X122824194Y-78425612D01*
X122074565Y-78445750D01*
X121720340Y-78592475D01*
X121885000Y-78194950D01*
X121885000Y-77445050D01*
X121598026Y-76752233D01*
X121067767Y-76221974D01*
X120374950Y-75935000D01*
X119625050Y-75935000D01*
X118932233Y-76221974D01*
X118401974Y-76752233D01*
X118115000Y-77445050D01*
X108185000Y-77445050D01*
X108185000Y-73702060D01*
X110347545Y-73702060D01*
X110430884Y-73955953D01*
X110995306Y-74161590D01*
X111595458Y-74135579D01*
X112029116Y-73955953D01*
X112035000Y-73938027D01*
X112035000Y-74235167D01*
X112291526Y-74854476D01*
X112765524Y-75328474D01*
X113384833Y-75585000D01*
X114055167Y-75585000D01*
X114674476Y-75328474D01*
X115148474Y-74854476D01*
X115405000Y-74235167D01*
X115405000Y-73564833D01*
X115148474Y-72945524D01*
X114674476Y-72471526D01*
X114055167Y-72215000D01*
X113384833Y-72215000D01*
X112765524Y-72471526D01*
X112735421Y-72501629D01*
X112725579Y-72274542D01*
X112545953Y-71840884D01*
X112292060Y-71757545D01*
X111409605Y-72640000D01*
X111423748Y-72654143D01*
X111244143Y-72833748D01*
X111230000Y-72819605D01*
X110347545Y-73702060D01*
X108185000Y-73702060D01*
X108185000Y-72405306D01*
X109708410Y-72405306D01*
X109734421Y-73005458D01*
X109914047Y-73439116D01*
X110167940Y-73522455D01*
X111050395Y-72640000D01*
X110167940Y-71757545D01*
X109914047Y-71840884D01*
X109708410Y-72405306D01*
X108185000Y-72405306D01*
X108185000Y-71577940D01*
X110347545Y-71577940D01*
X111230000Y-72460395D01*
X112049645Y-71640750D01*
X115315000Y-71640750D01*
X115315000Y-71966309D01*
X115411673Y-72199698D01*
X115590301Y-72378327D01*
X115823690Y-72475000D01*
X116414250Y-72475000D01*
X116573000Y-72316250D01*
X116573000Y-71482000D01*
X115473750Y-71482000D01*
X115315000Y-71640750D01*
X112049645Y-71640750D01*
X112112455Y-71577940D01*
X112029116Y-71324047D01*
X111464694Y-71118410D01*
X110864542Y-71144421D01*
X110430884Y-71324047D01*
X110347545Y-71577940D01*
X108185000Y-71577940D01*
X108185000Y-68537095D01*
X108254603Y-67896386D01*
X108448264Y-67320936D01*
X108760977Y-66800491D01*
X109178153Y-66359339D01*
X109680328Y-66018061D01*
X110244074Y-65792579D01*
X110870431Y-65688886D01*
X111009566Y-65685000D01*
X112542050Y-65685000D01*
X112291526Y-65935524D01*
G36*
X185799414Y-66119809D02*
X188000000Y-68320395D01*
X188014143Y-68306253D01*
X188193748Y-68485858D01*
X188179605Y-68500000D01*
X190380191Y-70700586D01*
X190815001Y-70400503D01*
X190815000Y-115599496D01*
X190380191Y-115299414D01*
X188179605Y-117500000D01*
X188193748Y-117514143D01*
X188014143Y-117693748D01*
X188000000Y-117679605D01*
X185799414Y-119880191D01*
X186099496Y-120315000D01*
X177083667Y-120315000D01*
X178186608Y-119212060D01*
X179867545Y-119212060D01*
X179950884Y-119465953D01*
X180515306Y-119671590D01*
X181115458Y-119645579D01*
X181549116Y-119465953D01*
X181632455Y-119212060D01*
X180750000Y-118329605D01*
X179867545Y-119212060D01*
X178186608Y-119212060D01*
X179201886Y-118196783D01*
X179239520Y-118171637D01*
X179254421Y-118515458D01*
X179434047Y-118949116D01*
X179687940Y-119032455D01*
X180570395Y-118150000D01*
X179687940Y-117267545D01*
X179504600Y-117327725D01*
X179504600Y-117087940D01*
X179867545Y-117087940D01*
X180750000Y-117970395D01*
X180764143Y-117956253D01*
X180943748Y-118135858D01*
X180929605Y-118150000D01*
X181812060Y-119032455D01*
X182065953Y-118949116D01*
X182271590Y-118384694D01*
X182261722Y-118156995D01*
X184663738Y-118156995D01*
X185169117Y-119383716D01*
X185176341Y-119394528D01*
X185619809Y-119700586D01*
X187820395Y-117500000D01*
X185619809Y-115299414D01*
X185176341Y-115605472D01*
X184666275Y-116830252D01*
X184663738Y-118156995D01*
X182261722Y-118156995D01*
X182245579Y-117784542D01*
X182065953Y-117350884D01*
X182048027Y-117345000D01*
X182345167Y-117345000D01*
X182964476Y-117088474D01*
X183438474Y-116614476D01*
X183695000Y-115995167D01*
X183695000Y-115324833D01*
X183610077Y-115119809D01*
X185799414Y-115119809D01*
X188000000Y-117320395D01*
X190200586Y-115119809D01*
X189894528Y-114676341D01*
X188669748Y-114166275D01*
X187343005Y-114163738D01*
X186116284Y-114669117D01*
X186105472Y-114676341D01*
X185799414Y-115119809D01*
X183610077Y-115119809D01*
X183438474Y-114705524D01*
X182964476Y-114231526D01*
X182345167Y-113975000D01*
X181674833Y-113975000D01*
X181055524Y-114231526D01*
X180581526Y-114705524D01*
X180325000Y-115324833D01*
X180325000Y-115995167D01*
X180581526Y-116614476D01*
X180611629Y-116644579D01*
X180384542Y-116654421D01*
X179950884Y-116834047D01*
X179867545Y-117087940D01*
X179504600Y-117087940D01*
X179504600Y-112827000D01*
X179682000Y-112827000D01*
X179682000Y-113926250D01*
X179840750Y-114085000D01*
X180166309Y-114085000D01*
X180399698Y-113988327D01*
X180578327Y-113809699D01*
X180675000Y-113576310D01*
X180675000Y-112985750D01*
X180516250Y-112827000D01*
X179682000Y-112827000D01*
X179504600Y-112827000D01*
X179504600Y-111473750D01*
X179682000Y-111473750D01*
X179682000Y-112573000D01*
X180516250Y-112573000D01*
X180675000Y-112414250D01*
X180675000Y-111823690D01*
X180578327Y-111590301D01*
X180399698Y-111411673D01*
X180166309Y-111315000D01*
X179840750Y-111315000D01*
X179682000Y-111473750D01*
X179504600Y-111473750D01*
X179504600Y-109666667D01*
X182261083Y-106910185D01*
X182330801Y-106863601D01*
X182515352Y-106587401D01*
X182563800Y-106343837D01*
X182563800Y-106343834D01*
X182580157Y-106261601D01*
X182563800Y-106179368D01*
X182563800Y-103605750D01*
X183820000Y-103605750D01*
X183820000Y-104371309D01*
X183916673Y-104604698D01*
X184095301Y-104783327D01*
X184328690Y-104880000D01*
X185094250Y-104880000D01*
X185253000Y-104721250D01*
X185253000Y-103447000D01*
X185507000Y-103447000D01*
X185507000Y-104721250D01*
X185665750Y-104880000D01*
X186431310Y-104880000D01*
X186664699Y-104783327D01*
X186843327Y-104604698D01*
X186940000Y-104371309D01*
X186940000Y-103605750D01*
X186781250Y-103447000D01*
X185507000Y-103447000D01*
X185253000Y-103447000D01*
X183978750Y-103447000D01*
X183820000Y-103605750D01*
X182563800Y-103605750D01*
X182563800Y-102268691D01*
X183820000Y-102268691D01*
X183820000Y-103034250D01*
X183978750Y-103193000D01*
X185253000Y-103193000D01*
X185253000Y-101918750D01*
X185507000Y-101918750D01*
X185507000Y-103193000D01*
X186781250Y-103193000D01*
X186940000Y-103034250D01*
X186940000Y-102268691D01*
X186843327Y-102035302D01*
X186664699Y-101856673D01*
X186431310Y-101760000D01*
X185665750Y-101760000D01*
X185507000Y-101918750D01*
X185253000Y-101918750D01*
X185094250Y-101760000D01*
X184328690Y-101760000D01*
X184095301Y-101856673D01*
X183916673Y-102035302D01*
X183820000Y-102268691D01*
X182563800Y-102268691D01*
X182563800Y-101851932D01*
X182580157Y-101769699D01*
X182563800Y-101687466D01*
X182563800Y-101687463D01*
X182515352Y-101443899D01*
X182330801Y-101167699D01*
X182261083Y-101121115D01*
X180165300Y-99025333D01*
X180165300Y-71183647D01*
X180473744Y-71245000D01*
X180766256Y-71245000D01*
X181199418Y-71158839D01*
X181690625Y-70830625D01*
X181903843Y-70511522D01*
X181964817Y-70641358D01*
X182393076Y-71031645D01*
X182803110Y-71201476D01*
X183033000Y-71080155D01*
X183033000Y-69887000D01*
X183287000Y-69887000D01*
X183287000Y-71080155D01*
X183516890Y-71201476D01*
X183926924Y-71031645D01*
X184093113Y-70880191D01*
X185799414Y-70880191D01*
X186105472Y-71323659D01*
X187330252Y-71833725D01*
X188656995Y-71836262D01*
X189883716Y-71330883D01*
X189894528Y-71323659D01*
X190200586Y-70880191D01*
X188000000Y-68679605D01*
X185799414Y-70880191D01*
X184093113Y-70880191D01*
X184355183Y-70641358D01*
X184601486Y-70116892D01*
X184480819Y-69887000D01*
X183287000Y-69887000D01*
X183033000Y-69887000D01*
X183013000Y-69887000D01*
X183013000Y-69633000D01*
X183033000Y-69633000D01*
X183033000Y-69613000D01*
X183287000Y-69613000D01*
X183287000Y-69633000D01*
X184480819Y-69633000D01*
X184601486Y-69403108D01*
X184485905Y-69156995D01*
X184663738Y-69156995D01*
X185169117Y-70383716D01*
X185176341Y-70394528D01*
X185619809Y-70700586D01*
X187820395Y-68500000D01*
X185619809Y-66299414D01*
X185176341Y-66605472D01*
X184666275Y-67830252D01*
X184663738Y-69156995D01*
X184485905Y-69156995D01*
X184355183Y-68878642D01*
X183930214Y-68491353D01*
X184230625Y-68290625D01*
X184558839Y-67799418D01*
X184674092Y-67220000D01*
X184558839Y-66640582D01*
X184230625Y-66149375D01*
X183739418Y-65821161D01*
X183306256Y-65735000D01*
X183013744Y-65735000D01*
X182580582Y-65821161D01*
X182089375Y-66149375D01*
X181890000Y-66447761D01*
X181690625Y-66149375D01*
X181199418Y-65821161D01*
X180766256Y-65735000D01*
X180473744Y-65735000D01*
X180040582Y-65821161D01*
X179549375Y-66149375D01*
X179350000Y-66447761D01*
X179150625Y-66149375D01*
X178659418Y-65821161D01*
X178226256Y-65735000D01*
X177933744Y-65735000D01*
X177500582Y-65821161D01*
X177009375Y-66149375D01*
X176796157Y-66468478D01*
X176735183Y-66338642D01*
X176306924Y-65948355D01*
X175896890Y-65778524D01*
X175667000Y-65899845D01*
X175667000Y-67093000D01*
X175687000Y-67093000D01*
X175687000Y-67347000D01*
X175667000Y-67347000D01*
X175667000Y-67367000D01*
X175413000Y-67367000D01*
X175413000Y-67347000D01*
X175393000Y-67347000D01*
X175393000Y-67093000D01*
X175413000Y-67093000D01*
X175413000Y-65899845D01*
X175183110Y-65778524D01*
X174773076Y-65948355D01*
X174344817Y-66338642D01*
X174283843Y-66468478D01*
X174070625Y-66149375D01*
X173579418Y-65821161D01*
X173146256Y-65735000D01*
X172853744Y-65735000D01*
X172420582Y-65821161D01*
X171929375Y-66149375D01*
X171716157Y-66468478D01*
X171655183Y-66338642D01*
X171226924Y-65948355D01*
X170816890Y-65778524D01*
X170587000Y-65899845D01*
X170587000Y-67093000D01*
X170607000Y-67093000D01*
X170607000Y-67347000D01*
X170587000Y-67347000D01*
X170587000Y-67367000D01*
X170333000Y-67367000D01*
X170333000Y-67347000D01*
X170313000Y-67347000D01*
X170313000Y-67093000D01*
X170333000Y-67093000D01*
X170333000Y-65899845D01*
X170103110Y-65778524D01*
X169693076Y-65948355D01*
X169264817Y-66338642D01*
X169203843Y-66468478D01*
X168990625Y-66149375D01*
X168499418Y-65821161D01*
X168066256Y-65735000D01*
X167773744Y-65735000D01*
X167340582Y-65821161D01*
X166849375Y-66149375D01*
X166650000Y-66447761D01*
X166450625Y-66149375D01*
X165959418Y-65821161D01*
X165526256Y-65735000D01*
X165233744Y-65735000D01*
X164800582Y-65821161D01*
X164309375Y-66149375D01*
X164110000Y-66447761D01*
X163910625Y-66149375D01*
X163419418Y-65821161D01*
X162986256Y-65735000D01*
X162693744Y-65735000D01*
X162260582Y-65821161D01*
X161769375Y-66149375D01*
X161570000Y-66447761D01*
X161370625Y-66149375D01*
X160879418Y-65821161D01*
X160446256Y-65735000D01*
X160153744Y-65735000D01*
X159720582Y-65821161D01*
X159229375Y-66149375D01*
X159016157Y-66468478D01*
X158955183Y-66338642D01*
X158526924Y-65948355D01*
X158116890Y-65778524D01*
X157887000Y-65899845D01*
X157887000Y-67093000D01*
X157907000Y-67093000D01*
X157907000Y-67347000D01*
X157887000Y-67347000D01*
X157887000Y-67367000D01*
X157633000Y-67367000D01*
X157633000Y-67347000D01*
X157613000Y-67347000D01*
X157613000Y-67093000D01*
X157633000Y-67093000D01*
X157633000Y-65899845D01*
X157403110Y-65778524D01*
X156993076Y-65948355D01*
X156564817Y-66338642D01*
X156503843Y-66468478D01*
X156290625Y-66149375D01*
X155799418Y-65821161D01*
X155366256Y-65735000D01*
X155073744Y-65735000D01*
X154640582Y-65821161D01*
X154433798Y-65959330D01*
X154159468Y-65685000D01*
X186099496Y-65685000D01*
X185799414Y-66119809D01*
X185799414Y-66119809D01*
G37*
X185799414Y-66119809D02*
X188000000Y-68320395D01*
X188014143Y-68306253D01*
X188193748Y-68485858D01*
X188179605Y-68500000D01*
X190380191Y-70700586D01*
X190815001Y-70400503D01*
X190815000Y-115599496D01*
X190380191Y-115299414D01*
X188179605Y-117500000D01*
X188193748Y-117514143D01*
X188014143Y-117693748D01*
X188000000Y-117679605D01*
X185799414Y-119880191D01*
X186099496Y-120315000D01*
X177083667Y-120315000D01*
X178186608Y-119212060D01*
X179867545Y-119212060D01*
X179950884Y-119465953D01*
X180515306Y-119671590D01*
X181115458Y-119645579D01*
X181549116Y-119465953D01*
X181632455Y-119212060D01*
X180750000Y-118329605D01*
X179867545Y-119212060D01*
X178186608Y-119212060D01*
X179201886Y-118196783D01*
X179239520Y-118171637D01*
X179254421Y-118515458D01*
X179434047Y-118949116D01*
X179687940Y-119032455D01*
X180570395Y-118150000D01*
X179687940Y-117267545D01*
X179504600Y-117327725D01*
X179504600Y-117087940D01*
X179867545Y-117087940D01*
X180750000Y-117970395D01*
X180764143Y-117956253D01*
X180943748Y-118135858D01*
X180929605Y-118150000D01*
X181812060Y-119032455D01*
X182065953Y-118949116D01*
X182271590Y-118384694D01*
X182261722Y-118156995D01*
X184663738Y-118156995D01*
X185169117Y-119383716D01*
X185176341Y-119394528D01*
X185619809Y-119700586D01*
X187820395Y-117500000D01*
X185619809Y-115299414D01*
X185176341Y-115605472D01*
X184666275Y-116830252D01*
X184663738Y-118156995D01*
X182261722Y-118156995D01*
X182245579Y-117784542D01*
X182065953Y-117350884D01*
X182048027Y-117345000D01*
X182345167Y-117345000D01*
X182964476Y-117088474D01*
X183438474Y-116614476D01*
X183695000Y-115995167D01*
X183695000Y-115324833D01*
X183610077Y-115119809D01*
X185799414Y-115119809D01*
X188000000Y-117320395D01*
X190200586Y-115119809D01*
X189894528Y-114676341D01*
X188669748Y-114166275D01*
X187343005Y-114163738D01*
X186116284Y-114669117D01*
X186105472Y-114676341D01*
X185799414Y-115119809D01*
X183610077Y-115119809D01*
X183438474Y-114705524D01*
X182964476Y-114231526D01*
X182345167Y-113975000D01*
X181674833Y-113975000D01*
X181055524Y-114231526D01*
X180581526Y-114705524D01*
X180325000Y-115324833D01*
X180325000Y-115995167D01*
X180581526Y-116614476D01*
X180611629Y-116644579D01*
X180384542Y-116654421D01*
X179950884Y-116834047D01*
X179867545Y-117087940D01*
X179504600Y-117087940D01*
X179504600Y-112827000D01*
X179682000Y-112827000D01*
X179682000Y-113926250D01*
X179840750Y-114085000D01*
X180166309Y-114085000D01*
X180399698Y-113988327D01*
X180578327Y-113809699D01*
X180675000Y-113576310D01*
X180675000Y-112985750D01*
X180516250Y-112827000D01*
X179682000Y-112827000D01*
X179504600Y-112827000D01*
X179504600Y-111473750D01*
X179682000Y-111473750D01*
X179682000Y-112573000D01*
X180516250Y-112573000D01*
X180675000Y-112414250D01*
X180675000Y-111823690D01*
X180578327Y-111590301D01*
X180399698Y-111411673D01*
X180166309Y-111315000D01*
X179840750Y-111315000D01*
X179682000Y-111473750D01*
X179504600Y-111473750D01*
X179504600Y-109666667D01*
X182261083Y-106910185D01*
X182330801Y-106863601D01*
X182515352Y-106587401D01*
X182563800Y-106343837D01*
X182563800Y-106343834D01*
X182580157Y-106261601D01*
X182563800Y-106179368D01*
X182563800Y-103605750D01*
X183820000Y-103605750D01*
X183820000Y-104371309D01*
X183916673Y-104604698D01*
X184095301Y-104783327D01*
X184328690Y-104880000D01*
X185094250Y-104880000D01*
X185253000Y-104721250D01*
X185253000Y-103447000D01*
X185507000Y-103447000D01*
X185507000Y-104721250D01*
X185665750Y-104880000D01*
X186431310Y-104880000D01*
X186664699Y-104783327D01*
X186843327Y-104604698D01*
X186940000Y-104371309D01*
X186940000Y-103605750D01*
X186781250Y-103447000D01*
X185507000Y-103447000D01*
X185253000Y-103447000D01*
X183978750Y-103447000D01*
X183820000Y-103605750D01*
X182563800Y-103605750D01*
X182563800Y-102268691D01*
X183820000Y-102268691D01*
X183820000Y-103034250D01*
X183978750Y-103193000D01*
X185253000Y-103193000D01*
X185253000Y-101918750D01*
X185507000Y-101918750D01*
X185507000Y-103193000D01*
X186781250Y-103193000D01*
X186940000Y-103034250D01*
X186940000Y-102268691D01*
X186843327Y-102035302D01*
X186664699Y-101856673D01*
X186431310Y-101760000D01*
X185665750Y-101760000D01*
X185507000Y-101918750D01*
X185253000Y-101918750D01*
X185094250Y-101760000D01*
X184328690Y-101760000D01*
X184095301Y-101856673D01*
X183916673Y-102035302D01*
X183820000Y-102268691D01*
X182563800Y-102268691D01*
X182563800Y-101851932D01*
X182580157Y-101769699D01*
X182563800Y-101687466D01*
X182563800Y-101687463D01*
X182515352Y-101443899D01*
X182330801Y-101167699D01*
X182261083Y-101121115D01*
X180165300Y-99025333D01*
X180165300Y-71183647D01*
X180473744Y-71245000D01*
X180766256Y-71245000D01*
X181199418Y-71158839D01*
X181690625Y-70830625D01*
X181903843Y-70511522D01*
X181964817Y-70641358D01*
X182393076Y-71031645D01*
X182803110Y-71201476D01*
X183033000Y-71080155D01*
X183033000Y-69887000D01*
X183287000Y-69887000D01*
X183287000Y-71080155D01*
X183516890Y-71201476D01*
X183926924Y-71031645D01*
X184093113Y-70880191D01*
X185799414Y-70880191D01*
X186105472Y-71323659D01*
X187330252Y-71833725D01*
X188656995Y-71836262D01*
X189883716Y-71330883D01*
X189894528Y-71323659D01*
X190200586Y-70880191D01*
X188000000Y-68679605D01*
X185799414Y-70880191D01*
X184093113Y-70880191D01*
X184355183Y-70641358D01*
X184601486Y-70116892D01*
X184480819Y-69887000D01*
X183287000Y-69887000D01*
X183033000Y-69887000D01*
X183013000Y-69887000D01*
X183013000Y-69633000D01*
X183033000Y-69633000D01*
X183033000Y-69613000D01*
X183287000Y-69613000D01*
X183287000Y-69633000D01*
X184480819Y-69633000D01*
X184601486Y-69403108D01*
X184485905Y-69156995D01*
X184663738Y-69156995D01*
X185169117Y-70383716D01*
X185176341Y-70394528D01*
X185619809Y-70700586D01*
X187820395Y-68500000D01*
X185619809Y-66299414D01*
X185176341Y-66605472D01*
X184666275Y-67830252D01*
X184663738Y-69156995D01*
X184485905Y-69156995D01*
X184355183Y-68878642D01*
X183930214Y-68491353D01*
X184230625Y-68290625D01*
X184558839Y-67799418D01*
X184674092Y-67220000D01*
X184558839Y-66640582D01*
X184230625Y-66149375D01*
X183739418Y-65821161D01*
X183306256Y-65735000D01*
X183013744Y-65735000D01*
X182580582Y-65821161D01*
X182089375Y-66149375D01*
X181890000Y-66447761D01*
X181690625Y-66149375D01*
X181199418Y-65821161D01*
X180766256Y-65735000D01*
X180473744Y-65735000D01*
X180040582Y-65821161D01*
X179549375Y-66149375D01*
X179350000Y-66447761D01*
X179150625Y-66149375D01*
X178659418Y-65821161D01*
X178226256Y-65735000D01*
X177933744Y-65735000D01*
X177500582Y-65821161D01*
X177009375Y-66149375D01*
X176796157Y-66468478D01*
X176735183Y-66338642D01*
X176306924Y-65948355D01*
X175896890Y-65778524D01*
X175667000Y-65899845D01*
X175667000Y-67093000D01*
X175687000Y-67093000D01*
X175687000Y-67347000D01*
X175667000Y-67347000D01*
X175667000Y-67367000D01*
X175413000Y-67367000D01*
X175413000Y-67347000D01*
X175393000Y-67347000D01*
X175393000Y-67093000D01*
X175413000Y-67093000D01*
X175413000Y-65899845D01*
X175183110Y-65778524D01*
X174773076Y-65948355D01*
X174344817Y-66338642D01*
X174283843Y-66468478D01*
X174070625Y-66149375D01*
X173579418Y-65821161D01*
X173146256Y-65735000D01*
X172853744Y-65735000D01*
X172420582Y-65821161D01*
X171929375Y-66149375D01*
X171716157Y-66468478D01*
X171655183Y-66338642D01*
X171226924Y-65948355D01*
X170816890Y-65778524D01*
X170587000Y-65899845D01*
X170587000Y-67093000D01*
X170607000Y-67093000D01*
X170607000Y-67347000D01*
X170587000Y-67347000D01*
X170587000Y-67367000D01*
X170333000Y-67367000D01*
X170333000Y-67347000D01*
X170313000Y-67347000D01*
X170313000Y-67093000D01*
X170333000Y-67093000D01*
X170333000Y-65899845D01*
X170103110Y-65778524D01*
X169693076Y-65948355D01*
X169264817Y-66338642D01*
X169203843Y-66468478D01*
X168990625Y-66149375D01*
X168499418Y-65821161D01*
X168066256Y-65735000D01*
X167773744Y-65735000D01*
X167340582Y-65821161D01*
X166849375Y-66149375D01*
X166650000Y-66447761D01*
X166450625Y-66149375D01*
X165959418Y-65821161D01*
X165526256Y-65735000D01*
X165233744Y-65735000D01*
X164800582Y-65821161D01*
X164309375Y-66149375D01*
X164110000Y-66447761D01*
X163910625Y-66149375D01*
X163419418Y-65821161D01*
X162986256Y-65735000D01*
X162693744Y-65735000D01*
X162260582Y-65821161D01*
X161769375Y-66149375D01*
X161570000Y-66447761D01*
X161370625Y-66149375D01*
X160879418Y-65821161D01*
X160446256Y-65735000D01*
X160153744Y-65735000D01*
X159720582Y-65821161D01*
X159229375Y-66149375D01*
X159016157Y-66468478D01*
X158955183Y-66338642D01*
X158526924Y-65948355D01*
X158116890Y-65778524D01*
X157887000Y-65899845D01*
X157887000Y-67093000D01*
X157907000Y-67093000D01*
X157907000Y-67347000D01*
X157887000Y-67347000D01*
X157887000Y-67367000D01*
X157633000Y-67367000D01*
X157633000Y-67347000D01*
X157613000Y-67347000D01*
X157613000Y-67093000D01*
X157633000Y-67093000D01*
X157633000Y-65899845D01*
X157403110Y-65778524D01*
X156993076Y-65948355D01*
X156564817Y-66338642D01*
X156503843Y-66468478D01*
X156290625Y-66149375D01*
X155799418Y-65821161D01*
X155366256Y-65735000D01*
X155073744Y-65735000D01*
X154640582Y-65821161D01*
X154433798Y-65959330D01*
X154159468Y-65685000D01*
X186099496Y-65685000D01*
X185799414Y-66119809D01*
G36*
X165507000Y-69633000D02*
X165527000Y-69633000D01*
X165527000Y-69887000D01*
X165507000Y-69887000D01*
X165507000Y-71080155D01*
X165736890Y-71201476D01*
X166146924Y-71031645D01*
X166575183Y-70641358D01*
X166636157Y-70511522D01*
X166849375Y-70830625D01*
X167340582Y-71158839D01*
X167773744Y-71245000D01*
X168066256Y-71245000D01*
X168499418Y-71158839D01*
X168990625Y-70830625D01*
X169190000Y-70532239D01*
X169389375Y-70830625D01*
X169625000Y-70988065D01*
X169625001Y-105875362D01*
X169608643Y-105957600D01*
X169673448Y-106283400D01*
X169673449Y-106283401D01*
X169858000Y-106559601D01*
X169927718Y-106606185D01*
X176367400Y-113045868D01*
X176367400Y-114644450D01*
X175954476Y-114231526D01*
X175335167Y-113975000D01*
X174664833Y-113975000D01*
X174045524Y-114231526D01*
X173630000Y-114647050D01*
X173214476Y-114231526D01*
X172595167Y-113975000D01*
X171924833Y-113975000D01*
X171305524Y-114231526D01*
X170831526Y-114705524D01*
X170575000Y-115324833D01*
X170575000Y-115995167D01*
X170831526Y-116614476D01*
X170861629Y-116644579D01*
X170634542Y-116654421D01*
X170200884Y-116834047D01*
X170117545Y-117087940D01*
X171000000Y-117970395D01*
X171014143Y-117956253D01*
X171193748Y-118135858D01*
X171179605Y-118150000D01*
X172062060Y-119032455D01*
X172315953Y-118949116D01*
X172521590Y-118384694D01*
X172495579Y-117784542D01*
X172315953Y-117350884D01*
X172298027Y-117345000D01*
X172595167Y-117345000D01*
X173214476Y-117088474D01*
X173630000Y-116672950D01*
X174045524Y-117088474D01*
X174664833Y-117345000D01*
X174949030Y-117345000D01*
X174740000Y-117849642D01*
X174740000Y-118450358D01*
X174969884Y-119005346D01*
X175211338Y-119246800D01*
X171871052Y-119246800D01*
X171882455Y-119212060D01*
X171000000Y-118329605D01*
X170117545Y-119212060D01*
X170128948Y-119246800D01*
X167538662Y-119246800D01*
X167780116Y-119005346D01*
X168010000Y-118450358D01*
X168010000Y-117915306D01*
X169478410Y-117915306D01*
X169504421Y-118515458D01*
X169684047Y-118949116D01*
X169937940Y-119032455D01*
X170820395Y-118150000D01*
X169937940Y-117267545D01*
X169684047Y-117350884D01*
X169478410Y-117915306D01*
X168010000Y-117915306D01*
X168010000Y-117849642D01*
X168001572Y-117829295D01*
X168477283Y-117353585D01*
X168547001Y-117307001D01*
X168731552Y-117030801D01*
X168780000Y-116787237D01*
X168780000Y-116787236D01*
X168796358Y-116705000D01*
X168780000Y-116622763D01*
X168780000Y-113979845D01*
X168887809Y-113907809D01*
X168904622Y-113882647D01*
X169010302Y-113988327D01*
X169243691Y-114085000D01*
X169569250Y-114085000D01*
X169728000Y-113926250D01*
X169728000Y-112827000D01*
X169982000Y-112827000D01*
X169982000Y-113926250D01*
X170140750Y-114085000D01*
X170466309Y-114085000D01*
X170699698Y-113988327D01*
X170878327Y-113809699D01*
X170975000Y-113576310D01*
X170975000Y-112985750D01*
X170816250Y-112827000D01*
X169982000Y-112827000D01*
X169728000Y-112827000D01*
X169708000Y-112827000D01*
X169708000Y-112573000D01*
X169728000Y-112573000D01*
X169728000Y-111473750D01*
X169982000Y-111473750D01*
X169982000Y-112573000D01*
X170816250Y-112573000D01*
X170975000Y-112414250D01*
X170975000Y-111823690D01*
X170878327Y-111590301D01*
X170699698Y-111411673D01*
X170466309Y-111315000D01*
X170140750Y-111315000D01*
X169982000Y-111473750D01*
X169728000Y-111473750D01*
X169569250Y-111315000D01*
X169243691Y-111315000D01*
X169010302Y-111411673D01*
X168904622Y-111517353D01*
X168887809Y-111492191D01*
X168677765Y-111351843D01*
X168430000Y-111302560D01*
X167460000Y-111302560D01*
X167212235Y-111351843D01*
X167002191Y-111492191D01*
X166861843Y-111702235D01*
X166812560Y-111950000D01*
X166812560Y-113450000D01*
X166861843Y-113697765D01*
X167002191Y-113907809D01*
X167110001Y-113979846D01*
X167110000Y-116359132D01*
X166820705Y-116648428D01*
X166800358Y-116640000D01*
X166652950Y-116640000D01*
X166678474Y-116614476D01*
X166935000Y-115995167D01*
X166935000Y-115324833D01*
X166678474Y-114705524D01*
X166204476Y-114231526D01*
X165585167Y-113975000D01*
X164914833Y-113975000D01*
X164295524Y-114231526D01*
X163880000Y-114647050D01*
X163464476Y-114231526D01*
X162845167Y-113975000D01*
X162174833Y-113975000D01*
X161555524Y-114231526D01*
X161081526Y-114705524D01*
X160825000Y-115324833D01*
X160825000Y-115995167D01*
X161081526Y-116614476D01*
X161111629Y-116644579D01*
X160884542Y-116654421D01*
X160450884Y-116834047D01*
X160367545Y-117087940D01*
X161250000Y-117970395D01*
X161264143Y-117956253D01*
X161443748Y-118135858D01*
X161429605Y-118150000D01*
X162312060Y-119032455D01*
X162565953Y-118949116D01*
X162771590Y-118384694D01*
X162745579Y-117784542D01*
X162565953Y-117350884D01*
X162548027Y-117345000D01*
X162845167Y-117345000D01*
X163464476Y-117088474D01*
X163880000Y-116672950D01*
X164295524Y-117088474D01*
X164914833Y-117345000D01*
X165199030Y-117345000D01*
X164990000Y-117849642D01*
X164990000Y-118450358D01*
X165219884Y-119005346D01*
X165461338Y-119246800D01*
X162121052Y-119246800D01*
X162132455Y-119212060D01*
X161250000Y-118329605D01*
X160367545Y-119212060D01*
X160378948Y-119246800D01*
X157788662Y-119246800D01*
X158030116Y-119005346D01*
X158260000Y-118450358D01*
X158260000Y-117915306D01*
X159728410Y-117915306D01*
X159754421Y-118515458D01*
X159934047Y-118949116D01*
X160187940Y-119032455D01*
X161070395Y-118150000D01*
X160187940Y-117267545D01*
X159934047Y-117350884D01*
X159728410Y-117915306D01*
X158260000Y-117915306D01*
X158260000Y-117849642D01*
X158251572Y-117829295D01*
X158677283Y-117403585D01*
X158747001Y-117357001D01*
X158931552Y-117080801D01*
X158980000Y-116837237D01*
X158980000Y-116837236D01*
X158996358Y-116755000D01*
X158980000Y-116672763D01*
X158980000Y-113979845D01*
X159087809Y-113907809D01*
X159104622Y-113882647D01*
X159210302Y-113988327D01*
X159443691Y-114085000D01*
X159769250Y-114085000D01*
X159928000Y-113926250D01*
X159928000Y-112827000D01*
X160182000Y-112827000D01*
X160182000Y-113926250D01*
X160340750Y-114085000D01*
X160666309Y-114085000D01*
X160899698Y-113988327D01*
X161078327Y-113809699D01*
X161175000Y-113576310D01*
X161175000Y-112985750D01*
X161016250Y-112827000D01*
X160182000Y-112827000D01*
X159928000Y-112827000D01*
X159908000Y-112827000D01*
X159908000Y-112573000D01*
X159928000Y-112573000D01*
X159928000Y-112553000D01*
X160182000Y-112553000D01*
X160182000Y-112573000D01*
X161016250Y-112573000D01*
X161175000Y-112414250D01*
X161175000Y-111823690D01*
X161078327Y-111590301D01*
X160899698Y-111411673D01*
X160697817Y-111328051D01*
X162182286Y-109843583D01*
X162252001Y-109797001D01*
X162436552Y-109520801D01*
X162485000Y-109277237D01*
X162485000Y-109277234D01*
X162501357Y-109195001D01*
X162485000Y-109112768D01*
X162485000Y-107467565D01*
X162773744Y-107525000D01*
X163066256Y-107525000D01*
X163499418Y-107438839D01*
X163990625Y-107110625D01*
X164190000Y-106812239D01*
X164389375Y-107110625D01*
X164880582Y-107438839D01*
X165313744Y-107525000D01*
X165606256Y-107525000D01*
X166039418Y-107438839D01*
X166530625Y-107110625D01*
X166743843Y-106791522D01*
X166804817Y-106921358D01*
X167233076Y-107311645D01*
X167643110Y-107481476D01*
X167873000Y-107360155D01*
X167873000Y-106167000D01*
X168127000Y-106167000D01*
X168127000Y-107360155D01*
X168356890Y-107481476D01*
X168766924Y-107311645D01*
X169195183Y-106921358D01*
X169441486Y-106396892D01*
X169320819Y-106167000D01*
X168127000Y-106167000D01*
X167873000Y-106167000D01*
X167853000Y-106167000D01*
X167853000Y-105913000D01*
X167873000Y-105913000D01*
X167873000Y-104719845D01*
X168127000Y-104719845D01*
X168127000Y-105913000D01*
X169320819Y-105913000D01*
X169441486Y-105683108D01*
X169195183Y-105158642D01*
X168766924Y-104768355D01*
X168356890Y-104598524D01*
X168127000Y-104719845D01*
X167873000Y-104719845D01*
X167643110Y-104598524D01*
X167233076Y-104768355D01*
X166804817Y-105158642D01*
X166743843Y-105288478D01*
X166530625Y-104969375D01*
X166039418Y-104641161D01*
X165606256Y-104555000D01*
X165313744Y-104555000D01*
X165113100Y-104594910D01*
X165113100Y-104557526D01*
X165005400Y-104297515D01*
X165005400Y-94763667D01*
X165313744Y-94825000D01*
X165606256Y-94825000D01*
X166039418Y-94738839D01*
X166530625Y-94410625D01*
X166730000Y-94112239D01*
X166929375Y-94410625D01*
X167420582Y-94738839D01*
X167853744Y-94825000D01*
X168146256Y-94825000D01*
X168579418Y-94738839D01*
X169070625Y-94410625D01*
X169398839Y-93919418D01*
X169514092Y-93340000D01*
X169398839Y-92760582D01*
X169070625Y-92269375D01*
X168579418Y-91941161D01*
X168146256Y-91855000D01*
X167853744Y-91855000D01*
X167420582Y-91941161D01*
X166929375Y-92269375D01*
X166730000Y-92567761D01*
X166530625Y-92269375D01*
X166039418Y-91941161D01*
X165606256Y-91855000D01*
X165313744Y-91855000D01*
X165005400Y-91916333D01*
X165005400Y-81352337D01*
X165021758Y-81270100D01*
X164956952Y-80944299D01*
X164818984Y-80737816D01*
X164772401Y-80668099D01*
X164702683Y-80621515D01*
X157325000Y-73243833D01*
X157325000Y-71187565D01*
X157613744Y-71245000D01*
X157906256Y-71245000D01*
X158339418Y-71158839D01*
X158830625Y-70830625D01*
X159030000Y-70532239D01*
X159229375Y-70830625D01*
X159720582Y-71158839D01*
X160153744Y-71245000D01*
X160446256Y-71245000D01*
X160879418Y-71158839D01*
X161370625Y-70830625D01*
X161570000Y-70532239D01*
X161769375Y-70830625D01*
X162260582Y-71158839D01*
X162693744Y-71245000D01*
X162986256Y-71245000D01*
X163419418Y-71158839D01*
X163910625Y-70830625D01*
X164123843Y-70511522D01*
X164184817Y-70641358D01*
X164613076Y-71031645D01*
X165023110Y-71201476D01*
X165253000Y-71080155D01*
X165253000Y-69887000D01*
X165233000Y-69887000D01*
X165233000Y-69633000D01*
X165253000Y-69633000D01*
X165253000Y-69613000D01*
X165507000Y-69613000D01*
X165507000Y-69633000D01*
X165507000Y-69633000D01*
G37*
X165507000Y-69633000D02*
X165527000Y-69633000D01*
X165527000Y-69887000D01*
X165507000Y-69887000D01*
X165507000Y-71080155D01*
X165736890Y-71201476D01*
X166146924Y-71031645D01*
X166575183Y-70641358D01*
X166636157Y-70511522D01*
X166849375Y-70830625D01*
X167340582Y-71158839D01*
X167773744Y-71245000D01*
X168066256Y-71245000D01*
X168499418Y-71158839D01*
X168990625Y-70830625D01*
X169190000Y-70532239D01*
X169389375Y-70830625D01*
X169625000Y-70988065D01*
X169625001Y-105875362D01*
X169608643Y-105957600D01*
X169673448Y-106283400D01*
X169673449Y-106283401D01*
X169858000Y-106559601D01*
X169927718Y-106606185D01*
X176367400Y-113045868D01*
X176367400Y-114644450D01*
X175954476Y-114231526D01*
X175335167Y-113975000D01*
X174664833Y-113975000D01*
X174045524Y-114231526D01*
X173630000Y-114647050D01*
X173214476Y-114231526D01*
X172595167Y-113975000D01*
X171924833Y-113975000D01*
X171305524Y-114231526D01*
X170831526Y-114705524D01*
X170575000Y-115324833D01*
X170575000Y-115995167D01*
X170831526Y-116614476D01*
X170861629Y-116644579D01*
X170634542Y-116654421D01*
X170200884Y-116834047D01*
X170117545Y-117087940D01*
X171000000Y-117970395D01*
X171014143Y-117956253D01*
X171193748Y-118135858D01*
X171179605Y-118150000D01*
X172062060Y-119032455D01*
X172315953Y-118949116D01*
X172521590Y-118384694D01*
X172495579Y-117784542D01*
X172315953Y-117350884D01*
X172298027Y-117345000D01*
X172595167Y-117345000D01*
X173214476Y-117088474D01*
X173630000Y-116672950D01*
X174045524Y-117088474D01*
X174664833Y-117345000D01*
X174949030Y-117345000D01*
X174740000Y-117849642D01*
X174740000Y-118450358D01*
X174969884Y-119005346D01*
X175211338Y-119246800D01*
X171871052Y-119246800D01*
X171882455Y-119212060D01*
X171000000Y-118329605D01*
X170117545Y-119212060D01*
X170128948Y-119246800D01*
X167538662Y-119246800D01*
X167780116Y-119005346D01*
X168010000Y-118450358D01*
X168010000Y-117915306D01*
X169478410Y-117915306D01*
X169504421Y-118515458D01*
X169684047Y-118949116D01*
X169937940Y-119032455D01*
X170820395Y-118150000D01*
X169937940Y-117267545D01*
X169684047Y-117350884D01*
X169478410Y-117915306D01*
X168010000Y-117915306D01*
X168010000Y-117849642D01*
X168001572Y-117829295D01*
X168477283Y-117353585D01*
X168547001Y-117307001D01*
X168731552Y-117030801D01*
X168780000Y-116787237D01*
X168780000Y-116787236D01*
X168796358Y-116705000D01*
X168780000Y-116622763D01*
X168780000Y-113979845D01*
X168887809Y-113907809D01*
X168904622Y-113882647D01*
X169010302Y-113988327D01*
X169243691Y-114085000D01*
X169569250Y-114085000D01*
X169728000Y-113926250D01*
X169728000Y-112827000D01*
X169982000Y-112827000D01*
X169982000Y-113926250D01*
X170140750Y-114085000D01*
X170466309Y-114085000D01*
X170699698Y-113988327D01*
X170878327Y-113809699D01*
X170975000Y-113576310D01*
X170975000Y-112985750D01*
X170816250Y-112827000D01*
X169982000Y-112827000D01*
X169728000Y-112827000D01*
X169708000Y-112827000D01*
X169708000Y-112573000D01*
X169728000Y-112573000D01*
X169728000Y-111473750D01*
X169982000Y-111473750D01*
X169982000Y-112573000D01*
X170816250Y-112573000D01*
X170975000Y-112414250D01*
X170975000Y-111823690D01*
X170878327Y-111590301D01*
X170699698Y-111411673D01*
X170466309Y-111315000D01*
X170140750Y-111315000D01*
X169982000Y-111473750D01*
X169728000Y-111473750D01*
X169569250Y-111315000D01*
X169243691Y-111315000D01*
X169010302Y-111411673D01*
X168904622Y-111517353D01*
X168887809Y-111492191D01*
X168677765Y-111351843D01*
X168430000Y-111302560D01*
X167460000Y-111302560D01*
X167212235Y-111351843D01*
X167002191Y-111492191D01*
X166861843Y-111702235D01*
X166812560Y-111950000D01*
X166812560Y-113450000D01*
X166861843Y-113697765D01*
X167002191Y-113907809D01*
X167110001Y-113979846D01*
X167110000Y-116359132D01*
X166820705Y-116648428D01*
X166800358Y-116640000D01*
X166652950Y-116640000D01*
X166678474Y-116614476D01*
X166935000Y-115995167D01*
X166935000Y-115324833D01*
X166678474Y-114705524D01*
X166204476Y-114231526D01*
X165585167Y-113975000D01*
X164914833Y-113975000D01*
X164295524Y-114231526D01*
X163880000Y-114647050D01*
X163464476Y-114231526D01*
X162845167Y-113975000D01*
X162174833Y-113975000D01*
X161555524Y-114231526D01*
X161081526Y-114705524D01*
X160825000Y-115324833D01*
X160825000Y-115995167D01*
X161081526Y-116614476D01*
X161111629Y-116644579D01*
X160884542Y-116654421D01*
X160450884Y-116834047D01*
X160367545Y-117087940D01*
X161250000Y-117970395D01*
X161264143Y-117956253D01*
X161443748Y-118135858D01*
X161429605Y-118150000D01*
X162312060Y-119032455D01*
X162565953Y-118949116D01*
X162771590Y-118384694D01*
X162745579Y-117784542D01*
X162565953Y-117350884D01*
X162548027Y-117345000D01*
X162845167Y-117345000D01*
X163464476Y-117088474D01*
X163880000Y-116672950D01*
X164295524Y-117088474D01*
X164914833Y-117345000D01*
X165199030Y-117345000D01*
X164990000Y-117849642D01*
X164990000Y-118450358D01*
X165219884Y-119005346D01*
X165461338Y-119246800D01*
X162121052Y-119246800D01*
X162132455Y-119212060D01*
X161250000Y-118329605D01*
X160367545Y-119212060D01*
X160378948Y-119246800D01*
X157788662Y-119246800D01*
X158030116Y-119005346D01*
X158260000Y-118450358D01*
X158260000Y-117915306D01*
X159728410Y-117915306D01*
X159754421Y-118515458D01*
X159934047Y-118949116D01*
X160187940Y-119032455D01*
X161070395Y-118150000D01*
X160187940Y-117267545D01*
X159934047Y-117350884D01*
X159728410Y-117915306D01*
X158260000Y-117915306D01*
X158260000Y-117849642D01*
X158251572Y-117829295D01*
X158677283Y-117403585D01*
X158747001Y-117357001D01*
X158931552Y-117080801D01*
X158980000Y-116837237D01*
X158980000Y-116837236D01*
X158996358Y-116755000D01*
X158980000Y-116672763D01*
X158980000Y-113979845D01*
X159087809Y-113907809D01*
X159104622Y-113882647D01*
X159210302Y-113988327D01*
X159443691Y-114085000D01*
X159769250Y-114085000D01*
X159928000Y-113926250D01*
X159928000Y-112827000D01*
X160182000Y-112827000D01*
X160182000Y-113926250D01*
X160340750Y-114085000D01*
X160666309Y-114085000D01*
X160899698Y-113988327D01*
X161078327Y-113809699D01*
X161175000Y-113576310D01*
X161175000Y-112985750D01*
X161016250Y-112827000D01*
X160182000Y-112827000D01*
X159928000Y-112827000D01*
X159908000Y-112827000D01*
X159908000Y-112573000D01*
X159928000Y-112573000D01*
X159928000Y-112553000D01*
X160182000Y-112553000D01*
X160182000Y-112573000D01*
X161016250Y-112573000D01*
X161175000Y-112414250D01*
X161175000Y-111823690D01*
X161078327Y-111590301D01*
X160899698Y-111411673D01*
X160697817Y-111328051D01*
X162182286Y-109843583D01*
X162252001Y-109797001D01*
X162436552Y-109520801D01*
X162485000Y-109277237D01*
X162485000Y-109277234D01*
X162501357Y-109195001D01*
X162485000Y-109112768D01*
X162485000Y-107467565D01*
X162773744Y-107525000D01*
X163066256Y-107525000D01*
X163499418Y-107438839D01*
X163990625Y-107110625D01*
X164190000Y-106812239D01*
X164389375Y-107110625D01*
X164880582Y-107438839D01*
X165313744Y-107525000D01*
X165606256Y-107525000D01*
X166039418Y-107438839D01*
X166530625Y-107110625D01*
X166743843Y-106791522D01*
X166804817Y-106921358D01*
X167233076Y-107311645D01*
X167643110Y-107481476D01*
X167873000Y-107360155D01*
X167873000Y-106167000D01*
X168127000Y-106167000D01*
X168127000Y-107360155D01*
X168356890Y-107481476D01*
X168766924Y-107311645D01*
X169195183Y-106921358D01*
X169441486Y-106396892D01*
X169320819Y-106167000D01*
X168127000Y-106167000D01*
X167873000Y-106167000D01*
X167853000Y-106167000D01*
X167853000Y-105913000D01*
X167873000Y-105913000D01*
X167873000Y-104719845D01*
X168127000Y-104719845D01*
X168127000Y-105913000D01*
X169320819Y-105913000D01*
X169441486Y-105683108D01*
X169195183Y-105158642D01*
X168766924Y-104768355D01*
X168356890Y-104598524D01*
X168127000Y-104719845D01*
X167873000Y-104719845D01*
X167643110Y-104598524D01*
X167233076Y-104768355D01*
X166804817Y-105158642D01*
X166743843Y-105288478D01*
X166530625Y-104969375D01*
X166039418Y-104641161D01*
X165606256Y-104555000D01*
X165313744Y-104555000D01*
X165113100Y-104594910D01*
X165113100Y-104557526D01*
X165005400Y-104297515D01*
X165005400Y-94763667D01*
X165313744Y-94825000D01*
X165606256Y-94825000D01*
X166039418Y-94738839D01*
X166530625Y-94410625D01*
X166730000Y-94112239D01*
X166929375Y-94410625D01*
X167420582Y-94738839D01*
X167853744Y-94825000D01*
X168146256Y-94825000D01*
X168579418Y-94738839D01*
X169070625Y-94410625D01*
X169398839Y-93919418D01*
X169514092Y-93340000D01*
X169398839Y-92760582D01*
X169070625Y-92269375D01*
X168579418Y-91941161D01*
X168146256Y-91855000D01*
X167853744Y-91855000D01*
X167420582Y-91941161D01*
X166929375Y-92269375D01*
X166730000Y-92567761D01*
X166530625Y-92269375D01*
X166039418Y-91941161D01*
X165606256Y-91855000D01*
X165313744Y-91855000D01*
X165005400Y-91916333D01*
X165005400Y-81352337D01*
X165021758Y-81270100D01*
X164956952Y-80944299D01*
X164818984Y-80737816D01*
X164772401Y-80668099D01*
X164702683Y-80621515D01*
X157325000Y-73243833D01*
X157325000Y-71187565D01*
X157613744Y-71245000D01*
X157906256Y-71245000D01*
X158339418Y-71158839D01*
X158830625Y-70830625D01*
X159030000Y-70532239D01*
X159229375Y-70830625D01*
X159720582Y-71158839D01*
X160153744Y-71245000D01*
X160446256Y-71245000D01*
X160879418Y-71158839D01*
X161370625Y-70830625D01*
X161570000Y-70532239D01*
X161769375Y-70830625D01*
X162260582Y-71158839D01*
X162693744Y-71245000D01*
X162986256Y-71245000D01*
X163419418Y-71158839D01*
X163910625Y-70830625D01*
X164123843Y-70511522D01*
X164184817Y-70641358D01*
X164613076Y-71031645D01*
X165023110Y-71201476D01*
X165253000Y-71080155D01*
X165253000Y-69887000D01*
X165233000Y-69887000D01*
X165233000Y-69633000D01*
X165253000Y-69633000D01*
X165253000Y-69613000D01*
X165507000Y-69613000D01*
X165507000Y-69633000D01*
G36*
X159800582Y-107438839D02*
X160233744Y-107525000D01*
X160526256Y-107525000D01*
X160815000Y-107467565D01*
X160815000Y-108849131D01*
X158498018Y-111166115D01*
X158428300Y-111212699D01*
X158381716Y-111282417D01*
X158368257Y-111302560D01*
X157660000Y-111302560D01*
X157412235Y-111351843D01*
X157202191Y-111492191D01*
X157061843Y-111702235D01*
X157012560Y-111950000D01*
X157012560Y-113450000D01*
X157061843Y-113697765D01*
X157202191Y-113907809D01*
X157310001Y-113979846D01*
X157310000Y-116409132D01*
X157070705Y-116648428D01*
X157050358Y-116640000D01*
X156902950Y-116640000D01*
X156928474Y-116614476D01*
X157185000Y-115995167D01*
X157185000Y-115324833D01*
X156928474Y-114705524D01*
X156454476Y-114231526D01*
X155835167Y-113975000D01*
X155164833Y-113975000D01*
X154545524Y-114231526D01*
X154130000Y-114647050D01*
X153714476Y-114231526D01*
X153095167Y-113975000D01*
X152424833Y-113975000D01*
X151805524Y-114231526D01*
X151331526Y-114705524D01*
X151075000Y-115324833D01*
X151075000Y-115995167D01*
X151331526Y-116614476D01*
X151361629Y-116644579D01*
X151134542Y-116654421D01*
X150700884Y-116834047D01*
X150617545Y-117087940D01*
X151500000Y-117970395D01*
X151514143Y-117956253D01*
X151693748Y-118135858D01*
X151679605Y-118150000D01*
X152562060Y-119032455D01*
X152815953Y-118949116D01*
X153021590Y-118384694D01*
X152995579Y-117784542D01*
X152815953Y-117350884D01*
X152798027Y-117345000D01*
X153095167Y-117345000D01*
X153714476Y-117088474D01*
X154130000Y-116672950D01*
X154545524Y-117088474D01*
X155164833Y-117345000D01*
X155449030Y-117345000D01*
X155240000Y-117849642D01*
X155240000Y-118450358D01*
X155469884Y-119005346D01*
X155711338Y-119246800D01*
X152371052Y-119246800D01*
X152382455Y-119212060D01*
X151500000Y-118329605D01*
X150617545Y-119212060D01*
X150628948Y-119246800D01*
X148038662Y-119246800D01*
X148280116Y-119005346D01*
X148510000Y-118450358D01*
X148510000Y-117915306D01*
X149978410Y-117915306D01*
X150004421Y-118515458D01*
X150184047Y-118949116D01*
X150437940Y-119032455D01*
X151320395Y-118150000D01*
X150437940Y-117267545D01*
X150184047Y-117350884D01*
X149978410Y-117915306D01*
X148510000Y-117915306D01*
X148510000Y-117849642D01*
X148501572Y-117829295D01*
X148877283Y-117453585D01*
X148947001Y-117407001D01*
X149131552Y-117130801D01*
X149180000Y-116887237D01*
X149180000Y-116887234D01*
X149196357Y-116805001D01*
X149180000Y-116722768D01*
X149180000Y-113979845D01*
X149287809Y-113907809D01*
X149304622Y-113882647D01*
X149410302Y-113988327D01*
X149643691Y-114085000D01*
X149969250Y-114085000D01*
X150128000Y-113926250D01*
X150128000Y-112827000D01*
X150382000Y-112827000D01*
X150382000Y-113926250D01*
X150540750Y-114085000D01*
X150866309Y-114085000D01*
X151099698Y-113988327D01*
X151278327Y-113809699D01*
X151375000Y-113576310D01*
X151375000Y-112985750D01*
X151216250Y-112827000D01*
X150382000Y-112827000D01*
X150128000Y-112827000D01*
X150108000Y-112827000D01*
X150108000Y-112573000D01*
X150128000Y-112573000D01*
X150128000Y-112553000D01*
X150382000Y-112553000D01*
X150382000Y-112573000D01*
X151216250Y-112573000D01*
X151375000Y-112414250D01*
X151375000Y-111823690D01*
X151278327Y-111590301D01*
X151277826Y-111589800D01*
X154815167Y-111589800D01*
X154897400Y-111606157D01*
X154979633Y-111589800D01*
X154979637Y-111589800D01*
X155223201Y-111541352D01*
X155499401Y-111356801D01*
X155545987Y-111287080D01*
X159556991Y-107276077D01*
X159800582Y-107438839D01*
X159800582Y-107438839D01*
G37*
X159800582Y-107438839D02*
X160233744Y-107525000D01*
X160526256Y-107525000D01*
X160815000Y-107467565D01*
X160815000Y-108849131D01*
X158498018Y-111166115D01*
X158428300Y-111212699D01*
X158381716Y-111282417D01*
X158368257Y-111302560D01*
X157660000Y-111302560D01*
X157412235Y-111351843D01*
X157202191Y-111492191D01*
X157061843Y-111702235D01*
X157012560Y-111950000D01*
X157012560Y-113450000D01*
X157061843Y-113697765D01*
X157202191Y-113907809D01*
X157310001Y-113979846D01*
X157310000Y-116409132D01*
X157070705Y-116648428D01*
X157050358Y-116640000D01*
X156902950Y-116640000D01*
X156928474Y-116614476D01*
X157185000Y-115995167D01*
X157185000Y-115324833D01*
X156928474Y-114705524D01*
X156454476Y-114231526D01*
X155835167Y-113975000D01*
X155164833Y-113975000D01*
X154545524Y-114231526D01*
X154130000Y-114647050D01*
X153714476Y-114231526D01*
X153095167Y-113975000D01*
X152424833Y-113975000D01*
X151805524Y-114231526D01*
X151331526Y-114705524D01*
X151075000Y-115324833D01*
X151075000Y-115995167D01*
X151331526Y-116614476D01*
X151361629Y-116644579D01*
X151134542Y-116654421D01*
X150700884Y-116834047D01*
X150617545Y-117087940D01*
X151500000Y-117970395D01*
X151514143Y-117956253D01*
X151693748Y-118135858D01*
X151679605Y-118150000D01*
X152562060Y-119032455D01*
X152815953Y-118949116D01*
X153021590Y-118384694D01*
X152995579Y-117784542D01*
X152815953Y-117350884D01*
X152798027Y-117345000D01*
X153095167Y-117345000D01*
X153714476Y-117088474D01*
X154130000Y-116672950D01*
X154545524Y-117088474D01*
X155164833Y-117345000D01*
X155449030Y-117345000D01*
X155240000Y-117849642D01*
X155240000Y-118450358D01*
X155469884Y-119005346D01*
X155711338Y-119246800D01*
X152371052Y-119246800D01*
X152382455Y-119212060D01*
X151500000Y-118329605D01*
X150617545Y-119212060D01*
X150628948Y-119246800D01*
X148038662Y-119246800D01*
X148280116Y-119005346D01*
X148510000Y-118450358D01*
X148510000Y-117915306D01*
X149978410Y-117915306D01*
X150004421Y-118515458D01*
X150184047Y-118949116D01*
X150437940Y-119032455D01*
X151320395Y-118150000D01*
X150437940Y-117267545D01*
X150184047Y-117350884D01*
X149978410Y-117915306D01*
X148510000Y-117915306D01*
X148510000Y-117849642D01*
X148501572Y-117829295D01*
X148877283Y-117453585D01*
X148947001Y-117407001D01*
X149131552Y-117130801D01*
X149180000Y-116887237D01*
X149180000Y-116887234D01*
X149196357Y-116805001D01*
X149180000Y-116722768D01*
X149180000Y-113979845D01*
X149287809Y-113907809D01*
X149304622Y-113882647D01*
X149410302Y-113988327D01*
X149643691Y-114085000D01*
X149969250Y-114085000D01*
X150128000Y-113926250D01*
X150128000Y-112827000D01*
X150382000Y-112827000D01*
X150382000Y-113926250D01*
X150540750Y-114085000D01*
X150866309Y-114085000D01*
X151099698Y-113988327D01*
X151278327Y-113809699D01*
X151375000Y-113576310D01*
X151375000Y-112985750D01*
X151216250Y-112827000D01*
X150382000Y-112827000D01*
X150128000Y-112827000D01*
X150108000Y-112827000D01*
X150108000Y-112573000D01*
X150128000Y-112573000D01*
X150128000Y-112553000D01*
X150382000Y-112553000D01*
X150382000Y-112573000D01*
X151216250Y-112573000D01*
X151375000Y-112414250D01*
X151375000Y-111823690D01*
X151278327Y-111590301D01*
X151277826Y-111589800D01*
X154815167Y-111589800D01*
X154897400Y-111606157D01*
X154979633Y-111589800D01*
X154979637Y-111589800D01*
X155223201Y-111541352D01*
X155499401Y-111356801D01*
X155545987Y-111287080D01*
X159556991Y-107276077D01*
X159800582Y-107438839D01*
G36*
X174469375Y-70830625D02*
X174705000Y-70988065D01*
X174705001Y-98397762D01*
X174688643Y-98480000D01*
X174753448Y-98805800D01*
X174831073Y-98921974D01*
X174938000Y-99082001D01*
X175007718Y-99128585D01*
X178840160Y-102961027D01*
X178820000Y-103009697D01*
X178820000Y-103630303D01*
X179057496Y-104203669D01*
X179496331Y-104642504D01*
X180069697Y-104880000D01*
X180690303Y-104880000D01*
X180893800Y-104795709D01*
X180893800Y-105915732D01*
X178137318Y-108672215D01*
X178067600Y-108718799D01*
X178021016Y-108788517D01*
X177883048Y-108995000D01*
X177818243Y-109320800D01*
X177834601Y-109403038D01*
X177834601Y-111302560D01*
X177160000Y-111302560D01*
X177014725Y-111331457D01*
X171295000Y-105611733D01*
X171295000Y-70988065D01*
X171530625Y-70830625D01*
X171730000Y-70532239D01*
X171929375Y-70830625D01*
X172420582Y-71158839D01*
X172853744Y-71245000D01*
X173146256Y-71245000D01*
X173579418Y-71158839D01*
X174070625Y-70830625D01*
X174270000Y-70532239D01*
X174469375Y-70830625D01*
X174469375Y-70830625D01*
G37*
X174469375Y-70830625D02*
X174705000Y-70988065D01*
X174705001Y-98397762D01*
X174688643Y-98480000D01*
X174753448Y-98805800D01*
X174831073Y-98921974D01*
X174938000Y-99082001D01*
X175007718Y-99128585D01*
X178840160Y-102961027D01*
X178820000Y-103009697D01*
X178820000Y-103630303D01*
X179057496Y-104203669D01*
X179496331Y-104642504D01*
X180069697Y-104880000D01*
X180690303Y-104880000D01*
X180893800Y-104795709D01*
X180893800Y-105915732D01*
X178137318Y-108672215D01*
X178067600Y-108718799D01*
X178021016Y-108788517D01*
X177883048Y-108995000D01*
X177818243Y-109320800D01*
X177834601Y-109403038D01*
X177834601Y-111302560D01*
X177160000Y-111302560D01*
X177014725Y-111331457D01*
X171295000Y-105611733D01*
X171295000Y-70988065D01*
X171530625Y-70830625D01*
X171730000Y-70532239D01*
X171929375Y-70830625D01*
X172420582Y-71158839D01*
X172853744Y-71245000D01*
X173146256Y-71245000D01*
X173579418Y-71158839D01*
X174070625Y-70830625D01*
X174270000Y-70532239D01*
X174469375Y-70830625D01*
G36*
X127799414Y-66119809D02*
X130000000Y-68320395D01*
X132200586Y-66119809D01*
X131900504Y-65685000D01*
X151217232Y-65685000D01*
X150931490Y-65970743D01*
X150906924Y-65948355D01*
X150496890Y-65778524D01*
X150267000Y-65899845D01*
X150267000Y-67093000D01*
X150287000Y-67093000D01*
X150287000Y-67347000D01*
X150267000Y-67347000D01*
X150267000Y-67367000D01*
X150013000Y-67367000D01*
X150013000Y-67347000D01*
X149993000Y-67347000D01*
X149993000Y-67093000D01*
X150013000Y-67093000D01*
X150013000Y-65899845D01*
X149783110Y-65778524D01*
X149373076Y-65948355D01*
X148944817Y-66338642D01*
X148883843Y-66468478D01*
X148670625Y-66149375D01*
X148179418Y-65821161D01*
X147746256Y-65735000D01*
X147453744Y-65735000D01*
X147020582Y-65821161D01*
X146529375Y-66149375D01*
X146330000Y-66447761D01*
X146130625Y-66149375D01*
X145639418Y-65821161D01*
X145206256Y-65735000D01*
X144913744Y-65735000D01*
X144480582Y-65821161D01*
X143989375Y-66149375D01*
X143790000Y-66447761D01*
X143590625Y-66149375D01*
X143099418Y-65821161D01*
X142666256Y-65735000D01*
X142373744Y-65735000D01*
X141940582Y-65821161D01*
X141449375Y-66149375D01*
X141236157Y-66468478D01*
X141175183Y-66338642D01*
X140746924Y-65948355D01*
X140336890Y-65778524D01*
X140107000Y-65899845D01*
X140107000Y-67093000D01*
X140127000Y-67093000D01*
X140127000Y-67347000D01*
X140107000Y-67347000D01*
X140107000Y-67367000D01*
X139853000Y-67367000D01*
X139853000Y-67347000D01*
X139833000Y-67347000D01*
X139833000Y-67093000D01*
X139853000Y-67093000D01*
X139853000Y-65899845D01*
X139623110Y-65778524D01*
X139213076Y-65948355D01*
X138784817Y-66338642D01*
X138723843Y-66468478D01*
X138510625Y-66149375D01*
X138019418Y-65821161D01*
X137586256Y-65735000D01*
X137293744Y-65735000D01*
X136860582Y-65821161D01*
X136369375Y-66149375D01*
X136214352Y-66381383D01*
X136150300Y-66368642D01*
X136121025Y-66374465D01*
X135970625Y-66149375D01*
X135479418Y-65821161D01*
X135046256Y-65735000D01*
X134753744Y-65735000D01*
X134320582Y-65821161D01*
X133829375Y-66149375D01*
X133501161Y-66640582D01*
X133385908Y-67220000D01*
X133501161Y-67799418D01*
X133829375Y-68290625D01*
X133847619Y-68302816D01*
X133802235Y-68311843D01*
X133592191Y-68452191D01*
X133451843Y-68662235D01*
X133402560Y-68910000D01*
X133402560Y-70610000D01*
X133451843Y-70857765D01*
X133592191Y-71067809D01*
X133802235Y-71208157D01*
X134050000Y-71257440D01*
X135315500Y-71257440D01*
X135315501Y-94023262D01*
X135299143Y-94105500D01*
X135363948Y-94431300D01*
X135449106Y-94558748D01*
X135548500Y-94707501D01*
X135618218Y-94754085D01*
X143566115Y-102701983D01*
X143612699Y-102771701D01*
X143702560Y-102831744D01*
X143702560Y-103540000D01*
X143751843Y-103787765D01*
X143892191Y-103997809D01*
X144102235Y-104138157D01*
X144265000Y-104170533D01*
X144265000Y-104547533D01*
X144042235Y-104591843D01*
X143832191Y-104732191D01*
X143691843Y-104942235D01*
X143642560Y-105190000D01*
X143642560Y-106475400D01*
X127869668Y-106475400D01*
X126885000Y-105490733D01*
X126885000Y-105145050D01*
X126598026Y-104452233D01*
X126201700Y-104055907D01*
X126201700Y-86784093D01*
X126598026Y-86387767D01*
X126885000Y-85694950D01*
X126885000Y-84945050D01*
X126598026Y-84252233D01*
X126067767Y-83721974D01*
X125835000Y-83625559D01*
X125835000Y-77827232D01*
X125851357Y-77744999D01*
X125835000Y-77662764D01*
X125835000Y-77662763D01*
X125786552Y-77419199D01*
X125602001Y-77142999D01*
X125532286Y-77096417D01*
X119316059Y-70880191D01*
X127799414Y-70880191D01*
X128105472Y-71323659D01*
X129330252Y-71833725D01*
X130656995Y-71836262D01*
X131883716Y-71330883D01*
X131894528Y-71323659D01*
X132200586Y-70880191D01*
X130000000Y-68679605D01*
X127799414Y-70880191D01*
X119316059Y-70880191D01*
X118233887Y-69798020D01*
X118187301Y-69728299D01*
X118097440Y-69668256D01*
X118097440Y-69156995D01*
X126663738Y-69156995D01*
X127169117Y-70383716D01*
X127176341Y-70394528D01*
X127619809Y-70700586D01*
X129820395Y-68500000D01*
X130179605Y-68500000D01*
X132380191Y-70700586D01*
X132823659Y-70394528D01*
X133333725Y-69169748D01*
X133336262Y-67843005D01*
X132830883Y-66616284D01*
X132823659Y-66605472D01*
X132380191Y-66299414D01*
X130179605Y-68500000D01*
X129820395Y-68500000D01*
X127619809Y-66299414D01*
X127176341Y-66605472D01*
X126666275Y-67830252D01*
X126663738Y-69156995D01*
X118097440Y-69156995D01*
X118097440Y-68960000D01*
X118048157Y-68712235D01*
X117907809Y-68502191D01*
X117697765Y-68361843D01*
X117450000Y-68312560D01*
X115950000Y-68312560D01*
X115702235Y-68361843D01*
X115492191Y-68502191D01*
X115420155Y-68610000D01*
X112880868Y-68610000D01*
X112731572Y-68460705D01*
X112740000Y-68440358D01*
X112740000Y-68292950D01*
X112765524Y-68318474D01*
X113384833Y-68575000D01*
X114055167Y-68575000D01*
X114674476Y-68318474D01*
X115148474Y-67844476D01*
X115405000Y-67225167D01*
X115405000Y-66554833D01*
X115148474Y-65935524D01*
X114897950Y-65685000D01*
X128099496Y-65685000D01*
X127799414Y-66119809D01*
X127799414Y-66119809D01*
G37*
X127799414Y-66119809D02*
X130000000Y-68320395D01*
X132200586Y-66119809D01*
X131900504Y-65685000D01*
X151217232Y-65685000D01*
X150931490Y-65970743D01*
X150906924Y-65948355D01*
X150496890Y-65778524D01*
X150267000Y-65899845D01*
X150267000Y-67093000D01*
X150287000Y-67093000D01*
X150287000Y-67347000D01*
X150267000Y-67347000D01*
X150267000Y-67367000D01*
X150013000Y-67367000D01*
X150013000Y-67347000D01*
X149993000Y-67347000D01*
X149993000Y-67093000D01*
X150013000Y-67093000D01*
X150013000Y-65899845D01*
X149783110Y-65778524D01*
X149373076Y-65948355D01*
X148944817Y-66338642D01*
X148883843Y-66468478D01*
X148670625Y-66149375D01*
X148179418Y-65821161D01*
X147746256Y-65735000D01*
X147453744Y-65735000D01*
X147020582Y-65821161D01*
X146529375Y-66149375D01*
X146330000Y-66447761D01*
X146130625Y-66149375D01*
X145639418Y-65821161D01*
X145206256Y-65735000D01*
X144913744Y-65735000D01*
X144480582Y-65821161D01*
X143989375Y-66149375D01*
X143790000Y-66447761D01*
X143590625Y-66149375D01*
X143099418Y-65821161D01*
X142666256Y-65735000D01*
X142373744Y-65735000D01*
X141940582Y-65821161D01*
X141449375Y-66149375D01*
X141236157Y-66468478D01*
X141175183Y-66338642D01*
X140746924Y-65948355D01*
X140336890Y-65778524D01*
X140107000Y-65899845D01*
X140107000Y-67093000D01*
X140127000Y-67093000D01*
X140127000Y-67347000D01*
X140107000Y-67347000D01*
X140107000Y-67367000D01*
X139853000Y-67367000D01*
X139853000Y-67347000D01*
X139833000Y-67347000D01*
X139833000Y-67093000D01*
X139853000Y-67093000D01*
X139853000Y-65899845D01*
X139623110Y-65778524D01*
X139213076Y-65948355D01*
X138784817Y-66338642D01*
X138723843Y-66468478D01*
X138510625Y-66149375D01*
X138019418Y-65821161D01*
X137586256Y-65735000D01*
X137293744Y-65735000D01*
X136860582Y-65821161D01*
X136369375Y-66149375D01*
X136214352Y-66381383D01*
X136150300Y-66368642D01*
X136121025Y-66374465D01*
X135970625Y-66149375D01*
X135479418Y-65821161D01*
X135046256Y-65735000D01*
X134753744Y-65735000D01*
X134320582Y-65821161D01*
X133829375Y-66149375D01*
X133501161Y-66640582D01*
X133385908Y-67220000D01*
X133501161Y-67799418D01*
X133829375Y-68290625D01*
X133847619Y-68302816D01*
X133802235Y-68311843D01*
X133592191Y-68452191D01*
X133451843Y-68662235D01*
X133402560Y-68910000D01*
X133402560Y-70610000D01*
X133451843Y-70857765D01*
X133592191Y-71067809D01*
X133802235Y-71208157D01*
X134050000Y-71257440D01*
X135315500Y-71257440D01*
X135315501Y-94023262D01*
X135299143Y-94105500D01*
X135363948Y-94431300D01*
X135449106Y-94558748D01*
X135548500Y-94707501D01*
X135618218Y-94754085D01*
X143566115Y-102701983D01*
X143612699Y-102771701D01*
X143702560Y-102831744D01*
X143702560Y-103540000D01*
X143751843Y-103787765D01*
X143892191Y-103997809D01*
X144102235Y-104138157D01*
X144265000Y-104170533D01*
X144265000Y-104547533D01*
X144042235Y-104591843D01*
X143832191Y-104732191D01*
X143691843Y-104942235D01*
X143642560Y-105190000D01*
X143642560Y-106475400D01*
X127869668Y-106475400D01*
X126885000Y-105490733D01*
X126885000Y-105145050D01*
X126598026Y-104452233D01*
X126201700Y-104055907D01*
X126201700Y-86784093D01*
X126598026Y-86387767D01*
X126885000Y-85694950D01*
X126885000Y-84945050D01*
X126598026Y-84252233D01*
X126067767Y-83721974D01*
X125835000Y-83625559D01*
X125835000Y-77827232D01*
X125851357Y-77744999D01*
X125835000Y-77662764D01*
X125835000Y-77662763D01*
X125786552Y-77419199D01*
X125602001Y-77142999D01*
X125532286Y-77096417D01*
X119316059Y-70880191D01*
X127799414Y-70880191D01*
X128105472Y-71323659D01*
X129330252Y-71833725D01*
X130656995Y-71836262D01*
X131883716Y-71330883D01*
X131894528Y-71323659D01*
X132200586Y-70880191D01*
X130000000Y-68679605D01*
X127799414Y-70880191D01*
X119316059Y-70880191D01*
X118233887Y-69798020D01*
X118187301Y-69728299D01*
X118097440Y-69668256D01*
X118097440Y-69156995D01*
X126663738Y-69156995D01*
X127169117Y-70383716D01*
X127176341Y-70394528D01*
X127619809Y-70700586D01*
X129820395Y-68500000D01*
X130179605Y-68500000D01*
X132380191Y-70700586D01*
X132823659Y-70394528D01*
X133333725Y-69169748D01*
X133336262Y-67843005D01*
X132830883Y-66616284D01*
X132823659Y-66605472D01*
X132380191Y-66299414D01*
X130179605Y-68500000D01*
X129820395Y-68500000D01*
X127619809Y-66299414D01*
X127176341Y-66605472D01*
X126666275Y-67830252D01*
X126663738Y-69156995D01*
X118097440Y-69156995D01*
X118097440Y-68960000D01*
X118048157Y-68712235D01*
X117907809Y-68502191D01*
X117697765Y-68361843D01*
X117450000Y-68312560D01*
X115950000Y-68312560D01*
X115702235Y-68361843D01*
X115492191Y-68502191D01*
X115420155Y-68610000D01*
X112880868Y-68610000D01*
X112731572Y-68460705D01*
X112740000Y-68440358D01*
X112740000Y-68292950D01*
X112765524Y-68318474D01*
X113384833Y-68575000D01*
X114055167Y-68575000D01*
X114674476Y-68318474D01*
X115148474Y-67844476D01*
X115405000Y-67225167D01*
X115405000Y-66554833D01*
X115148474Y-65935524D01*
X114897950Y-65685000D01*
X128099496Y-65685000D01*
X127799414Y-66119809D01*
G36*
X138909375Y-70830625D02*
X139145000Y-70988065D01*
X139145001Y-94753862D01*
X139128643Y-94836100D01*
X139193448Y-95161900D01*
X139287188Y-95302191D01*
X139378000Y-95438101D01*
X139447718Y-95484685D01*
X143550815Y-99587783D01*
X143597399Y-99657501D01*
X143873599Y-99842052D01*
X144117163Y-99890500D01*
X144199400Y-99906858D01*
X144281637Y-99890500D01*
X151562567Y-99890500D01*
X151644800Y-99906857D01*
X151727033Y-99890500D01*
X151727037Y-99890500D01*
X151970601Y-99842052D01*
X152246801Y-99657501D01*
X152293387Y-99587780D01*
X153270868Y-98610300D01*
X155898367Y-98610300D01*
X155980600Y-98626657D01*
X156062833Y-98610300D01*
X156062837Y-98610300D01*
X156306401Y-98561852D01*
X156582601Y-98377301D01*
X156629187Y-98307580D01*
X158275000Y-96661767D01*
X158275001Y-104612435D01*
X157986256Y-104555000D01*
X157693744Y-104555000D01*
X157260582Y-104641161D01*
X156769375Y-104969375D01*
X156618975Y-105194465D01*
X156589700Y-105188642D01*
X156525648Y-105201383D01*
X156370625Y-104969375D01*
X156329003Y-104941564D01*
X156682683Y-104587885D01*
X156752401Y-104541301D01*
X156936952Y-104265101D01*
X156985400Y-104021537D01*
X156985400Y-104021534D01*
X157001757Y-103939301D01*
X156985400Y-103857068D01*
X156985400Y-101728737D01*
X157001758Y-101646500D01*
X156945883Y-101365600D01*
X156936952Y-101320699D01*
X156752401Y-101044499D01*
X156682680Y-100997913D01*
X156577187Y-100892420D01*
X156530601Y-100822699D01*
X156254401Y-100638148D01*
X156010837Y-100589700D01*
X156010833Y-100589700D01*
X155928600Y-100573343D01*
X155846367Y-100589700D01*
X152357237Y-100589700D01*
X152275000Y-100573342D01*
X152192763Y-100589700D01*
X151949199Y-100638148D01*
X151672999Y-100822699D01*
X151488448Y-101098899D01*
X151472801Y-101177560D01*
X151400000Y-101177560D01*
X151300000Y-101197451D01*
X151200000Y-101177560D01*
X151127199Y-101177560D01*
X151111552Y-101098899D01*
X150927001Y-100822699D01*
X150650801Y-100638148D01*
X150407237Y-100589700D01*
X150325000Y-100573342D01*
X150242763Y-100589700D01*
X146883506Y-100589700D01*
X146852301Y-100542999D01*
X146576101Y-100358448D01*
X146387097Y-100320853D01*
X146307809Y-100202191D01*
X146097765Y-100061843D01*
X145850000Y-100012560D01*
X144350000Y-100012560D01*
X144102235Y-100061843D01*
X143892191Y-100202191D01*
X143751843Y-100412235D01*
X143732972Y-100507105D01*
X136985500Y-93759633D01*
X136985500Y-71183687D01*
X137293744Y-71245000D01*
X137586256Y-71245000D01*
X138019418Y-71158839D01*
X138510625Y-70830625D01*
X138661025Y-70605535D01*
X138690300Y-70611358D01*
X138754352Y-70598617D01*
X138909375Y-70830625D01*
X138909375Y-70830625D01*
G37*
X138909375Y-70830625D02*
X139145000Y-70988065D01*
X139145001Y-94753862D01*
X139128643Y-94836100D01*
X139193448Y-95161900D01*
X139287188Y-95302191D01*
X139378000Y-95438101D01*
X139447718Y-95484685D01*
X143550815Y-99587783D01*
X143597399Y-99657501D01*
X143873599Y-99842052D01*
X144117163Y-99890500D01*
X144199400Y-99906858D01*
X144281637Y-99890500D01*
X151562567Y-99890500D01*
X151644800Y-99906857D01*
X151727033Y-99890500D01*
X151727037Y-99890500D01*
X151970601Y-99842052D01*
X152246801Y-99657501D01*
X152293387Y-99587780D01*
X153270868Y-98610300D01*
X155898367Y-98610300D01*
X155980600Y-98626657D01*
X156062833Y-98610300D01*
X156062837Y-98610300D01*
X156306401Y-98561852D01*
X156582601Y-98377301D01*
X156629187Y-98307580D01*
X158275000Y-96661767D01*
X158275001Y-104612435D01*
X157986256Y-104555000D01*
X157693744Y-104555000D01*
X157260582Y-104641161D01*
X156769375Y-104969375D01*
X156618975Y-105194465D01*
X156589700Y-105188642D01*
X156525648Y-105201383D01*
X156370625Y-104969375D01*
X156329003Y-104941564D01*
X156682683Y-104587885D01*
X156752401Y-104541301D01*
X156936952Y-104265101D01*
X156985400Y-104021537D01*
X156985400Y-104021534D01*
X157001757Y-103939301D01*
X156985400Y-103857068D01*
X156985400Y-101728737D01*
X157001758Y-101646500D01*
X156945883Y-101365600D01*
X156936952Y-101320699D01*
X156752401Y-101044499D01*
X156682680Y-100997913D01*
X156577187Y-100892420D01*
X156530601Y-100822699D01*
X156254401Y-100638148D01*
X156010837Y-100589700D01*
X156010833Y-100589700D01*
X155928600Y-100573343D01*
X155846367Y-100589700D01*
X152357237Y-100589700D01*
X152275000Y-100573342D01*
X152192763Y-100589700D01*
X151949199Y-100638148D01*
X151672999Y-100822699D01*
X151488448Y-101098899D01*
X151472801Y-101177560D01*
X151400000Y-101177560D01*
X151300000Y-101197451D01*
X151200000Y-101177560D01*
X151127199Y-101177560D01*
X151111552Y-101098899D01*
X150927001Y-100822699D01*
X150650801Y-100638148D01*
X150407237Y-100589700D01*
X150325000Y-100573342D01*
X150242763Y-100589700D01*
X146883506Y-100589700D01*
X146852301Y-100542999D01*
X146576101Y-100358448D01*
X146387097Y-100320853D01*
X146307809Y-100202191D01*
X146097765Y-100061843D01*
X145850000Y-100012560D01*
X144350000Y-100012560D01*
X144102235Y-100061843D01*
X143892191Y-100202191D01*
X143751843Y-100412235D01*
X143732972Y-100507105D01*
X136985500Y-93759633D01*
X136985500Y-71183687D01*
X137293744Y-71245000D01*
X137586256Y-71245000D01*
X138019418Y-71158839D01*
X138510625Y-70830625D01*
X138661025Y-70605535D01*
X138690300Y-70611358D01*
X138754352Y-70598617D01*
X138909375Y-70830625D01*
G36*
X146447763Y-102259700D02*
X146530000Y-102276058D01*
X146612237Y-102259700D01*
X148802560Y-102259700D01*
X148802560Y-102825565D01*
X148794400Y-102823942D01*
X148712163Y-102840300D01*
X148468599Y-102888748D01*
X148192399Y-103073299D01*
X148145815Y-103143018D01*
X147147718Y-104141115D01*
X147078000Y-104187699D01*
X147031417Y-104257416D01*
X147031416Y-104257417D01*
X146893448Y-104463900D01*
X146828643Y-104789700D01*
X146834466Y-104818974D01*
X146609375Y-104969375D01*
X146597184Y-104987619D01*
X146588157Y-104942235D01*
X146447809Y-104732191D01*
X146237765Y-104591843D01*
X145990000Y-104542560D01*
X145942199Y-104542560D01*
X145935000Y-104506370D01*
X145935000Y-104170533D01*
X146097765Y-104138157D01*
X146307809Y-103997809D01*
X146448157Y-103787765D01*
X146497440Y-103540000D01*
X146497440Y-102570000D01*
X146448157Y-102322235D01*
X146400028Y-102250205D01*
X146447763Y-102259700D01*
X146447763Y-102259700D01*
G37*
X146447763Y-102259700D02*
X146530000Y-102276058D01*
X146612237Y-102259700D01*
X148802560Y-102259700D01*
X148802560Y-102825565D01*
X148794400Y-102823942D01*
X148712163Y-102840300D01*
X148468599Y-102888748D01*
X148192399Y-103073299D01*
X148145815Y-103143018D01*
X147147718Y-104141115D01*
X147078000Y-104187699D01*
X147031417Y-104257416D01*
X147031416Y-104257417D01*
X146893448Y-104463900D01*
X146828643Y-104789700D01*
X146834466Y-104818974D01*
X146609375Y-104969375D01*
X146597184Y-104987619D01*
X146588157Y-104942235D01*
X146447809Y-104732191D01*
X146237765Y-104591843D01*
X145990000Y-104542560D01*
X145942199Y-104542560D01*
X145935000Y-104506370D01*
X145935000Y-104170533D01*
X146097765Y-104138157D01*
X146307809Y-103997809D01*
X146448157Y-103787765D01*
X146497440Y-103540000D01*
X146497440Y-102570000D01*
X146448157Y-102322235D01*
X146400028Y-102250205D01*
X146447763Y-102259700D01*
G36*
X162773744Y-94825000D02*
X163066256Y-94825000D01*
X163335401Y-94771464D01*
X163335401Y-104042388D01*
X163200669Y-104177120D01*
X163044146Y-104555000D01*
X162773744Y-104555000D01*
X162485000Y-104612435D01*
X162485000Y-94767565D01*
X162773744Y-94825000D01*
X162773744Y-94825000D01*
G37*
X162773744Y-94825000D02*
X163066256Y-94825000D01*
X163335401Y-94771464D01*
X163335401Y-104042388D01*
X163200669Y-104177120D01*
X163044146Y-104555000D01*
X162773744Y-104555000D01*
X162485000Y-104612435D01*
X162485000Y-94767565D01*
X162773744Y-94825000D01*
G36*
X160815000Y-104612435D02*
X160526256Y-104555000D01*
X160233744Y-104555000D01*
X159945000Y-104612435D01*
X159945000Y-94767565D01*
X160233744Y-94825000D01*
X160526256Y-94825000D01*
X160815000Y-94767565D01*
X160815000Y-104612435D01*
X160815000Y-104612435D01*
G37*
X160815000Y-104612435D02*
X160526256Y-104555000D01*
X160233744Y-104555000D01*
X159945000Y-104612435D01*
X159945000Y-94767565D01*
X160233744Y-94825000D01*
X160526256Y-94825000D01*
X160815000Y-94767565D01*
X160815000Y-104612435D01*
G36*
X177009375Y-70830625D02*
X177500582Y-71158839D01*
X177933744Y-71245000D01*
X178226256Y-71245000D01*
X178495301Y-71191484D01*
X178495300Y-99288967D01*
X178478943Y-99371200D01*
X178495300Y-99453433D01*
X178495300Y-99453436D01*
X178543748Y-99697000D01*
X178728299Y-99973201D01*
X178798020Y-100019787D01*
X180538232Y-101760000D01*
X180069697Y-101760000D01*
X180021027Y-101780160D01*
X176375000Y-98134133D01*
X176375000Y-70988065D01*
X176610625Y-70830625D01*
X176810000Y-70532239D01*
X177009375Y-70830625D01*
X177009375Y-70830625D01*
G37*
X177009375Y-70830625D02*
X177500582Y-71158839D01*
X177933744Y-71245000D01*
X178226256Y-71245000D01*
X178495301Y-71191484D01*
X178495300Y-99288967D01*
X178478943Y-99371200D01*
X178495300Y-99453433D01*
X178495300Y-99453436D01*
X178543748Y-99697000D01*
X178728299Y-99973201D01*
X178798020Y-100019787D01*
X180538232Y-101760000D01*
X180069697Y-101760000D01*
X180021027Y-101780160D01*
X176375000Y-98134133D01*
X176375000Y-70988065D01*
X176610625Y-70830625D01*
X176810000Y-70532239D01*
X177009375Y-70830625D01*
G36*
X149190996Y-92241564D02*
X149149375Y-92269375D01*
X148950000Y-92567761D01*
X148750625Y-92269375D01*
X148259418Y-91941161D01*
X147826256Y-91855000D01*
X147533744Y-91855000D01*
X147100582Y-91941161D01*
X146609375Y-92269375D01*
X146597184Y-92287619D01*
X146588157Y-92242235D01*
X146447809Y-92032191D01*
X146237765Y-91891843D01*
X145990000Y-91842560D01*
X144290000Y-91842560D01*
X144042235Y-91891843D01*
X143832191Y-92032191D01*
X143691843Y-92242235D01*
X143642560Y-92490000D01*
X143642560Y-94190000D01*
X143691843Y-94437765D01*
X143832191Y-94647809D01*
X144042235Y-94788157D01*
X144265000Y-94832467D01*
X144265000Y-95129467D01*
X144102235Y-95161843D01*
X143892191Y-95302191D01*
X143751843Y-95512235D01*
X143702560Y-95760000D01*
X143702560Y-96730000D01*
X143751843Y-96977765D01*
X143892191Y-97187809D01*
X143910436Y-97200000D01*
X143892191Y-97212191D01*
X143751843Y-97422235D01*
X143751040Y-97426272D01*
X140815000Y-94490233D01*
X140815000Y-83865567D01*
X149190996Y-92241564D01*
X149190996Y-92241564D01*
G37*
X149190996Y-92241564D02*
X149149375Y-92269375D01*
X148950000Y-92567761D01*
X148750625Y-92269375D01*
X148259418Y-91941161D01*
X147826256Y-91855000D01*
X147533744Y-91855000D01*
X147100582Y-91941161D01*
X146609375Y-92269375D01*
X146597184Y-92287619D01*
X146588157Y-92242235D01*
X146447809Y-92032191D01*
X146237765Y-91891843D01*
X145990000Y-91842560D01*
X144290000Y-91842560D01*
X144042235Y-91891843D01*
X143832191Y-92032191D01*
X143691843Y-92242235D01*
X143642560Y-92490000D01*
X143642560Y-94190000D01*
X143691843Y-94437765D01*
X143832191Y-94647809D01*
X144042235Y-94788157D01*
X144265000Y-94832467D01*
X144265000Y-95129467D01*
X144102235Y-95161843D01*
X143892191Y-95302191D01*
X143751843Y-95512235D01*
X143702560Y-95760000D01*
X143702560Y-96730000D01*
X143751843Y-96977765D01*
X143892191Y-97187809D01*
X143910436Y-97200000D01*
X143892191Y-97212191D01*
X143751843Y-97422235D01*
X143751040Y-97426272D01*
X140815000Y-94490233D01*
X140815000Y-83865567D01*
X149190996Y-92241564D01*
G36*
X146609375Y-94410625D02*
X146834465Y-94561025D01*
X146828642Y-94590300D01*
X146893448Y-94916101D01*
X147077999Y-95192301D01*
X147354199Y-95376852D01*
X147597763Y-95425300D01*
X147680000Y-95441658D01*
X147762237Y-95425300D01*
X148394733Y-95425300D01*
X148817802Y-95848370D01*
X148802560Y-95925000D01*
X148802560Y-96940300D01*
X146712237Y-96940300D01*
X146630000Y-96923942D01*
X146547763Y-96940300D01*
X146451813Y-96959386D01*
X146497440Y-96730000D01*
X146497440Y-95760000D01*
X146448157Y-95512235D01*
X146307809Y-95302191D01*
X146097765Y-95161843D01*
X145935000Y-95129467D01*
X145935000Y-94873630D01*
X145942199Y-94837440D01*
X145990000Y-94837440D01*
X146237765Y-94788157D01*
X146447809Y-94647809D01*
X146588157Y-94437765D01*
X146597184Y-94392381D01*
X146609375Y-94410625D01*
X146609375Y-94410625D01*
G37*
X146609375Y-94410625D02*
X146834465Y-94561025D01*
X146828642Y-94590300D01*
X146893448Y-94916101D01*
X147077999Y-95192301D01*
X147354199Y-95376852D01*
X147597763Y-95425300D01*
X147680000Y-95441658D01*
X147762237Y-95425300D01*
X148394733Y-95425300D01*
X148817802Y-95848370D01*
X148802560Y-95925000D01*
X148802560Y-96940300D01*
X146712237Y-96940300D01*
X146630000Y-96923942D01*
X146547763Y-96940300D01*
X146451813Y-96959386D01*
X146497440Y-96730000D01*
X146497440Y-95760000D01*
X146448157Y-95512235D01*
X146307809Y-95302191D01*
X146097765Y-95161843D01*
X145935000Y-95129467D01*
X145935000Y-94873630D01*
X145942199Y-94837440D01*
X145990000Y-94837440D01*
X146237765Y-94788157D01*
X146447809Y-94647809D01*
X146588157Y-94437765D01*
X146597184Y-94392381D01*
X146609375Y-94410625D01*
G36*
X145187000Y-69633000D02*
X145207000Y-69633000D01*
X145207000Y-69887000D01*
X145187000Y-69887000D01*
X145187000Y-71080155D01*
X145416890Y-71201476D01*
X145826924Y-71031645D01*
X146255183Y-70641358D01*
X146316157Y-70511522D01*
X146529375Y-70830625D01*
X146765000Y-70988065D01*
X146765001Y-86847462D01*
X146748643Y-86929700D01*
X146813448Y-87255500D01*
X146813449Y-87255501D01*
X146998000Y-87531701D01*
X147067718Y-87578285D01*
X151730996Y-92241564D01*
X151689375Y-92269375D01*
X151490000Y-92567761D01*
X151290625Y-92269375D01*
X151065535Y-92118975D01*
X151071358Y-92089700D01*
X151006552Y-91763900D01*
X151006552Y-91763899D01*
X150822001Y-91487699D01*
X150752283Y-91441115D01*
X142085000Y-82773833D01*
X142085000Y-71187565D01*
X142373744Y-71245000D01*
X142666256Y-71245000D01*
X143099418Y-71158839D01*
X143590625Y-70830625D01*
X143803843Y-70511522D01*
X143864817Y-70641358D01*
X144293076Y-71031645D01*
X144703110Y-71201476D01*
X144933000Y-71080155D01*
X144933000Y-69887000D01*
X144913000Y-69887000D01*
X144913000Y-69633000D01*
X144933000Y-69633000D01*
X144933000Y-69613000D01*
X145187000Y-69613000D01*
X145187000Y-69633000D01*
X145187000Y-69633000D01*
G37*
X145187000Y-69633000D02*
X145207000Y-69633000D01*
X145207000Y-69887000D01*
X145187000Y-69887000D01*
X145187000Y-71080155D01*
X145416890Y-71201476D01*
X145826924Y-71031645D01*
X146255183Y-70641358D01*
X146316157Y-70511522D01*
X146529375Y-70830625D01*
X146765000Y-70988065D01*
X146765001Y-86847462D01*
X146748643Y-86929700D01*
X146813448Y-87255500D01*
X146813449Y-87255501D01*
X146998000Y-87531701D01*
X147067718Y-87578285D01*
X151730996Y-92241564D01*
X151689375Y-92269375D01*
X151490000Y-92567761D01*
X151290625Y-92269375D01*
X151065535Y-92118975D01*
X151071358Y-92089700D01*
X151006552Y-91763900D01*
X151006552Y-91763899D01*
X150822001Y-91487699D01*
X150752283Y-91441115D01*
X142085000Y-82773833D01*
X142085000Y-71187565D01*
X142373744Y-71245000D01*
X142666256Y-71245000D01*
X143099418Y-71158839D01*
X143590625Y-70830625D01*
X143803843Y-70511522D01*
X143864817Y-70641358D01*
X144293076Y-71031645D01*
X144703110Y-71201476D01*
X144933000Y-71080155D01*
X144933000Y-69887000D01*
X144913000Y-69887000D01*
X144913000Y-69633000D01*
X144933000Y-69633000D01*
X144933000Y-69613000D01*
X145187000Y-69613000D01*
X145187000Y-69633000D01*
G36*
X151609375Y-70830625D02*
X151845000Y-70988065D01*
X151845001Y-83430762D01*
X151828643Y-83513000D01*
X151893448Y-83838800D01*
X151893449Y-83838801D01*
X152078000Y-84115001D01*
X152147718Y-84161585D01*
X158275000Y-90288868D01*
X158275000Y-91912435D01*
X157986256Y-91855000D01*
X157693744Y-91855000D01*
X157260582Y-91941161D01*
X156769375Y-92269375D01*
X156570000Y-92567761D01*
X156370625Y-92269375D01*
X155879418Y-91941161D01*
X155446256Y-91855000D01*
X155153744Y-91855000D01*
X154884700Y-91908516D01*
X154884700Y-87848733D01*
X154901057Y-87766500D01*
X154884700Y-87684267D01*
X154884700Y-87684263D01*
X154836252Y-87440699D01*
X154651701Y-87164499D01*
X154581983Y-87117915D01*
X149685300Y-82221233D01*
X149685300Y-71183647D01*
X149993744Y-71245000D01*
X150286256Y-71245000D01*
X150719418Y-71158839D01*
X151210625Y-70830625D01*
X151410000Y-70532239D01*
X151609375Y-70830625D01*
X151609375Y-70830625D01*
G37*
X151609375Y-70830625D02*
X151845000Y-70988065D01*
X151845001Y-83430762D01*
X151828643Y-83513000D01*
X151893448Y-83838800D01*
X151893449Y-83838801D01*
X152078000Y-84115001D01*
X152147718Y-84161585D01*
X158275000Y-90288868D01*
X158275000Y-91912435D01*
X157986256Y-91855000D01*
X157693744Y-91855000D01*
X157260582Y-91941161D01*
X156769375Y-92269375D01*
X156570000Y-92567761D01*
X156370625Y-92269375D01*
X155879418Y-91941161D01*
X155446256Y-91855000D01*
X155153744Y-91855000D01*
X154884700Y-91908516D01*
X154884700Y-87848733D01*
X154901057Y-87766500D01*
X154884700Y-87684267D01*
X154884700Y-87684263D01*
X154836252Y-87440699D01*
X154651701Y-87164499D01*
X154581983Y-87117915D01*
X149685300Y-82221233D01*
X149685300Y-71183647D01*
X149993744Y-71245000D01*
X150286256Y-71245000D01*
X150719418Y-71158839D01*
X151210625Y-70830625D01*
X151410000Y-70532239D01*
X151609375Y-70830625D01*
G36*
X163335400Y-81615968D02*
X163335400Y-91908536D01*
X163066256Y-91855000D01*
X162773744Y-91855000D01*
X162485000Y-91912435D01*
X162485000Y-80765568D01*
X163335400Y-81615968D01*
X163335400Y-81615968D01*
G37*
X163335400Y-81615968D02*
X163335400Y-91908536D01*
X163066256Y-91855000D01*
X162773744Y-91855000D01*
X162485000Y-91912435D01*
X162485000Y-80765568D01*
X163335400Y-81615968D01*
G36*
X160815001Y-80664870D02*
X160815001Y-91912435D01*
X160526256Y-91855000D01*
X160233744Y-91855000D01*
X159945000Y-91912435D01*
X159945000Y-90025232D01*
X159961357Y-89942999D01*
X159945000Y-89860764D01*
X159945000Y-89860763D01*
X159896552Y-89617199D01*
X159712001Y-89340999D01*
X159642283Y-89294415D01*
X153515000Y-83167133D01*
X153515000Y-73364867D01*
X160815001Y-80664870D01*
X160815001Y-80664870D01*
G37*
X160815001Y-80664870D02*
X160815001Y-91912435D01*
X160526256Y-91855000D01*
X160233744Y-91855000D01*
X159945000Y-91912435D01*
X159945000Y-90025232D01*
X159961357Y-89942999D01*
X159945000Y-89860764D01*
X159945000Y-89860763D01*
X159896552Y-89617199D01*
X159712001Y-89340999D01*
X159642283Y-89294415D01*
X153515000Y-83167133D01*
X153515000Y-73364867D01*
X160815001Y-80664870D01*
G36*
X153214700Y-88112368D02*
X153214701Y-91363533D01*
X148435000Y-86583833D01*
X148435000Y-83332667D01*
X153214700Y-88112368D01*
X153214700Y-88112368D01*
G37*
X153214700Y-88112368D02*
X153214701Y-91363533D01*
X148435000Y-86583833D01*
X148435000Y-83332667D01*
X153214700Y-88112368D01*
G36*
X155655001Y-73143134D02*
X154785000Y-72273133D01*
X154785000Y-71187565D01*
X155073744Y-71245000D01*
X155366256Y-71245000D01*
X155655000Y-71187565D01*
X155655001Y-73143134D01*
X155655001Y-73143134D01*
G37*
X155655001Y-73143134D02*
X154785000Y-72273133D01*
X154785000Y-71187565D01*
X155073744Y-71245000D01*
X155366256Y-71245000D01*
X155655000Y-71187565D01*
X155655001Y-73143134D01*
G04 #@! TD*
M02*
