M48
;DRILL file {KiCad (5.0.0-rc2-dev-756-g45dad4ded)} date Sun May 20 06:56:21 2018
;FORMAT={-:-/ absolute / inch / decimal}
FMAT,2
INCH,TZ
T1C0.0236
T2C0.0335
T3C0.0354
T4C0.0390
T5C0.0394
T6C0.0512
T7C0.0551
T8C0.1063
%
G90
G05
M72
T1
X4.7205Y-4.2992
X4.7756Y-3.7638
X4.9252Y-4.2717
X4.9252Y-4.4055
X5.4331Y-2.9016
X5.5591Y-3.6181
X5.8268Y-3.7913
X5.8268Y-4.0433
X5.9016Y-3.3976
X5.9331Y-2.9016
X6.1034Y-4.0911
X6.1142Y-2.8465
X6.1299Y-3.0945
X6.1636Y-3.7251
X6.3071Y-3.878
X6.4094Y-3.878
X6.4134Y-3.3976
X6.4598Y-4.1245
X6.9528Y-4.2953
X7.0236Y-3.9252
T2
X7.1016Y-4.0677
X7.2984Y-4.0677
T3
X4.6047Y-4.6063
X4.7047Y-4.6063
T4
X6.939Y-4.6516
X7.1161Y-4.6516
X4.3791Y-2.6827
X4.3791Y-2.8598
X6.1713Y-4.6516
X6.3484Y-4.6516
X6.5551Y-4.6516
X6.7323Y-4.6516
X5.4035Y-4.6516
X5.5807Y-4.6516
X5.7874Y-4.6516
X5.9646Y-4.6516
T5
X5.311Y-2.6465
X5.311Y-2.7465
X5.411Y-2.6465
X5.411Y-2.7465
X5.511Y-2.6465
X5.511Y-2.7465
X5.611Y-2.6465
X5.611Y-2.7465
X5.711Y-2.6465
X5.711Y-2.7465
X5.811Y-2.6465
X5.811Y-2.7465
X5.911Y-2.6465
X5.911Y-2.7465
X6.011Y-2.6465
X6.011Y-2.7465
X6.111Y-2.6465
X6.111Y-2.7465
X6.211Y-2.6465
X6.211Y-2.7465
X6.311Y-2.6465
X6.311Y-2.7465
X6.411Y-2.6465
X6.411Y-2.7465
X6.511Y-2.6465
X6.511Y-2.7465
X6.611Y-2.6465
X6.611Y-2.7465
X6.711Y-2.6465
X6.711Y-2.7465
X6.811Y-2.6465
X6.811Y-2.7465
X6.911Y-2.6465
X6.911Y-2.7465
X7.011Y-2.6465
X7.011Y-2.7465
X7.111Y-2.6465
X7.111Y-2.7465
X7.211Y-2.6465
X7.211Y-2.7465
X5.7142Y-3.6748
X5.8142Y-3.6748
X5.9142Y-3.6748
X6.0142Y-3.6748
X6.1142Y-3.6748
X6.2142Y-3.6748
X6.3142Y-3.6748
X6.4142Y-3.6748
X6.5142Y-3.6748
X6.6142Y-3.6748
X5.7142Y-4.1748
X5.8142Y-4.1748
X5.9142Y-4.1748
X6.0142Y-4.1748
X6.1142Y-4.1748
X6.2142Y-4.1748
X6.3142Y-4.1748
X6.4142Y-4.1748
X6.5142Y-4.1748
X6.6142Y-4.1748
T6
X6.8898Y-4.5535
X7.1657Y-4.5535
X4.4772Y-2.6335
X4.4772Y-2.9094
X6.122Y-4.5535
X6.398Y-4.5535
X6.5059Y-4.5535
X6.7819Y-4.5535
X5.3543Y-4.5535
X5.6303Y-4.5535
X5.7382Y-4.5535
X6.0142Y-4.5535
T7
X4.3425Y-3.9575
X4.3425Y-4.3512
X4.7244Y-3.8591
X4.7244Y-4.1543
X4.7244Y-4.4496
X4.8228Y-3.9575
X4.8228Y-4.3512
X4.9213Y-4.1543
X4.3425Y-3.1622
X4.3425Y-3.5559
X4.7244Y-3.0638
X4.7244Y-3.3591
X4.7244Y-3.6543
X4.8228Y-3.1622
X4.8228Y-3.5559
X4.9213Y-3.3591
T8
X7.4016Y-2.6969
X7.4016Y-4.626
X5.1181Y-2.6969
X5.1181Y-4.626
T0
M30
