G04 #@! TF.GenerationSoftware,KiCad,Pcbnew,(5.0.0-rc2-dev-756-g45dad4ded)*
G04 #@! TF.CreationDate,2018-05-20T06:56:18+02:00*
G04 #@! TF.ProjectId,Pi1541 Ad-on Board,5069313534312041642D6F6E20426F61,0.97*
G04 #@! TF.SameCoordinates,Original*
G04 #@! TF.FileFunction,Soldermask,Top*
G04 #@! TF.FilePolarity,Negative*
%FSLAX46Y46*%
G04 Gerber Fmt 4.6, Leading zero omitted, Abs format (unit mm)*
G04 Created by KiCad (PCBNEW (5.0.0-rc2-dev-756-g45dad4ded)) date Sun May 20 06:56:18 2018*
%MOMM*%
%LPD*%
G01*
G04 APERTURE LIST*
%ADD10C,0.100000*%
%ADD11C,2.500000*%
%ADD12R,1.850000X1.850000*%
%ADD13C,1.850000*%
%ADD14R,1.800000X1.800000*%
%ADD15C,1.800000*%
%ADD16C,5.400000*%
%ADD17C,2.100000*%
%ADD18C,1.750000*%
%ADD19R,1.700000X1.700000*%
%ADD20O,1.700000X1.700000*%
G04 APERTURE END LIST*
D10*
X111000000Y-121000000D02*
G75*
G02X107500000Y-117500000I0J3500000D01*
G01*
X107500000Y-68500000D02*
G75*
G02X111000000Y-65000000I3500000J0D01*
G01*
X107500000Y-68500000D02*
X107500000Y-117500000D01*
X191500000Y-117500000D02*
G75*
G02X188000000Y-121000000I-3500000J0D01*
G01*
X188000000Y-65000000D02*
G75*
G02X191500000Y-68500000I0J-3500000D01*
G01*
X191500000Y-117500000D02*
X191500000Y-68500000D01*
X111000000Y-121000000D02*
X188000000Y-121000000D01*
X111000000Y-65000000D02*
X188000000Y-65000000D01*
D11*
G04 #@! TO.C,J2*
X125000000Y-85320000D03*
X122500000Y-80320000D03*
X122500000Y-90320000D03*
X120000000Y-77820000D03*
X120000000Y-85320000D03*
X120000000Y-92820000D03*
X110300000Y-90320000D03*
X110300000Y-80320000D03*
G04 #@! TD*
G04 #@! TO.C,J3*
X110300000Y-100520000D03*
X110300000Y-110520000D03*
X120000000Y-113020000D03*
X120000000Y-105520000D03*
X120000000Y-98020000D03*
X122500000Y-110520000D03*
X122500000Y-100520000D03*
X125000000Y-105520000D03*
G04 #@! TD*
D12*
G04 #@! TO.C,PIEZO1*
X185380000Y-103320000D03*
D13*
X180380000Y-103320000D03*
G04 #@! TD*
D14*
G04 #@! TO.C,D1*
X119500000Y-117000000D03*
D15*
X116960000Y-117000000D03*
G04 #@! TD*
D16*
G04 #@! TO.C,MK1*
X130000000Y-68500000D03*
G04 #@! TD*
G04 #@! TO.C,MK2*
X188000000Y-68500000D03*
G04 #@! TD*
G04 #@! TO.C,MK3*
X188000000Y-117500000D03*
G04 #@! TD*
G04 #@! TO.C,MK4*
X130000000Y-117500000D03*
G04 #@! TD*
D17*
G04 #@! TO.C,SW1*
X143010000Y-115660000D03*
D18*
X141750000Y-118150000D03*
X137250000Y-118150000D03*
D17*
X136000000Y-115660000D03*
G04 #@! TD*
G04 #@! TO.C,SW2*
X145750000Y-115660000D03*
D18*
X147000000Y-118150000D03*
X151500000Y-118150000D03*
D17*
X152760000Y-115660000D03*
G04 #@! TD*
G04 #@! TO.C,SW3*
X162510000Y-115660000D03*
D18*
X161250000Y-118150000D03*
X156750000Y-118150000D03*
D17*
X155500000Y-115660000D03*
G04 #@! TD*
G04 #@! TO.C,SW4*
X165250000Y-115660000D03*
D18*
X166500000Y-118150000D03*
X171000000Y-118150000D03*
D17*
X172260000Y-115660000D03*
G04 #@! TD*
G04 #@! TO.C,SW5*
X182010000Y-115660000D03*
D18*
X180750000Y-118150000D03*
X176250000Y-118150000D03*
D17*
X175000000Y-115660000D03*
G04 #@! TD*
G04 #@! TO.C,SW6*
X113720000Y-73900000D03*
D18*
X111230000Y-72640000D03*
X111230000Y-68140000D03*
D17*
X113720000Y-66890000D03*
G04 #@! TD*
D19*
G04 #@! TO.C,J4*
X145140000Y-93340000D03*
D20*
X147680000Y-93340000D03*
X150220000Y-93340000D03*
X152760000Y-93340000D03*
X155300000Y-93340000D03*
X157840000Y-93340000D03*
X160380000Y-93340000D03*
X162920000Y-93340000D03*
X165460000Y-93340000D03*
X168000000Y-93340000D03*
G04 #@! TD*
G04 #@! TO.C,J5*
X168000000Y-106040000D03*
X165460000Y-106040000D03*
X162920000Y-106040000D03*
X160380000Y-106040000D03*
X157840000Y-106040000D03*
X155300000Y-106040000D03*
X152760000Y-106040000D03*
X150220000Y-106040000D03*
X147680000Y-106040000D03*
D19*
X145140000Y-106040000D03*
G04 #@! TD*
G04 #@! TO.C,J1*
X134900000Y-69760000D03*
D20*
X134900000Y-67220000D03*
X137440000Y-69760000D03*
X137440000Y-67220000D03*
X139980000Y-69760000D03*
X139980000Y-67220000D03*
X142520000Y-69760000D03*
X142520000Y-67220000D03*
X145060000Y-69760000D03*
X145060000Y-67220000D03*
X147600000Y-69760000D03*
X147600000Y-67220000D03*
X150140000Y-69760000D03*
X150140000Y-67220000D03*
X152680000Y-69760000D03*
X152680000Y-67220000D03*
X155220000Y-69760000D03*
X155220000Y-67220000D03*
X157760000Y-69760000D03*
X157760000Y-67220000D03*
X160300000Y-69760000D03*
X160300000Y-67220000D03*
X162840000Y-69760000D03*
X162840000Y-67220000D03*
X165380000Y-69760000D03*
X165380000Y-67220000D03*
X167920000Y-69760000D03*
X167920000Y-67220000D03*
X170460000Y-69760000D03*
X170460000Y-67220000D03*
X173000000Y-69760000D03*
X173000000Y-67220000D03*
X175540000Y-69760000D03*
X175540000Y-67220000D03*
X178080000Y-69760000D03*
X178080000Y-67220000D03*
X180620000Y-69760000D03*
X180620000Y-67220000D03*
X183160000Y-69760000D03*
X183160000Y-67220000D03*
G04 #@! TD*
M02*
