G04 #@! TF.GenerationSoftware,KiCad,Pcbnew,5.0.0-rc2-dev-unknown-482fd86~64~ubuntu18.04.1*
G04 #@! TF.CreationDate,2018-05-09T13:23:49+02:00*
G04 #@! TF.ProjectId,Pi1541 Ad-on Board,5069313534312041642D6F6E20426F61,0.9*
G04 #@! TF.SameCoordinates,Original*
G04 #@! TF.FileFunction,Copper,L1,Top,Signal*
G04 #@! TF.FilePolarity,Positive*
%FSLAX46Y46*%
G04 Gerber Fmt 4.6, Leading zero omitted, Abs format (unit mm)*
G04 Created by KiCad (PCBNEW 5.0.0-rc2-dev-unknown-482fd86~64~ubuntu18.04.1) date Wed May  9 13:23:49 2018*
%MOMM*%
%LPD*%
G01*
G04 APERTURE LIST*
%ADD10C,0.100000*%
%ADD11C,2.500000*%
%ADD12C,1.300000*%
%ADD13R,1.300000X1.300000*%
%ADD14R,1.600000X1.600000*%
%ADD15O,1.600000X1.600000*%
%ADD16C,5.400000*%
%ADD17C,1.600000*%
%ADD18R,1.850000X1.850000*%
%ADD19C,1.850000*%
%ADD20R,1.700000X1.700000*%
%ADD21O,1.700000X1.700000*%
%ADD22C,2.100000*%
%ADD23C,1.750000*%
%ADD24R,1.800000X1.800000*%
%ADD25C,1.800000*%
%ADD26C,0.800000*%
%ADD27C,0.600000*%
%ADD28C,0.400000*%
%ADD29C,0.254000*%
G04 APERTURE END LIST*
D10*
X111000000Y-121000000D02*
G75*
G02X107500000Y-117500000I0J3500000D01*
G01*
X107500000Y-68500000D02*
G75*
G02X111000000Y-65000000I3500000J0D01*
G01*
X107500000Y-68500000D02*
X107500000Y-117500000D01*
X191500000Y-117500000D02*
G75*
G02X188000000Y-121000000I-3500000J0D01*
G01*
X188000000Y-65000000D02*
G75*
G02X191500000Y-68500000I0J-3500000D01*
G01*
X191500000Y-117500000D02*
X191500000Y-68500000D01*
X111000000Y-121000000D02*
X188000000Y-121000000D01*
X111000000Y-65000000D02*
X188000000Y-65000000D01*
D11*
X125000000Y-82850000D03*
X122500000Y-77850000D03*
X122500000Y-87850000D03*
X120000000Y-75350000D03*
X120000000Y-82850000D03*
X120000000Y-90350000D03*
X110300000Y-87850000D03*
X110300000Y-77850000D03*
X110300000Y-98050000D03*
X110300000Y-108050000D03*
X120000000Y-110550000D03*
X120000000Y-103050000D03*
X120000000Y-95550000D03*
X122500000Y-108050000D03*
X122500000Y-98050000D03*
X125000000Y-103050000D03*
D12*
X129890000Y-98870000D03*
X131160000Y-100140000D03*
D13*
X131160000Y-97600000D03*
X141760000Y-97600000D03*
D12*
X141760000Y-100140000D03*
X140490000Y-98870000D03*
X151140000Y-98870000D03*
X152410000Y-100140000D03*
D13*
X152410000Y-97600000D03*
X163010000Y-97600000D03*
D12*
X163010000Y-100140000D03*
X161740000Y-98870000D03*
D14*
X141770000Y-105090000D03*
D15*
X144310000Y-105090000D03*
X146850000Y-105090000D03*
X149390000Y-105090000D03*
X151930000Y-105090000D03*
D16*
X130000000Y-68500000D03*
X188000000Y-68500000D03*
X188000000Y-117500000D03*
X130000000Y-117500000D03*
D17*
X129880000Y-93080000D03*
D15*
X137500000Y-93080000D03*
X148120000Y-93070000D03*
D17*
X140500000Y-93070000D03*
X151130000Y-93060000D03*
D15*
X158750000Y-93060000D03*
X169370000Y-93060000D03*
D17*
X161750000Y-93060000D03*
D18*
X183000000Y-103000000D03*
D19*
X178000000Y-103000000D03*
D17*
X128500000Y-105100000D03*
D15*
X136120000Y-105100000D03*
D20*
X134870000Y-69780000D03*
D21*
X134870000Y-67240000D03*
X137410000Y-69780000D03*
X137410000Y-67240000D03*
X139950000Y-69780000D03*
X139950000Y-67240000D03*
X142490000Y-69780000D03*
X142490000Y-67240000D03*
X145030000Y-69780000D03*
X145030000Y-67240000D03*
X147570000Y-69780000D03*
X147570000Y-67240000D03*
X150110000Y-69780000D03*
X150110000Y-67240000D03*
X152650000Y-69780000D03*
X152650000Y-67240000D03*
X155190000Y-69780000D03*
X155190000Y-67240000D03*
X157730000Y-69780000D03*
X157730000Y-67240000D03*
X160270000Y-69780000D03*
X160270000Y-67240000D03*
X162810000Y-69780000D03*
X162810000Y-67240000D03*
X165350000Y-69780000D03*
X165350000Y-67240000D03*
X167890000Y-69780000D03*
X167890000Y-67240000D03*
X170430000Y-69780000D03*
X170430000Y-67240000D03*
X172970000Y-69780000D03*
X172970000Y-67240000D03*
X175510000Y-69780000D03*
X175510000Y-67240000D03*
X178050000Y-69780000D03*
X178050000Y-67240000D03*
X180590000Y-69780000D03*
X180590000Y-67240000D03*
X183130000Y-69780000D03*
X183130000Y-67240000D03*
D22*
X136000000Y-115660000D03*
D23*
X137250000Y-118150000D03*
X141750000Y-118150000D03*
D22*
X143010000Y-115660000D03*
X152760000Y-115660000D03*
D23*
X151500000Y-118150000D03*
X147000000Y-118150000D03*
D22*
X145750000Y-115660000D03*
X155500000Y-115660000D03*
D23*
X156750000Y-118150000D03*
X161250000Y-118150000D03*
D22*
X162510000Y-115660000D03*
X172260000Y-115660000D03*
D23*
X171000000Y-118150000D03*
X166500000Y-118150000D03*
D22*
X165250000Y-115660000D03*
X175000000Y-115660000D03*
D23*
X176250000Y-118150000D03*
X180750000Y-118150000D03*
D22*
X182010000Y-115660000D03*
D24*
X119500000Y-117000000D03*
D25*
X116960000Y-117000000D03*
D26*
X120000000Y-106500000D03*
X135000000Y-109000000D03*
X137500000Y-76500000D03*
X131500000Y-87500000D03*
X136000000Y-97000000D03*
X134000000Y-102000000D03*
X148000000Y-80000000D03*
X121000000Y-93000000D03*
X119500000Y-100000000D03*
X147500000Y-111000000D03*
X159000000Y-107500000D03*
X157500000Y-100000000D03*
X169500000Y-79500000D03*
X175000000Y-73000000D03*
X158500000Y-86500000D03*
X155000000Y-92000000D03*
X158000000Y-73500000D03*
X150500000Y-90500000D03*
X167500000Y-111500000D03*
X146500000Y-96000000D03*
X159632500Y-78456800D03*
D27*
X130000000Y-71145900D02*
X130000000Y-68500000D01*
X122500000Y-77850000D02*
X129204100Y-71145900D01*
X129204100Y-71145900D02*
X130000000Y-71145900D01*
X130000000Y-71145900D02*
X143664100Y-71145900D01*
X143664100Y-71145900D02*
X145030000Y-69780000D01*
X119500000Y-117000000D02*
X129500000Y-117000000D01*
X129500000Y-117000000D02*
X130000000Y-117500000D01*
X150110000Y-67240000D02*
X148759700Y-65889700D01*
X148759700Y-65889700D02*
X139950000Y-65889700D01*
X157730000Y-67240000D02*
X156379600Y-65889600D01*
X156379600Y-65889600D02*
X151460400Y-65889600D01*
X151460400Y-65889600D02*
X150110000Y-67240000D01*
X170430000Y-65889700D02*
X159080300Y-65889700D01*
X159080300Y-65889700D02*
X157730000Y-67240000D01*
X130000000Y-68500000D02*
X132610300Y-65889700D01*
X132610300Y-65889700D02*
X139950000Y-65889700D01*
X139950000Y-67240000D02*
X139950000Y-65889700D01*
X183130000Y-69780000D02*
X184480300Y-69780000D01*
X183130000Y-69780000D02*
X181779700Y-71130300D01*
X181779700Y-71130300D02*
X165350000Y-71130300D01*
X184480300Y-69780000D02*
X184480300Y-69551600D01*
X184480300Y-69551600D02*
X185934700Y-68097200D01*
X185934700Y-68097200D02*
X183727000Y-65889600D01*
X183727000Y-65889600D02*
X176860400Y-65889600D01*
X176860400Y-65889600D02*
X175510000Y-67240000D01*
X188000000Y-68500000D02*
X186337400Y-68500000D01*
X186337400Y-68500000D02*
X185934700Y-68097200D01*
X165350000Y-69780000D02*
X165350000Y-71130300D01*
X183000000Y-103000000D02*
X183000000Y-104425300D01*
X183564700Y-117500000D02*
X183564700Y-104990000D01*
X183564700Y-104990000D02*
X183000000Y-104425300D01*
X180750000Y-118150000D02*
X182914700Y-118150000D01*
X182914700Y-118150000D02*
X183564700Y-117500000D01*
X183564700Y-117500000D02*
X188000000Y-117500000D01*
X171000000Y-118150000D02*
X172390600Y-119540600D01*
X172390600Y-119540600D02*
X179359400Y-119540600D01*
X179359400Y-119540600D02*
X180750000Y-118150000D01*
X171000000Y-118150000D02*
X169595300Y-119554700D01*
X169595300Y-119554700D02*
X162654700Y-119554700D01*
X162654700Y-119554700D02*
X161250000Y-118150000D01*
X175510000Y-67240000D02*
X174159700Y-65889700D01*
X174159700Y-65889700D02*
X170430000Y-65889700D01*
X130000000Y-117500000D02*
X132039100Y-119539100D01*
X132039100Y-119539100D02*
X140360900Y-119539100D01*
X140360900Y-119539100D02*
X141750000Y-118150000D01*
X170430000Y-67240000D02*
X170430000Y-65889700D01*
X141750000Y-118150000D02*
X143125400Y-119525400D01*
X143125400Y-119525400D02*
X150124600Y-119525400D01*
X150124600Y-119525400D02*
X151500000Y-118150000D01*
X151500000Y-118150000D02*
X152875400Y-119525400D01*
X152875400Y-119525400D02*
X159874600Y-119525400D01*
X159874600Y-119525400D02*
X161250000Y-118150000D01*
X137410000Y-67240000D02*
X134870000Y-67240000D01*
X141760000Y-97600000D02*
X142910300Y-97600000D01*
X148120000Y-93070000D02*
X146819700Y-93070000D01*
X142910300Y-97600000D02*
X142910300Y-96979400D01*
X142910300Y-96979400D02*
X146819700Y-93070000D01*
X148120000Y-93070000D02*
X149420300Y-93070000D01*
X152410000Y-97600000D02*
X152410000Y-96449700D01*
X152410000Y-96449700D02*
X149420300Y-93460000D01*
X149420300Y-93460000D02*
X149420300Y-93070000D01*
D28*
X161750000Y-93060000D02*
X161750000Y-79442500D01*
X161750000Y-79442500D02*
X153559800Y-71252300D01*
X153559800Y-71252300D02*
X147260100Y-71252300D01*
X147260100Y-71252300D02*
X146280400Y-70272600D01*
X146280400Y-70272600D02*
X146280400Y-69194200D01*
X146280400Y-69194200D02*
X145596200Y-68510000D01*
X145596200Y-68510000D02*
X139383300Y-68510000D01*
X139383300Y-68510000D02*
X138660300Y-69233000D01*
X138660300Y-69233000D02*
X138660300Y-69780000D01*
X137410000Y-69780000D02*
X138660300Y-69780000D01*
X161740000Y-98870000D02*
X161740000Y-93070000D01*
X161740000Y-93070000D02*
X161750000Y-93060000D01*
X129880000Y-93080000D02*
X129880000Y-98860000D01*
X129880000Y-98860000D02*
X129890000Y-98870000D01*
X151130000Y-93060000D02*
X153460400Y-95390400D01*
X153460400Y-95390400D02*
X153460400Y-98417300D01*
X153460400Y-98417300D02*
X153007700Y-98870000D01*
X153007700Y-98870000D02*
X151140000Y-98870000D01*
X128779500Y-99270500D02*
X125000000Y-95491100D01*
X125000000Y-95491100D02*
X125000000Y-82850000D01*
X131160000Y-100140000D02*
X129648900Y-100140000D01*
X129648900Y-100140000D02*
X128779500Y-99270500D01*
X128779500Y-99270500D02*
X125000000Y-103050000D01*
X149390000Y-105090000D02*
X148189700Y-105090000D01*
X148189700Y-105090000D02*
X148189700Y-104714800D01*
X148189700Y-104714800D02*
X147364600Y-103889700D01*
X147364600Y-103889700D02*
X140804200Y-103889700D01*
X140804200Y-103889700D02*
X136643900Y-108050000D01*
X136643900Y-108050000D02*
X122500000Y-108050000D01*
X152410000Y-100140000D02*
X153162700Y-100892700D01*
X153162700Y-100892700D02*
X153162700Y-105627000D01*
X153162700Y-105627000D02*
X152483000Y-106306700D01*
X152483000Y-106306700D02*
X150606700Y-106306700D01*
X150606700Y-106306700D02*
X149390000Y-105090000D01*
X150729700Y-105090000D02*
X150729700Y-104714900D01*
X150729700Y-104714900D02*
X149291700Y-103276900D01*
X149291700Y-103276900D02*
X140568100Y-103276900D01*
X140568100Y-103276900D02*
X137516900Y-106328100D01*
X137516900Y-106328100D02*
X123278100Y-106328100D01*
X123278100Y-106328100D02*
X120000000Y-103050000D01*
X151930000Y-105090000D02*
X150729700Y-105090000D01*
X120000000Y-110550000D02*
X118308700Y-108858700D01*
X118308700Y-108858700D02*
X118308700Y-92041300D01*
X118308700Y-92041300D02*
X120000000Y-90350000D01*
X145649700Y-105090000D02*
X145649700Y-105465100D01*
X145649700Y-105465100D02*
X140564800Y-110550000D01*
X140564800Y-110550000D02*
X120000000Y-110550000D01*
X146850000Y-105090000D02*
X145649700Y-105090000D01*
X136120000Y-105100000D02*
X136120000Y-101361700D01*
X136120000Y-101361700D02*
X159024900Y-78456800D01*
X159024900Y-78456800D02*
X159632500Y-78456800D01*
D29*
G36*
X127799414Y-66119809D02*
X130000000Y-68320395D01*
X132200586Y-66119809D01*
X131900504Y-65685000D01*
X186099496Y-65685000D01*
X185799414Y-66119809D01*
X188000000Y-68320395D01*
X188014143Y-68306253D01*
X188193748Y-68485858D01*
X188179605Y-68500000D01*
X190380191Y-70700586D01*
X190815001Y-70400503D01*
X190815000Y-115599496D01*
X190380191Y-115299414D01*
X188179605Y-117500000D01*
X188193748Y-117514143D01*
X188014143Y-117693748D01*
X188000000Y-117679605D01*
X185799414Y-119880191D01*
X186099496Y-120315000D01*
X131900504Y-120315000D01*
X132200586Y-119880191D01*
X130000000Y-117679605D01*
X127799414Y-119880191D01*
X128099496Y-120315000D01*
X111037095Y-120315000D01*
X110396386Y-120245397D01*
X109820936Y-120051736D01*
X109300490Y-119739021D01*
X108859337Y-119321844D01*
X108518062Y-118819672D01*
X108292579Y-118255925D01*
X108188886Y-117629568D01*
X108185000Y-117490434D01*
X108185000Y-116694670D01*
X115425000Y-116694670D01*
X115425000Y-117305330D01*
X115658690Y-117869507D01*
X116090493Y-118301310D01*
X116654670Y-118535000D01*
X117265330Y-118535000D01*
X117829507Y-118301310D01*
X118005861Y-118124956D01*
X118061673Y-118259699D01*
X118240302Y-118438327D01*
X118473691Y-118535000D01*
X119214250Y-118535000D01*
X119373000Y-118376250D01*
X119373000Y-117127000D01*
X119627000Y-117127000D01*
X119627000Y-118376250D01*
X119785750Y-118535000D01*
X120526309Y-118535000D01*
X120759698Y-118438327D01*
X120938327Y-118259699D01*
X120980868Y-118156995D01*
X126663738Y-118156995D01*
X127169117Y-119383716D01*
X127176341Y-119394528D01*
X127619809Y-119700586D01*
X129820395Y-117500000D01*
X130179605Y-117500000D01*
X132380191Y-119700586D01*
X132823659Y-119394528D01*
X133333725Y-118169748D01*
X133336262Y-116843005D01*
X132830883Y-115616284D01*
X132823659Y-115605472D01*
X132417023Y-115324833D01*
X134315000Y-115324833D01*
X134315000Y-115995167D01*
X134571526Y-116614476D01*
X135045524Y-117088474D01*
X135664833Y-117345000D01*
X135949030Y-117345000D01*
X135740000Y-117849642D01*
X135740000Y-118450358D01*
X135969884Y-119005346D01*
X136394654Y-119430116D01*
X136949642Y-119660000D01*
X137550358Y-119660000D01*
X138105346Y-119430116D01*
X138323402Y-119212060D01*
X140867545Y-119212060D01*
X140950884Y-119465953D01*
X141515306Y-119671590D01*
X142115458Y-119645579D01*
X142549116Y-119465953D01*
X142632455Y-119212060D01*
X141750000Y-118329605D01*
X140867545Y-119212060D01*
X138323402Y-119212060D01*
X138530116Y-119005346D01*
X138760000Y-118450358D01*
X138760000Y-117915306D01*
X140228410Y-117915306D01*
X140254421Y-118515458D01*
X140434047Y-118949116D01*
X140687940Y-119032455D01*
X141570395Y-118150000D01*
X140687940Y-117267545D01*
X140434047Y-117350884D01*
X140228410Y-117915306D01*
X138760000Y-117915306D01*
X138760000Y-117849642D01*
X138530116Y-117294654D01*
X138323402Y-117087940D01*
X140867545Y-117087940D01*
X141750000Y-117970395D01*
X141764143Y-117956253D01*
X141943748Y-118135858D01*
X141929605Y-118150000D01*
X142812060Y-119032455D01*
X143065953Y-118949116D01*
X143271590Y-118384694D01*
X143245579Y-117784542D01*
X143065953Y-117350884D01*
X143048027Y-117345000D01*
X143345167Y-117345000D01*
X143964476Y-117088474D01*
X144380000Y-116672950D01*
X144795524Y-117088474D01*
X145414833Y-117345000D01*
X145699030Y-117345000D01*
X145490000Y-117849642D01*
X145490000Y-118450358D01*
X145719884Y-119005346D01*
X146144654Y-119430116D01*
X146699642Y-119660000D01*
X147300358Y-119660000D01*
X147855346Y-119430116D01*
X148073402Y-119212060D01*
X150617545Y-119212060D01*
X150700884Y-119465953D01*
X151265306Y-119671590D01*
X151865458Y-119645579D01*
X152299116Y-119465953D01*
X152382455Y-119212060D01*
X151500000Y-118329605D01*
X150617545Y-119212060D01*
X148073402Y-119212060D01*
X148280116Y-119005346D01*
X148510000Y-118450358D01*
X148510000Y-117915306D01*
X149978410Y-117915306D01*
X150004421Y-118515458D01*
X150184047Y-118949116D01*
X150437940Y-119032455D01*
X151320395Y-118150000D01*
X150437940Y-117267545D01*
X150184047Y-117350884D01*
X149978410Y-117915306D01*
X148510000Y-117915306D01*
X148510000Y-117849642D01*
X148280116Y-117294654D01*
X148073402Y-117087940D01*
X150617545Y-117087940D01*
X151500000Y-117970395D01*
X151514143Y-117956253D01*
X151693748Y-118135858D01*
X151679605Y-118150000D01*
X152562060Y-119032455D01*
X152815953Y-118949116D01*
X153021590Y-118384694D01*
X152995579Y-117784542D01*
X152815953Y-117350884D01*
X152798027Y-117345000D01*
X153095167Y-117345000D01*
X153714476Y-117088474D01*
X154130000Y-116672950D01*
X154545524Y-117088474D01*
X155164833Y-117345000D01*
X155449030Y-117345000D01*
X155240000Y-117849642D01*
X155240000Y-118450358D01*
X155469884Y-119005346D01*
X155894654Y-119430116D01*
X156449642Y-119660000D01*
X157050358Y-119660000D01*
X157605346Y-119430116D01*
X157823402Y-119212060D01*
X160367545Y-119212060D01*
X160450884Y-119465953D01*
X161015306Y-119671590D01*
X161615458Y-119645579D01*
X162049116Y-119465953D01*
X162132455Y-119212060D01*
X161250000Y-118329605D01*
X160367545Y-119212060D01*
X157823402Y-119212060D01*
X158030116Y-119005346D01*
X158260000Y-118450358D01*
X158260000Y-117915306D01*
X159728410Y-117915306D01*
X159754421Y-118515458D01*
X159934047Y-118949116D01*
X160187940Y-119032455D01*
X161070395Y-118150000D01*
X160187940Y-117267545D01*
X159934047Y-117350884D01*
X159728410Y-117915306D01*
X158260000Y-117915306D01*
X158260000Y-117849642D01*
X158030116Y-117294654D01*
X157823402Y-117087940D01*
X160367545Y-117087940D01*
X161250000Y-117970395D01*
X161264143Y-117956253D01*
X161443748Y-118135858D01*
X161429605Y-118150000D01*
X162312060Y-119032455D01*
X162565953Y-118949116D01*
X162771590Y-118384694D01*
X162745579Y-117784542D01*
X162565953Y-117350884D01*
X162548027Y-117345000D01*
X162845167Y-117345000D01*
X163464476Y-117088474D01*
X163880000Y-116672950D01*
X164295524Y-117088474D01*
X164914833Y-117345000D01*
X165199030Y-117345000D01*
X164990000Y-117849642D01*
X164990000Y-118450358D01*
X165219884Y-119005346D01*
X165644654Y-119430116D01*
X166199642Y-119660000D01*
X166800358Y-119660000D01*
X167355346Y-119430116D01*
X167573402Y-119212060D01*
X170117545Y-119212060D01*
X170200884Y-119465953D01*
X170765306Y-119671590D01*
X171365458Y-119645579D01*
X171799116Y-119465953D01*
X171882455Y-119212060D01*
X171000000Y-118329605D01*
X170117545Y-119212060D01*
X167573402Y-119212060D01*
X167780116Y-119005346D01*
X168010000Y-118450358D01*
X168010000Y-117915306D01*
X169478410Y-117915306D01*
X169504421Y-118515458D01*
X169684047Y-118949116D01*
X169937940Y-119032455D01*
X170820395Y-118150000D01*
X169937940Y-117267545D01*
X169684047Y-117350884D01*
X169478410Y-117915306D01*
X168010000Y-117915306D01*
X168010000Y-117849642D01*
X167780116Y-117294654D01*
X167573402Y-117087940D01*
X170117545Y-117087940D01*
X171000000Y-117970395D01*
X171014143Y-117956253D01*
X171193748Y-118135858D01*
X171179605Y-118150000D01*
X172062060Y-119032455D01*
X172315953Y-118949116D01*
X172521590Y-118384694D01*
X172495579Y-117784542D01*
X172315953Y-117350884D01*
X172298027Y-117345000D01*
X172595167Y-117345000D01*
X173214476Y-117088474D01*
X173630000Y-116672950D01*
X174045524Y-117088474D01*
X174664833Y-117345000D01*
X174949030Y-117345000D01*
X174740000Y-117849642D01*
X174740000Y-118450358D01*
X174969884Y-119005346D01*
X175394654Y-119430116D01*
X175949642Y-119660000D01*
X176550358Y-119660000D01*
X177105346Y-119430116D01*
X177323402Y-119212060D01*
X179867545Y-119212060D01*
X179950884Y-119465953D01*
X180515306Y-119671590D01*
X181115458Y-119645579D01*
X181549116Y-119465953D01*
X181632455Y-119212060D01*
X180750000Y-118329605D01*
X179867545Y-119212060D01*
X177323402Y-119212060D01*
X177530116Y-119005346D01*
X177760000Y-118450358D01*
X177760000Y-117915306D01*
X179228410Y-117915306D01*
X179254421Y-118515458D01*
X179434047Y-118949116D01*
X179687940Y-119032455D01*
X180570395Y-118150000D01*
X179687940Y-117267545D01*
X179434047Y-117350884D01*
X179228410Y-117915306D01*
X177760000Y-117915306D01*
X177760000Y-117849642D01*
X177530116Y-117294654D01*
X177323402Y-117087940D01*
X179867545Y-117087940D01*
X180750000Y-117970395D01*
X180764143Y-117956253D01*
X180943748Y-118135858D01*
X180929605Y-118150000D01*
X181812060Y-119032455D01*
X182065953Y-118949116D01*
X182271590Y-118384694D01*
X182261722Y-118156995D01*
X184663738Y-118156995D01*
X185169117Y-119383716D01*
X185176341Y-119394528D01*
X185619809Y-119700586D01*
X187820395Y-117500000D01*
X185619809Y-115299414D01*
X185176341Y-115605472D01*
X184666275Y-116830252D01*
X184663738Y-118156995D01*
X182261722Y-118156995D01*
X182245579Y-117784542D01*
X182065953Y-117350884D01*
X182048027Y-117345000D01*
X182345167Y-117345000D01*
X182964476Y-117088474D01*
X183438474Y-116614476D01*
X183695000Y-115995167D01*
X183695000Y-115324833D01*
X183610077Y-115119809D01*
X185799414Y-115119809D01*
X188000000Y-117320395D01*
X190200586Y-115119809D01*
X189894528Y-114676341D01*
X188669748Y-114166275D01*
X187343005Y-114163738D01*
X186116284Y-114669117D01*
X186105472Y-114676341D01*
X185799414Y-115119809D01*
X183610077Y-115119809D01*
X183438474Y-114705524D01*
X182964476Y-114231526D01*
X182345167Y-113975000D01*
X181674833Y-113975000D01*
X181055524Y-114231526D01*
X180581526Y-114705524D01*
X180325000Y-115324833D01*
X180325000Y-115995167D01*
X180581526Y-116614476D01*
X180611629Y-116644579D01*
X180384542Y-116654421D01*
X179950884Y-116834047D01*
X179867545Y-117087940D01*
X177323402Y-117087940D01*
X177105346Y-116869884D01*
X176550358Y-116640000D01*
X176402950Y-116640000D01*
X176428474Y-116614476D01*
X176685000Y-115995167D01*
X176685000Y-115324833D01*
X176428474Y-114705524D01*
X175954476Y-114231526D01*
X175335167Y-113975000D01*
X174664833Y-113975000D01*
X174045524Y-114231526D01*
X173630000Y-114647050D01*
X173214476Y-114231526D01*
X172595167Y-113975000D01*
X171924833Y-113975000D01*
X171305524Y-114231526D01*
X170831526Y-114705524D01*
X170575000Y-115324833D01*
X170575000Y-115995167D01*
X170831526Y-116614476D01*
X170861629Y-116644579D01*
X170634542Y-116654421D01*
X170200884Y-116834047D01*
X170117545Y-117087940D01*
X167573402Y-117087940D01*
X167355346Y-116869884D01*
X166800358Y-116640000D01*
X166652950Y-116640000D01*
X166678474Y-116614476D01*
X166935000Y-115995167D01*
X166935000Y-115324833D01*
X166678474Y-114705524D01*
X166204476Y-114231526D01*
X165585167Y-113975000D01*
X164914833Y-113975000D01*
X164295524Y-114231526D01*
X163880000Y-114647050D01*
X163464476Y-114231526D01*
X162845167Y-113975000D01*
X162174833Y-113975000D01*
X161555524Y-114231526D01*
X161081526Y-114705524D01*
X160825000Y-115324833D01*
X160825000Y-115995167D01*
X161081526Y-116614476D01*
X161111629Y-116644579D01*
X160884542Y-116654421D01*
X160450884Y-116834047D01*
X160367545Y-117087940D01*
X157823402Y-117087940D01*
X157605346Y-116869884D01*
X157050358Y-116640000D01*
X156902950Y-116640000D01*
X156928474Y-116614476D01*
X157185000Y-115995167D01*
X157185000Y-115324833D01*
X156928474Y-114705524D01*
X156454476Y-114231526D01*
X155835167Y-113975000D01*
X155164833Y-113975000D01*
X154545524Y-114231526D01*
X154130000Y-114647050D01*
X153714476Y-114231526D01*
X153095167Y-113975000D01*
X152424833Y-113975000D01*
X151805524Y-114231526D01*
X151331526Y-114705524D01*
X151075000Y-115324833D01*
X151075000Y-115995167D01*
X151331526Y-116614476D01*
X151361629Y-116644579D01*
X151134542Y-116654421D01*
X150700884Y-116834047D01*
X150617545Y-117087940D01*
X148073402Y-117087940D01*
X147855346Y-116869884D01*
X147300358Y-116640000D01*
X147152950Y-116640000D01*
X147178474Y-116614476D01*
X147435000Y-115995167D01*
X147435000Y-115324833D01*
X147178474Y-114705524D01*
X146704476Y-114231526D01*
X146085167Y-113975000D01*
X145414833Y-113975000D01*
X144795524Y-114231526D01*
X144380000Y-114647050D01*
X143964476Y-114231526D01*
X143345167Y-113975000D01*
X142674833Y-113975000D01*
X142055524Y-114231526D01*
X141581526Y-114705524D01*
X141325000Y-115324833D01*
X141325000Y-115995167D01*
X141581526Y-116614476D01*
X141611629Y-116644579D01*
X141384542Y-116654421D01*
X140950884Y-116834047D01*
X140867545Y-117087940D01*
X138323402Y-117087940D01*
X138105346Y-116869884D01*
X137550358Y-116640000D01*
X137402950Y-116640000D01*
X137428474Y-116614476D01*
X137685000Y-115995167D01*
X137685000Y-115324833D01*
X137428474Y-114705524D01*
X136954476Y-114231526D01*
X136335167Y-113975000D01*
X135664833Y-113975000D01*
X135045524Y-114231526D01*
X134571526Y-114705524D01*
X134315000Y-115324833D01*
X132417023Y-115324833D01*
X132380191Y-115299414D01*
X130179605Y-117500000D01*
X129820395Y-117500000D01*
X127619809Y-115299414D01*
X127176341Y-115605472D01*
X126666275Y-116830252D01*
X126663738Y-118156995D01*
X120980868Y-118156995D01*
X121035000Y-118026310D01*
X121035000Y-117285750D01*
X120876250Y-117127000D01*
X119627000Y-117127000D01*
X119373000Y-117127000D01*
X119353000Y-117127000D01*
X119353000Y-116873000D01*
X119373000Y-116873000D01*
X119373000Y-115623750D01*
X119627000Y-115623750D01*
X119627000Y-116873000D01*
X120876250Y-116873000D01*
X121035000Y-116714250D01*
X121035000Y-115973690D01*
X120938327Y-115740301D01*
X120759698Y-115561673D01*
X120526309Y-115465000D01*
X119785750Y-115465000D01*
X119627000Y-115623750D01*
X119373000Y-115623750D01*
X119214250Y-115465000D01*
X118473691Y-115465000D01*
X118240302Y-115561673D01*
X118061673Y-115740301D01*
X118005861Y-115875044D01*
X117829507Y-115698690D01*
X117265330Y-115465000D01*
X116654670Y-115465000D01*
X116090493Y-115698690D01*
X115658690Y-116130493D01*
X115425000Y-116694670D01*
X108185000Y-116694670D01*
X108185000Y-115119809D01*
X127799414Y-115119809D01*
X130000000Y-117320395D01*
X132200586Y-115119809D01*
X131894528Y-114676341D01*
X130669748Y-114166275D01*
X129343005Y-114163738D01*
X128116284Y-114669117D01*
X128105472Y-114676341D01*
X127799414Y-115119809D01*
X108185000Y-115119809D01*
X108185000Y-107675050D01*
X108415000Y-107675050D01*
X108415000Y-108424950D01*
X108701974Y-109117767D01*
X109232233Y-109648026D01*
X109925050Y-109935000D01*
X110674950Y-109935000D01*
X111367767Y-109648026D01*
X111898026Y-109117767D01*
X112185000Y-108424950D01*
X112185000Y-107675050D01*
X111898026Y-106982233D01*
X111367767Y-106451974D01*
X110674950Y-106165000D01*
X109925050Y-106165000D01*
X109232233Y-106451974D01*
X108701974Y-106982233D01*
X108415000Y-107675050D01*
X108185000Y-107675050D01*
X108185000Y-97675050D01*
X108415000Y-97675050D01*
X108415000Y-98424950D01*
X108701974Y-99117767D01*
X109232233Y-99648026D01*
X109925050Y-99935000D01*
X110674950Y-99935000D01*
X111367767Y-99648026D01*
X111898026Y-99117767D01*
X112185000Y-98424950D01*
X112185000Y-97675050D01*
X111898026Y-96982233D01*
X111367767Y-96451974D01*
X110674950Y-96165000D01*
X109925050Y-96165000D01*
X109232233Y-96451974D01*
X108701974Y-96982233D01*
X108415000Y-97675050D01*
X108185000Y-97675050D01*
X108185000Y-92041300D01*
X117457343Y-92041300D01*
X117473701Y-92123538D01*
X117473700Y-108776467D01*
X117457343Y-108858700D01*
X117473700Y-108940933D01*
X117473700Y-108940936D01*
X117522148Y-109184500D01*
X117706699Y-109460701D01*
X117776420Y-109507287D01*
X118211415Y-109942283D01*
X118115000Y-110175050D01*
X118115000Y-110924950D01*
X118401974Y-111617767D01*
X118932233Y-112148026D01*
X119625050Y-112435000D01*
X120374950Y-112435000D01*
X121067767Y-112148026D01*
X121598026Y-111617767D01*
X121694441Y-111385000D01*
X140482567Y-111385000D01*
X140564800Y-111401357D01*
X140647033Y-111385000D01*
X140647037Y-111385000D01*
X140890601Y-111336552D01*
X141166801Y-111152001D01*
X141213387Y-111082280D01*
X146028630Y-106267038D01*
X146290091Y-106441740D01*
X146708667Y-106525000D01*
X146991333Y-106525000D01*
X147409909Y-106441740D01*
X147884577Y-106124577D01*
X148028434Y-105909280D01*
X148189700Y-105941358D01*
X148227920Y-105933755D01*
X148355423Y-106124577D01*
X148830091Y-106441740D01*
X149248667Y-106525000D01*
X149531333Y-106525000D01*
X149625418Y-106506285D01*
X149958115Y-106838982D01*
X150004699Y-106908701D01*
X150280899Y-107093252D01*
X150524463Y-107141700D01*
X150606700Y-107158058D01*
X150688937Y-107141700D01*
X152400767Y-107141700D01*
X152483000Y-107158057D01*
X152565233Y-107141700D01*
X152565237Y-107141700D01*
X152808801Y-107093252D01*
X153085001Y-106908701D01*
X153131587Y-106838980D01*
X153694982Y-106275586D01*
X153764701Y-106229001D01*
X153949252Y-105952801D01*
X153997700Y-105709237D01*
X154014058Y-105627000D01*
X153997700Y-105544763D01*
X153997700Y-102689697D01*
X176440000Y-102689697D01*
X176440000Y-103310303D01*
X176677496Y-103883669D01*
X177116331Y-104322504D01*
X177689697Y-104560000D01*
X178310303Y-104560000D01*
X178883669Y-104322504D01*
X179322504Y-103883669D01*
X179560000Y-103310303D01*
X179560000Y-103285750D01*
X181440000Y-103285750D01*
X181440000Y-104051309D01*
X181536673Y-104284698D01*
X181715301Y-104463327D01*
X181948690Y-104560000D01*
X182714250Y-104560000D01*
X182873000Y-104401250D01*
X182873000Y-103127000D01*
X183127000Y-103127000D01*
X183127000Y-104401250D01*
X183285750Y-104560000D01*
X184051310Y-104560000D01*
X184284699Y-104463327D01*
X184463327Y-104284698D01*
X184560000Y-104051309D01*
X184560000Y-103285750D01*
X184401250Y-103127000D01*
X183127000Y-103127000D01*
X182873000Y-103127000D01*
X181598750Y-103127000D01*
X181440000Y-103285750D01*
X179560000Y-103285750D01*
X179560000Y-102689697D01*
X179322504Y-102116331D01*
X179154864Y-101948691D01*
X181440000Y-101948691D01*
X181440000Y-102714250D01*
X181598750Y-102873000D01*
X182873000Y-102873000D01*
X182873000Y-101598750D01*
X183127000Y-101598750D01*
X183127000Y-102873000D01*
X184401250Y-102873000D01*
X184560000Y-102714250D01*
X184560000Y-101948691D01*
X184463327Y-101715302D01*
X184284699Y-101536673D01*
X184051310Y-101440000D01*
X183285750Y-101440000D01*
X183127000Y-101598750D01*
X182873000Y-101598750D01*
X182714250Y-101440000D01*
X181948690Y-101440000D01*
X181715301Y-101536673D01*
X181536673Y-101715302D01*
X181440000Y-101948691D01*
X179154864Y-101948691D01*
X178883669Y-101677496D01*
X178310303Y-101440000D01*
X177689697Y-101440000D01*
X177116331Y-101677496D01*
X176677496Y-102116331D01*
X176440000Y-102689697D01*
X153997700Y-102689697D01*
X153997700Y-100974937D01*
X154014058Y-100892700D01*
X153949252Y-100566900D01*
X153949252Y-100566899D01*
X153764701Y-100290699D01*
X153695000Y-100244126D01*
X153695000Y-99884398D01*
X153542719Y-99516757D01*
X153609701Y-99472001D01*
X153656287Y-99402280D01*
X153992682Y-99065886D01*
X154062401Y-99019301D01*
X154246952Y-98743101D01*
X154295400Y-98499537D01*
X154295400Y-98499534D01*
X154311757Y-98417301D01*
X154295400Y-98335068D01*
X154295400Y-95472632D01*
X154311757Y-95390399D01*
X154295400Y-95308164D01*
X154295400Y-95308163D01*
X154246952Y-95064599D01*
X154062401Y-94788399D01*
X153992686Y-94741817D01*
X152565000Y-93314132D01*
X152565000Y-93060000D01*
X157286887Y-93060000D01*
X157398260Y-93619909D01*
X157715423Y-94094577D01*
X158190091Y-94411740D01*
X158608667Y-94495000D01*
X158891333Y-94495000D01*
X159309909Y-94411740D01*
X159784577Y-94094577D01*
X160101740Y-93619909D01*
X160213113Y-93060000D01*
X160101740Y-92500091D01*
X159784577Y-92025423D01*
X159309909Y-91708260D01*
X158891333Y-91625000D01*
X158608667Y-91625000D01*
X158190091Y-91708260D01*
X157715423Y-92025423D01*
X157398260Y-92500091D01*
X157286887Y-93060000D01*
X152565000Y-93060000D01*
X152565000Y-92774561D01*
X152346534Y-92247138D01*
X151942862Y-91843466D01*
X151415439Y-91625000D01*
X150844561Y-91625000D01*
X150317138Y-91843466D01*
X149913466Y-92247138D01*
X149904424Y-92268967D01*
X149785119Y-92189250D01*
X149512386Y-92135000D01*
X149420300Y-92116683D01*
X149328214Y-92135000D01*
X149221112Y-92135000D01*
X149154577Y-92035423D01*
X148679909Y-91718260D01*
X148261333Y-91635000D01*
X147978667Y-91635000D01*
X147560091Y-91718260D01*
X147085423Y-92035423D01*
X147018888Y-92135000D01*
X146911786Y-92135000D01*
X146819700Y-92116683D01*
X146727614Y-92135000D01*
X146477895Y-92184672D01*
X159245707Y-79416861D01*
X159426626Y-79491800D01*
X159838374Y-79491800D01*
X160218780Y-79334231D01*
X160339822Y-79213189D01*
X160915001Y-79788369D01*
X160915000Y-91865604D01*
X160533466Y-92247138D01*
X160315000Y-92774561D01*
X160315000Y-93345439D01*
X160533466Y-93872862D01*
X160905001Y-94244397D01*
X160905000Y-97887735D01*
X160650629Y-98142106D01*
X160455000Y-98614398D01*
X160455000Y-99125602D01*
X160650629Y-99597894D01*
X161012106Y-99959371D01*
X161484398Y-100155000D01*
X161725000Y-100155000D01*
X161725000Y-100395602D01*
X161920629Y-100867894D01*
X162282106Y-101229371D01*
X162754398Y-101425000D01*
X163265602Y-101425000D01*
X163737894Y-101229371D01*
X164099371Y-100867894D01*
X164295000Y-100395602D01*
X164295000Y-99884398D01*
X164099371Y-99412106D01*
X163737894Y-99050629D01*
X163368062Y-98897440D01*
X163660000Y-98897440D01*
X163907765Y-98848157D01*
X164117809Y-98707809D01*
X164258157Y-98497765D01*
X164307440Y-98250000D01*
X164307440Y-96950000D01*
X164258157Y-96702235D01*
X164117809Y-96492191D01*
X163907765Y-96351843D01*
X163660000Y-96302560D01*
X162575000Y-96302560D01*
X162575000Y-94264396D01*
X162966534Y-93872862D01*
X163185000Y-93345439D01*
X163185000Y-93060000D01*
X167906887Y-93060000D01*
X168018260Y-93619909D01*
X168335423Y-94094577D01*
X168810091Y-94411740D01*
X169228667Y-94495000D01*
X169511333Y-94495000D01*
X169929909Y-94411740D01*
X170404577Y-94094577D01*
X170721740Y-93619909D01*
X170833113Y-93060000D01*
X170721740Y-92500091D01*
X170404577Y-92025423D01*
X169929909Y-91708260D01*
X169511333Y-91625000D01*
X169228667Y-91625000D01*
X168810091Y-91708260D01*
X168335423Y-92025423D01*
X168018260Y-92500091D01*
X167906887Y-93060000D01*
X163185000Y-93060000D01*
X163185000Y-92774561D01*
X162966534Y-92247138D01*
X162585000Y-91865604D01*
X162585000Y-79524737D01*
X162601358Y-79442500D01*
X162536552Y-79116699D01*
X162451282Y-78989084D01*
X162352001Y-78840499D01*
X162282283Y-78793915D01*
X154681266Y-71192899D01*
X155043744Y-71265000D01*
X155336256Y-71265000D01*
X155769418Y-71178839D01*
X156260625Y-70850625D01*
X156460000Y-70552239D01*
X156659375Y-70850625D01*
X157150582Y-71178839D01*
X157583744Y-71265000D01*
X157876256Y-71265000D01*
X158309418Y-71178839D01*
X158800625Y-70850625D01*
X159000000Y-70552239D01*
X159199375Y-70850625D01*
X159690582Y-71178839D01*
X160123744Y-71265000D01*
X160416256Y-71265000D01*
X160849418Y-71178839D01*
X161340625Y-70850625D01*
X161540000Y-70552239D01*
X161739375Y-70850625D01*
X162230582Y-71178839D01*
X162663744Y-71265000D01*
X162956256Y-71265000D01*
X163389418Y-71178839D01*
X163880625Y-70850625D01*
X164093843Y-70531522D01*
X164154817Y-70661358D01*
X164583076Y-71051645D01*
X164993110Y-71221476D01*
X165223000Y-71100155D01*
X165223000Y-69907000D01*
X165203000Y-69907000D01*
X165203000Y-69653000D01*
X165223000Y-69653000D01*
X165223000Y-69633000D01*
X165477000Y-69633000D01*
X165477000Y-69653000D01*
X165497000Y-69653000D01*
X165497000Y-69907000D01*
X165477000Y-69907000D01*
X165477000Y-71100155D01*
X165706890Y-71221476D01*
X166116924Y-71051645D01*
X166545183Y-70661358D01*
X166606157Y-70531522D01*
X166819375Y-70850625D01*
X167310582Y-71178839D01*
X167743744Y-71265000D01*
X168036256Y-71265000D01*
X168469418Y-71178839D01*
X168960625Y-70850625D01*
X169160000Y-70552239D01*
X169359375Y-70850625D01*
X169850582Y-71178839D01*
X170283744Y-71265000D01*
X170576256Y-71265000D01*
X171009418Y-71178839D01*
X171500625Y-70850625D01*
X171700000Y-70552239D01*
X171899375Y-70850625D01*
X172390582Y-71178839D01*
X172823744Y-71265000D01*
X173116256Y-71265000D01*
X173549418Y-71178839D01*
X174040625Y-70850625D01*
X174240000Y-70552239D01*
X174439375Y-70850625D01*
X174930582Y-71178839D01*
X175363744Y-71265000D01*
X175656256Y-71265000D01*
X176089418Y-71178839D01*
X176580625Y-70850625D01*
X176780000Y-70552239D01*
X176979375Y-70850625D01*
X177470582Y-71178839D01*
X177903744Y-71265000D01*
X178196256Y-71265000D01*
X178629418Y-71178839D01*
X179120625Y-70850625D01*
X179320000Y-70552239D01*
X179519375Y-70850625D01*
X180010582Y-71178839D01*
X180443744Y-71265000D01*
X180736256Y-71265000D01*
X181169418Y-71178839D01*
X181660625Y-70850625D01*
X181873843Y-70531522D01*
X181934817Y-70661358D01*
X182363076Y-71051645D01*
X182773110Y-71221476D01*
X183003000Y-71100155D01*
X183003000Y-69907000D01*
X183257000Y-69907000D01*
X183257000Y-71100155D01*
X183486890Y-71221476D01*
X183896924Y-71051645D01*
X184085059Y-70880191D01*
X185799414Y-70880191D01*
X186105472Y-71323659D01*
X187330252Y-71833725D01*
X188656995Y-71836262D01*
X189883716Y-71330883D01*
X189894528Y-71323659D01*
X190200586Y-70880191D01*
X188000000Y-68679605D01*
X185799414Y-70880191D01*
X184085059Y-70880191D01*
X184325183Y-70661358D01*
X184571486Y-70136892D01*
X184450819Y-69907000D01*
X183257000Y-69907000D01*
X183003000Y-69907000D01*
X182983000Y-69907000D01*
X182983000Y-69653000D01*
X183003000Y-69653000D01*
X183003000Y-69633000D01*
X183257000Y-69633000D01*
X183257000Y-69653000D01*
X184450819Y-69653000D01*
X184571486Y-69423108D01*
X184446513Y-69156995D01*
X184663738Y-69156995D01*
X185169117Y-70383716D01*
X185176341Y-70394528D01*
X185619809Y-70700586D01*
X187820395Y-68500000D01*
X185619809Y-66299414D01*
X185176341Y-66605472D01*
X184666275Y-67830252D01*
X184663738Y-69156995D01*
X184446513Y-69156995D01*
X184325183Y-68898642D01*
X183900214Y-68511353D01*
X184200625Y-68310625D01*
X184528839Y-67819418D01*
X184644092Y-67240000D01*
X184528839Y-66660582D01*
X184200625Y-66169375D01*
X183709418Y-65841161D01*
X183276256Y-65755000D01*
X182983744Y-65755000D01*
X182550582Y-65841161D01*
X182059375Y-66169375D01*
X181860000Y-66467761D01*
X181660625Y-66169375D01*
X181169418Y-65841161D01*
X180736256Y-65755000D01*
X180443744Y-65755000D01*
X180010582Y-65841161D01*
X179519375Y-66169375D01*
X179320000Y-66467761D01*
X179120625Y-66169375D01*
X178629418Y-65841161D01*
X178196256Y-65755000D01*
X177903744Y-65755000D01*
X177470582Y-65841161D01*
X176979375Y-66169375D01*
X176766157Y-66488478D01*
X176705183Y-66358642D01*
X176276924Y-65968355D01*
X175866890Y-65798524D01*
X175637000Y-65919845D01*
X175637000Y-67113000D01*
X175657000Y-67113000D01*
X175657000Y-67367000D01*
X175637000Y-67367000D01*
X175637000Y-67387000D01*
X175383000Y-67387000D01*
X175383000Y-67367000D01*
X175363000Y-67367000D01*
X175363000Y-67113000D01*
X175383000Y-67113000D01*
X175383000Y-65919845D01*
X175153110Y-65798524D01*
X174743076Y-65968355D01*
X174314817Y-66358642D01*
X174253843Y-66488478D01*
X174040625Y-66169375D01*
X173549418Y-65841161D01*
X173116256Y-65755000D01*
X172823744Y-65755000D01*
X172390582Y-65841161D01*
X171899375Y-66169375D01*
X171686157Y-66488478D01*
X171625183Y-66358642D01*
X171196924Y-65968355D01*
X170786890Y-65798524D01*
X170557000Y-65919845D01*
X170557000Y-67113000D01*
X170577000Y-67113000D01*
X170577000Y-67367000D01*
X170557000Y-67367000D01*
X170557000Y-67387000D01*
X170303000Y-67387000D01*
X170303000Y-67367000D01*
X170283000Y-67367000D01*
X170283000Y-67113000D01*
X170303000Y-67113000D01*
X170303000Y-65919845D01*
X170073110Y-65798524D01*
X169663076Y-65968355D01*
X169234817Y-66358642D01*
X169173843Y-66488478D01*
X168960625Y-66169375D01*
X168469418Y-65841161D01*
X168036256Y-65755000D01*
X167743744Y-65755000D01*
X167310582Y-65841161D01*
X166819375Y-66169375D01*
X166620000Y-66467761D01*
X166420625Y-66169375D01*
X165929418Y-65841161D01*
X165496256Y-65755000D01*
X165203744Y-65755000D01*
X164770582Y-65841161D01*
X164279375Y-66169375D01*
X164080000Y-66467761D01*
X163880625Y-66169375D01*
X163389418Y-65841161D01*
X162956256Y-65755000D01*
X162663744Y-65755000D01*
X162230582Y-65841161D01*
X161739375Y-66169375D01*
X161540000Y-66467761D01*
X161340625Y-66169375D01*
X160849418Y-65841161D01*
X160416256Y-65755000D01*
X160123744Y-65755000D01*
X159690582Y-65841161D01*
X159199375Y-66169375D01*
X158986157Y-66488478D01*
X158925183Y-66358642D01*
X158496924Y-65968355D01*
X158086890Y-65798524D01*
X157857000Y-65919845D01*
X157857000Y-67113000D01*
X157877000Y-67113000D01*
X157877000Y-67367000D01*
X157857000Y-67367000D01*
X157857000Y-67387000D01*
X157603000Y-67387000D01*
X157603000Y-67367000D01*
X157583000Y-67367000D01*
X157583000Y-67113000D01*
X157603000Y-67113000D01*
X157603000Y-65919845D01*
X157373110Y-65798524D01*
X156963076Y-65968355D01*
X156534817Y-66358642D01*
X156473843Y-66488478D01*
X156260625Y-66169375D01*
X155769418Y-65841161D01*
X155336256Y-65755000D01*
X155043744Y-65755000D01*
X154610582Y-65841161D01*
X154119375Y-66169375D01*
X153920000Y-66467761D01*
X153720625Y-66169375D01*
X153229418Y-65841161D01*
X152796256Y-65755000D01*
X152503744Y-65755000D01*
X152070582Y-65841161D01*
X151579375Y-66169375D01*
X151366157Y-66488478D01*
X151305183Y-66358642D01*
X150876924Y-65968355D01*
X150466890Y-65798524D01*
X150237000Y-65919845D01*
X150237000Y-67113000D01*
X150257000Y-67113000D01*
X150257000Y-67367000D01*
X150237000Y-67367000D01*
X150237000Y-67387000D01*
X149983000Y-67387000D01*
X149983000Y-67367000D01*
X149963000Y-67367000D01*
X149963000Y-67113000D01*
X149983000Y-67113000D01*
X149983000Y-65919845D01*
X149753110Y-65798524D01*
X149343076Y-65968355D01*
X148914817Y-66358642D01*
X148853843Y-66488478D01*
X148640625Y-66169375D01*
X148149418Y-65841161D01*
X147716256Y-65755000D01*
X147423744Y-65755000D01*
X146990582Y-65841161D01*
X146499375Y-66169375D01*
X146300000Y-66467761D01*
X146100625Y-66169375D01*
X145609418Y-65841161D01*
X145176256Y-65755000D01*
X144883744Y-65755000D01*
X144450582Y-65841161D01*
X143959375Y-66169375D01*
X143760000Y-66467761D01*
X143560625Y-66169375D01*
X143069418Y-65841161D01*
X142636256Y-65755000D01*
X142343744Y-65755000D01*
X141910582Y-65841161D01*
X141419375Y-66169375D01*
X141206157Y-66488478D01*
X141145183Y-66358642D01*
X140716924Y-65968355D01*
X140306890Y-65798524D01*
X140077000Y-65919845D01*
X140077000Y-67113000D01*
X140097000Y-67113000D01*
X140097000Y-67367000D01*
X140077000Y-67367000D01*
X140077000Y-67387000D01*
X139823000Y-67387000D01*
X139823000Y-67367000D01*
X139803000Y-67367000D01*
X139803000Y-67113000D01*
X139823000Y-67113000D01*
X139823000Y-65919845D01*
X139593110Y-65798524D01*
X139183076Y-65968355D01*
X138754817Y-66358642D01*
X138693843Y-66488478D01*
X138480625Y-66169375D01*
X137989418Y-65841161D01*
X137556256Y-65755000D01*
X137263744Y-65755000D01*
X136830582Y-65841161D01*
X136339375Y-66169375D01*
X136248753Y-66305000D01*
X136031247Y-66305000D01*
X135940625Y-66169375D01*
X135449418Y-65841161D01*
X135016256Y-65755000D01*
X134723744Y-65755000D01*
X134290582Y-65841161D01*
X133799375Y-66169375D01*
X133471161Y-66660582D01*
X133355908Y-67240000D01*
X133471161Y-67819418D01*
X133799375Y-68310625D01*
X133817619Y-68322816D01*
X133772235Y-68331843D01*
X133562191Y-68472191D01*
X133421843Y-68682235D01*
X133372560Y-68930000D01*
X133372560Y-70630000D01*
X133421843Y-70877765D01*
X133562191Y-71087809D01*
X133772235Y-71228157D01*
X134020000Y-71277440D01*
X135720000Y-71277440D01*
X135967765Y-71228157D01*
X136177809Y-71087809D01*
X136318157Y-70877765D01*
X136327184Y-70832381D01*
X136339375Y-70850625D01*
X136830582Y-71178839D01*
X137263744Y-71265000D01*
X137556256Y-71265000D01*
X137989418Y-71178839D01*
X138480625Y-70850625D01*
X138631025Y-70625535D01*
X138660300Y-70631358D01*
X138724352Y-70618617D01*
X138879375Y-70850625D01*
X139370582Y-71178839D01*
X139803744Y-71265000D01*
X140096256Y-71265000D01*
X140529418Y-71178839D01*
X141020625Y-70850625D01*
X141220000Y-70552239D01*
X141419375Y-70850625D01*
X141910582Y-71178839D01*
X142343744Y-71265000D01*
X142636256Y-71265000D01*
X143069418Y-71178839D01*
X143560625Y-70850625D01*
X143773843Y-70531522D01*
X143834817Y-70661358D01*
X144263076Y-71051645D01*
X144673110Y-71221476D01*
X144903000Y-71100155D01*
X144903000Y-69907000D01*
X144883000Y-69907000D01*
X144883000Y-69653000D01*
X144903000Y-69653000D01*
X144903000Y-69633000D01*
X145157000Y-69633000D01*
X145157000Y-69653000D01*
X145177000Y-69653000D01*
X145177000Y-69907000D01*
X145157000Y-69907000D01*
X145157000Y-71100155D01*
X145386890Y-71221476D01*
X145796924Y-71051645D01*
X145839645Y-71012712D01*
X146611515Y-71784582D01*
X146658099Y-71854301D01*
X146934299Y-72038852D01*
X147177863Y-72087300D01*
X147177866Y-72087300D01*
X147260099Y-72103657D01*
X147342332Y-72087300D01*
X153213933Y-72087300D01*
X158780657Y-77654025D01*
X158699099Y-77670248D01*
X158422899Y-77854799D01*
X158376315Y-77924517D01*
X135587718Y-100713115D01*
X135518000Y-100759699D01*
X135471416Y-100829417D01*
X135333448Y-101035900D01*
X135268643Y-101361700D01*
X135285001Y-101443938D01*
X135285000Y-103932070D01*
X135085423Y-104065423D01*
X134768260Y-104540091D01*
X134656887Y-105100000D01*
X134735080Y-105493100D01*
X129890405Y-105493100D01*
X129935000Y-105385439D01*
X129935000Y-104814561D01*
X129716534Y-104287138D01*
X129312862Y-103883466D01*
X128785439Y-103665000D01*
X128214561Y-103665000D01*
X127687138Y-103883466D01*
X127283466Y-104287138D01*
X127065000Y-104814561D01*
X127065000Y-105385439D01*
X127109595Y-105493100D01*
X123623969Y-105493100D01*
X121788585Y-103657717D01*
X121885000Y-103424950D01*
X121885000Y-102675050D01*
X121598026Y-101982233D01*
X121067767Y-101451974D01*
X120374950Y-101165000D01*
X119625050Y-101165000D01*
X119143700Y-101364382D01*
X119143700Y-99383320D01*
X121346285Y-99383320D01*
X121475533Y-99676123D01*
X122175806Y-99944388D01*
X122925435Y-99924250D01*
X123524467Y-99676123D01*
X123653715Y-99383320D01*
X122500000Y-98229605D01*
X121346285Y-99383320D01*
X119143700Y-99383320D01*
X119143700Y-97235618D01*
X119625050Y-97435000D01*
X120374950Y-97435000D01*
X120781532Y-97266588D01*
X120605612Y-97725806D01*
X120625750Y-98475435D01*
X120873877Y-99074467D01*
X121166680Y-99203715D01*
X122320395Y-98050000D01*
X122679605Y-98050000D01*
X123833320Y-99203715D01*
X124126123Y-99074467D01*
X124394388Y-98374194D01*
X124374250Y-97624565D01*
X124126123Y-97025533D01*
X123833320Y-96896285D01*
X122679605Y-98050000D01*
X122320395Y-98050000D01*
X122306253Y-98035858D01*
X122485858Y-97856253D01*
X122500000Y-97870395D01*
X123653715Y-96716680D01*
X123524467Y-96423877D01*
X122824194Y-96155612D01*
X122074565Y-96175750D01*
X121720340Y-96322475D01*
X121885000Y-95924950D01*
X121885000Y-95175050D01*
X121598026Y-94482233D01*
X121067767Y-93951974D01*
X120374950Y-93665000D01*
X119625050Y-93665000D01*
X119143700Y-93864382D01*
X119143700Y-92387167D01*
X119392283Y-92138585D01*
X119625050Y-92235000D01*
X120374950Y-92235000D01*
X121067767Y-91948026D01*
X121598026Y-91417767D01*
X121885000Y-90724950D01*
X121885000Y-89975050D01*
X121715259Y-89565259D01*
X122125050Y-89735000D01*
X122874950Y-89735000D01*
X123567767Y-89448026D01*
X124098026Y-88917767D01*
X124165001Y-88756076D01*
X124165000Y-95408873D01*
X124148643Y-95491111D01*
X124165000Y-95573337D01*
X124213448Y-95816900D01*
X124213451Y-95816904D01*
X124213452Y-95816910D01*
X124285644Y-95924950D01*
X124397999Y-96093101D01*
X124467723Y-96139689D01*
X127598624Y-99270508D01*
X125607717Y-101261415D01*
X125374950Y-101165000D01*
X124625050Y-101165000D01*
X123932233Y-101451974D01*
X123401974Y-101982233D01*
X123115000Y-102675050D01*
X123115000Y-103424950D01*
X123401974Y-104117767D01*
X123932233Y-104648026D01*
X124625050Y-104935000D01*
X125374950Y-104935000D01*
X126067767Y-104648026D01*
X126598026Y-104117767D01*
X126885000Y-103424950D01*
X126885000Y-102675050D01*
X126788585Y-102442283D01*
X128779466Y-100451402D01*
X129000302Y-100672263D01*
X129046899Y-100742001D01*
X129189431Y-100837238D01*
X129323054Y-100926533D01*
X129323078Y-100926538D01*
X129323099Y-100926552D01*
X129497172Y-100961177D01*
X129648851Y-100991357D01*
X129731109Y-100975000D01*
X130177735Y-100975000D01*
X130432106Y-101229371D01*
X130904398Y-101425000D01*
X131415602Y-101425000D01*
X131887894Y-101229371D01*
X132249371Y-100867894D01*
X132445000Y-100395602D01*
X132445000Y-99884398D01*
X132249371Y-99412106D01*
X131887894Y-99050629D01*
X131518062Y-98897440D01*
X131810000Y-98897440D01*
X132057765Y-98848157D01*
X132267809Y-98707809D01*
X132408157Y-98497765D01*
X132457440Y-98250000D01*
X132457440Y-96950000D01*
X132408157Y-96702235D01*
X132267809Y-96492191D01*
X132057765Y-96351843D01*
X131810000Y-96302560D01*
X130715000Y-96302560D01*
X130715000Y-94274396D01*
X131096534Y-93892862D01*
X131315000Y-93365439D01*
X131315000Y-93080000D01*
X136036887Y-93080000D01*
X136148260Y-93639909D01*
X136465423Y-94114577D01*
X136940091Y-94431740D01*
X137358667Y-94515000D01*
X137641333Y-94515000D01*
X138059909Y-94431740D01*
X138534577Y-94114577D01*
X138851740Y-93639909D01*
X138963113Y-93080000D01*
X138904347Y-92784561D01*
X139065000Y-92784561D01*
X139065000Y-93355439D01*
X139283466Y-93882862D01*
X139687138Y-94286534D01*
X140214561Y-94505000D01*
X140785439Y-94505000D01*
X141312862Y-94286534D01*
X141716534Y-93882862D01*
X141935000Y-93355439D01*
X141935000Y-92784561D01*
X141716534Y-92257138D01*
X141312862Y-91853466D01*
X140785439Y-91635000D01*
X140214561Y-91635000D01*
X139687138Y-91853466D01*
X139283466Y-92257138D01*
X139065000Y-92784561D01*
X138904347Y-92784561D01*
X138851740Y-92520091D01*
X138534577Y-92045423D01*
X138059909Y-91728260D01*
X137641333Y-91645000D01*
X137358667Y-91645000D01*
X136940091Y-91728260D01*
X136465423Y-92045423D01*
X136148260Y-92520091D01*
X136036887Y-93080000D01*
X131315000Y-93080000D01*
X131315000Y-92794561D01*
X131096534Y-92267138D01*
X130692862Y-91863466D01*
X130165439Y-91645000D01*
X129594561Y-91645000D01*
X129067138Y-91863466D01*
X128663466Y-92267138D01*
X128445000Y-92794561D01*
X128445000Y-93365439D01*
X128663466Y-93892862D01*
X129045000Y-94274396D01*
X129045001Y-97897734D01*
X128816294Y-98126441D01*
X125835000Y-95145226D01*
X125835000Y-84544441D01*
X126067767Y-84448026D01*
X126598026Y-83917767D01*
X126885000Y-83224950D01*
X126885000Y-82475050D01*
X126598026Y-81782233D01*
X126067767Y-81251974D01*
X125374950Y-80965000D01*
X124625050Y-80965000D01*
X123932233Y-81251974D01*
X123401974Y-81782233D01*
X123115000Y-82475050D01*
X123115000Y-83224950D01*
X123401974Y-83917767D01*
X123932233Y-84448026D01*
X124165001Y-84544442D01*
X124165001Y-86943924D01*
X124098026Y-86782233D01*
X123567767Y-86251974D01*
X122874950Y-85965000D01*
X122125050Y-85965000D01*
X121432233Y-86251974D01*
X120901974Y-86782233D01*
X120615000Y-87475050D01*
X120615000Y-88224950D01*
X120784741Y-88634741D01*
X120374950Y-88465000D01*
X119625050Y-88465000D01*
X118932233Y-88751974D01*
X118401974Y-89282233D01*
X118115000Y-89975050D01*
X118115000Y-90724950D01*
X118211415Y-90957717D01*
X117776418Y-91392715D01*
X117706700Y-91439299D01*
X117660116Y-91509017D01*
X117522148Y-91715500D01*
X117457343Y-92041300D01*
X108185000Y-92041300D01*
X108185000Y-87475050D01*
X108415000Y-87475050D01*
X108415000Y-88224950D01*
X108701974Y-88917767D01*
X109232233Y-89448026D01*
X109925050Y-89735000D01*
X110674950Y-89735000D01*
X111367767Y-89448026D01*
X111898026Y-88917767D01*
X112185000Y-88224950D01*
X112185000Y-87475050D01*
X111898026Y-86782233D01*
X111367767Y-86251974D01*
X110674950Y-85965000D01*
X109925050Y-85965000D01*
X109232233Y-86251974D01*
X108701974Y-86782233D01*
X108415000Y-87475050D01*
X108185000Y-87475050D01*
X108185000Y-82475050D01*
X118115000Y-82475050D01*
X118115000Y-83224950D01*
X118401974Y-83917767D01*
X118932233Y-84448026D01*
X119625050Y-84735000D01*
X120374950Y-84735000D01*
X121067767Y-84448026D01*
X121598026Y-83917767D01*
X121885000Y-83224950D01*
X121885000Y-82475050D01*
X121598026Y-81782233D01*
X121067767Y-81251974D01*
X120374950Y-80965000D01*
X119625050Y-80965000D01*
X118932233Y-81251974D01*
X118401974Y-81782233D01*
X118115000Y-82475050D01*
X108185000Y-82475050D01*
X108185000Y-77475050D01*
X108415000Y-77475050D01*
X108415000Y-78224950D01*
X108701974Y-78917767D01*
X109232233Y-79448026D01*
X109925050Y-79735000D01*
X110674950Y-79735000D01*
X111367767Y-79448026D01*
X111632473Y-79183320D01*
X121346285Y-79183320D01*
X121475533Y-79476123D01*
X122175806Y-79744388D01*
X122925435Y-79724250D01*
X123524467Y-79476123D01*
X123653715Y-79183320D01*
X122500000Y-78029605D01*
X121346285Y-79183320D01*
X111632473Y-79183320D01*
X111898026Y-78917767D01*
X112185000Y-78224950D01*
X112185000Y-77475050D01*
X111898026Y-76782233D01*
X111367767Y-76251974D01*
X110674950Y-75965000D01*
X109925050Y-75965000D01*
X109232233Y-76251974D01*
X108701974Y-76782233D01*
X108415000Y-77475050D01*
X108185000Y-77475050D01*
X108185000Y-74975050D01*
X118115000Y-74975050D01*
X118115000Y-75724950D01*
X118401974Y-76417767D01*
X118932233Y-76948026D01*
X119625050Y-77235000D01*
X120374950Y-77235000D01*
X120781532Y-77066588D01*
X120605612Y-77525806D01*
X120625750Y-78275435D01*
X120873877Y-78874467D01*
X121166680Y-79003715D01*
X122320395Y-77850000D01*
X122679605Y-77850000D01*
X123833320Y-79003715D01*
X124126123Y-78874467D01*
X124394388Y-78174194D01*
X124374250Y-77424565D01*
X124126123Y-76825533D01*
X123833320Y-76696285D01*
X122679605Y-77850000D01*
X122320395Y-77850000D01*
X122306253Y-77835858D01*
X122485858Y-77656253D01*
X122500000Y-77670395D01*
X123653715Y-76516680D01*
X123524467Y-76223877D01*
X122824194Y-75955612D01*
X122074565Y-75975750D01*
X121720340Y-76122475D01*
X121885000Y-75724950D01*
X121885000Y-74975050D01*
X121598026Y-74282233D01*
X121067767Y-73751974D01*
X120374950Y-73465000D01*
X119625050Y-73465000D01*
X118932233Y-73751974D01*
X118401974Y-74282233D01*
X118115000Y-74975050D01*
X108185000Y-74975050D01*
X108185000Y-70880191D01*
X127799414Y-70880191D01*
X128105472Y-71323659D01*
X129330252Y-71833725D01*
X130656995Y-71836262D01*
X131883716Y-71330883D01*
X131894528Y-71323659D01*
X132200586Y-70880191D01*
X130000000Y-68679605D01*
X127799414Y-70880191D01*
X108185000Y-70880191D01*
X108185000Y-69156995D01*
X126663738Y-69156995D01*
X127169117Y-70383716D01*
X127176341Y-70394528D01*
X127619809Y-70700586D01*
X129820395Y-68500000D01*
X130179605Y-68500000D01*
X132380191Y-70700586D01*
X132823659Y-70394528D01*
X133333725Y-69169748D01*
X133336262Y-67843005D01*
X132830883Y-66616284D01*
X132823659Y-66605472D01*
X132380191Y-66299414D01*
X130179605Y-68500000D01*
X129820395Y-68500000D01*
X127619809Y-66299414D01*
X127176341Y-66605472D01*
X126666275Y-67830252D01*
X126663738Y-69156995D01*
X108185000Y-69156995D01*
X108185000Y-68537095D01*
X108254603Y-67896386D01*
X108448264Y-67320936D01*
X108760977Y-66800491D01*
X109178153Y-66359339D01*
X109680328Y-66018061D01*
X110244074Y-65792579D01*
X110870431Y-65688886D01*
X111009566Y-65685000D01*
X128099496Y-65685000D01*
X127799414Y-66119809D01*
X127799414Y-66119809D01*
G37*
X127799414Y-66119809D02*
X130000000Y-68320395D01*
X132200586Y-66119809D01*
X131900504Y-65685000D01*
X186099496Y-65685000D01*
X185799414Y-66119809D01*
X188000000Y-68320395D01*
X188014143Y-68306253D01*
X188193748Y-68485858D01*
X188179605Y-68500000D01*
X190380191Y-70700586D01*
X190815001Y-70400503D01*
X190815000Y-115599496D01*
X190380191Y-115299414D01*
X188179605Y-117500000D01*
X188193748Y-117514143D01*
X188014143Y-117693748D01*
X188000000Y-117679605D01*
X185799414Y-119880191D01*
X186099496Y-120315000D01*
X131900504Y-120315000D01*
X132200586Y-119880191D01*
X130000000Y-117679605D01*
X127799414Y-119880191D01*
X128099496Y-120315000D01*
X111037095Y-120315000D01*
X110396386Y-120245397D01*
X109820936Y-120051736D01*
X109300490Y-119739021D01*
X108859337Y-119321844D01*
X108518062Y-118819672D01*
X108292579Y-118255925D01*
X108188886Y-117629568D01*
X108185000Y-117490434D01*
X108185000Y-116694670D01*
X115425000Y-116694670D01*
X115425000Y-117305330D01*
X115658690Y-117869507D01*
X116090493Y-118301310D01*
X116654670Y-118535000D01*
X117265330Y-118535000D01*
X117829507Y-118301310D01*
X118005861Y-118124956D01*
X118061673Y-118259699D01*
X118240302Y-118438327D01*
X118473691Y-118535000D01*
X119214250Y-118535000D01*
X119373000Y-118376250D01*
X119373000Y-117127000D01*
X119627000Y-117127000D01*
X119627000Y-118376250D01*
X119785750Y-118535000D01*
X120526309Y-118535000D01*
X120759698Y-118438327D01*
X120938327Y-118259699D01*
X120980868Y-118156995D01*
X126663738Y-118156995D01*
X127169117Y-119383716D01*
X127176341Y-119394528D01*
X127619809Y-119700586D01*
X129820395Y-117500000D01*
X130179605Y-117500000D01*
X132380191Y-119700586D01*
X132823659Y-119394528D01*
X133333725Y-118169748D01*
X133336262Y-116843005D01*
X132830883Y-115616284D01*
X132823659Y-115605472D01*
X132417023Y-115324833D01*
X134315000Y-115324833D01*
X134315000Y-115995167D01*
X134571526Y-116614476D01*
X135045524Y-117088474D01*
X135664833Y-117345000D01*
X135949030Y-117345000D01*
X135740000Y-117849642D01*
X135740000Y-118450358D01*
X135969884Y-119005346D01*
X136394654Y-119430116D01*
X136949642Y-119660000D01*
X137550358Y-119660000D01*
X138105346Y-119430116D01*
X138323402Y-119212060D01*
X140867545Y-119212060D01*
X140950884Y-119465953D01*
X141515306Y-119671590D01*
X142115458Y-119645579D01*
X142549116Y-119465953D01*
X142632455Y-119212060D01*
X141750000Y-118329605D01*
X140867545Y-119212060D01*
X138323402Y-119212060D01*
X138530116Y-119005346D01*
X138760000Y-118450358D01*
X138760000Y-117915306D01*
X140228410Y-117915306D01*
X140254421Y-118515458D01*
X140434047Y-118949116D01*
X140687940Y-119032455D01*
X141570395Y-118150000D01*
X140687940Y-117267545D01*
X140434047Y-117350884D01*
X140228410Y-117915306D01*
X138760000Y-117915306D01*
X138760000Y-117849642D01*
X138530116Y-117294654D01*
X138323402Y-117087940D01*
X140867545Y-117087940D01*
X141750000Y-117970395D01*
X141764143Y-117956253D01*
X141943748Y-118135858D01*
X141929605Y-118150000D01*
X142812060Y-119032455D01*
X143065953Y-118949116D01*
X143271590Y-118384694D01*
X143245579Y-117784542D01*
X143065953Y-117350884D01*
X143048027Y-117345000D01*
X143345167Y-117345000D01*
X143964476Y-117088474D01*
X144380000Y-116672950D01*
X144795524Y-117088474D01*
X145414833Y-117345000D01*
X145699030Y-117345000D01*
X145490000Y-117849642D01*
X145490000Y-118450358D01*
X145719884Y-119005346D01*
X146144654Y-119430116D01*
X146699642Y-119660000D01*
X147300358Y-119660000D01*
X147855346Y-119430116D01*
X148073402Y-119212060D01*
X150617545Y-119212060D01*
X150700884Y-119465953D01*
X151265306Y-119671590D01*
X151865458Y-119645579D01*
X152299116Y-119465953D01*
X152382455Y-119212060D01*
X151500000Y-118329605D01*
X150617545Y-119212060D01*
X148073402Y-119212060D01*
X148280116Y-119005346D01*
X148510000Y-118450358D01*
X148510000Y-117915306D01*
X149978410Y-117915306D01*
X150004421Y-118515458D01*
X150184047Y-118949116D01*
X150437940Y-119032455D01*
X151320395Y-118150000D01*
X150437940Y-117267545D01*
X150184047Y-117350884D01*
X149978410Y-117915306D01*
X148510000Y-117915306D01*
X148510000Y-117849642D01*
X148280116Y-117294654D01*
X148073402Y-117087940D01*
X150617545Y-117087940D01*
X151500000Y-117970395D01*
X151514143Y-117956253D01*
X151693748Y-118135858D01*
X151679605Y-118150000D01*
X152562060Y-119032455D01*
X152815953Y-118949116D01*
X153021590Y-118384694D01*
X152995579Y-117784542D01*
X152815953Y-117350884D01*
X152798027Y-117345000D01*
X153095167Y-117345000D01*
X153714476Y-117088474D01*
X154130000Y-116672950D01*
X154545524Y-117088474D01*
X155164833Y-117345000D01*
X155449030Y-117345000D01*
X155240000Y-117849642D01*
X155240000Y-118450358D01*
X155469884Y-119005346D01*
X155894654Y-119430116D01*
X156449642Y-119660000D01*
X157050358Y-119660000D01*
X157605346Y-119430116D01*
X157823402Y-119212060D01*
X160367545Y-119212060D01*
X160450884Y-119465953D01*
X161015306Y-119671590D01*
X161615458Y-119645579D01*
X162049116Y-119465953D01*
X162132455Y-119212060D01*
X161250000Y-118329605D01*
X160367545Y-119212060D01*
X157823402Y-119212060D01*
X158030116Y-119005346D01*
X158260000Y-118450358D01*
X158260000Y-117915306D01*
X159728410Y-117915306D01*
X159754421Y-118515458D01*
X159934047Y-118949116D01*
X160187940Y-119032455D01*
X161070395Y-118150000D01*
X160187940Y-117267545D01*
X159934047Y-117350884D01*
X159728410Y-117915306D01*
X158260000Y-117915306D01*
X158260000Y-117849642D01*
X158030116Y-117294654D01*
X157823402Y-117087940D01*
X160367545Y-117087940D01*
X161250000Y-117970395D01*
X161264143Y-117956253D01*
X161443748Y-118135858D01*
X161429605Y-118150000D01*
X162312060Y-119032455D01*
X162565953Y-118949116D01*
X162771590Y-118384694D01*
X162745579Y-117784542D01*
X162565953Y-117350884D01*
X162548027Y-117345000D01*
X162845167Y-117345000D01*
X163464476Y-117088474D01*
X163880000Y-116672950D01*
X164295524Y-117088474D01*
X164914833Y-117345000D01*
X165199030Y-117345000D01*
X164990000Y-117849642D01*
X164990000Y-118450358D01*
X165219884Y-119005346D01*
X165644654Y-119430116D01*
X166199642Y-119660000D01*
X166800358Y-119660000D01*
X167355346Y-119430116D01*
X167573402Y-119212060D01*
X170117545Y-119212060D01*
X170200884Y-119465953D01*
X170765306Y-119671590D01*
X171365458Y-119645579D01*
X171799116Y-119465953D01*
X171882455Y-119212060D01*
X171000000Y-118329605D01*
X170117545Y-119212060D01*
X167573402Y-119212060D01*
X167780116Y-119005346D01*
X168010000Y-118450358D01*
X168010000Y-117915306D01*
X169478410Y-117915306D01*
X169504421Y-118515458D01*
X169684047Y-118949116D01*
X169937940Y-119032455D01*
X170820395Y-118150000D01*
X169937940Y-117267545D01*
X169684047Y-117350884D01*
X169478410Y-117915306D01*
X168010000Y-117915306D01*
X168010000Y-117849642D01*
X167780116Y-117294654D01*
X167573402Y-117087940D01*
X170117545Y-117087940D01*
X171000000Y-117970395D01*
X171014143Y-117956253D01*
X171193748Y-118135858D01*
X171179605Y-118150000D01*
X172062060Y-119032455D01*
X172315953Y-118949116D01*
X172521590Y-118384694D01*
X172495579Y-117784542D01*
X172315953Y-117350884D01*
X172298027Y-117345000D01*
X172595167Y-117345000D01*
X173214476Y-117088474D01*
X173630000Y-116672950D01*
X174045524Y-117088474D01*
X174664833Y-117345000D01*
X174949030Y-117345000D01*
X174740000Y-117849642D01*
X174740000Y-118450358D01*
X174969884Y-119005346D01*
X175394654Y-119430116D01*
X175949642Y-119660000D01*
X176550358Y-119660000D01*
X177105346Y-119430116D01*
X177323402Y-119212060D01*
X179867545Y-119212060D01*
X179950884Y-119465953D01*
X180515306Y-119671590D01*
X181115458Y-119645579D01*
X181549116Y-119465953D01*
X181632455Y-119212060D01*
X180750000Y-118329605D01*
X179867545Y-119212060D01*
X177323402Y-119212060D01*
X177530116Y-119005346D01*
X177760000Y-118450358D01*
X177760000Y-117915306D01*
X179228410Y-117915306D01*
X179254421Y-118515458D01*
X179434047Y-118949116D01*
X179687940Y-119032455D01*
X180570395Y-118150000D01*
X179687940Y-117267545D01*
X179434047Y-117350884D01*
X179228410Y-117915306D01*
X177760000Y-117915306D01*
X177760000Y-117849642D01*
X177530116Y-117294654D01*
X177323402Y-117087940D01*
X179867545Y-117087940D01*
X180750000Y-117970395D01*
X180764143Y-117956253D01*
X180943748Y-118135858D01*
X180929605Y-118150000D01*
X181812060Y-119032455D01*
X182065953Y-118949116D01*
X182271590Y-118384694D01*
X182261722Y-118156995D01*
X184663738Y-118156995D01*
X185169117Y-119383716D01*
X185176341Y-119394528D01*
X185619809Y-119700586D01*
X187820395Y-117500000D01*
X185619809Y-115299414D01*
X185176341Y-115605472D01*
X184666275Y-116830252D01*
X184663738Y-118156995D01*
X182261722Y-118156995D01*
X182245579Y-117784542D01*
X182065953Y-117350884D01*
X182048027Y-117345000D01*
X182345167Y-117345000D01*
X182964476Y-117088474D01*
X183438474Y-116614476D01*
X183695000Y-115995167D01*
X183695000Y-115324833D01*
X183610077Y-115119809D01*
X185799414Y-115119809D01*
X188000000Y-117320395D01*
X190200586Y-115119809D01*
X189894528Y-114676341D01*
X188669748Y-114166275D01*
X187343005Y-114163738D01*
X186116284Y-114669117D01*
X186105472Y-114676341D01*
X185799414Y-115119809D01*
X183610077Y-115119809D01*
X183438474Y-114705524D01*
X182964476Y-114231526D01*
X182345167Y-113975000D01*
X181674833Y-113975000D01*
X181055524Y-114231526D01*
X180581526Y-114705524D01*
X180325000Y-115324833D01*
X180325000Y-115995167D01*
X180581526Y-116614476D01*
X180611629Y-116644579D01*
X180384542Y-116654421D01*
X179950884Y-116834047D01*
X179867545Y-117087940D01*
X177323402Y-117087940D01*
X177105346Y-116869884D01*
X176550358Y-116640000D01*
X176402950Y-116640000D01*
X176428474Y-116614476D01*
X176685000Y-115995167D01*
X176685000Y-115324833D01*
X176428474Y-114705524D01*
X175954476Y-114231526D01*
X175335167Y-113975000D01*
X174664833Y-113975000D01*
X174045524Y-114231526D01*
X173630000Y-114647050D01*
X173214476Y-114231526D01*
X172595167Y-113975000D01*
X171924833Y-113975000D01*
X171305524Y-114231526D01*
X170831526Y-114705524D01*
X170575000Y-115324833D01*
X170575000Y-115995167D01*
X170831526Y-116614476D01*
X170861629Y-116644579D01*
X170634542Y-116654421D01*
X170200884Y-116834047D01*
X170117545Y-117087940D01*
X167573402Y-117087940D01*
X167355346Y-116869884D01*
X166800358Y-116640000D01*
X166652950Y-116640000D01*
X166678474Y-116614476D01*
X166935000Y-115995167D01*
X166935000Y-115324833D01*
X166678474Y-114705524D01*
X166204476Y-114231526D01*
X165585167Y-113975000D01*
X164914833Y-113975000D01*
X164295524Y-114231526D01*
X163880000Y-114647050D01*
X163464476Y-114231526D01*
X162845167Y-113975000D01*
X162174833Y-113975000D01*
X161555524Y-114231526D01*
X161081526Y-114705524D01*
X160825000Y-115324833D01*
X160825000Y-115995167D01*
X161081526Y-116614476D01*
X161111629Y-116644579D01*
X160884542Y-116654421D01*
X160450884Y-116834047D01*
X160367545Y-117087940D01*
X157823402Y-117087940D01*
X157605346Y-116869884D01*
X157050358Y-116640000D01*
X156902950Y-116640000D01*
X156928474Y-116614476D01*
X157185000Y-115995167D01*
X157185000Y-115324833D01*
X156928474Y-114705524D01*
X156454476Y-114231526D01*
X155835167Y-113975000D01*
X155164833Y-113975000D01*
X154545524Y-114231526D01*
X154130000Y-114647050D01*
X153714476Y-114231526D01*
X153095167Y-113975000D01*
X152424833Y-113975000D01*
X151805524Y-114231526D01*
X151331526Y-114705524D01*
X151075000Y-115324833D01*
X151075000Y-115995167D01*
X151331526Y-116614476D01*
X151361629Y-116644579D01*
X151134542Y-116654421D01*
X150700884Y-116834047D01*
X150617545Y-117087940D01*
X148073402Y-117087940D01*
X147855346Y-116869884D01*
X147300358Y-116640000D01*
X147152950Y-116640000D01*
X147178474Y-116614476D01*
X147435000Y-115995167D01*
X147435000Y-115324833D01*
X147178474Y-114705524D01*
X146704476Y-114231526D01*
X146085167Y-113975000D01*
X145414833Y-113975000D01*
X144795524Y-114231526D01*
X144380000Y-114647050D01*
X143964476Y-114231526D01*
X143345167Y-113975000D01*
X142674833Y-113975000D01*
X142055524Y-114231526D01*
X141581526Y-114705524D01*
X141325000Y-115324833D01*
X141325000Y-115995167D01*
X141581526Y-116614476D01*
X141611629Y-116644579D01*
X141384542Y-116654421D01*
X140950884Y-116834047D01*
X140867545Y-117087940D01*
X138323402Y-117087940D01*
X138105346Y-116869884D01*
X137550358Y-116640000D01*
X137402950Y-116640000D01*
X137428474Y-116614476D01*
X137685000Y-115995167D01*
X137685000Y-115324833D01*
X137428474Y-114705524D01*
X136954476Y-114231526D01*
X136335167Y-113975000D01*
X135664833Y-113975000D01*
X135045524Y-114231526D01*
X134571526Y-114705524D01*
X134315000Y-115324833D01*
X132417023Y-115324833D01*
X132380191Y-115299414D01*
X130179605Y-117500000D01*
X129820395Y-117500000D01*
X127619809Y-115299414D01*
X127176341Y-115605472D01*
X126666275Y-116830252D01*
X126663738Y-118156995D01*
X120980868Y-118156995D01*
X121035000Y-118026310D01*
X121035000Y-117285750D01*
X120876250Y-117127000D01*
X119627000Y-117127000D01*
X119373000Y-117127000D01*
X119353000Y-117127000D01*
X119353000Y-116873000D01*
X119373000Y-116873000D01*
X119373000Y-115623750D01*
X119627000Y-115623750D01*
X119627000Y-116873000D01*
X120876250Y-116873000D01*
X121035000Y-116714250D01*
X121035000Y-115973690D01*
X120938327Y-115740301D01*
X120759698Y-115561673D01*
X120526309Y-115465000D01*
X119785750Y-115465000D01*
X119627000Y-115623750D01*
X119373000Y-115623750D01*
X119214250Y-115465000D01*
X118473691Y-115465000D01*
X118240302Y-115561673D01*
X118061673Y-115740301D01*
X118005861Y-115875044D01*
X117829507Y-115698690D01*
X117265330Y-115465000D01*
X116654670Y-115465000D01*
X116090493Y-115698690D01*
X115658690Y-116130493D01*
X115425000Y-116694670D01*
X108185000Y-116694670D01*
X108185000Y-115119809D01*
X127799414Y-115119809D01*
X130000000Y-117320395D01*
X132200586Y-115119809D01*
X131894528Y-114676341D01*
X130669748Y-114166275D01*
X129343005Y-114163738D01*
X128116284Y-114669117D01*
X128105472Y-114676341D01*
X127799414Y-115119809D01*
X108185000Y-115119809D01*
X108185000Y-107675050D01*
X108415000Y-107675050D01*
X108415000Y-108424950D01*
X108701974Y-109117767D01*
X109232233Y-109648026D01*
X109925050Y-109935000D01*
X110674950Y-109935000D01*
X111367767Y-109648026D01*
X111898026Y-109117767D01*
X112185000Y-108424950D01*
X112185000Y-107675050D01*
X111898026Y-106982233D01*
X111367767Y-106451974D01*
X110674950Y-106165000D01*
X109925050Y-106165000D01*
X109232233Y-106451974D01*
X108701974Y-106982233D01*
X108415000Y-107675050D01*
X108185000Y-107675050D01*
X108185000Y-97675050D01*
X108415000Y-97675050D01*
X108415000Y-98424950D01*
X108701974Y-99117767D01*
X109232233Y-99648026D01*
X109925050Y-99935000D01*
X110674950Y-99935000D01*
X111367767Y-99648026D01*
X111898026Y-99117767D01*
X112185000Y-98424950D01*
X112185000Y-97675050D01*
X111898026Y-96982233D01*
X111367767Y-96451974D01*
X110674950Y-96165000D01*
X109925050Y-96165000D01*
X109232233Y-96451974D01*
X108701974Y-96982233D01*
X108415000Y-97675050D01*
X108185000Y-97675050D01*
X108185000Y-92041300D01*
X117457343Y-92041300D01*
X117473701Y-92123538D01*
X117473700Y-108776467D01*
X117457343Y-108858700D01*
X117473700Y-108940933D01*
X117473700Y-108940936D01*
X117522148Y-109184500D01*
X117706699Y-109460701D01*
X117776420Y-109507287D01*
X118211415Y-109942283D01*
X118115000Y-110175050D01*
X118115000Y-110924950D01*
X118401974Y-111617767D01*
X118932233Y-112148026D01*
X119625050Y-112435000D01*
X120374950Y-112435000D01*
X121067767Y-112148026D01*
X121598026Y-111617767D01*
X121694441Y-111385000D01*
X140482567Y-111385000D01*
X140564800Y-111401357D01*
X140647033Y-111385000D01*
X140647037Y-111385000D01*
X140890601Y-111336552D01*
X141166801Y-111152001D01*
X141213387Y-111082280D01*
X146028630Y-106267038D01*
X146290091Y-106441740D01*
X146708667Y-106525000D01*
X146991333Y-106525000D01*
X147409909Y-106441740D01*
X147884577Y-106124577D01*
X148028434Y-105909280D01*
X148189700Y-105941358D01*
X148227920Y-105933755D01*
X148355423Y-106124577D01*
X148830091Y-106441740D01*
X149248667Y-106525000D01*
X149531333Y-106525000D01*
X149625418Y-106506285D01*
X149958115Y-106838982D01*
X150004699Y-106908701D01*
X150280899Y-107093252D01*
X150524463Y-107141700D01*
X150606700Y-107158058D01*
X150688937Y-107141700D01*
X152400767Y-107141700D01*
X152483000Y-107158057D01*
X152565233Y-107141700D01*
X152565237Y-107141700D01*
X152808801Y-107093252D01*
X153085001Y-106908701D01*
X153131587Y-106838980D01*
X153694982Y-106275586D01*
X153764701Y-106229001D01*
X153949252Y-105952801D01*
X153997700Y-105709237D01*
X154014058Y-105627000D01*
X153997700Y-105544763D01*
X153997700Y-102689697D01*
X176440000Y-102689697D01*
X176440000Y-103310303D01*
X176677496Y-103883669D01*
X177116331Y-104322504D01*
X177689697Y-104560000D01*
X178310303Y-104560000D01*
X178883669Y-104322504D01*
X179322504Y-103883669D01*
X179560000Y-103310303D01*
X179560000Y-103285750D01*
X181440000Y-103285750D01*
X181440000Y-104051309D01*
X181536673Y-104284698D01*
X181715301Y-104463327D01*
X181948690Y-104560000D01*
X182714250Y-104560000D01*
X182873000Y-104401250D01*
X182873000Y-103127000D01*
X183127000Y-103127000D01*
X183127000Y-104401250D01*
X183285750Y-104560000D01*
X184051310Y-104560000D01*
X184284699Y-104463327D01*
X184463327Y-104284698D01*
X184560000Y-104051309D01*
X184560000Y-103285750D01*
X184401250Y-103127000D01*
X183127000Y-103127000D01*
X182873000Y-103127000D01*
X181598750Y-103127000D01*
X181440000Y-103285750D01*
X179560000Y-103285750D01*
X179560000Y-102689697D01*
X179322504Y-102116331D01*
X179154864Y-101948691D01*
X181440000Y-101948691D01*
X181440000Y-102714250D01*
X181598750Y-102873000D01*
X182873000Y-102873000D01*
X182873000Y-101598750D01*
X183127000Y-101598750D01*
X183127000Y-102873000D01*
X184401250Y-102873000D01*
X184560000Y-102714250D01*
X184560000Y-101948691D01*
X184463327Y-101715302D01*
X184284699Y-101536673D01*
X184051310Y-101440000D01*
X183285750Y-101440000D01*
X183127000Y-101598750D01*
X182873000Y-101598750D01*
X182714250Y-101440000D01*
X181948690Y-101440000D01*
X181715301Y-101536673D01*
X181536673Y-101715302D01*
X181440000Y-101948691D01*
X179154864Y-101948691D01*
X178883669Y-101677496D01*
X178310303Y-101440000D01*
X177689697Y-101440000D01*
X177116331Y-101677496D01*
X176677496Y-102116331D01*
X176440000Y-102689697D01*
X153997700Y-102689697D01*
X153997700Y-100974937D01*
X154014058Y-100892700D01*
X153949252Y-100566900D01*
X153949252Y-100566899D01*
X153764701Y-100290699D01*
X153695000Y-100244126D01*
X153695000Y-99884398D01*
X153542719Y-99516757D01*
X153609701Y-99472001D01*
X153656287Y-99402280D01*
X153992682Y-99065886D01*
X154062401Y-99019301D01*
X154246952Y-98743101D01*
X154295400Y-98499537D01*
X154295400Y-98499534D01*
X154311757Y-98417301D01*
X154295400Y-98335068D01*
X154295400Y-95472632D01*
X154311757Y-95390399D01*
X154295400Y-95308164D01*
X154295400Y-95308163D01*
X154246952Y-95064599D01*
X154062401Y-94788399D01*
X153992686Y-94741817D01*
X152565000Y-93314132D01*
X152565000Y-93060000D01*
X157286887Y-93060000D01*
X157398260Y-93619909D01*
X157715423Y-94094577D01*
X158190091Y-94411740D01*
X158608667Y-94495000D01*
X158891333Y-94495000D01*
X159309909Y-94411740D01*
X159784577Y-94094577D01*
X160101740Y-93619909D01*
X160213113Y-93060000D01*
X160101740Y-92500091D01*
X159784577Y-92025423D01*
X159309909Y-91708260D01*
X158891333Y-91625000D01*
X158608667Y-91625000D01*
X158190091Y-91708260D01*
X157715423Y-92025423D01*
X157398260Y-92500091D01*
X157286887Y-93060000D01*
X152565000Y-93060000D01*
X152565000Y-92774561D01*
X152346534Y-92247138D01*
X151942862Y-91843466D01*
X151415439Y-91625000D01*
X150844561Y-91625000D01*
X150317138Y-91843466D01*
X149913466Y-92247138D01*
X149904424Y-92268967D01*
X149785119Y-92189250D01*
X149512386Y-92135000D01*
X149420300Y-92116683D01*
X149328214Y-92135000D01*
X149221112Y-92135000D01*
X149154577Y-92035423D01*
X148679909Y-91718260D01*
X148261333Y-91635000D01*
X147978667Y-91635000D01*
X147560091Y-91718260D01*
X147085423Y-92035423D01*
X147018888Y-92135000D01*
X146911786Y-92135000D01*
X146819700Y-92116683D01*
X146727614Y-92135000D01*
X146477895Y-92184672D01*
X159245707Y-79416861D01*
X159426626Y-79491800D01*
X159838374Y-79491800D01*
X160218780Y-79334231D01*
X160339822Y-79213189D01*
X160915001Y-79788369D01*
X160915000Y-91865604D01*
X160533466Y-92247138D01*
X160315000Y-92774561D01*
X160315000Y-93345439D01*
X160533466Y-93872862D01*
X160905001Y-94244397D01*
X160905000Y-97887735D01*
X160650629Y-98142106D01*
X160455000Y-98614398D01*
X160455000Y-99125602D01*
X160650629Y-99597894D01*
X161012106Y-99959371D01*
X161484398Y-100155000D01*
X161725000Y-100155000D01*
X161725000Y-100395602D01*
X161920629Y-100867894D01*
X162282106Y-101229371D01*
X162754398Y-101425000D01*
X163265602Y-101425000D01*
X163737894Y-101229371D01*
X164099371Y-100867894D01*
X164295000Y-100395602D01*
X164295000Y-99884398D01*
X164099371Y-99412106D01*
X163737894Y-99050629D01*
X163368062Y-98897440D01*
X163660000Y-98897440D01*
X163907765Y-98848157D01*
X164117809Y-98707809D01*
X164258157Y-98497765D01*
X164307440Y-98250000D01*
X164307440Y-96950000D01*
X164258157Y-96702235D01*
X164117809Y-96492191D01*
X163907765Y-96351843D01*
X163660000Y-96302560D01*
X162575000Y-96302560D01*
X162575000Y-94264396D01*
X162966534Y-93872862D01*
X163185000Y-93345439D01*
X163185000Y-93060000D01*
X167906887Y-93060000D01*
X168018260Y-93619909D01*
X168335423Y-94094577D01*
X168810091Y-94411740D01*
X169228667Y-94495000D01*
X169511333Y-94495000D01*
X169929909Y-94411740D01*
X170404577Y-94094577D01*
X170721740Y-93619909D01*
X170833113Y-93060000D01*
X170721740Y-92500091D01*
X170404577Y-92025423D01*
X169929909Y-91708260D01*
X169511333Y-91625000D01*
X169228667Y-91625000D01*
X168810091Y-91708260D01*
X168335423Y-92025423D01*
X168018260Y-92500091D01*
X167906887Y-93060000D01*
X163185000Y-93060000D01*
X163185000Y-92774561D01*
X162966534Y-92247138D01*
X162585000Y-91865604D01*
X162585000Y-79524737D01*
X162601358Y-79442500D01*
X162536552Y-79116699D01*
X162451282Y-78989084D01*
X162352001Y-78840499D01*
X162282283Y-78793915D01*
X154681266Y-71192899D01*
X155043744Y-71265000D01*
X155336256Y-71265000D01*
X155769418Y-71178839D01*
X156260625Y-70850625D01*
X156460000Y-70552239D01*
X156659375Y-70850625D01*
X157150582Y-71178839D01*
X157583744Y-71265000D01*
X157876256Y-71265000D01*
X158309418Y-71178839D01*
X158800625Y-70850625D01*
X159000000Y-70552239D01*
X159199375Y-70850625D01*
X159690582Y-71178839D01*
X160123744Y-71265000D01*
X160416256Y-71265000D01*
X160849418Y-71178839D01*
X161340625Y-70850625D01*
X161540000Y-70552239D01*
X161739375Y-70850625D01*
X162230582Y-71178839D01*
X162663744Y-71265000D01*
X162956256Y-71265000D01*
X163389418Y-71178839D01*
X163880625Y-70850625D01*
X164093843Y-70531522D01*
X164154817Y-70661358D01*
X164583076Y-71051645D01*
X164993110Y-71221476D01*
X165223000Y-71100155D01*
X165223000Y-69907000D01*
X165203000Y-69907000D01*
X165203000Y-69653000D01*
X165223000Y-69653000D01*
X165223000Y-69633000D01*
X165477000Y-69633000D01*
X165477000Y-69653000D01*
X165497000Y-69653000D01*
X165497000Y-69907000D01*
X165477000Y-69907000D01*
X165477000Y-71100155D01*
X165706890Y-71221476D01*
X166116924Y-71051645D01*
X166545183Y-70661358D01*
X166606157Y-70531522D01*
X166819375Y-70850625D01*
X167310582Y-71178839D01*
X167743744Y-71265000D01*
X168036256Y-71265000D01*
X168469418Y-71178839D01*
X168960625Y-70850625D01*
X169160000Y-70552239D01*
X169359375Y-70850625D01*
X169850582Y-71178839D01*
X170283744Y-71265000D01*
X170576256Y-71265000D01*
X171009418Y-71178839D01*
X171500625Y-70850625D01*
X171700000Y-70552239D01*
X171899375Y-70850625D01*
X172390582Y-71178839D01*
X172823744Y-71265000D01*
X173116256Y-71265000D01*
X173549418Y-71178839D01*
X174040625Y-70850625D01*
X174240000Y-70552239D01*
X174439375Y-70850625D01*
X174930582Y-71178839D01*
X175363744Y-71265000D01*
X175656256Y-71265000D01*
X176089418Y-71178839D01*
X176580625Y-70850625D01*
X176780000Y-70552239D01*
X176979375Y-70850625D01*
X177470582Y-71178839D01*
X177903744Y-71265000D01*
X178196256Y-71265000D01*
X178629418Y-71178839D01*
X179120625Y-70850625D01*
X179320000Y-70552239D01*
X179519375Y-70850625D01*
X180010582Y-71178839D01*
X180443744Y-71265000D01*
X180736256Y-71265000D01*
X181169418Y-71178839D01*
X181660625Y-70850625D01*
X181873843Y-70531522D01*
X181934817Y-70661358D01*
X182363076Y-71051645D01*
X182773110Y-71221476D01*
X183003000Y-71100155D01*
X183003000Y-69907000D01*
X183257000Y-69907000D01*
X183257000Y-71100155D01*
X183486890Y-71221476D01*
X183896924Y-71051645D01*
X184085059Y-70880191D01*
X185799414Y-70880191D01*
X186105472Y-71323659D01*
X187330252Y-71833725D01*
X188656995Y-71836262D01*
X189883716Y-71330883D01*
X189894528Y-71323659D01*
X190200586Y-70880191D01*
X188000000Y-68679605D01*
X185799414Y-70880191D01*
X184085059Y-70880191D01*
X184325183Y-70661358D01*
X184571486Y-70136892D01*
X184450819Y-69907000D01*
X183257000Y-69907000D01*
X183003000Y-69907000D01*
X182983000Y-69907000D01*
X182983000Y-69653000D01*
X183003000Y-69653000D01*
X183003000Y-69633000D01*
X183257000Y-69633000D01*
X183257000Y-69653000D01*
X184450819Y-69653000D01*
X184571486Y-69423108D01*
X184446513Y-69156995D01*
X184663738Y-69156995D01*
X185169117Y-70383716D01*
X185176341Y-70394528D01*
X185619809Y-70700586D01*
X187820395Y-68500000D01*
X185619809Y-66299414D01*
X185176341Y-66605472D01*
X184666275Y-67830252D01*
X184663738Y-69156995D01*
X184446513Y-69156995D01*
X184325183Y-68898642D01*
X183900214Y-68511353D01*
X184200625Y-68310625D01*
X184528839Y-67819418D01*
X184644092Y-67240000D01*
X184528839Y-66660582D01*
X184200625Y-66169375D01*
X183709418Y-65841161D01*
X183276256Y-65755000D01*
X182983744Y-65755000D01*
X182550582Y-65841161D01*
X182059375Y-66169375D01*
X181860000Y-66467761D01*
X181660625Y-66169375D01*
X181169418Y-65841161D01*
X180736256Y-65755000D01*
X180443744Y-65755000D01*
X180010582Y-65841161D01*
X179519375Y-66169375D01*
X179320000Y-66467761D01*
X179120625Y-66169375D01*
X178629418Y-65841161D01*
X178196256Y-65755000D01*
X177903744Y-65755000D01*
X177470582Y-65841161D01*
X176979375Y-66169375D01*
X176766157Y-66488478D01*
X176705183Y-66358642D01*
X176276924Y-65968355D01*
X175866890Y-65798524D01*
X175637000Y-65919845D01*
X175637000Y-67113000D01*
X175657000Y-67113000D01*
X175657000Y-67367000D01*
X175637000Y-67367000D01*
X175637000Y-67387000D01*
X175383000Y-67387000D01*
X175383000Y-67367000D01*
X175363000Y-67367000D01*
X175363000Y-67113000D01*
X175383000Y-67113000D01*
X175383000Y-65919845D01*
X175153110Y-65798524D01*
X174743076Y-65968355D01*
X174314817Y-66358642D01*
X174253843Y-66488478D01*
X174040625Y-66169375D01*
X173549418Y-65841161D01*
X173116256Y-65755000D01*
X172823744Y-65755000D01*
X172390582Y-65841161D01*
X171899375Y-66169375D01*
X171686157Y-66488478D01*
X171625183Y-66358642D01*
X171196924Y-65968355D01*
X170786890Y-65798524D01*
X170557000Y-65919845D01*
X170557000Y-67113000D01*
X170577000Y-67113000D01*
X170577000Y-67367000D01*
X170557000Y-67367000D01*
X170557000Y-67387000D01*
X170303000Y-67387000D01*
X170303000Y-67367000D01*
X170283000Y-67367000D01*
X170283000Y-67113000D01*
X170303000Y-67113000D01*
X170303000Y-65919845D01*
X170073110Y-65798524D01*
X169663076Y-65968355D01*
X169234817Y-66358642D01*
X169173843Y-66488478D01*
X168960625Y-66169375D01*
X168469418Y-65841161D01*
X168036256Y-65755000D01*
X167743744Y-65755000D01*
X167310582Y-65841161D01*
X166819375Y-66169375D01*
X166620000Y-66467761D01*
X166420625Y-66169375D01*
X165929418Y-65841161D01*
X165496256Y-65755000D01*
X165203744Y-65755000D01*
X164770582Y-65841161D01*
X164279375Y-66169375D01*
X164080000Y-66467761D01*
X163880625Y-66169375D01*
X163389418Y-65841161D01*
X162956256Y-65755000D01*
X162663744Y-65755000D01*
X162230582Y-65841161D01*
X161739375Y-66169375D01*
X161540000Y-66467761D01*
X161340625Y-66169375D01*
X160849418Y-65841161D01*
X160416256Y-65755000D01*
X160123744Y-65755000D01*
X159690582Y-65841161D01*
X159199375Y-66169375D01*
X158986157Y-66488478D01*
X158925183Y-66358642D01*
X158496924Y-65968355D01*
X158086890Y-65798524D01*
X157857000Y-65919845D01*
X157857000Y-67113000D01*
X157877000Y-67113000D01*
X157877000Y-67367000D01*
X157857000Y-67367000D01*
X157857000Y-67387000D01*
X157603000Y-67387000D01*
X157603000Y-67367000D01*
X157583000Y-67367000D01*
X157583000Y-67113000D01*
X157603000Y-67113000D01*
X157603000Y-65919845D01*
X157373110Y-65798524D01*
X156963076Y-65968355D01*
X156534817Y-66358642D01*
X156473843Y-66488478D01*
X156260625Y-66169375D01*
X155769418Y-65841161D01*
X155336256Y-65755000D01*
X155043744Y-65755000D01*
X154610582Y-65841161D01*
X154119375Y-66169375D01*
X153920000Y-66467761D01*
X153720625Y-66169375D01*
X153229418Y-65841161D01*
X152796256Y-65755000D01*
X152503744Y-65755000D01*
X152070582Y-65841161D01*
X151579375Y-66169375D01*
X151366157Y-66488478D01*
X151305183Y-66358642D01*
X150876924Y-65968355D01*
X150466890Y-65798524D01*
X150237000Y-65919845D01*
X150237000Y-67113000D01*
X150257000Y-67113000D01*
X150257000Y-67367000D01*
X150237000Y-67367000D01*
X150237000Y-67387000D01*
X149983000Y-67387000D01*
X149983000Y-67367000D01*
X149963000Y-67367000D01*
X149963000Y-67113000D01*
X149983000Y-67113000D01*
X149983000Y-65919845D01*
X149753110Y-65798524D01*
X149343076Y-65968355D01*
X148914817Y-66358642D01*
X148853843Y-66488478D01*
X148640625Y-66169375D01*
X148149418Y-65841161D01*
X147716256Y-65755000D01*
X147423744Y-65755000D01*
X146990582Y-65841161D01*
X146499375Y-66169375D01*
X146300000Y-66467761D01*
X146100625Y-66169375D01*
X145609418Y-65841161D01*
X145176256Y-65755000D01*
X144883744Y-65755000D01*
X144450582Y-65841161D01*
X143959375Y-66169375D01*
X143760000Y-66467761D01*
X143560625Y-66169375D01*
X143069418Y-65841161D01*
X142636256Y-65755000D01*
X142343744Y-65755000D01*
X141910582Y-65841161D01*
X141419375Y-66169375D01*
X141206157Y-66488478D01*
X141145183Y-66358642D01*
X140716924Y-65968355D01*
X140306890Y-65798524D01*
X140077000Y-65919845D01*
X140077000Y-67113000D01*
X140097000Y-67113000D01*
X140097000Y-67367000D01*
X140077000Y-67367000D01*
X140077000Y-67387000D01*
X139823000Y-67387000D01*
X139823000Y-67367000D01*
X139803000Y-67367000D01*
X139803000Y-67113000D01*
X139823000Y-67113000D01*
X139823000Y-65919845D01*
X139593110Y-65798524D01*
X139183076Y-65968355D01*
X138754817Y-66358642D01*
X138693843Y-66488478D01*
X138480625Y-66169375D01*
X137989418Y-65841161D01*
X137556256Y-65755000D01*
X137263744Y-65755000D01*
X136830582Y-65841161D01*
X136339375Y-66169375D01*
X136248753Y-66305000D01*
X136031247Y-66305000D01*
X135940625Y-66169375D01*
X135449418Y-65841161D01*
X135016256Y-65755000D01*
X134723744Y-65755000D01*
X134290582Y-65841161D01*
X133799375Y-66169375D01*
X133471161Y-66660582D01*
X133355908Y-67240000D01*
X133471161Y-67819418D01*
X133799375Y-68310625D01*
X133817619Y-68322816D01*
X133772235Y-68331843D01*
X133562191Y-68472191D01*
X133421843Y-68682235D01*
X133372560Y-68930000D01*
X133372560Y-70630000D01*
X133421843Y-70877765D01*
X133562191Y-71087809D01*
X133772235Y-71228157D01*
X134020000Y-71277440D01*
X135720000Y-71277440D01*
X135967765Y-71228157D01*
X136177809Y-71087809D01*
X136318157Y-70877765D01*
X136327184Y-70832381D01*
X136339375Y-70850625D01*
X136830582Y-71178839D01*
X137263744Y-71265000D01*
X137556256Y-71265000D01*
X137989418Y-71178839D01*
X138480625Y-70850625D01*
X138631025Y-70625535D01*
X138660300Y-70631358D01*
X138724352Y-70618617D01*
X138879375Y-70850625D01*
X139370582Y-71178839D01*
X139803744Y-71265000D01*
X140096256Y-71265000D01*
X140529418Y-71178839D01*
X141020625Y-70850625D01*
X141220000Y-70552239D01*
X141419375Y-70850625D01*
X141910582Y-71178839D01*
X142343744Y-71265000D01*
X142636256Y-71265000D01*
X143069418Y-71178839D01*
X143560625Y-70850625D01*
X143773843Y-70531522D01*
X143834817Y-70661358D01*
X144263076Y-71051645D01*
X144673110Y-71221476D01*
X144903000Y-71100155D01*
X144903000Y-69907000D01*
X144883000Y-69907000D01*
X144883000Y-69653000D01*
X144903000Y-69653000D01*
X144903000Y-69633000D01*
X145157000Y-69633000D01*
X145157000Y-69653000D01*
X145177000Y-69653000D01*
X145177000Y-69907000D01*
X145157000Y-69907000D01*
X145157000Y-71100155D01*
X145386890Y-71221476D01*
X145796924Y-71051645D01*
X145839645Y-71012712D01*
X146611515Y-71784582D01*
X146658099Y-71854301D01*
X146934299Y-72038852D01*
X147177863Y-72087300D01*
X147177866Y-72087300D01*
X147260099Y-72103657D01*
X147342332Y-72087300D01*
X153213933Y-72087300D01*
X158780657Y-77654025D01*
X158699099Y-77670248D01*
X158422899Y-77854799D01*
X158376315Y-77924517D01*
X135587718Y-100713115D01*
X135518000Y-100759699D01*
X135471416Y-100829417D01*
X135333448Y-101035900D01*
X135268643Y-101361700D01*
X135285001Y-101443938D01*
X135285000Y-103932070D01*
X135085423Y-104065423D01*
X134768260Y-104540091D01*
X134656887Y-105100000D01*
X134735080Y-105493100D01*
X129890405Y-105493100D01*
X129935000Y-105385439D01*
X129935000Y-104814561D01*
X129716534Y-104287138D01*
X129312862Y-103883466D01*
X128785439Y-103665000D01*
X128214561Y-103665000D01*
X127687138Y-103883466D01*
X127283466Y-104287138D01*
X127065000Y-104814561D01*
X127065000Y-105385439D01*
X127109595Y-105493100D01*
X123623969Y-105493100D01*
X121788585Y-103657717D01*
X121885000Y-103424950D01*
X121885000Y-102675050D01*
X121598026Y-101982233D01*
X121067767Y-101451974D01*
X120374950Y-101165000D01*
X119625050Y-101165000D01*
X119143700Y-101364382D01*
X119143700Y-99383320D01*
X121346285Y-99383320D01*
X121475533Y-99676123D01*
X122175806Y-99944388D01*
X122925435Y-99924250D01*
X123524467Y-99676123D01*
X123653715Y-99383320D01*
X122500000Y-98229605D01*
X121346285Y-99383320D01*
X119143700Y-99383320D01*
X119143700Y-97235618D01*
X119625050Y-97435000D01*
X120374950Y-97435000D01*
X120781532Y-97266588D01*
X120605612Y-97725806D01*
X120625750Y-98475435D01*
X120873877Y-99074467D01*
X121166680Y-99203715D01*
X122320395Y-98050000D01*
X122679605Y-98050000D01*
X123833320Y-99203715D01*
X124126123Y-99074467D01*
X124394388Y-98374194D01*
X124374250Y-97624565D01*
X124126123Y-97025533D01*
X123833320Y-96896285D01*
X122679605Y-98050000D01*
X122320395Y-98050000D01*
X122306253Y-98035858D01*
X122485858Y-97856253D01*
X122500000Y-97870395D01*
X123653715Y-96716680D01*
X123524467Y-96423877D01*
X122824194Y-96155612D01*
X122074565Y-96175750D01*
X121720340Y-96322475D01*
X121885000Y-95924950D01*
X121885000Y-95175050D01*
X121598026Y-94482233D01*
X121067767Y-93951974D01*
X120374950Y-93665000D01*
X119625050Y-93665000D01*
X119143700Y-93864382D01*
X119143700Y-92387167D01*
X119392283Y-92138585D01*
X119625050Y-92235000D01*
X120374950Y-92235000D01*
X121067767Y-91948026D01*
X121598026Y-91417767D01*
X121885000Y-90724950D01*
X121885000Y-89975050D01*
X121715259Y-89565259D01*
X122125050Y-89735000D01*
X122874950Y-89735000D01*
X123567767Y-89448026D01*
X124098026Y-88917767D01*
X124165001Y-88756076D01*
X124165000Y-95408873D01*
X124148643Y-95491111D01*
X124165000Y-95573337D01*
X124213448Y-95816900D01*
X124213451Y-95816904D01*
X124213452Y-95816910D01*
X124285644Y-95924950D01*
X124397999Y-96093101D01*
X124467723Y-96139689D01*
X127598624Y-99270508D01*
X125607717Y-101261415D01*
X125374950Y-101165000D01*
X124625050Y-101165000D01*
X123932233Y-101451974D01*
X123401974Y-101982233D01*
X123115000Y-102675050D01*
X123115000Y-103424950D01*
X123401974Y-104117767D01*
X123932233Y-104648026D01*
X124625050Y-104935000D01*
X125374950Y-104935000D01*
X126067767Y-104648026D01*
X126598026Y-104117767D01*
X126885000Y-103424950D01*
X126885000Y-102675050D01*
X126788585Y-102442283D01*
X128779466Y-100451402D01*
X129000302Y-100672263D01*
X129046899Y-100742001D01*
X129189431Y-100837238D01*
X129323054Y-100926533D01*
X129323078Y-100926538D01*
X129323099Y-100926552D01*
X129497172Y-100961177D01*
X129648851Y-100991357D01*
X129731109Y-100975000D01*
X130177735Y-100975000D01*
X130432106Y-101229371D01*
X130904398Y-101425000D01*
X131415602Y-101425000D01*
X131887894Y-101229371D01*
X132249371Y-100867894D01*
X132445000Y-100395602D01*
X132445000Y-99884398D01*
X132249371Y-99412106D01*
X131887894Y-99050629D01*
X131518062Y-98897440D01*
X131810000Y-98897440D01*
X132057765Y-98848157D01*
X132267809Y-98707809D01*
X132408157Y-98497765D01*
X132457440Y-98250000D01*
X132457440Y-96950000D01*
X132408157Y-96702235D01*
X132267809Y-96492191D01*
X132057765Y-96351843D01*
X131810000Y-96302560D01*
X130715000Y-96302560D01*
X130715000Y-94274396D01*
X131096534Y-93892862D01*
X131315000Y-93365439D01*
X131315000Y-93080000D01*
X136036887Y-93080000D01*
X136148260Y-93639909D01*
X136465423Y-94114577D01*
X136940091Y-94431740D01*
X137358667Y-94515000D01*
X137641333Y-94515000D01*
X138059909Y-94431740D01*
X138534577Y-94114577D01*
X138851740Y-93639909D01*
X138963113Y-93080000D01*
X138904347Y-92784561D01*
X139065000Y-92784561D01*
X139065000Y-93355439D01*
X139283466Y-93882862D01*
X139687138Y-94286534D01*
X140214561Y-94505000D01*
X140785439Y-94505000D01*
X141312862Y-94286534D01*
X141716534Y-93882862D01*
X141935000Y-93355439D01*
X141935000Y-92784561D01*
X141716534Y-92257138D01*
X141312862Y-91853466D01*
X140785439Y-91635000D01*
X140214561Y-91635000D01*
X139687138Y-91853466D01*
X139283466Y-92257138D01*
X139065000Y-92784561D01*
X138904347Y-92784561D01*
X138851740Y-92520091D01*
X138534577Y-92045423D01*
X138059909Y-91728260D01*
X137641333Y-91645000D01*
X137358667Y-91645000D01*
X136940091Y-91728260D01*
X136465423Y-92045423D01*
X136148260Y-92520091D01*
X136036887Y-93080000D01*
X131315000Y-93080000D01*
X131315000Y-92794561D01*
X131096534Y-92267138D01*
X130692862Y-91863466D01*
X130165439Y-91645000D01*
X129594561Y-91645000D01*
X129067138Y-91863466D01*
X128663466Y-92267138D01*
X128445000Y-92794561D01*
X128445000Y-93365439D01*
X128663466Y-93892862D01*
X129045000Y-94274396D01*
X129045001Y-97897734D01*
X128816294Y-98126441D01*
X125835000Y-95145226D01*
X125835000Y-84544441D01*
X126067767Y-84448026D01*
X126598026Y-83917767D01*
X126885000Y-83224950D01*
X126885000Y-82475050D01*
X126598026Y-81782233D01*
X126067767Y-81251974D01*
X125374950Y-80965000D01*
X124625050Y-80965000D01*
X123932233Y-81251974D01*
X123401974Y-81782233D01*
X123115000Y-82475050D01*
X123115000Y-83224950D01*
X123401974Y-83917767D01*
X123932233Y-84448026D01*
X124165001Y-84544442D01*
X124165001Y-86943924D01*
X124098026Y-86782233D01*
X123567767Y-86251974D01*
X122874950Y-85965000D01*
X122125050Y-85965000D01*
X121432233Y-86251974D01*
X120901974Y-86782233D01*
X120615000Y-87475050D01*
X120615000Y-88224950D01*
X120784741Y-88634741D01*
X120374950Y-88465000D01*
X119625050Y-88465000D01*
X118932233Y-88751974D01*
X118401974Y-89282233D01*
X118115000Y-89975050D01*
X118115000Y-90724950D01*
X118211415Y-90957717D01*
X117776418Y-91392715D01*
X117706700Y-91439299D01*
X117660116Y-91509017D01*
X117522148Y-91715500D01*
X117457343Y-92041300D01*
X108185000Y-92041300D01*
X108185000Y-87475050D01*
X108415000Y-87475050D01*
X108415000Y-88224950D01*
X108701974Y-88917767D01*
X109232233Y-89448026D01*
X109925050Y-89735000D01*
X110674950Y-89735000D01*
X111367767Y-89448026D01*
X111898026Y-88917767D01*
X112185000Y-88224950D01*
X112185000Y-87475050D01*
X111898026Y-86782233D01*
X111367767Y-86251974D01*
X110674950Y-85965000D01*
X109925050Y-85965000D01*
X109232233Y-86251974D01*
X108701974Y-86782233D01*
X108415000Y-87475050D01*
X108185000Y-87475050D01*
X108185000Y-82475050D01*
X118115000Y-82475050D01*
X118115000Y-83224950D01*
X118401974Y-83917767D01*
X118932233Y-84448026D01*
X119625050Y-84735000D01*
X120374950Y-84735000D01*
X121067767Y-84448026D01*
X121598026Y-83917767D01*
X121885000Y-83224950D01*
X121885000Y-82475050D01*
X121598026Y-81782233D01*
X121067767Y-81251974D01*
X120374950Y-80965000D01*
X119625050Y-80965000D01*
X118932233Y-81251974D01*
X118401974Y-81782233D01*
X118115000Y-82475050D01*
X108185000Y-82475050D01*
X108185000Y-77475050D01*
X108415000Y-77475050D01*
X108415000Y-78224950D01*
X108701974Y-78917767D01*
X109232233Y-79448026D01*
X109925050Y-79735000D01*
X110674950Y-79735000D01*
X111367767Y-79448026D01*
X111632473Y-79183320D01*
X121346285Y-79183320D01*
X121475533Y-79476123D01*
X122175806Y-79744388D01*
X122925435Y-79724250D01*
X123524467Y-79476123D01*
X123653715Y-79183320D01*
X122500000Y-78029605D01*
X121346285Y-79183320D01*
X111632473Y-79183320D01*
X111898026Y-78917767D01*
X112185000Y-78224950D01*
X112185000Y-77475050D01*
X111898026Y-76782233D01*
X111367767Y-76251974D01*
X110674950Y-75965000D01*
X109925050Y-75965000D01*
X109232233Y-76251974D01*
X108701974Y-76782233D01*
X108415000Y-77475050D01*
X108185000Y-77475050D01*
X108185000Y-74975050D01*
X118115000Y-74975050D01*
X118115000Y-75724950D01*
X118401974Y-76417767D01*
X118932233Y-76948026D01*
X119625050Y-77235000D01*
X120374950Y-77235000D01*
X120781532Y-77066588D01*
X120605612Y-77525806D01*
X120625750Y-78275435D01*
X120873877Y-78874467D01*
X121166680Y-79003715D01*
X122320395Y-77850000D01*
X122679605Y-77850000D01*
X123833320Y-79003715D01*
X124126123Y-78874467D01*
X124394388Y-78174194D01*
X124374250Y-77424565D01*
X124126123Y-76825533D01*
X123833320Y-76696285D01*
X122679605Y-77850000D01*
X122320395Y-77850000D01*
X122306253Y-77835858D01*
X122485858Y-77656253D01*
X122500000Y-77670395D01*
X123653715Y-76516680D01*
X123524467Y-76223877D01*
X122824194Y-75955612D01*
X122074565Y-75975750D01*
X121720340Y-76122475D01*
X121885000Y-75724950D01*
X121885000Y-74975050D01*
X121598026Y-74282233D01*
X121067767Y-73751974D01*
X120374950Y-73465000D01*
X119625050Y-73465000D01*
X118932233Y-73751974D01*
X118401974Y-74282233D01*
X118115000Y-74975050D01*
X108185000Y-74975050D01*
X108185000Y-70880191D01*
X127799414Y-70880191D01*
X128105472Y-71323659D01*
X129330252Y-71833725D01*
X130656995Y-71836262D01*
X131883716Y-71330883D01*
X131894528Y-71323659D01*
X132200586Y-70880191D01*
X130000000Y-68679605D01*
X127799414Y-70880191D01*
X108185000Y-70880191D01*
X108185000Y-69156995D01*
X126663738Y-69156995D01*
X127169117Y-70383716D01*
X127176341Y-70394528D01*
X127619809Y-70700586D01*
X129820395Y-68500000D01*
X130179605Y-68500000D01*
X132380191Y-70700586D01*
X132823659Y-70394528D01*
X133333725Y-69169748D01*
X133336262Y-67843005D01*
X132830883Y-66616284D01*
X132823659Y-66605472D01*
X132380191Y-66299414D01*
X130179605Y-68500000D01*
X129820395Y-68500000D01*
X127619809Y-66299414D01*
X127176341Y-66605472D01*
X126666275Y-67830252D01*
X126663738Y-69156995D01*
X108185000Y-69156995D01*
X108185000Y-68537095D01*
X108254603Y-67896386D01*
X108448264Y-67320936D01*
X108760977Y-66800491D01*
X109178153Y-66359339D01*
X109680328Y-66018061D01*
X110244074Y-65792579D01*
X110870431Y-65688886D01*
X111009566Y-65685000D01*
X128099496Y-65685000D01*
X127799414Y-66119809D01*
G36*
X140322560Y-105890000D02*
X140371843Y-106137765D01*
X140512191Y-106347809D01*
X140722235Y-106488157D01*
X140970000Y-106537440D01*
X142570000Y-106537440D01*
X142817765Y-106488157D01*
X143027809Y-106347809D01*
X143168157Y-106137765D01*
X143194785Y-106003894D01*
X143275423Y-106124577D01*
X143595492Y-106338440D01*
X140218933Y-109715000D01*
X123406077Y-109715000D01*
X123567767Y-109648026D01*
X124098026Y-109117767D01*
X124194441Y-108885000D01*
X136561667Y-108885000D01*
X136643900Y-108901357D01*
X136726133Y-108885000D01*
X136726137Y-108885000D01*
X136969701Y-108836552D01*
X137245901Y-108652001D01*
X137292487Y-108582280D01*
X140322560Y-105552208D01*
X140322560Y-105890000D01*
X140322560Y-105890000D01*
G37*
X140322560Y-105890000D02*
X140371843Y-106137765D01*
X140512191Y-106347809D01*
X140722235Y-106488157D01*
X140970000Y-106537440D01*
X142570000Y-106537440D01*
X142817765Y-106488157D01*
X143027809Y-106347809D01*
X143168157Y-106137765D01*
X143194785Y-106003894D01*
X143275423Y-106124577D01*
X143595492Y-106338440D01*
X140218933Y-109715000D01*
X123406077Y-109715000D01*
X123567767Y-109648026D01*
X124098026Y-109117767D01*
X124194441Y-108885000D01*
X136561667Y-108885000D01*
X136643900Y-108901357D01*
X136726133Y-108885000D01*
X136726137Y-108885000D01*
X136969701Y-108836552D01*
X137245901Y-108652001D01*
X137292487Y-108582280D01*
X140322560Y-105552208D01*
X140322560Y-105890000D01*
G36*
X119625050Y-104935000D02*
X120374950Y-104935000D01*
X120607717Y-104838585D01*
X121990050Y-106220919D01*
X121432233Y-106451974D01*
X120901974Y-106982233D01*
X120615000Y-107675050D01*
X120615000Y-108424950D01*
X120784741Y-108834741D01*
X120374950Y-108665000D01*
X119625050Y-108665000D01*
X119392283Y-108761415D01*
X119143700Y-108512833D01*
X119143700Y-104735618D01*
X119625050Y-104935000D01*
X119625050Y-104935000D01*
G37*
X119625050Y-104935000D02*
X120374950Y-104935000D01*
X120607717Y-104838585D01*
X121990050Y-106220919D01*
X121432233Y-106451974D01*
X120901974Y-106982233D01*
X120615000Y-107675050D01*
X120615000Y-108424950D01*
X120784741Y-108834741D01*
X120374950Y-108665000D01*
X119625050Y-108665000D01*
X119392283Y-108761415D01*
X119143700Y-108512833D01*
X119143700Y-104735618D01*
X119625050Y-104935000D01*
G36*
X147560091Y-94421740D02*
X147978667Y-94505000D01*
X148261333Y-94505000D01*
X148679909Y-94421740D01*
X148907608Y-94269597D01*
X151233301Y-96595291D01*
X151161843Y-96702235D01*
X151112560Y-96950000D01*
X151112560Y-97585000D01*
X150884398Y-97585000D01*
X150412106Y-97780629D01*
X150050629Y-98142106D01*
X149855000Y-98614398D01*
X149855000Y-99125602D01*
X150050629Y-99597894D01*
X150412106Y-99959371D01*
X150884398Y-100155000D01*
X151125000Y-100155000D01*
X151125000Y-100395602D01*
X151320629Y-100867894D01*
X151682106Y-101229371D01*
X152154398Y-101425000D01*
X152327700Y-101425000D01*
X152327701Y-103705995D01*
X152071333Y-103655000D01*
X151788667Y-103655000D01*
X151370091Y-103738260D01*
X151108630Y-103912962D01*
X149940287Y-102744620D01*
X149893701Y-102674899D01*
X149617501Y-102490348D01*
X149373937Y-102441900D01*
X149373933Y-102441900D01*
X149291700Y-102425543D01*
X149209467Y-102441900D01*
X140650332Y-102441900D01*
X140568099Y-102425543D01*
X140485866Y-102441900D01*
X140485863Y-102441900D01*
X140242299Y-102490348D01*
X139966099Y-102674899D01*
X139919517Y-102744614D01*
X137579964Y-105084169D01*
X137471740Y-104540091D01*
X137154577Y-104065423D01*
X136955000Y-103932070D01*
X136955000Y-101707567D01*
X139302230Y-99360337D01*
X139400629Y-99597894D01*
X139762106Y-99959371D01*
X140234398Y-100155000D01*
X140475000Y-100155000D01*
X140475000Y-100395602D01*
X140670629Y-100867894D01*
X141032106Y-101229371D01*
X141504398Y-101425000D01*
X142015602Y-101425000D01*
X142487894Y-101229371D01*
X142849371Y-100867894D01*
X143045000Y-100395602D01*
X143045000Y-99884398D01*
X142849371Y-99412106D01*
X142487894Y-99050629D01*
X142118062Y-98897440D01*
X142410000Y-98897440D01*
X142657765Y-98848157D01*
X142867809Y-98707809D01*
X142980348Y-98539384D01*
X143002386Y-98535000D01*
X143275119Y-98480750D01*
X143584397Y-98274097D01*
X143791050Y-97964819D01*
X143863617Y-97600000D01*
X143845300Y-97507914D01*
X143845300Y-97366689D01*
X147098604Y-94113385D01*
X147560091Y-94421740D01*
X147560091Y-94421740D01*
G37*
X147560091Y-94421740D02*
X147978667Y-94505000D01*
X148261333Y-94505000D01*
X148679909Y-94421740D01*
X148907608Y-94269597D01*
X151233301Y-96595291D01*
X151161843Y-96702235D01*
X151112560Y-96950000D01*
X151112560Y-97585000D01*
X150884398Y-97585000D01*
X150412106Y-97780629D01*
X150050629Y-98142106D01*
X149855000Y-98614398D01*
X149855000Y-99125602D01*
X150050629Y-99597894D01*
X150412106Y-99959371D01*
X150884398Y-100155000D01*
X151125000Y-100155000D01*
X151125000Y-100395602D01*
X151320629Y-100867894D01*
X151682106Y-101229371D01*
X152154398Y-101425000D01*
X152327700Y-101425000D01*
X152327701Y-103705995D01*
X152071333Y-103655000D01*
X151788667Y-103655000D01*
X151370091Y-103738260D01*
X151108630Y-103912962D01*
X149940287Y-102744620D01*
X149893701Y-102674899D01*
X149617501Y-102490348D01*
X149373937Y-102441900D01*
X149373933Y-102441900D01*
X149291700Y-102425543D01*
X149209467Y-102441900D01*
X140650332Y-102441900D01*
X140568099Y-102425543D01*
X140485866Y-102441900D01*
X140485863Y-102441900D01*
X140242299Y-102490348D01*
X139966099Y-102674899D01*
X139919517Y-102744614D01*
X137579964Y-105084169D01*
X137471740Y-104540091D01*
X137154577Y-104065423D01*
X136955000Y-103932070D01*
X136955000Y-101707567D01*
X139302230Y-99360337D01*
X139400629Y-99597894D01*
X139762106Y-99959371D01*
X140234398Y-100155000D01*
X140475000Y-100155000D01*
X140475000Y-100395602D01*
X140670629Y-100867894D01*
X141032106Y-101229371D01*
X141504398Y-101425000D01*
X142015602Y-101425000D01*
X142487894Y-101229371D01*
X142849371Y-100867894D01*
X143045000Y-100395602D01*
X143045000Y-99884398D01*
X142849371Y-99412106D01*
X142487894Y-99050629D01*
X142118062Y-98897440D01*
X142410000Y-98897440D01*
X142657765Y-98848157D01*
X142867809Y-98707809D01*
X142980348Y-98539384D01*
X143002386Y-98535000D01*
X143275119Y-98480750D01*
X143584397Y-98274097D01*
X143791050Y-97964819D01*
X143863617Y-97600000D01*
X143845300Y-97507914D01*
X143845300Y-97366689D01*
X147098604Y-94113385D01*
X147560091Y-94421740D01*
M02*
