G04 #@! TF.GenerationSoftware,KiCad,Pcbnew,5.0.0-rc2-dev-unknown-482fd86~64~ubuntu18.04.1*
G04 #@! TF.CreationDate,2018-05-10T18:32:27+02:00*
G04 #@! TF.ProjectId,Pi1541 Ad-on Board,5069313534312041642D6F6E20426F61,0.91*
G04 #@! TF.SameCoordinates,Original*
G04 #@! TF.FileFunction,Copper,L1,Top,Signal*
G04 #@! TF.FilePolarity,Positive*
%FSLAX46Y46*%
G04 Gerber Fmt 4.6, Leading zero omitted, Abs format (unit mm)*
G04 Created by KiCad (PCBNEW 5.0.0-rc2-dev-unknown-482fd86~64~ubuntu18.04.1) date Thu May 10 18:32:27 2018*
%MOMM*%
%LPD*%
G01*
G04 APERTURE LIST*
%ADD10C,0.100000*%
%ADD11C,2.500000*%
%ADD12C,1.300000*%
%ADD13R,1.300000X1.300000*%
%ADD14R,1.600000X1.600000*%
%ADD15O,1.600000X1.600000*%
%ADD16C,5.400000*%
%ADD17C,1.600000*%
%ADD18R,1.850000X1.850000*%
%ADD19C,1.850000*%
%ADD20R,1.700000X1.700000*%
%ADD21O,1.700000X1.700000*%
%ADD22C,2.100000*%
%ADD23C,1.750000*%
%ADD24R,1.800000X1.800000*%
%ADD25C,1.800000*%
%ADD26C,0.800000*%
%ADD27C,0.600000*%
%ADD28C,0.400000*%
%ADD29C,0.254000*%
G04 APERTURE END LIST*
D10*
X111000000Y-121000000D02*
G75*
G02X107500000Y-117500000I0J3500000D01*
G01*
X107500000Y-68500000D02*
G75*
G02X111000000Y-65000000I3500000J0D01*
G01*
X107500000Y-68500000D02*
X107500000Y-117500000D01*
X191500000Y-117500000D02*
G75*
G02X188000000Y-121000000I-3500000J0D01*
G01*
X188000000Y-65000000D02*
G75*
G02X191500000Y-68500000I0J-3500000D01*
G01*
X191500000Y-117500000D02*
X191500000Y-68500000D01*
X111000000Y-121000000D02*
X188000000Y-121000000D01*
X111000000Y-65000000D02*
X188000000Y-65000000D01*
D11*
X125000000Y-85320000D03*
X122500000Y-80320000D03*
X122500000Y-90320000D03*
X120000000Y-77820000D03*
X120000000Y-85320000D03*
X120000000Y-92820000D03*
X110300000Y-90320000D03*
X110300000Y-80320000D03*
X110300000Y-100520000D03*
X110300000Y-110520000D03*
X120000000Y-113020000D03*
X120000000Y-105520000D03*
X120000000Y-98020000D03*
X122500000Y-110520000D03*
X122500000Y-100520000D03*
X125000000Y-105520000D03*
D12*
X129890000Y-100076500D03*
X131160000Y-101346500D03*
D13*
X131160000Y-98806500D03*
X141760000Y-98806500D03*
D12*
X141760000Y-101346500D03*
X140490000Y-100076500D03*
X151140000Y-100076500D03*
X152410000Y-101346500D03*
D13*
X152410000Y-98806500D03*
X163010000Y-98806500D03*
D12*
X163010000Y-101346500D03*
X161740000Y-100076500D03*
D14*
X141770000Y-105090000D03*
D15*
X144310000Y-105090000D03*
X146850000Y-105090000D03*
X149390000Y-105090000D03*
X151930000Y-105090000D03*
D16*
X130000000Y-68500000D03*
X188000000Y-68500000D03*
X188000000Y-117500000D03*
X130000000Y-117500000D03*
D17*
X129880000Y-94286500D03*
D15*
X137500000Y-94286500D03*
X148120000Y-94276500D03*
D17*
X140500000Y-94276500D03*
X151130000Y-94266500D03*
D15*
X158750000Y-94266500D03*
X169370000Y-94266500D03*
D17*
X161750000Y-94266500D03*
D18*
X183000000Y-103000000D03*
D19*
X178000000Y-103000000D03*
D17*
X128500000Y-105100000D03*
D15*
X136120000Y-105100000D03*
D20*
X134870000Y-69780000D03*
D21*
X134870000Y-67240000D03*
X137410000Y-69780000D03*
X137410000Y-67240000D03*
X139950000Y-69780000D03*
X139950000Y-67240000D03*
X142490000Y-69780000D03*
X142490000Y-67240000D03*
X145030000Y-69780000D03*
X145030000Y-67240000D03*
X147570000Y-69780000D03*
X147570000Y-67240000D03*
X150110000Y-69780000D03*
X150110000Y-67240000D03*
X152650000Y-69780000D03*
X152650000Y-67240000D03*
X155190000Y-69780000D03*
X155190000Y-67240000D03*
X157730000Y-69780000D03*
X157730000Y-67240000D03*
X160270000Y-69780000D03*
X160270000Y-67240000D03*
X162810000Y-69780000D03*
X162810000Y-67240000D03*
X165350000Y-69780000D03*
X165350000Y-67240000D03*
X167890000Y-69780000D03*
X167890000Y-67240000D03*
X170430000Y-69780000D03*
X170430000Y-67240000D03*
X172970000Y-69780000D03*
X172970000Y-67240000D03*
X175510000Y-69780000D03*
X175510000Y-67240000D03*
X178050000Y-69780000D03*
X178050000Y-67240000D03*
X180590000Y-69780000D03*
X180590000Y-67240000D03*
X183130000Y-69780000D03*
X183130000Y-67240000D03*
D22*
X136000000Y-115660000D03*
D23*
X137250000Y-118150000D03*
X141750000Y-118150000D03*
D22*
X143010000Y-115660000D03*
X152760000Y-115660000D03*
D23*
X151500000Y-118150000D03*
X147000000Y-118150000D03*
D22*
X145750000Y-115660000D03*
X155500000Y-115660000D03*
D23*
X156750000Y-118150000D03*
X161250000Y-118150000D03*
D22*
X162510000Y-115660000D03*
X172260000Y-115660000D03*
D23*
X171000000Y-118150000D03*
X166500000Y-118150000D03*
D22*
X165250000Y-115660000D03*
X175000000Y-115660000D03*
D23*
X176250000Y-118150000D03*
X180750000Y-118150000D03*
D22*
X182010000Y-115660000D03*
D24*
X119500000Y-117000000D03*
D25*
X116960000Y-117000000D03*
D22*
X113720000Y-66890000D03*
D23*
X111230000Y-68140000D03*
X111230000Y-72640000D03*
D22*
X113720000Y-73900000D03*
D26*
X160000000Y-85500000D03*
X131000000Y-105000000D03*
X124500000Y-108500000D03*
X120000000Y-108500000D03*
X135500000Y-89500000D03*
X150000000Y-110500000D03*
X155500000Y-111000000D03*
X175500000Y-73000000D03*
X119500000Y-101500000D03*
X120000000Y-95500000D03*
X139000000Y-104000000D03*
X146500000Y-100000000D03*
X139500000Y-75000000D03*
X155000000Y-91000000D03*
X141500000Y-89500000D03*
D27*
X141750000Y-118150000D02*
X143125400Y-119525400D01*
X143125400Y-119525400D02*
X150124600Y-119525400D01*
X150124600Y-119525400D02*
X151500000Y-118150000D01*
X130000000Y-117500000D02*
X132039100Y-119539100D01*
X132039100Y-119539100D02*
X140360900Y-119539100D01*
X140360900Y-119539100D02*
X141750000Y-118150000D01*
X183000000Y-103000000D02*
X183000000Y-104425300D01*
X183564700Y-117500000D02*
X183564700Y-104990000D01*
X183564700Y-104990000D02*
X183000000Y-104425300D01*
X180750000Y-118150000D02*
X182914700Y-118150000D01*
X182914700Y-118150000D02*
X183564700Y-117500000D01*
X183564700Y-117500000D02*
X188000000Y-117500000D01*
X122500000Y-80320000D02*
X122500000Y-86391100D01*
X122500000Y-86391100D02*
X124299600Y-88190700D01*
X124299600Y-88190700D02*
X124299600Y-98720400D01*
X124299600Y-98720400D02*
X122500000Y-100520000D01*
X111230000Y-72640000D02*
X111230000Y-73643900D01*
X111230000Y-73643900D02*
X117906100Y-80320000D01*
X117906100Y-80320000D02*
X122500000Y-80320000D01*
X171000000Y-118150000D02*
X172390600Y-119540600D01*
X172390600Y-119540600D02*
X179359400Y-119540600D01*
X179359400Y-119540600D02*
X180750000Y-118150000D01*
X171000000Y-118150000D02*
X169624600Y-119525400D01*
X169624600Y-119525400D02*
X162625400Y-119525400D01*
X162625400Y-119525400D02*
X161250000Y-118150000D01*
X165350000Y-71130300D02*
X146380300Y-71130300D01*
X146380300Y-71130300D02*
X145030000Y-69780000D01*
X183130000Y-69780000D02*
X181779700Y-71130300D01*
X181779700Y-71130300D02*
X165350000Y-71130300D01*
X165350000Y-69780000D02*
X165350000Y-71130300D01*
X185373700Y-67536300D02*
X183727000Y-65889600D01*
X183727000Y-65889600D02*
X176860400Y-65889600D01*
X176860400Y-65889600D02*
X175510000Y-67240000D01*
X188000000Y-68500000D02*
X186337400Y-68500000D01*
X186337400Y-68500000D02*
X185373700Y-67536300D01*
X183130000Y-69780000D02*
X185373700Y-67536300D01*
X175510000Y-67240000D02*
X174159700Y-65889700D01*
X174159700Y-65889700D02*
X170430000Y-65889700D01*
X139950000Y-65889700D02*
X132610300Y-65889700D01*
X132610300Y-65889700D02*
X130000000Y-68500000D01*
X139950000Y-67240000D02*
X139950000Y-65889700D01*
X150110000Y-65889700D02*
X139950000Y-65889700D01*
X157730000Y-67240000D02*
X156379700Y-65889700D01*
X156379700Y-65889700D02*
X150110000Y-65889700D01*
X150110000Y-67240000D02*
X150110000Y-65889700D01*
X170430000Y-65889700D02*
X159080300Y-65889700D01*
X159080300Y-65889700D02*
X157730000Y-67240000D01*
X170430000Y-67240000D02*
X170430000Y-65889700D01*
X151500000Y-118150000D02*
X152875400Y-119525400D01*
X152875400Y-119525400D02*
X159874600Y-119525400D01*
X159874600Y-119525400D02*
X161250000Y-118150000D01*
X137410000Y-67240000D02*
X134870000Y-67240000D01*
X152410000Y-98806500D02*
X153560300Y-98806500D01*
X158750000Y-94766300D02*
X158750000Y-95566800D01*
X158750000Y-94266500D02*
X158750000Y-94766300D01*
X153560300Y-98806500D02*
X157600500Y-94766300D01*
X157600500Y-94766300D02*
X158750000Y-94766300D01*
X163010000Y-98806500D02*
X164160300Y-98806500D01*
X163010000Y-98806500D02*
X161859700Y-98806500D01*
X158750000Y-95566800D02*
X161859700Y-98676500D01*
X161859700Y-98676500D02*
X161859700Y-98806500D01*
X168069700Y-94266500D02*
X164160300Y-98175900D01*
X164160300Y-98175900D02*
X164160300Y-98806500D01*
X141760000Y-98806500D02*
X142910300Y-98806500D01*
X148120000Y-94276500D02*
X146819700Y-94276500D01*
X146819700Y-94276500D02*
X142910300Y-98185900D01*
X142910300Y-98185900D02*
X142910300Y-98806500D01*
X137500000Y-98761700D02*
X132355100Y-98761700D01*
X132355100Y-98761700D02*
X132310300Y-98806500D01*
X140654500Y-98806500D02*
X140609700Y-98761700D01*
X140609700Y-98761700D02*
X137500000Y-98761700D01*
X137500000Y-95586800D02*
X137500000Y-98761700D01*
X131160000Y-98806500D02*
X132310300Y-98806500D01*
X141760000Y-98806500D02*
X140654500Y-98806500D01*
X137500000Y-94286500D02*
X137500000Y-95586800D01*
X169370000Y-94266500D02*
X168069700Y-94266500D01*
D28*
X137410000Y-69780000D02*
X138660300Y-69780000D01*
X138660300Y-69780000D02*
X138660300Y-69233000D01*
X138660300Y-69233000D02*
X139363700Y-68529600D01*
X139363700Y-68529600D02*
X140535800Y-68529600D01*
X140535800Y-68529600D02*
X141220000Y-69213800D01*
X141220000Y-69213800D02*
X141220000Y-73736500D01*
X141220000Y-73736500D02*
X161750000Y-94266500D01*
X139950000Y-69780000D02*
X139950000Y-71030300D01*
X139950000Y-71030300D02*
X129880000Y-81100300D01*
X129880000Y-81100300D02*
X129880000Y-94286500D01*
X151130000Y-94266500D02*
X151130000Y-100066500D01*
X151130000Y-100066500D02*
X151140000Y-100076500D01*
X144310000Y-105090000D02*
X143109700Y-105090000D01*
X131160000Y-101346500D02*
X140215000Y-101346500D01*
X140215000Y-101346500D02*
X143109700Y-104241200D01*
X143109700Y-104241200D02*
X143109700Y-105090000D01*
X129173500Y-101346500D02*
X131160000Y-101346500D01*
X125000000Y-105520000D02*
X129173500Y-101346500D01*
X125000000Y-85320000D02*
X125000000Y-97173000D01*
X125000000Y-97173000D02*
X129173500Y-101346500D01*
X149390000Y-105090000D02*
X148189700Y-105090000D01*
X148189700Y-105090000D02*
X148189700Y-105465100D01*
X148189700Y-105465100D02*
X143134800Y-110520000D01*
X143134800Y-110520000D02*
X122500000Y-110520000D01*
X151930000Y-105090000D02*
X150729700Y-105090000D01*
X151930000Y-105090000D02*
X159266500Y-105090000D01*
X159266500Y-105090000D02*
X163010000Y-101346500D01*
X120000000Y-105520000D02*
X118329500Y-107190500D01*
X118329500Y-107190500D02*
X118329500Y-113687700D01*
X118329500Y-113687700D02*
X119364700Y-114722900D01*
X119364700Y-114722900D02*
X120717800Y-114722900D01*
X120717800Y-114722900D02*
X123270300Y-112170400D01*
X123270300Y-112170400D02*
X144022300Y-112170400D01*
X144022300Y-112170400D02*
X150729700Y-105463000D01*
X150729700Y-105463000D02*
X150729700Y-105090000D01*
X123446600Y-107191200D02*
X120000000Y-110637800D01*
X120000000Y-110637800D02*
X120000000Y-113020000D01*
X145649700Y-105090000D02*
X145649700Y-105463000D01*
X145649700Y-105463000D02*
X143921500Y-107191200D01*
X143921500Y-107191200D02*
X123446600Y-107191200D01*
X123446600Y-107191200D02*
X123446600Y-106339900D01*
X123446600Y-106339900D02*
X120832000Y-103725300D01*
X120832000Y-103725300D02*
X120832000Y-99688000D01*
X120832000Y-99688000D02*
X121667900Y-98852100D01*
X121667900Y-98852100D02*
X121667900Y-94487900D01*
X121667900Y-94487900D02*
X120000000Y-92820000D01*
X145649700Y-105090000D02*
X145649700Y-104714900D01*
X145649700Y-104714900D02*
X142281300Y-101346500D01*
X142281300Y-101346500D02*
X141760000Y-101346500D01*
X146850000Y-105090000D02*
X145649700Y-105090000D01*
X142490000Y-69780000D02*
X143740300Y-69780000D01*
X166500000Y-118150000D02*
X170602300Y-114047700D01*
X170602300Y-114047700D02*
X170602300Y-93762700D01*
X170602300Y-93762700D02*
X148722800Y-71883200D01*
X148722800Y-71883200D02*
X145325400Y-71883200D01*
X145325400Y-71883200D02*
X143740300Y-70298100D01*
X143740300Y-70298100D02*
X143740300Y-69780000D01*
D29*
G36*
X112291526Y-65935524D02*
X112035000Y-66554833D01*
X112035000Y-66839030D01*
X111530358Y-66630000D01*
X110929642Y-66630000D01*
X110374654Y-66859884D01*
X109949884Y-67284654D01*
X109720000Y-67839642D01*
X109720000Y-68440358D01*
X109949884Y-68995346D01*
X110374654Y-69420116D01*
X110929642Y-69650000D01*
X111530358Y-69650000D01*
X112085346Y-69420116D01*
X112348467Y-69156995D01*
X126663738Y-69156995D01*
X127169117Y-70383716D01*
X127176341Y-70394528D01*
X127619809Y-70700586D01*
X129820395Y-68500000D01*
X130179605Y-68500000D01*
X132380191Y-70700586D01*
X132823659Y-70394528D01*
X133333725Y-69169748D01*
X133336262Y-67843005D01*
X132830883Y-66616284D01*
X132823659Y-66605472D01*
X132380191Y-66299414D01*
X130179605Y-68500000D01*
X129820395Y-68500000D01*
X127619809Y-66299414D01*
X127176341Y-66605472D01*
X126666275Y-67830252D01*
X126663738Y-69156995D01*
X112348467Y-69156995D01*
X112510116Y-68995346D01*
X112740000Y-68440358D01*
X112740000Y-68292950D01*
X112765524Y-68318474D01*
X113384833Y-68575000D01*
X114055167Y-68575000D01*
X114674476Y-68318474D01*
X115148474Y-67844476D01*
X115405000Y-67225167D01*
X115405000Y-66554833D01*
X115148474Y-65935524D01*
X114897950Y-65685000D01*
X128099496Y-65685000D01*
X127799414Y-66119809D01*
X130000000Y-68320395D01*
X132200586Y-66119809D01*
X131900504Y-65685000D01*
X186099496Y-65685000D01*
X185799414Y-66119809D01*
X188000000Y-68320395D01*
X188014143Y-68306253D01*
X188193748Y-68485858D01*
X188179605Y-68500000D01*
X190380191Y-70700586D01*
X190815001Y-70400503D01*
X190815000Y-115599496D01*
X190380191Y-115299414D01*
X188179605Y-117500000D01*
X188193748Y-117514143D01*
X188014143Y-117693748D01*
X188000000Y-117679605D01*
X185799414Y-119880191D01*
X186099496Y-120315000D01*
X131900504Y-120315000D01*
X132200586Y-119880191D01*
X130000000Y-117679605D01*
X127799414Y-119880191D01*
X128099496Y-120315000D01*
X111037095Y-120315000D01*
X110396386Y-120245397D01*
X109820936Y-120051736D01*
X109300490Y-119739021D01*
X108859337Y-119321844D01*
X108518062Y-118819672D01*
X108292579Y-118255925D01*
X108188886Y-117629568D01*
X108185000Y-117490434D01*
X108185000Y-116694670D01*
X115425000Y-116694670D01*
X115425000Y-117305330D01*
X115658690Y-117869507D01*
X116090493Y-118301310D01*
X116654670Y-118535000D01*
X117265330Y-118535000D01*
X117829507Y-118301310D01*
X118005861Y-118124956D01*
X118061673Y-118259699D01*
X118240302Y-118438327D01*
X118473691Y-118535000D01*
X119214250Y-118535000D01*
X119373000Y-118376250D01*
X119373000Y-117127000D01*
X119627000Y-117127000D01*
X119627000Y-118376250D01*
X119785750Y-118535000D01*
X120526309Y-118535000D01*
X120759698Y-118438327D01*
X120938327Y-118259699D01*
X120980868Y-118156995D01*
X126663738Y-118156995D01*
X127169117Y-119383716D01*
X127176341Y-119394528D01*
X127619809Y-119700586D01*
X129820395Y-117500000D01*
X130179605Y-117500000D01*
X132380191Y-119700586D01*
X132823659Y-119394528D01*
X133333725Y-118169748D01*
X133336262Y-116843005D01*
X132830883Y-115616284D01*
X132823659Y-115605472D01*
X132417023Y-115324833D01*
X134315000Y-115324833D01*
X134315000Y-115995167D01*
X134571526Y-116614476D01*
X135045524Y-117088474D01*
X135664833Y-117345000D01*
X135949030Y-117345000D01*
X135740000Y-117849642D01*
X135740000Y-118450358D01*
X135969884Y-119005346D01*
X136394654Y-119430116D01*
X136949642Y-119660000D01*
X137550358Y-119660000D01*
X138105346Y-119430116D01*
X138323402Y-119212060D01*
X140867545Y-119212060D01*
X140950884Y-119465953D01*
X141515306Y-119671590D01*
X142115458Y-119645579D01*
X142549116Y-119465953D01*
X142632455Y-119212060D01*
X141750000Y-118329605D01*
X140867545Y-119212060D01*
X138323402Y-119212060D01*
X138530116Y-119005346D01*
X138760000Y-118450358D01*
X138760000Y-117915306D01*
X140228410Y-117915306D01*
X140254421Y-118515458D01*
X140434047Y-118949116D01*
X140687940Y-119032455D01*
X141570395Y-118150000D01*
X140687940Y-117267545D01*
X140434047Y-117350884D01*
X140228410Y-117915306D01*
X138760000Y-117915306D01*
X138760000Y-117849642D01*
X138530116Y-117294654D01*
X138323402Y-117087940D01*
X140867545Y-117087940D01*
X141750000Y-117970395D01*
X141764143Y-117956253D01*
X141943748Y-118135858D01*
X141929605Y-118150000D01*
X142812060Y-119032455D01*
X143065953Y-118949116D01*
X143271590Y-118384694D01*
X143245579Y-117784542D01*
X143065953Y-117350884D01*
X143048027Y-117345000D01*
X143345167Y-117345000D01*
X143964476Y-117088474D01*
X144380000Y-116672950D01*
X144795524Y-117088474D01*
X145414833Y-117345000D01*
X145699030Y-117345000D01*
X145490000Y-117849642D01*
X145490000Y-118450358D01*
X145719884Y-119005346D01*
X146144654Y-119430116D01*
X146699642Y-119660000D01*
X147300358Y-119660000D01*
X147855346Y-119430116D01*
X148073402Y-119212060D01*
X150617545Y-119212060D01*
X150700884Y-119465953D01*
X151265306Y-119671590D01*
X151865458Y-119645579D01*
X152299116Y-119465953D01*
X152382455Y-119212060D01*
X151500000Y-118329605D01*
X150617545Y-119212060D01*
X148073402Y-119212060D01*
X148280116Y-119005346D01*
X148510000Y-118450358D01*
X148510000Y-117915306D01*
X149978410Y-117915306D01*
X150004421Y-118515458D01*
X150184047Y-118949116D01*
X150437940Y-119032455D01*
X151320395Y-118150000D01*
X150437940Y-117267545D01*
X150184047Y-117350884D01*
X149978410Y-117915306D01*
X148510000Y-117915306D01*
X148510000Y-117849642D01*
X148280116Y-117294654D01*
X148073402Y-117087940D01*
X150617545Y-117087940D01*
X151500000Y-117970395D01*
X151514143Y-117956253D01*
X151693748Y-118135858D01*
X151679605Y-118150000D01*
X152562060Y-119032455D01*
X152815953Y-118949116D01*
X153021590Y-118384694D01*
X152995579Y-117784542D01*
X152815953Y-117350884D01*
X152798027Y-117345000D01*
X153095167Y-117345000D01*
X153714476Y-117088474D01*
X154130000Y-116672950D01*
X154545524Y-117088474D01*
X155164833Y-117345000D01*
X155449030Y-117345000D01*
X155240000Y-117849642D01*
X155240000Y-118450358D01*
X155469884Y-119005346D01*
X155894654Y-119430116D01*
X156449642Y-119660000D01*
X157050358Y-119660000D01*
X157605346Y-119430116D01*
X157823402Y-119212060D01*
X160367545Y-119212060D01*
X160450884Y-119465953D01*
X161015306Y-119671590D01*
X161615458Y-119645579D01*
X162049116Y-119465953D01*
X162132455Y-119212060D01*
X161250000Y-118329605D01*
X160367545Y-119212060D01*
X157823402Y-119212060D01*
X158030116Y-119005346D01*
X158260000Y-118450358D01*
X158260000Y-117915306D01*
X159728410Y-117915306D01*
X159754421Y-118515458D01*
X159934047Y-118949116D01*
X160187940Y-119032455D01*
X161070395Y-118150000D01*
X160187940Y-117267545D01*
X159934047Y-117350884D01*
X159728410Y-117915306D01*
X158260000Y-117915306D01*
X158260000Y-117849642D01*
X158030116Y-117294654D01*
X157605346Y-116869884D01*
X157050358Y-116640000D01*
X156902950Y-116640000D01*
X156928474Y-116614476D01*
X157185000Y-115995167D01*
X157185000Y-115324833D01*
X156928474Y-114705524D01*
X156454476Y-114231526D01*
X155835167Y-113975000D01*
X155164833Y-113975000D01*
X154545524Y-114231526D01*
X154130000Y-114647050D01*
X153714476Y-114231526D01*
X153095167Y-113975000D01*
X152424833Y-113975000D01*
X151805524Y-114231526D01*
X151331526Y-114705524D01*
X151075000Y-115324833D01*
X151075000Y-115995167D01*
X151331526Y-116614476D01*
X151361629Y-116644579D01*
X151134542Y-116654421D01*
X150700884Y-116834047D01*
X150617545Y-117087940D01*
X148073402Y-117087940D01*
X147855346Y-116869884D01*
X147300358Y-116640000D01*
X147152950Y-116640000D01*
X147178474Y-116614476D01*
X147435000Y-115995167D01*
X147435000Y-115324833D01*
X147178474Y-114705524D01*
X146704476Y-114231526D01*
X146085167Y-113975000D01*
X145414833Y-113975000D01*
X144795524Y-114231526D01*
X144380000Y-114647050D01*
X143964476Y-114231526D01*
X143345167Y-113975000D01*
X142674833Y-113975000D01*
X142055524Y-114231526D01*
X141581526Y-114705524D01*
X141325000Y-115324833D01*
X141325000Y-115995167D01*
X141581526Y-116614476D01*
X141611629Y-116644579D01*
X141384542Y-116654421D01*
X140950884Y-116834047D01*
X140867545Y-117087940D01*
X138323402Y-117087940D01*
X138105346Y-116869884D01*
X137550358Y-116640000D01*
X137402950Y-116640000D01*
X137428474Y-116614476D01*
X137685000Y-115995167D01*
X137685000Y-115324833D01*
X137428474Y-114705524D01*
X136954476Y-114231526D01*
X136335167Y-113975000D01*
X135664833Y-113975000D01*
X135045524Y-114231526D01*
X134571526Y-114705524D01*
X134315000Y-115324833D01*
X132417023Y-115324833D01*
X132380191Y-115299414D01*
X130179605Y-117500000D01*
X129820395Y-117500000D01*
X127619809Y-115299414D01*
X127176341Y-115605472D01*
X126666275Y-116830252D01*
X126663738Y-118156995D01*
X120980868Y-118156995D01*
X121035000Y-118026310D01*
X121035000Y-117285750D01*
X120876250Y-117127000D01*
X119627000Y-117127000D01*
X119373000Y-117127000D01*
X119353000Y-117127000D01*
X119353000Y-116873000D01*
X119373000Y-116873000D01*
X119373000Y-116853000D01*
X119627000Y-116853000D01*
X119627000Y-116873000D01*
X120876250Y-116873000D01*
X121035000Y-116714250D01*
X121035000Y-115973690D01*
X120938327Y-115740301D01*
X120763243Y-115565218D01*
X120800033Y-115557900D01*
X120800037Y-115557900D01*
X121043601Y-115509452D01*
X121319801Y-115324901D01*
X121366387Y-115255180D01*
X121501758Y-115119809D01*
X127799414Y-115119809D01*
X130000000Y-117320395D01*
X132200586Y-115119809D01*
X131894528Y-114676341D01*
X130669748Y-114166275D01*
X129343005Y-114163738D01*
X128116284Y-114669117D01*
X128105472Y-114676341D01*
X127799414Y-115119809D01*
X121501758Y-115119809D01*
X123616168Y-113005400D01*
X143940067Y-113005400D01*
X144022300Y-113021757D01*
X144104533Y-113005400D01*
X144104537Y-113005400D01*
X144348101Y-112956952D01*
X144624301Y-112772401D01*
X144670887Y-112702680D01*
X151107372Y-106266196D01*
X151370091Y-106441740D01*
X151788667Y-106525000D01*
X152071333Y-106525000D01*
X152489909Y-106441740D01*
X152964577Y-106124577D01*
X153097930Y-105925000D01*
X159184267Y-105925000D01*
X159266500Y-105941357D01*
X159348733Y-105925000D01*
X159348737Y-105925000D01*
X159592301Y-105876552D01*
X159868501Y-105692001D01*
X159915087Y-105622280D01*
X162905869Y-102631500D01*
X163265602Y-102631500D01*
X163737894Y-102435871D01*
X164099371Y-102074394D01*
X164295000Y-101602102D01*
X164295000Y-101090898D01*
X164099371Y-100618606D01*
X163737894Y-100257129D01*
X163368062Y-100103940D01*
X163660000Y-100103940D01*
X163907765Y-100054657D01*
X164117809Y-99914309D01*
X164230348Y-99745884D01*
X164525119Y-99687250D01*
X164834397Y-99480597D01*
X165041050Y-99171319D01*
X165095300Y-98898586D01*
X165095300Y-98898585D01*
X165113617Y-98806500D01*
X165095300Y-98714414D01*
X165095300Y-98563189D01*
X168348604Y-95309885D01*
X168810091Y-95618240D01*
X169228667Y-95701500D01*
X169511333Y-95701500D01*
X169767301Y-95650585D01*
X169767300Y-113701831D01*
X166820705Y-116648428D01*
X166800358Y-116640000D01*
X166652950Y-116640000D01*
X166678474Y-116614476D01*
X166935000Y-115995167D01*
X166935000Y-115324833D01*
X166678474Y-114705524D01*
X166204476Y-114231526D01*
X165585167Y-113975000D01*
X164914833Y-113975000D01*
X164295524Y-114231526D01*
X163880000Y-114647050D01*
X163464476Y-114231526D01*
X162845167Y-113975000D01*
X162174833Y-113975000D01*
X161555524Y-114231526D01*
X161081526Y-114705524D01*
X160825000Y-115324833D01*
X160825000Y-115995167D01*
X161081526Y-116614476D01*
X161111629Y-116644579D01*
X160884542Y-116654421D01*
X160450884Y-116834047D01*
X160367545Y-117087940D01*
X161250000Y-117970395D01*
X161264143Y-117956253D01*
X161443748Y-118135858D01*
X161429605Y-118150000D01*
X162312060Y-119032455D01*
X162565953Y-118949116D01*
X162771590Y-118384694D01*
X162745579Y-117784542D01*
X162565953Y-117350884D01*
X162548027Y-117345000D01*
X162845167Y-117345000D01*
X163464476Y-117088474D01*
X163880000Y-116672950D01*
X164295524Y-117088474D01*
X164914833Y-117345000D01*
X165199030Y-117345000D01*
X164990000Y-117849642D01*
X164990000Y-118450358D01*
X165219884Y-119005346D01*
X165644654Y-119430116D01*
X166199642Y-119660000D01*
X166800358Y-119660000D01*
X167355346Y-119430116D01*
X167573402Y-119212060D01*
X170117545Y-119212060D01*
X170200884Y-119465953D01*
X170765306Y-119671590D01*
X171365458Y-119645579D01*
X171799116Y-119465953D01*
X171882455Y-119212060D01*
X171000000Y-118329605D01*
X170117545Y-119212060D01*
X167573402Y-119212060D01*
X167780116Y-119005346D01*
X168010000Y-118450358D01*
X168010000Y-117915306D01*
X169478410Y-117915306D01*
X169504421Y-118515458D01*
X169684047Y-118949116D01*
X169937940Y-119032455D01*
X170820395Y-118150000D01*
X169937940Y-117267545D01*
X169684047Y-117350884D01*
X169478410Y-117915306D01*
X168010000Y-117915306D01*
X168010000Y-117849642D01*
X168001572Y-117829295D01*
X170623765Y-115207104D01*
X170575000Y-115324833D01*
X170575000Y-115995167D01*
X170831526Y-116614476D01*
X170861629Y-116644579D01*
X170634542Y-116654421D01*
X170200884Y-116834047D01*
X170117545Y-117087940D01*
X171000000Y-117970395D01*
X171014143Y-117956253D01*
X171193748Y-118135858D01*
X171179605Y-118150000D01*
X172062060Y-119032455D01*
X172315953Y-118949116D01*
X172521590Y-118384694D01*
X172495579Y-117784542D01*
X172315953Y-117350884D01*
X172298027Y-117345000D01*
X172595167Y-117345000D01*
X173214476Y-117088474D01*
X173630000Y-116672950D01*
X174045524Y-117088474D01*
X174664833Y-117345000D01*
X174949030Y-117345000D01*
X174740000Y-117849642D01*
X174740000Y-118450358D01*
X174969884Y-119005346D01*
X175394654Y-119430116D01*
X175949642Y-119660000D01*
X176550358Y-119660000D01*
X177105346Y-119430116D01*
X177323402Y-119212060D01*
X179867545Y-119212060D01*
X179950884Y-119465953D01*
X180515306Y-119671590D01*
X181115458Y-119645579D01*
X181549116Y-119465953D01*
X181632455Y-119212060D01*
X180750000Y-118329605D01*
X179867545Y-119212060D01*
X177323402Y-119212060D01*
X177530116Y-119005346D01*
X177760000Y-118450358D01*
X177760000Y-117915306D01*
X179228410Y-117915306D01*
X179254421Y-118515458D01*
X179434047Y-118949116D01*
X179687940Y-119032455D01*
X180570395Y-118150000D01*
X179687940Y-117267545D01*
X179434047Y-117350884D01*
X179228410Y-117915306D01*
X177760000Y-117915306D01*
X177760000Y-117849642D01*
X177530116Y-117294654D01*
X177323402Y-117087940D01*
X179867545Y-117087940D01*
X180750000Y-117970395D01*
X180764143Y-117956253D01*
X180943748Y-118135858D01*
X180929605Y-118150000D01*
X181812060Y-119032455D01*
X182065953Y-118949116D01*
X182271590Y-118384694D01*
X182261722Y-118156995D01*
X184663738Y-118156995D01*
X185169117Y-119383716D01*
X185176341Y-119394528D01*
X185619809Y-119700586D01*
X187820395Y-117500000D01*
X185619809Y-115299414D01*
X185176341Y-115605472D01*
X184666275Y-116830252D01*
X184663738Y-118156995D01*
X182261722Y-118156995D01*
X182245579Y-117784542D01*
X182065953Y-117350884D01*
X182048027Y-117345000D01*
X182345167Y-117345000D01*
X182964476Y-117088474D01*
X183438474Y-116614476D01*
X183695000Y-115995167D01*
X183695000Y-115324833D01*
X183610077Y-115119809D01*
X185799414Y-115119809D01*
X188000000Y-117320395D01*
X190200586Y-115119809D01*
X189894528Y-114676341D01*
X188669748Y-114166275D01*
X187343005Y-114163738D01*
X186116284Y-114669117D01*
X186105472Y-114676341D01*
X185799414Y-115119809D01*
X183610077Y-115119809D01*
X183438474Y-114705524D01*
X182964476Y-114231526D01*
X182345167Y-113975000D01*
X181674833Y-113975000D01*
X181055524Y-114231526D01*
X180581526Y-114705524D01*
X180325000Y-115324833D01*
X180325000Y-115995167D01*
X180581526Y-116614476D01*
X180611629Y-116644579D01*
X180384542Y-116654421D01*
X179950884Y-116834047D01*
X179867545Y-117087940D01*
X177323402Y-117087940D01*
X177105346Y-116869884D01*
X176550358Y-116640000D01*
X176402950Y-116640000D01*
X176428474Y-116614476D01*
X176685000Y-115995167D01*
X176685000Y-115324833D01*
X176428474Y-114705524D01*
X175954476Y-114231526D01*
X175335167Y-113975000D01*
X174664833Y-113975000D01*
X174045524Y-114231526D01*
X173630000Y-114647050D01*
X173214476Y-114231526D01*
X172595167Y-113975000D01*
X171924833Y-113975000D01*
X171427110Y-114181163D01*
X171437300Y-114129937D01*
X171437300Y-114129934D01*
X171453657Y-114047701D01*
X171437300Y-113965468D01*
X171437300Y-102689697D01*
X176440000Y-102689697D01*
X176440000Y-103310303D01*
X176677496Y-103883669D01*
X177116331Y-104322504D01*
X177689697Y-104560000D01*
X178310303Y-104560000D01*
X178883669Y-104322504D01*
X179322504Y-103883669D01*
X179560000Y-103310303D01*
X179560000Y-103285750D01*
X181440000Y-103285750D01*
X181440000Y-104051309D01*
X181536673Y-104284698D01*
X181715301Y-104463327D01*
X181948690Y-104560000D01*
X182714250Y-104560000D01*
X182873000Y-104401250D01*
X182873000Y-103127000D01*
X183127000Y-103127000D01*
X183127000Y-104401250D01*
X183285750Y-104560000D01*
X184051310Y-104560000D01*
X184284699Y-104463327D01*
X184463327Y-104284698D01*
X184560000Y-104051309D01*
X184560000Y-103285750D01*
X184401250Y-103127000D01*
X183127000Y-103127000D01*
X182873000Y-103127000D01*
X181598750Y-103127000D01*
X181440000Y-103285750D01*
X179560000Y-103285750D01*
X179560000Y-102689697D01*
X179322504Y-102116331D01*
X179154864Y-101948691D01*
X181440000Y-101948691D01*
X181440000Y-102714250D01*
X181598750Y-102873000D01*
X182873000Y-102873000D01*
X182873000Y-101598750D01*
X183127000Y-101598750D01*
X183127000Y-102873000D01*
X184401250Y-102873000D01*
X184560000Y-102714250D01*
X184560000Y-101948691D01*
X184463327Y-101715302D01*
X184284699Y-101536673D01*
X184051310Y-101440000D01*
X183285750Y-101440000D01*
X183127000Y-101598750D01*
X182873000Y-101598750D01*
X182714250Y-101440000D01*
X181948690Y-101440000D01*
X181715301Y-101536673D01*
X181536673Y-101715302D01*
X181440000Y-101948691D01*
X179154864Y-101948691D01*
X178883669Y-101677496D01*
X178310303Y-101440000D01*
X177689697Y-101440000D01*
X177116331Y-101677496D01*
X176677496Y-102116331D01*
X176440000Y-102689697D01*
X171437300Y-102689697D01*
X171437300Y-93844937D01*
X171453658Y-93762700D01*
X171434125Y-93664499D01*
X171388852Y-93436899D01*
X171204301Y-93160699D01*
X171134583Y-93114115D01*
X149371387Y-71350920D01*
X149324801Y-71281199D01*
X149048601Y-71096648D01*
X148805037Y-71048200D01*
X148805033Y-71048200D01*
X148722800Y-71031843D01*
X148640567Y-71048200D01*
X148344933Y-71048200D01*
X148640625Y-70850625D01*
X148840000Y-70552239D01*
X149039375Y-70850625D01*
X149530582Y-71178839D01*
X149963744Y-71265000D01*
X150256256Y-71265000D01*
X150689418Y-71178839D01*
X151180625Y-70850625D01*
X151380000Y-70552239D01*
X151579375Y-70850625D01*
X152070582Y-71178839D01*
X152503744Y-71265000D01*
X152796256Y-71265000D01*
X153229418Y-71178839D01*
X153720625Y-70850625D01*
X153920000Y-70552239D01*
X154119375Y-70850625D01*
X154610582Y-71178839D01*
X155043744Y-71265000D01*
X155336256Y-71265000D01*
X155769418Y-71178839D01*
X156260625Y-70850625D01*
X156460000Y-70552239D01*
X156659375Y-70850625D01*
X157150582Y-71178839D01*
X157583744Y-71265000D01*
X157876256Y-71265000D01*
X158309418Y-71178839D01*
X158800625Y-70850625D01*
X159000000Y-70552239D01*
X159199375Y-70850625D01*
X159690582Y-71178839D01*
X160123744Y-71265000D01*
X160416256Y-71265000D01*
X160849418Y-71178839D01*
X161340625Y-70850625D01*
X161540000Y-70552239D01*
X161739375Y-70850625D01*
X162230582Y-71178839D01*
X162663744Y-71265000D01*
X162956256Y-71265000D01*
X163389418Y-71178839D01*
X163880625Y-70850625D01*
X164093843Y-70531522D01*
X164154817Y-70661358D01*
X164583076Y-71051645D01*
X164993110Y-71221476D01*
X165223000Y-71100155D01*
X165223000Y-69907000D01*
X165203000Y-69907000D01*
X165203000Y-69653000D01*
X165223000Y-69653000D01*
X165223000Y-69633000D01*
X165477000Y-69633000D01*
X165477000Y-69653000D01*
X165497000Y-69653000D01*
X165497000Y-69907000D01*
X165477000Y-69907000D01*
X165477000Y-71100155D01*
X165706890Y-71221476D01*
X166116924Y-71051645D01*
X166545183Y-70661358D01*
X166606157Y-70531522D01*
X166819375Y-70850625D01*
X167310582Y-71178839D01*
X167743744Y-71265000D01*
X168036256Y-71265000D01*
X168469418Y-71178839D01*
X168960625Y-70850625D01*
X169160000Y-70552239D01*
X169359375Y-70850625D01*
X169850582Y-71178839D01*
X170283744Y-71265000D01*
X170576256Y-71265000D01*
X171009418Y-71178839D01*
X171500625Y-70850625D01*
X171700000Y-70552239D01*
X171899375Y-70850625D01*
X172390582Y-71178839D01*
X172823744Y-71265000D01*
X173116256Y-71265000D01*
X173549418Y-71178839D01*
X174040625Y-70850625D01*
X174240000Y-70552239D01*
X174439375Y-70850625D01*
X174930582Y-71178839D01*
X175363744Y-71265000D01*
X175656256Y-71265000D01*
X176089418Y-71178839D01*
X176580625Y-70850625D01*
X176780000Y-70552239D01*
X176979375Y-70850625D01*
X177470582Y-71178839D01*
X177903744Y-71265000D01*
X178196256Y-71265000D01*
X178629418Y-71178839D01*
X179120625Y-70850625D01*
X179320000Y-70552239D01*
X179519375Y-70850625D01*
X180010582Y-71178839D01*
X180443744Y-71265000D01*
X180736256Y-71265000D01*
X181169418Y-71178839D01*
X181660625Y-70850625D01*
X181873843Y-70531522D01*
X181934817Y-70661358D01*
X182363076Y-71051645D01*
X182773110Y-71221476D01*
X183003000Y-71100155D01*
X183003000Y-69907000D01*
X183257000Y-69907000D01*
X183257000Y-71100155D01*
X183486890Y-71221476D01*
X183896924Y-71051645D01*
X184085059Y-70880191D01*
X185799414Y-70880191D01*
X186105472Y-71323659D01*
X187330252Y-71833725D01*
X188656995Y-71836262D01*
X189883716Y-71330883D01*
X189894528Y-71323659D01*
X190200586Y-70880191D01*
X188000000Y-68679605D01*
X185799414Y-70880191D01*
X184085059Y-70880191D01*
X184325183Y-70661358D01*
X184571486Y-70136892D01*
X184450819Y-69907000D01*
X183257000Y-69907000D01*
X183003000Y-69907000D01*
X182983000Y-69907000D01*
X182983000Y-69653000D01*
X183003000Y-69653000D01*
X183003000Y-69633000D01*
X183257000Y-69633000D01*
X183257000Y-69653000D01*
X184450819Y-69653000D01*
X184571486Y-69423108D01*
X184446513Y-69156995D01*
X184663738Y-69156995D01*
X185169117Y-70383716D01*
X185176341Y-70394528D01*
X185619809Y-70700586D01*
X187820395Y-68500000D01*
X185619809Y-66299414D01*
X185176341Y-66605472D01*
X184666275Y-67830252D01*
X184663738Y-69156995D01*
X184446513Y-69156995D01*
X184325183Y-68898642D01*
X183900214Y-68511353D01*
X184200625Y-68310625D01*
X184528839Y-67819418D01*
X184644092Y-67240000D01*
X184528839Y-66660582D01*
X184200625Y-66169375D01*
X183709418Y-65841161D01*
X183276256Y-65755000D01*
X182983744Y-65755000D01*
X182550582Y-65841161D01*
X182059375Y-66169375D01*
X181860000Y-66467761D01*
X181660625Y-66169375D01*
X181169418Y-65841161D01*
X180736256Y-65755000D01*
X180443744Y-65755000D01*
X180010582Y-65841161D01*
X179519375Y-66169375D01*
X179320000Y-66467761D01*
X179120625Y-66169375D01*
X178629418Y-65841161D01*
X178196256Y-65755000D01*
X177903744Y-65755000D01*
X177470582Y-65841161D01*
X176979375Y-66169375D01*
X176766157Y-66488478D01*
X176705183Y-66358642D01*
X176276924Y-65968355D01*
X175866890Y-65798524D01*
X175637000Y-65919845D01*
X175637000Y-67113000D01*
X175657000Y-67113000D01*
X175657000Y-67367000D01*
X175637000Y-67367000D01*
X175637000Y-67387000D01*
X175383000Y-67387000D01*
X175383000Y-67367000D01*
X175363000Y-67367000D01*
X175363000Y-67113000D01*
X175383000Y-67113000D01*
X175383000Y-65919845D01*
X175153110Y-65798524D01*
X174743076Y-65968355D01*
X174314817Y-66358642D01*
X174253843Y-66488478D01*
X174040625Y-66169375D01*
X173549418Y-65841161D01*
X173116256Y-65755000D01*
X172823744Y-65755000D01*
X172390582Y-65841161D01*
X171899375Y-66169375D01*
X171686157Y-66488478D01*
X171625183Y-66358642D01*
X171196924Y-65968355D01*
X170786890Y-65798524D01*
X170557000Y-65919845D01*
X170557000Y-67113000D01*
X170577000Y-67113000D01*
X170577000Y-67367000D01*
X170557000Y-67367000D01*
X170557000Y-67387000D01*
X170303000Y-67387000D01*
X170303000Y-67367000D01*
X170283000Y-67367000D01*
X170283000Y-67113000D01*
X170303000Y-67113000D01*
X170303000Y-65919845D01*
X170073110Y-65798524D01*
X169663076Y-65968355D01*
X169234817Y-66358642D01*
X169173843Y-66488478D01*
X168960625Y-66169375D01*
X168469418Y-65841161D01*
X168036256Y-65755000D01*
X167743744Y-65755000D01*
X167310582Y-65841161D01*
X166819375Y-66169375D01*
X166620000Y-66467761D01*
X166420625Y-66169375D01*
X165929418Y-65841161D01*
X165496256Y-65755000D01*
X165203744Y-65755000D01*
X164770582Y-65841161D01*
X164279375Y-66169375D01*
X164080000Y-66467761D01*
X163880625Y-66169375D01*
X163389418Y-65841161D01*
X162956256Y-65755000D01*
X162663744Y-65755000D01*
X162230582Y-65841161D01*
X161739375Y-66169375D01*
X161540000Y-66467761D01*
X161340625Y-66169375D01*
X160849418Y-65841161D01*
X160416256Y-65755000D01*
X160123744Y-65755000D01*
X159690582Y-65841161D01*
X159199375Y-66169375D01*
X158986157Y-66488478D01*
X158925183Y-66358642D01*
X158496924Y-65968355D01*
X158086890Y-65798524D01*
X157857000Y-65919845D01*
X157857000Y-67113000D01*
X157877000Y-67113000D01*
X157877000Y-67367000D01*
X157857000Y-67367000D01*
X157857000Y-67387000D01*
X157603000Y-67387000D01*
X157603000Y-67367000D01*
X157583000Y-67367000D01*
X157583000Y-67113000D01*
X157603000Y-67113000D01*
X157603000Y-65919845D01*
X157373110Y-65798524D01*
X156963076Y-65968355D01*
X156534817Y-66358642D01*
X156473843Y-66488478D01*
X156260625Y-66169375D01*
X155769418Y-65841161D01*
X155336256Y-65755000D01*
X155043744Y-65755000D01*
X154610582Y-65841161D01*
X154119375Y-66169375D01*
X153920000Y-66467761D01*
X153720625Y-66169375D01*
X153229418Y-65841161D01*
X152796256Y-65755000D01*
X152503744Y-65755000D01*
X152070582Y-65841161D01*
X151579375Y-66169375D01*
X151366157Y-66488478D01*
X151305183Y-66358642D01*
X150876924Y-65968355D01*
X150466890Y-65798524D01*
X150237000Y-65919845D01*
X150237000Y-67113000D01*
X150257000Y-67113000D01*
X150257000Y-67367000D01*
X150237000Y-67367000D01*
X150237000Y-67387000D01*
X149983000Y-67387000D01*
X149983000Y-67367000D01*
X149963000Y-67367000D01*
X149963000Y-67113000D01*
X149983000Y-67113000D01*
X149983000Y-65919845D01*
X149753110Y-65798524D01*
X149343076Y-65968355D01*
X148914817Y-66358642D01*
X148853843Y-66488478D01*
X148640625Y-66169375D01*
X148149418Y-65841161D01*
X147716256Y-65755000D01*
X147423744Y-65755000D01*
X146990582Y-65841161D01*
X146499375Y-66169375D01*
X146300000Y-66467761D01*
X146100625Y-66169375D01*
X145609418Y-65841161D01*
X145176256Y-65755000D01*
X144883744Y-65755000D01*
X144450582Y-65841161D01*
X143959375Y-66169375D01*
X143760000Y-66467761D01*
X143560625Y-66169375D01*
X143069418Y-65841161D01*
X142636256Y-65755000D01*
X142343744Y-65755000D01*
X141910582Y-65841161D01*
X141419375Y-66169375D01*
X141206157Y-66488478D01*
X141145183Y-66358642D01*
X140716924Y-65968355D01*
X140306890Y-65798524D01*
X140077000Y-65919845D01*
X140077000Y-67113000D01*
X140097000Y-67113000D01*
X140097000Y-67367000D01*
X140077000Y-67367000D01*
X140077000Y-67387000D01*
X139823000Y-67387000D01*
X139823000Y-67367000D01*
X139803000Y-67367000D01*
X139803000Y-67113000D01*
X139823000Y-67113000D01*
X139823000Y-65919845D01*
X139593110Y-65798524D01*
X139183076Y-65968355D01*
X138754817Y-66358642D01*
X138693843Y-66488478D01*
X138480625Y-66169375D01*
X137989418Y-65841161D01*
X137556256Y-65755000D01*
X137263744Y-65755000D01*
X136830582Y-65841161D01*
X136339375Y-66169375D01*
X136248753Y-66305000D01*
X136031247Y-66305000D01*
X135940625Y-66169375D01*
X135449418Y-65841161D01*
X135016256Y-65755000D01*
X134723744Y-65755000D01*
X134290582Y-65841161D01*
X133799375Y-66169375D01*
X133471161Y-66660582D01*
X133355908Y-67240000D01*
X133471161Y-67819418D01*
X133799375Y-68310625D01*
X133817619Y-68322816D01*
X133772235Y-68331843D01*
X133562191Y-68472191D01*
X133421843Y-68682235D01*
X133372560Y-68930000D01*
X133372560Y-70630000D01*
X133421843Y-70877765D01*
X133562191Y-71087809D01*
X133772235Y-71228157D01*
X134020000Y-71277440D01*
X135720000Y-71277440D01*
X135967765Y-71228157D01*
X136177809Y-71087809D01*
X136318157Y-70877765D01*
X136327184Y-70832381D01*
X136339375Y-70850625D01*
X136830582Y-71178839D01*
X137263744Y-71265000D01*
X137556256Y-71265000D01*
X137989418Y-71178839D01*
X138480625Y-70850625D01*
X138631025Y-70625535D01*
X138660300Y-70631358D01*
X138724352Y-70618617D01*
X138879375Y-70850625D01*
X138920996Y-70878436D01*
X129347720Y-80451713D01*
X129277999Y-80498299D01*
X129093448Y-80774500D01*
X129045000Y-81018064D01*
X129045000Y-81018067D01*
X129028643Y-81100300D01*
X129045000Y-81182533D01*
X129045001Y-93092103D01*
X128663466Y-93473638D01*
X128445000Y-94001061D01*
X128445000Y-94571939D01*
X128663466Y-95099362D01*
X129067138Y-95503034D01*
X129594561Y-95721500D01*
X130165439Y-95721500D01*
X130692862Y-95503034D01*
X131096534Y-95099362D01*
X131315000Y-94571939D01*
X131315000Y-94001061D01*
X131096534Y-93473638D01*
X130715000Y-93092104D01*
X130715000Y-81446167D01*
X140385001Y-71776167D01*
X140385001Y-73654262D01*
X140368643Y-73736500D01*
X140433448Y-74062300D01*
X140433449Y-74062301D01*
X140618000Y-74338501D01*
X140687718Y-74385085D01*
X159194419Y-92891788D01*
X158891333Y-92831500D01*
X158608667Y-92831500D01*
X158190091Y-92914760D01*
X157715423Y-93231923D01*
X157398260Y-93706591D01*
X157367894Y-93859251D01*
X157235681Y-93885550D01*
X156926403Y-94092203D01*
X156874239Y-94170272D01*
X153414709Y-97629802D01*
X153307765Y-97558343D01*
X153060000Y-97509060D01*
X151965000Y-97509060D01*
X151965000Y-95460896D01*
X152346534Y-95079362D01*
X152565000Y-94551939D01*
X152565000Y-93981061D01*
X152346534Y-93453638D01*
X151942862Y-93049966D01*
X151415439Y-92831500D01*
X150844561Y-92831500D01*
X150317138Y-93049966D01*
X149913466Y-93453638D01*
X149695000Y-93981061D01*
X149695000Y-94551939D01*
X149913466Y-95079362D01*
X150295000Y-95460896D01*
X150295001Y-99104234D01*
X150050629Y-99348606D01*
X149855000Y-99820898D01*
X149855000Y-100332102D01*
X150050629Y-100804394D01*
X150412106Y-101165871D01*
X150884398Y-101361500D01*
X151125000Y-101361500D01*
X151125000Y-101602102D01*
X151320629Y-102074394D01*
X151682106Y-102435871D01*
X152154398Y-102631500D01*
X152665602Y-102631500D01*
X153137894Y-102435871D01*
X153499371Y-102074394D01*
X153695000Y-101602102D01*
X153695000Y-101090898D01*
X153499371Y-100618606D01*
X153137894Y-100257129D01*
X152768062Y-100103940D01*
X153060000Y-100103940D01*
X153307765Y-100054657D01*
X153517809Y-99914309D01*
X153630348Y-99745884D01*
X153652386Y-99741500D01*
X153925119Y-99687250D01*
X154234397Y-99480597D01*
X154286561Y-99402528D01*
X157850705Y-95838384D01*
X157869250Y-95931618D01*
X158005146Y-96135000D01*
X158075904Y-96240897D01*
X158153970Y-96293059D01*
X160930073Y-99069162D01*
X160650629Y-99348606D01*
X160455000Y-99820898D01*
X160455000Y-100332102D01*
X160650629Y-100804394D01*
X161012106Y-101165871D01*
X161484398Y-101361500D01*
X161725000Y-101361500D01*
X161725000Y-101450631D01*
X158920633Y-104255000D01*
X153097930Y-104255000D01*
X152964577Y-104055423D01*
X152489909Y-103738260D01*
X152071333Y-103655000D01*
X151788667Y-103655000D01*
X151370091Y-103738260D01*
X150895423Y-104055423D01*
X150767920Y-104246244D01*
X150729700Y-104238642D01*
X150647463Y-104255000D01*
X150568434Y-104270720D01*
X150424577Y-104055423D01*
X149949909Y-103738260D01*
X149531333Y-103655000D01*
X149248667Y-103655000D01*
X148830091Y-103738260D01*
X148355423Y-104055423D01*
X148227920Y-104246245D01*
X148189700Y-104238642D01*
X148107463Y-104255000D01*
X148028434Y-104270720D01*
X147884577Y-104055423D01*
X147409909Y-103738260D01*
X146991333Y-103655000D01*
X146708667Y-103655000D01*
X146290091Y-103738260D01*
X146028630Y-103912962D01*
X142930757Y-100815090D01*
X142849371Y-100618606D01*
X142487894Y-100257129D01*
X142118062Y-100103940D01*
X142410000Y-100103940D01*
X142657765Y-100054657D01*
X142867809Y-99914309D01*
X142980348Y-99745884D01*
X143275119Y-99687250D01*
X143584397Y-99480597D01*
X143791050Y-99171319D01*
X143845300Y-98898586D01*
X143845300Y-98898585D01*
X143863617Y-98806500D01*
X143845300Y-98714414D01*
X143845300Y-98573189D01*
X147098604Y-95319885D01*
X147560091Y-95628240D01*
X147978667Y-95711500D01*
X148261333Y-95711500D01*
X148679909Y-95628240D01*
X149154577Y-95311077D01*
X149471740Y-94836409D01*
X149583113Y-94276500D01*
X149471740Y-93716591D01*
X149154577Y-93241923D01*
X148679909Y-92924760D01*
X148261333Y-92841500D01*
X147978667Y-92841500D01*
X147560091Y-92924760D01*
X147085423Y-93241923D01*
X147018888Y-93341500D01*
X146911786Y-93341500D01*
X146819700Y-93323183D01*
X146727614Y-93341500D01*
X146454881Y-93395750D01*
X146145603Y-93602403D01*
X146093439Y-93680472D01*
X142314272Y-97459639D01*
X142240308Y-97509060D01*
X141110000Y-97509060D01*
X140862235Y-97558343D01*
X140652191Y-97698691D01*
X140574175Y-97815449D01*
X140517614Y-97826700D01*
X138435000Y-97826700D01*
X138435000Y-95387612D01*
X138534577Y-95321077D01*
X138851740Y-94846409D01*
X138963113Y-94286500D01*
X138904347Y-93991061D01*
X139065000Y-93991061D01*
X139065000Y-94561939D01*
X139283466Y-95089362D01*
X139687138Y-95493034D01*
X140214561Y-95711500D01*
X140785439Y-95711500D01*
X141312862Y-95493034D01*
X141716534Y-95089362D01*
X141935000Y-94561939D01*
X141935000Y-93991061D01*
X141716534Y-93463638D01*
X141312862Y-93059966D01*
X140785439Y-92841500D01*
X140214561Y-92841500D01*
X139687138Y-93059966D01*
X139283466Y-93463638D01*
X139065000Y-93991061D01*
X138904347Y-93991061D01*
X138851740Y-93726591D01*
X138534577Y-93251923D01*
X138059909Y-92934760D01*
X137641333Y-92851500D01*
X137358667Y-92851500D01*
X136940091Y-92934760D01*
X136465423Y-93251923D01*
X136148260Y-93726591D01*
X136036887Y-94286500D01*
X136148260Y-94846409D01*
X136465423Y-95321077D01*
X136565001Y-95387613D01*
X136565001Y-95494711D01*
X136565000Y-95494715D01*
X136565001Y-97826700D01*
X132447186Y-97826700D01*
X132355100Y-97808383D01*
X132342745Y-97810840D01*
X132267809Y-97698691D01*
X132057765Y-97558343D01*
X131810000Y-97509060D01*
X130510000Y-97509060D01*
X130262235Y-97558343D01*
X130052191Y-97698691D01*
X129911843Y-97908735D01*
X129862560Y-98156500D01*
X129862560Y-98791500D01*
X129634398Y-98791500D01*
X129162106Y-98987129D01*
X128800629Y-99348606D01*
X128670540Y-99662671D01*
X125835000Y-96827133D01*
X125835000Y-87014441D01*
X126067767Y-86918026D01*
X126598026Y-86387767D01*
X126885000Y-85694950D01*
X126885000Y-84945050D01*
X126598026Y-84252233D01*
X126067767Y-83721974D01*
X125374950Y-83435000D01*
X124625050Y-83435000D01*
X123932233Y-83721974D01*
X123401974Y-84252233D01*
X123115000Y-84945050D01*
X123115000Y-85694950D01*
X123401974Y-86387767D01*
X123932233Y-86918026D01*
X124165000Y-87014441D01*
X124165000Y-89413923D01*
X124098026Y-89252233D01*
X123567767Y-88721974D01*
X122874950Y-88435000D01*
X122125050Y-88435000D01*
X121432233Y-88721974D01*
X120901974Y-89252233D01*
X120615000Y-89945050D01*
X120615000Y-90694950D01*
X120784741Y-91104741D01*
X120374950Y-90935000D01*
X119625050Y-90935000D01*
X118932233Y-91221974D01*
X118401974Y-91752233D01*
X118115000Y-92445050D01*
X118115000Y-93194950D01*
X118401974Y-93887767D01*
X118932233Y-94418026D01*
X119625050Y-94705000D01*
X120374950Y-94705000D01*
X120607717Y-94608585D01*
X120832901Y-94833769D01*
X120832901Y-96324689D01*
X120374950Y-96135000D01*
X119625050Y-96135000D01*
X118932233Y-96421974D01*
X118401974Y-96952233D01*
X118115000Y-97645050D01*
X118115000Y-98394950D01*
X118401974Y-99087767D01*
X118932233Y-99618026D01*
X119625050Y-99905000D01*
X119997001Y-99905000D01*
X119997000Y-103635000D01*
X119625050Y-103635000D01*
X118932233Y-103921974D01*
X118401974Y-104452233D01*
X118115000Y-105145050D01*
X118115000Y-105894950D01*
X118211415Y-106127717D01*
X117797220Y-106541913D01*
X117727499Y-106588499D01*
X117542948Y-106864700D01*
X117494500Y-107108264D01*
X117494500Y-107108267D01*
X117478143Y-107190500D01*
X117494500Y-107272733D01*
X117494501Y-113605462D01*
X117478143Y-113687700D01*
X117542948Y-114013500D01*
X117592572Y-114087767D01*
X117727500Y-114289701D01*
X117797218Y-114336285D01*
X118716115Y-115255182D01*
X118762699Y-115324901D01*
X118972372Y-115465000D01*
X118473691Y-115465000D01*
X118240302Y-115561673D01*
X118061673Y-115740301D01*
X118005861Y-115875044D01*
X117829507Y-115698690D01*
X117265330Y-115465000D01*
X116654670Y-115465000D01*
X116090493Y-115698690D01*
X115658690Y-116130493D01*
X115425000Y-116694670D01*
X108185000Y-116694670D01*
X108185000Y-110145050D01*
X108415000Y-110145050D01*
X108415000Y-110894950D01*
X108701974Y-111587767D01*
X109232233Y-112118026D01*
X109925050Y-112405000D01*
X110674950Y-112405000D01*
X111367767Y-112118026D01*
X111898026Y-111587767D01*
X112185000Y-110894950D01*
X112185000Y-110145050D01*
X111898026Y-109452233D01*
X111367767Y-108921974D01*
X110674950Y-108635000D01*
X109925050Y-108635000D01*
X109232233Y-108921974D01*
X108701974Y-109452233D01*
X108415000Y-110145050D01*
X108185000Y-110145050D01*
X108185000Y-100145050D01*
X108415000Y-100145050D01*
X108415000Y-100894950D01*
X108701974Y-101587767D01*
X109232233Y-102118026D01*
X109925050Y-102405000D01*
X110674950Y-102405000D01*
X111367767Y-102118026D01*
X111898026Y-101587767D01*
X112185000Y-100894950D01*
X112185000Y-100145050D01*
X111898026Y-99452233D01*
X111367767Y-98921974D01*
X110674950Y-98635000D01*
X109925050Y-98635000D01*
X109232233Y-98921974D01*
X108701974Y-99452233D01*
X108415000Y-100145050D01*
X108185000Y-100145050D01*
X108185000Y-89945050D01*
X108415000Y-89945050D01*
X108415000Y-90694950D01*
X108701974Y-91387767D01*
X109232233Y-91918026D01*
X109925050Y-92205000D01*
X110674950Y-92205000D01*
X111367767Y-91918026D01*
X111898026Y-91387767D01*
X112185000Y-90694950D01*
X112185000Y-89945050D01*
X111898026Y-89252233D01*
X111367767Y-88721974D01*
X110674950Y-88435000D01*
X109925050Y-88435000D01*
X109232233Y-88721974D01*
X108701974Y-89252233D01*
X108415000Y-89945050D01*
X108185000Y-89945050D01*
X108185000Y-84945050D01*
X118115000Y-84945050D01*
X118115000Y-85694950D01*
X118401974Y-86387767D01*
X118932233Y-86918026D01*
X119625050Y-87205000D01*
X120374950Y-87205000D01*
X121067767Y-86918026D01*
X121598026Y-86387767D01*
X121885000Y-85694950D01*
X121885000Y-84945050D01*
X121598026Y-84252233D01*
X121067767Y-83721974D01*
X120374950Y-83435000D01*
X119625050Y-83435000D01*
X118932233Y-83721974D01*
X118401974Y-84252233D01*
X118115000Y-84945050D01*
X108185000Y-84945050D01*
X108185000Y-79945050D01*
X108415000Y-79945050D01*
X108415000Y-80694950D01*
X108701974Y-81387767D01*
X109232233Y-81918026D01*
X109925050Y-82205000D01*
X110674950Y-82205000D01*
X111367767Y-81918026D01*
X111632473Y-81653320D01*
X121346285Y-81653320D01*
X121475533Y-81946123D01*
X122175806Y-82214388D01*
X122925435Y-82194250D01*
X123524467Y-81946123D01*
X123653715Y-81653320D01*
X122500000Y-80499605D01*
X121346285Y-81653320D01*
X111632473Y-81653320D01*
X111898026Y-81387767D01*
X112185000Y-80694950D01*
X112185000Y-79945050D01*
X111898026Y-79252233D01*
X111367767Y-78721974D01*
X110674950Y-78435000D01*
X109925050Y-78435000D01*
X109232233Y-78721974D01*
X108701974Y-79252233D01*
X108415000Y-79945050D01*
X108185000Y-79945050D01*
X108185000Y-77445050D01*
X118115000Y-77445050D01*
X118115000Y-78194950D01*
X118401974Y-78887767D01*
X118932233Y-79418026D01*
X119625050Y-79705000D01*
X120374950Y-79705000D01*
X120781532Y-79536588D01*
X120605612Y-79995806D01*
X120625750Y-80745435D01*
X120873877Y-81344467D01*
X121166680Y-81473715D01*
X122320395Y-80320000D01*
X122679605Y-80320000D01*
X123833320Y-81473715D01*
X124126123Y-81344467D01*
X124394388Y-80644194D01*
X124374250Y-79894565D01*
X124126123Y-79295533D01*
X123833320Y-79166285D01*
X122679605Y-80320000D01*
X122320395Y-80320000D01*
X122306253Y-80305858D01*
X122485858Y-80126253D01*
X122500000Y-80140395D01*
X123653715Y-78986680D01*
X123524467Y-78693877D01*
X122824194Y-78425612D01*
X122074565Y-78445750D01*
X121720340Y-78592475D01*
X121885000Y-78194950D01*
X121885000Y-77445050D01*
X121598026Y-76752233D01*
X121067767Y-76221974D01*
X120374950Y-75935000D01*
X119625050Y-75935000D01*
X118932233Y-76221974D01*
X118401974Y-76752233D01*
X118115000Y-77445050D01*
X108185000Y-77445050D01*
X108185000Y-73702060D01*
X110347545Y-73702060D01*
X110430884Y-73955953D01*
X110995306Y-74161590D01*
X111595458Y-74135579D01*
X112029116Y-73955953D01*
X112035000Y-73938027D01*
X112035000Y-74235167D01*
X112291526Y-74854476D01*
X112765524Y-75328474D01*
X113384833Y-75585000D01*
X114055167Y-75585000D01*
X114674476Y-75328474D01*
X115148474Y-74854476D01*
X115405000Y-74235167D01*
X115405000Y-73564833D01*
X115148474Y-72945524D01*
X114674476Y-72471526D01*
X114055167Y-72215000D01*
X113384833Y-72215000D01*
X112765524Y-72471526D01*
X112735421Y-72501629D01*
X112725579Y-72274542D01*
X112545953Y-71840884D01*
X112292060Y-71757545D01*
X111409605Y-72640000D01*
X111423748Y-72654143D01*
X111244143Y-72833748D01*
X111230000Y-72819605D01*
X110347545Y-73702060D01*
X108185000Y-73702060D01*
X108185000Y-72405306D01*
X109708410Y-72405306D01*
X109734421Y-73005458D01*
X109914047Y-73439116D01*
X110167940Y-73522455D01*
X111050395Y-72640000D01*
X110167940Y-71757545D01*
X109914047Y-71840884D01*
X109708410Y-72405306D01*
X108185000Y-72405306D01*
X108185000Y-71577940D01*
X110347545Y-71577940D01*
X111230000Y-72460395D01*
X112112455Y-71577940D01*
X112029116Y-71324047D01*
X111464694Y-71118410D01*
X110864542Y-71144421D01*
X110430884Y-71324047D01*
X110347545Y-71577940D01*
X108185000Y-71577940D01*
X108185000Y-70880191D01*
X127799414Y-70880191D01*
X128105472Y-71323659D01*
X129330252Y-71833725D01*
X130656995Y-71836262D01*
X131883716Y-71330883D01*
X131894528Y-71323659D01*
X132200586Y-70880191D01*
X130000000Y-68679605D01*
X127799414Y-70880191D01*
X108185000Y-70880191D01*
X108185000Y-68537095D01*
X108254603Y-67896386D01*
X108448264Y-67320936D01*
X108760977Y-66800491D01*
X109178153Y-66359339D01*
X109680328Y-66018061D01*
X110244074Y-65792579D01*
X110870431Y-65688886D01*
X111009566Y-65685000D01*
X112542050Y-65685000D01*
X112291526Y-65935524D01*
X112291526Y-65935524D01*
G37*
X112291526Y-65935524D02*
X112035000Y-66554833D01*
X112035000Y-66839030D01*
X111530358Y-66630000D01*
X110929642Y-66630000D01*
X110374654Y-66859884D01*
X109949884Y-67284654D01*
X109720000Y-67839642D01*
X109720000Y-68440358D01*
X109949884Y-68995346D01*
X110374654Y-69420116D01*
X110929642Y-69650000D01*
X111530358Y-69650000D01*
X112085346Y-69420116D01*
X112348467Y-69156995D01*
X126663738Y-69156995D01*
X127169117Y-70383716D01*
X127176341Y-70394528D01*
X127619809Y-70700586D01*
X129820395Y-68500000D01*
X130179605Y-68500000D01*
X132380191Y-70700586D01*
X132823659Y-70394528D01*
X133333725Y-69169748D01*
X133336262Y-67843005D01*
X132830883Y-66616284D01*
X132823659Y-66605472D01*
X132380191Y-66299414D01*
X130179605Y-68500000D01*
X129820395Y-68500000D01*
X127619809Y-66299414D01*
X127176341Y-66605472D01*
X126666275Y-67830252D01*
X126663738Y-69156995D01*
X112348467Y-69156995D01*
X112510116Y-68995346D01*
X112740000Y-68440358D01*
X112740000Y-68292950D01*
X112765524Y-68318474D01*
X113384833Y-68575000D01*
X114055167Y-68575000D01*
X114674476Y-68318474D01*
X115148474Y-67844476D01*
X115405000Y-67225167D01*
X115405000Y-66554833D01*
X115148474Y-65935524D01*
X114897950Y-65685000D01*
X128099496Y-65685000D01*
X127799414Y-66119809D01*
X130000000Y-68320395D01*
X132200586Y-66119809D01*
X131900504Y-65685000D01*
X186099496Y-65685000D01*
X185799414Y-66119809D01*
X188000000Y-68320395D01*
X188014143Y-68306253D01*
X188193748Y-68485858D01*
X188179605Y-68500000D01*
X190380191Y-70700586D01*
X190815001Y-70400503D01*
X190815000Y-115599496D01*
X190380191Y-115299414D01*
X188179605Y-117500000D01*
X188193748Y-117514143D01*
X188014143Y-117693748D01*
X188000000Y-117679605D01*
X185799414Y-119880191D01*
X186099496Y-120315000D01*
X131900504Y-120315000D01*
X132200586Y-119880191D01*
X130000000Y-117679605D01*
X127799414Y-119880191D01*
X128099496Y-120315000D01*
X111037095Y-120315000D01*
X110396386Y-120245397D01*
X109820936Y-120051736D01*
X109300490Y-119739021D01*
X108859337Y-119321844D01*
X108518062Y-118819672D01*
X108292579Y-118255925D01*
X108188886Y-117629568D01*
X108185000Y-117490434D01*
X108185000Y-116694670D01*
X115425000Y-116694670D01*
X115425000Y-117305330D01*
X115658690Y-117869507D01*
X116090493Y-118301310D01*
X116654670Y-118535000D01*
X117265330Y-118535000D01*
X117829507Y-118301310D01*
X118005861Y-118124956D01*
X118061673Y-118259699D01*
X118240302Y-118438327D01*
X118473691Y-118535000D01*
X119214250Y-118535000D01*
X119373000Y-118376250D01*
X119373000Y-117127000D01*
X119627000Y-117127000D01*
X119627000Y-118376250D01*
X119785750Y-118535000D01*
X120526309Y-118535000D01*
X120759698Y-118438327D01*
X120938327Y-118259699D01*
X120980868Y-118156995D01*
X126663738Y-118156995D01*
X127169117Y-119383716D01*
X127176341Y-119394528D01*
X127619809Y-119700586D01*
X129820395Y-117500000D01*
X130179605Y-117500000D01*
X132380191Y-119700586D01*
X132823659Y-119394528D01*
X133333725Y-118169748D01*
X133336262Y-116843005D01*
X132830883Y-115616284D01*
X132823659Y-115605472D01*
X132417023Y-115324833D01*
X134315000Y-115324833D01*
X134315000Y-115995167D01*
X134571526Y-116614476D01*
X135045524Y-117088474D01*
X135664833Y-117345000D01*
X135949030Y-117345000D01*
X135740000Y-117849642D01*
X135740000Y-118450358D01*
X135969884Y-119005346D01*
X136394654Y-119430116D01*
X136949642Y-119660000D01*
X137550358Y-119660000D01*
X138105346Y-119430116D01*
X138323402Y-119212060D01*
X140867545Y-119212060D01*
X140950884Y-119465953D01*
X141515306Y-119671590D01*
X142115458Y-119645579D01*
X142549116Y-119465953D01*
X142632455Y-119212060D01*
X141750000Y-118329605D01*
X140867545Y-119212060D01*
X138323402Y-119212060D01*
X138530116Y-119005346D01*
X138760000Y-118450358D01*
X138760000Y-117915306D01*
X140228410Y-117915306D01*
X140254421Y-118515458D01*
X140434047Y-118949116D01*
X140687940Y-119032455D01*
X141570395Y-118150000D01*
X140687940Y-117267545D01*
X140434047Y-117350884D01*
X140228410Y-117915306D01*
X138760000Y-117915306D01*
X138760000Y-117849642D01*
X138530116Y-117294654D01*
X138323402Y-117087940D01*
X140867545Y-117087940D01*
X141750000Y-117970395D01*
X141764143Y-117956253D01*
X141943748Y-118135858D01*
X141929605Y-118150000D01*
X142812060Y-119032455D01*
X143065953Y-118949116D01*
X143271590Y-118384694D01*
X143245579Y-117784542D01*
X143065953Y-117350884D01*
X143048027Y-117345000D01*
X143345167Y-117345000D01*
X143964476Y-117088474D01*
X144380000Y-116672950D01*
X144795524Y-117088474D01*
X145414833Y-117345000D01*
X145699030Y-117345000D01*
X145490000Y-117849642D01*
X145490000Y-118450358D01*
X145719884Y-119005346D01*
X146144654Y-119430116D01*
X146699642Y-119660000D01*
X147300358Y-119660000D01*
X147855346Y-119430116D01*
X148073402Y-119212060D01*
X150617545Y-119212060D01*
X150700884Y-119465953D01*
X151265306Y-119671590D01*
X151865458Y-119645579D01*
X152299116Y-119465953D01*
X152382455Y-119212060D01*
X151500000Y-118329605D01*
X150617545Y-119212060D01*
X148073402Y-119212060D01*
X148280116Y-119005346D01*
X148510000Y-118450358D01*
X148510000Y-117915306D01*
X149978410Y-117915306D01*
X150004421Y-118515458D01*
X150184047Y-118949116D01*
X150437940Y-119032455D01*
X151320395Y-118150000D01*
X150437940Y-117267545D01*
X150184047Y-117350884D01*
X149978410Y-117915306D01*
X148510000Y-117915306D01*
X148510000Y-117849642D01*
X148280116Y-117294654D01*
X148073402Y-117087940D01*
X150617545Y-117087940D01*
X151500000Y-117970395D01*
X151514143Y-117956253D01*
X151693748Y-118135858D01*
X151679605Y-118150000D01*
X152562060Y-119032455D01*
X152815953Y-118949116D01*
X153021590Y-118384694D01*
X152995579Y-117784542D01*
X152815953Y-117350884D01*
X152798027Y-117345000D01*
X153095167Y-117345000D01*
X153714476Y-117088474D01*
X154130000Y-116672950D01*
X154545524Y-117088474D01*
X155164833Y-117345000D01*
X155449030Y-117345000D01*
X155240000Y-117849642D01*
X155240000Y-118450358D01*
X155469884Y-119005346D01*
X155894654Y-119430116D01*
X156449642Y-119660000D01*
X157050358Y-119660000D01*
X157605346Y-119430116D01*
X157823402Y-119212060D01*
X160367545Y-119212060D01*
X160450884Y-119465953D01*
X161015306Y-119671590D01*
X161615458Y-119645579D01*
X162049116Y-119465953D01*
X162132455Y-119212060D01*
X161250000Y-118329605D01*
X160367545Y-119212060D01*
X157823402Y-119212060D01*
X158030116Y-119005346D01*
X158260000Y-118450358D01*
X158260000Y-117915306D01*
X159728410Y-117915306D01*
X159754421Y-118515458D01*
X159934047Y-118949116D01*
X160187940Y-119032455D01*
X161070395Y-118150000D01*
X160187940Y-117267545D01*
X159934047Y-117350884D01*
X159728410Y-117915306D01*
X158260000Y-117915306D01*
X158260000Y-117849642D01*
X158030116Y-117294654D01*
X157605346Y-116869884D01*
X157050358Y-116640000D01*
X156902950Y-116640000D01*
X156928474Y-116614476D01*
X157185000Y-115995167D01*
X157185000Y-115324833D01*
X156928474Y-114705524D01*
X156454476Y-114231526D01*
X155835167Y-113975000D01*
X155164833Y-113975000D01*
X154545524Y-114231526D01*
X154130000Y-114647050D01*
X153714476Y-114231526D01*
X153095167Y-113975000D01*
X152424833Y-113975000D01*
X151805524Y-114231526D01*
X151331526Y-114705524D01*
X151075000Y-115324833D01*
X151075000Y-115995167D01*
X151331526Y-116614476D01*
X151361629Y-116644579D01*
X151134542Y-116654421D01*
X150700884Y-116834047D01*
X150617545Y-117087940D01*
X148073402Y-117087940D01*
X147855346Y-116869884D01*
X147300358Y-116640000D01*
X147152950Y-116640000D01*
X147178474Y-116614476D01*
X147435000Y-115995167D01*
X147435000Y-115324833D01*
X147178474Y-114705524D01*
X146704476Y-114231526D01*
X146085167Y-113975000D01*
X145414833Y-113975000D01*
X144795524Y-114231526D01*
X144380000Y-114647050D01*
X143964476Y-114231526D01*
X143345167Y-113975000D01*
X142674833Y-113975000D01*
X142055524Y-114231526D01*
X141581526Y-114705524D01*
X141325000Y-115324833D01*
X141325000Y-115995167D01*
X141581526Y-116614476D01*
X141611629Y-116644579D01*
X141384542Y-116654421D01*
X140950884Y-116834047D01*
X140867545Y-117087940D01*
X138323402Y-117087940D01*
X138105346Y-116869884D01*
X137550358Y-116640000D01*
X137402950Y-116640000D01*
X137428474Y-116614476D01*
X137685000Y-115995167D01*
X137685000Y-115324833D01*
X137428474Y-114705524D01*
X136954476Y-114231526D01*
X136335167Y-113975000D01*
X135664833Y-113975000D01*
X135045524Y-114231526D01*
X134571526Y-114705524D01*
X134315000Y-115324833D01*
X132417023Y-115324833D01*
X132380191Y-115299414D01*
X130179605Y-117500000D01*
X129820395Y-117500000D01*
X127619809Y-115299414D01*
X127176341Y-115605472D01*
X126666275Y-116830252D01*
X126663738Y-118156995D01*
X120980868Y-118156995D01*
X121035000Y-118026310D01*
X121035000Y-117285750D01*
X120876250Y-117127000D01*
X119627000Y-117127000D01*
X119373000Y-117127000D01*
X119353000Y-117127000D01*
X119353000Y-116873000D01*
X119373000Y-116873000D01*
X119373000Y-116853000D01*
X119627000Y-116853000D01*
X119627000Y-116873000D01*
X120876250Y-116873000D01*
X121035000Y-116714250D01*
X121035000Y-115973690D01*
X120938327Y-115740301D01*
X120763243Y-115565218D01*
X120800033Y-115557900D01*
X120800037Y-115557900D01*
X121043601Y-115509452D01*
X121319801Y-115324901D01*
X121366387Y-115255180D01*
X121501758Y-115119809D01*
X127799414Y-115119809D01*
X130000000Y-117320395D01*
X132200586Y-115119809D01*
X131894528Y-114676341D01*
X130669748Y-114166275D01*
X129343005Y-114163738D01*
X128116284Y-114669117D01*
X128105472Y-114676341D01*
X127799414Y-115119809D01*
X121501758Y-115119809D01*
X123616168Y-113005400D01*
X143940067Y-113005400D01*
X144022300Y-113021757D01*
X144104533Y-113005400D01*
X144104537Y-113005400D01*
X144348101Y-112956952D01*
X144624301Y-112772401D01*
X144670887Y-112702680D01*
X151107372Y-106266196D01*
X151370091Y-106441740D01*
X151788667Y-106525000D01*
X152071333Y-106525000D01*
X152489909Y-106441740D01*
X152964577Y-106124577D01*
X153097930Y-105925000D01*
X159184267Y-105925000D01*
X159266500Y-105941357D01*
X159348733Y-105925000D01*
X159348737Y-105925000D01*
X159592301Y-105876552D01*
X159868501Y-105692001D01*
X159915087Y-105622280D01*
X162905869Y-102631500D01*
X163265602Y-102631500D01*
X163737894Y-102435871D01*
X164099371Y-102074394D01*
X164295000Y-101602102D01*
X164295000Y-101090898D01*
X164099371Y-100618606D01*
X163737894Y-100257129D01*
X163368062Y-100103940D01*
X163660000Y-100103940D01*
X163907765Y-100054657D01*
X164117809Y-99914309D01*
X164230348Y-99745884D01*
X164525119Y-99687250D01*
X164834397Y-99480597D01*
X165041050Y-99171319D01*
X165095300Y-98898586D01*
X165095300Y-98898585D01*
X165113617Y-98806500D01*
X165095300Y-98714414D01*
X165095300Y-98563189D01*
X168348604Y-95309885D01*
X168810091Y-95618240D01*
X169228667Y-95701500D01*
X169511333Y-95701500D01*
X169767301Y-95650585D01*
X169767300Y-113701831D01*
X166820705Y-116648428D01*
X166800358Y-116640000D01*
X166652950Y-116640000D01*
X166678474Y-116614476D01*
X166935000Y-115995167D01*
X166935000Y-115324833D01*
X166678474Y-114705524D01*
X166204476Y-114231526D01*
X165585167Y-113975000D01*
X164914833Y-113975000D01*
X164295524Y-114231526D01*
X163880000Y-114647050D01*
X163464476Y-114231526D01*
X162845167Y-113975000D01*
X162174833Y-113975000D01*
X161555524Y-114231526D01*
X161081526Y-114705524D01*
X160825000Y-115324833D01*
X160825000Y-115995167D01*
X161081526Y-116614476D01*
X161111629Y-116644579D01*
X160884542Y-116654421D01*
X160450884Y-116834047D01*
X160367545Y-117087940D01*
X161250000Y-117970395D01*
X161264143Y-117956253D01*
X161443748Y-118135858D01*
X161429605Y-118150000D01*
X162312060Y-119032455D01*
X162565953Y-118949116D01*
X162771590Y-118384694D01*
X162745579Y-117784542D01*
X162565953Y-117350884D01*
X162548027Y-117345000D01*
X162845167Y-117345000D01*
X163464476Y-117088474D01*
X163880000Y-116672950D01*
X164295524Y-117088474D01*
X164914833Y-117345000D01*
X165199030Y-117345000D01*
X164990000Y-117849642D01*
X164990000Y-118450358D01*
X165219884Y-119005346D01*
X165644654Y-119430116D01*
X166199642Y-119660000D01*
X166800358Y-119660000D01*
X167355346Y-119430116D01*
X167573402Y-119212060D01*
X170117545Y-119212060D01*
X170200884Y-119465953D01*
X170765306Y-119671590D01*
X171365458Y-119645579D01*
X171799116Y-119465953D01*
X171882455Y-119212060D01*
X171000000Y-118329605D01*
X170117545Y-119212060D01*
X167573402Y-119212060D01*
X167780116Y-119005346D01*
X168010000Y-118450358D01*
X168010000Y-117915306D01*
X169478410Y-117915306D01*
X169504421Y-118515458D01*
X169684047Y-118949116D01*
X169937940Y-119032455D01*
X170820395Y-118150000D01*
X169937940Y-117267545D01*
X169684047Y-117350884D01*
X169478410Y-117915306D01*
X168010000Y-117915306D01*
X168010000Y-117849642D01*
X168001572Y-117829295D01*
X170623765Y-115207104D01*
X170575000Y-115324833D01*
X170575000Y-115995167D01*
X170831526Y-116614476D01*
X170861629Y-116644579D01*
X170634542Y-116654421D01*
X170200884Y-116834047D01*
X170117545Y-117087940D01*
X171000000Y-117970395D01*
X171014143Y-117956253D01*
X171193748Y-118135858D01*
X171179605Y-118150000D01*
X172062060Y-119032455D01*
X172315953Y-118949116D01*
X172521590Y-118384694D01*
X172495579Y-117784542D01*
X172315953Y-117350884D01*
X172298027Y-117345000D01*
X172595167Y-117345000D01*
X173214476Y-117088474D01*
X173630000Y-116672950D01*
X174045524Y-117088474D01*
X174664833Y-117345000D01*
X174949030Y-117345000D01*
X174740000Y-117849642D01*
X174740000Y-118450358D01*
X174969884Y-119005346D01*
X175394654Y-119430116D01*
X175949642Y-119660000D01*
X176550358Y-119660000D01*
X177105346Y-119430116D01*
X177323402Y-119212060D01*
X179867545Y-119212060D01*
X179950884Y-119465953D01*
X180515306Y-119671590D01*
X181115458Y-119645579D01*
X181549116Y-119465953D01*
X181632455Y-119212060D01*
X180750000Y-118329605D01*
X179867545Y-119212060D01*
X177323402Y-119212060D01*
X177530116Y-119005346D01*
X177760000Y-118450358D01*
X177760000Y-117915306D01*
X179228410Y-117915306D01*
X179254421Y-118515458D01*
X179434047Y-118949116D01*
X179687940Y-119032455D01*
X180570395Y-118150000D01*
X179687940Y-117267545D01*
X179434047Y-117350884D01*
X179228410Y-117915306D01*
X177760000Y-117915306D01*
X177760000Y-117849642D01*
X177530116Y-117294654D01*
X177323402Y-117087940D01*
X179867545Y-117087940D01*
X180750000Y-117970395D01*
X180764143Y-117956253D01*
X180943748Y-118135858D01*
X180929605Y-118150000D01*
X181812060Y-119032455D01*
X182065953Y-118949116D01*
X182271590Y-118384694D01*
X182261722Y-118156995D01*
X184663738Y-118156995D01*
X185169117Y-119383716D01*
X185176341Y-119394528D01*
X185619809Y-119700586D01*
X187820395Y-117500000D01*
X185619809Y-115299414D01*
X185176341Y-115605472D01*
X184666275Y-116830252D01*
X184663738Y-118156995D01*
X182261722Y-118156995D01*
X182245579Y-117784542D01*
X182065953Y-117350884D01*
X182048027Y-117345000D01*
X182345167Y-117345000D01*
X182964476Y-117088474D01*
X183438474Y-116614476D01*
X183695000Y-115995167D01*
X183695000Y-115324833D01*
X183610077Y-115119809D01*
X185799414Y-115119809D01*
X188000000Y-117320395D01*
X190200586Y-115119809D01*
X189894528Y-114676341D01*
X188669748Y-114166275D01*
X187343005Y-114163738D01*
X186116284Y-114669117D01*
X186105472Y-114676341D01*
X185799414Y-115119809D01*
X183610077Y-115119809D01*
X183438474Y-114705524D01*
X182964476Y-114231526D01*
X182345167Y-113975000D01*
X181674833Y-113975000D01*
X181055524Y-114231526D01*
X180581526Y-114705524D01*
X180325000Y-115324833D01*
X180325000Y-115995167D01*
X180581526Y-116614476D01*
X180611629Y-116644579D01*
X180384542Y-116654421D01*
X179950884Y-116834047D01*
X179867545Y-117087940D01*
X177323402Y-117087940D01*
X177105346Y-116869884D01*
X176550358Y-116640000D01*
X176402950Y-116640000D01*
X176428474Y-116614476D01*
X176685000Y-115995167D01*
X176685000Y-115324833D01*
X176428474Y-114705524D01*
X175954476Y-114231526D01*
X175335167Y-113975000D01*
X174664833Y-113975000D01*
X174045524Y-114231526D01*
X173630000Y-114647050D01*
X173214476Y-114231526D01*
X172595167Y-113975000D01*
X171924833Y-113975000D01*
X171427110Y-114181163D01*
X171437300Y-114129937D01*
X171437300Y-114129934D01*
X171453657Y-114047701D01*
X171437300Y-113965468D01*
X171437300Y-102689697D01*
X176440000Y-102689697D01*
X176440000Y-103310303D01*
X176677496Y-103883669D01*
X177116331Y-104322504D01*
X177689697Y-104560000D01*
X178310303Y-104560000D01*
X178883669Y-104322504D01*
X179322504Y-103883669D01*
X179560000Y-103310303D01*
X179560000Y-103285750D01*
X181440000Y-103285750D01*
X181440000Y-104051309D01*
X181536673Y-104284698D01*
X181715301Y-104463327D01*
X181948690Y-104560000D01*
X182714250Y-104560000D01*
X182873000Y-104401250D01*
X182873000Y-103127000D01*
X183127000Y-103127000D01*
X183127000Y-104401250D01*
X183285750Y-104560000D01*
X184051310Y-104560000D01*
X184284699Y-104463327D01*
X184463327Y-104284698D01*
X184560000Y-104051309D01*
X184560000Y-103285750D01*
X184401250Y-103127000D01*
X183127000Y-103127000D01*
X182873000Y-103127000D01*
X181598750Y-103127000D01*
X181440000Y-103285750D01*
X179560000Y-103285750D01*
X179560000Y-102689697D01*
X179322504Y-102116331D01*
X179154864Y-101948691D01*
X181440000Y-101948691D01*
X181440000Y-102714250D01*
X181598750Y-102873000D01*
X182873000Y-102873000D01*
X182873000Y-101598750D01*
X183127000Y-101598750D01*
X183127000Y-102873000D01*
X184401250Y-102873000D01*
X184560000Y-102714250D01*
X184560000Y-101948691D01*
X184463327Y-101715302D01*
X184284699Y-101536673D01*
X184051310Y-101440000D01*
X183285750Y-101440000D01*
X183127000Y-101598750D01*
X182873000Y-101598750D01*
X182714250Y-101440000D01*
X181948690Y-101440000D01*
X181715301Y-101536673D01*
X181536673Y-101715302D01*
X181440000Y-101948691D01*
X179154864Y-101948691D01*
X178883669Y-101677496D01*
X178310303Y-101440000D01*
X177689697Y-101440000D01*
X177116331Y-101677496D01*
X176677496Y-102116331D01*
X176440000Y-102689697D01*
X171437300Y-102689697D01*
X171437300Y-93844937D01*
X171453658Y-93762700D01*
X171434125Y-93664499D01*
X171388852Y-93436899D01*
X171204301Y-93160699D01*
X171134583Y-93114115D01*
X149371387Y-71350920D01*
X149324801Y-71281199D01*
X149048601Y-71096648D01*
X148805037Y-71048200D01*
X148805033Y-71048200D01*
X148722800Y-71031843D01*
X148640567Y-71048200D01*
X148344933Y-71048200D01*
X148640625Y-70850625D01*
X148840000Y-70552239D01*
X149039375Y-70850625D01*
X149530582Y-71178839D01*
X149963744Y-71265000D01*
X150256256Y-71265000D01*
X150689418Y-71178839D01*
X151180625Y-70850625D01*
X151380000Y-70552239D01*
X151579375Y-70850625D01*
X152070582Y-71178839D01*
X152503744Y-71265000D01*
X152796256Y-71265000D01*
X153229418Y-71178839D01*
X153720625Y-70850625D01*
X153920000Y-70552239D01*
X154119375Y-70850625D01*
X154610582Y-71178839D01*
X155043744Y-71265000D01*
X155336256Y-71265000D01*
X155769418Y-71178839D01*
X156260625Y-70850625D01*
X156460000Y-70552239D01*
X156659375Y-70850625D01*
X157150582Y-71178839D01*
X157583744Y-71265000D01*
X157876256Y-71265000D01*
X158309418Y-71178839D01*
X158800625Y-70850625D01*
X159000000Y-70552239D01*
X159199375Y-70850625D01*
X159690582Y-71178839D01*
X160123744Y-71265000D01*
X160416256Y-71265000D01*
X160849418Y-71178839D01*
X161340625Y-70850625D01*
X161540000Y-70552239D01*
X161739375Y-70850625D01*
X162230582Y-71178839D01*
X162663744Y-71265000D01*
X162956256Y-71265000D01*
X163389418Y-71178839D01*
X163880625Y-70850625D01*
X164093843Y-70531522D01*
X164154817Y-70661358D01*
X164583076Y-71051645D01*
X164993110Y-71221476D01*
X165223000Y-71100155D01*
X165223000Y-69907000D01*
X165203000Y-69907000D01*
X165203000Y-69653000D01*
X165223000Y-69653000D01*
X165223000Y-69633000D01*
X165477000Y-69633000D01*
X165477000Y-69653000D01*
X165497000Y-69653000D01*
X165497000Y-69907000D01*
X165477000Y-69907000D01*
X165477000Y-71100155D01*
X165706890Y-71221476D01*
X166116924Y-71051645D01*
X166545183Y-70661358D01*
X166606157Y-70531522D01*
X166819375Y-70850625D01*
X167310582Y-71178839D01*
X167743744Y-71265000D01*
X168036256Y-71265000D01*
X168469418Y-71178839D01*
X168960625Y-70850625D01*
X169160000Y-70552239D01*
X169359375Y-70850625D01*
X169850582Y-71178839D01*
X170283744Y-71265000D01*
X170576256Y-71265000D01*
X171009418Y-71178839D01*
X171500625Y-70850625D01*
X171700000Y-70552239D01*
X171899375Y-70850625D01*
X172390582Y-71178839D01*
X172823744Y-71265000D01*
X173116256Y-71265000D01*
X173549418Y-71178839D01*
X174040625Y-70850625D01*
X174240000Y-70552239D01*
X174439375Y-70850625D01*
X174930582Y-71178839D01*
X175363744Y-71265000D01*
X175656256Y-71265000D01*
X176089418Y-71178839D01*
X176580625Y-70850625D01*
X176780000Y-70552239D01*
X176979375Y-70850625D01*
X177470582Y-71178839D01*
X177903744Y-71265000D01*
X178196256Y-71265000D01*
X178629418Y-71178839D01*
X179120625Y-70850625D01*
X179320000Y-70552239D01*
X179519375Y-70850625D01*
X180010582Y-71178839D01*
X180443744Y-71265000D01*
X180736256Y-71265000D01*
X181169418Y-71178839D01*
X181660625Y-70850625D01*
X181873843Y-70531522D01*
X181934817Y-70661358D01*
X182363076Y-71051645D01*
X182773110Y-71221476D01*
X183003000Y-71100155D01*
X183003000Y-69907000D01*
X183257000Y-69907000D01*
X183257000Y-71100155D01*
X183486890Y-71221476D01*
X183896924Y-71051645D01*
X184085059Y-70880191D01*
X185799414Y-70880191D01*
X186105472Y-71323659D01*
X187330252Y-71833725D01*
X188656995Y-71836262D01*
X189883716Y-71330883D01*
X189894528Y-71323659D01*
X190200586Y-70880191D01*
X188000000Y-68679605D01*
X185799414Y-70880191D01*
X184085059Y-70880191D01*
X184325183Y-70661358D01*
X184571486Y-70136892D01*
X184450819Y-69907000D01*
X183257000Y-69907000D01*
X183003000Y-69907000D01*
X182983000Y-69907000D01*
X182983000Y-69653000D01*
X183003000Y-69653000D01*
X183003000Y-69633000D01*
X183257000Y-69633000D01*
X183257000Y-69653000D01*
X184450819Y-69653000D01*
X184571486Y-69423108D01*
X184446513Y-69156995D01*
X184663738Y-69156995D01*
X185169117Y-70383716D01*
X185176341Y-70394528D01*
X185619809Y-70700586D01*
X187820395Y-68500000D01*
X185619809Y-66299414D01*
X185176341Y-66605472D01*
X184666275Y-67830252D01*
X184663738Y-69156995D01*
X184446513Y-69156995D01*
X184325183Y-68898642D01*
X183900214Y-68511353D01*
X184200625Y-68310625D01*
X184528839Y-67819418D01*
X184644092Y-67240000D01*
X184528839Y-66660582D01*
X184200625Y-66169375D01*
X183709418Y-65841161D01*
X183276256Y-65755000D01*
X182983744Y-65755000D01*
X182550582Y-65841161D01*
X182059375Y-66169375D01*
X181860000Y-66467761D01*
X181660625Y-66169375D01*
X181169418Y-65841161D01*
X180736256Y-65755000D01*
X180443744Y-65755000D01*
X180010582Y-65841161D01*
X179519375Y-66169375D01*
X179320000Y-66467761D01*
X179120625Y-66169375D01*
X178629418Y-65841161D01*
X178196256Y-65755000D01*
X177903744Y-65755000D01*
X177470582Y-65841161D01*
X176979375Y-66169375D01*
X176766157Y-66488478D01*
X176705183Y-66358642D01*
X176276924Y-65968355D01*
X175866890Y-65798524D01*
X175637000Y-65919845D01*
X175637000Y-67113000D01*
X175657000Y-67113000D01*
X175657000Y-67367000D01*
X175637000Y-67367000D01*
X175637000Y-67387000D01*
X175383000Y-67387000D01*
X175383000Y-67367000D01*
X175363000Y-67367000D01*
X175363000Y-67113000D01*
X175383000Y-67113000D01*
X175383000Y-65919845D01*
X175153110Y-65798524D01*
X174743076Y-65968355D01*
X174314817Y-66358642D01*
X174253843Y-66488478D01*
X174040625Y-66169375D01*
X173549418Y-65841161D01*
X173116256Y-65755000D01*
X172823744Y-65755000D01*
X172390582Y-65841161D01*
X171899375Y-66169375D01*
X171686157Y-66488478D01*
X171625183Y-66358642D01*
X171196924Y-65968355D01*
X170786890Y-65798524D01*
X170557000Y-65919845D01*
X170557000Y-67113000D01*
X170577000Y-67113000D01*
X170577000Y-67367000D01*
X170557000Y-67367000D01*
X170557000Y-67387000D01*
X170303000Y-67387000D01*
X170303000Y-67367000D01*
X170283000Y-67367000D01*
X170283000Y-67113000D01*
X170303000Y-67113000D01*
X170303000Y-65919845D01*
X170073110Y-65798524D01*
X169663076Y-65968355D01*
X169234817Y-66358642D01*
X169173843Y-66488478D01*
X168960625Y-66169375D01*
X168469418Y-65841161D01*
X168036256Y-65755000D01*
X167743744Y-65755000D01*
X167310582Y-65841161D01*
X166819375Y-66169375D01*
X166620000Y-66467761D01*
X166420625Y-66169375D01*
X165929418Y-65841161D01*
X165496256Y-65755000D01*
X165203744Y-65755000D01*
X164770582Y-65841161D01*
X164279375Y-66169375D01*
X164080000Y-66467761D01*
X163880625Y-66169375D01*
X163389418Y-65841161D01*
X162956256Y-65755000D01*
X162663744Y-65755000D01*
X162230582Y-65841161D01*
X161739375Y-66169375D01*
X161540000Y-66467761D01*
X161340625Y-66169375D01*
X160849418Y-65841161D01*
X160416256Y-65755000D01*
X160123744Y-65755000D01*
X159690582Y-65841161D01*
X159199375Y-66169375D01*
X158986157Y-66488478D01*
X158925183Y-66358642D01*
X158496924Y-65968355D01*
X158086890Y-65798524D01*
X157857000Y-65919845D01*
X157857000Y-67113000D01*
X157877000Y-67113000D01*
X157877000Y-67367000D01*
X157857000Y-67367000D01*
X157857000Y-67387000D01*
X157603000Y-67387000D01*
X157603000Y-67367000D01*
X157583000Y-67367000D01*
X157583000Y-67113000D01*
X157603000Y-67113000D01*
X157603000Y-65919845D01*
X157373110Y-65798524D01*
X156963076Y-65968355D01*
X156534817Y-66358642D01*
X156473843Y-66488478D01*
X156260625Y-66169375D01*
X155769418Y-65841161D01*
X155336256Y-65755000D01*
X155043744Y-65755000D01*
X154610582Y-65841161D01*
X154119375Y-66169375D01*
X153920000Y-66467761D01*
X153720625Y-66169375D01*
X153229418Y-65841161D01*
X152796256Y-65755000D01*
X152503744Y-65755000D01*
X152070582Y-65841161D01*
X151579375Y-66169375D01*
X151366157Y-66488478D01*
X151305183Y-66358642D01*
X150876924Y-65968355D01*
X150466890Y-65798524D01*
X150237000Y-65919845D01*
X150237000Y-67113000D01*
X150257000Y-67113000D01*
X150257000Y-67367000D01*
X150237000Y-67367000D01*
X150237000Y-67387000D01*
X149983000Y-67387000D01*
X149983000Y-67367000D01*
X149963000Y-67367000D01*
X149963000Y-67113000D01*
X149983000Y-67113000D01*
X149983000Y-65919845D01*
X149753110Y-65798524D01*
X149343076Y-65968355D01*
X148914817Y-66358642D01*
X148853843Y-66488478D01*
X148640625Y-66169375D01*
X148149418Y-65841161D01*
X147716256Y-65755000D01*
X147423744Y-65755000D01*
X146990582Y-65841161D01*
X146499375Y-66169375D01*
X146300000Y-66467761D01*
X146100625Y-66169375D01*
X145609418Y-65841161D01*
X145176256Y-65755000D01*
X144883744Y-65755000D01*
X144450582Y-65841161D01*
X143959375Y-66169375D01*
X143760000Y-66467761D01*
X143560625Y-66169375D01*
X143069418Y-65841161D01*
X142636256Y-65755000D01*
X142343744Y-65755000D01*
X141910582Y-65841161D01*
X141419375Y-66169375D01*
X141206157Y-66488478D01*
X141145183Y-66358642D01*
X140716924Y-65968355D01*
X140306890Y-65798524D01*
X140077000Y-65919845D01*
X140077000Y-67113000D01*
X140097000Y-67113000D01*
X140097000Y-67367000D01*
X140077000Y-67367000D01*
X140077000Y-67387000D01*
X139823000Y-67387000D01*
X139823000Y-67367000D01*
X139803000Y-67367000D01*
X139803000Y-67113000D01*
X139823000Y-67113000D01*
X139823000Y-65919845D01*
X139593110Y-65798524D01*
X139183076Y-65968355D01*
X138754817Y-66358642D01*
X138693843Y-66488478D01*
X138480625Y-66169375D01*
X137989418Y-65841161D01*
X137556256Y-65755000D01*
X137263744Y-65755000D01*
X136830582Y-65841161D01*
X136339375Y-66169375D01*
X136248753Y-66305000D01*
X136031247Y-66305000D01*
X135940625Y-66169375D01*
X135449418Y-65841161D01*
X135016256Y-65755000D01*
X134723744Y-65755000D01*
X134290582Y-65841161D01*
X133799375Y-66169375D01*
X133471161Y-66660582D01*
X133355908Y-67240000D01*
X133471161Y-67819418D01*
X133799375Y-68310625D01*
X133817619Y-68322816D01*
X133772235Y-68331843D01*
X133562191Y-68472191D01*
X133421843Y-68682235D01*
X133372560Y-68930000D01*
X133372560Y-70630000D01*
X133421843Y-70877765D01*
X133562191Y-71087809D01*
X133772235Y-71228157D01*
X134020000Y-71277440D01*
X135720000Y-71277440D01*
X135967765Y-71228157D01*
X136177809Y-71087809D01*
X136318157Y-70877765D01*
X136327184Y-70832381D01*
X136339375Y-70850625D01*
X136830582Y-71178839D01*
X137263744Y-71265000D01*
X137556256Y-71265000D01*
X137989418Y-71178839D01*
X138480625Y-70850625D01*
X138631025Y-70625535D01*
X138660300Y-70631358D01*
X138724352Y-70618617D01*
X138879375Y-70850625D01*
X138920996Y-70878436D01*
X129347720Y-80451713D01*
X129277999Y-80498299D01*
X129093448Y-80774500D01*
X129045000Y-81018064D01*
X129045000Y-81018067D01*
X129028643Y-81100300D01*
X129045000Y-81182533D01*
X129045001Y-93092103D01*
X128663466Y-93473638D01*
X128445000Y-94001061D01*
X128445000Y-94571939D01*
X128663466Y-95099362D01*
X129067138Y-95503034D01*
X129594561Y-95721500D01*
X130165439Y-95721500D01*
X130692862Y-95503034D01*
X131096534Y-95099362D01*
X131315000Y-94571939D01*
X131315000Y-94001061D01*
X131096534Y-93473638D01*
X130715000Y-93092104D01*
X130715000Y-81446167D01*
X140385001Y-71776167D01*
X140385001Y-73654262D01*
X140368643Y-73736500D01*
X140433448Y-74062300D01*
X140433449Y-74062301D01*
X140618000Y-74338501D01*
X140687718Y-74385085D01*
X159194419Y-92891788D01*
X158891333Y-92831500D01*
X158608667Y-92831500D01*
X158190091Y-92914760D01*
X157715423Y-93231923D01*
X157398260Y-93706591D01*
X157367894Y-93859251D01*
X157235681Y-93885550D01*
X156926403Y-94092203D01*
X156874239Y-94170272D01*
X153414709Y-97629802D01*
X153307765Y-97558343D01*
X153060000Y-97509060D01*
X151965000Y-97509060D01*
X151965000Y-95460896D01*
X152346534Y-95079362D01*
X152565000Y-94551939D01*
X152565000Y-93981061D01*
X152346534Y-93453638D01*
X151942862Y-93049966D01*
X151415439Y-92831500D01*
X150844561Y-92831500D01*
X150317138Y-93049966D01*
X149913466Y-93453638D01*
X149695000Y-93981061D01*
X149695000Y-94551939D01*
X149913466Y-95079362D01*
X150295000Y-95460896D01*
X150295001Y-99104234D01*
X150050629Y-99348606D01*
X149855000Y-99820898D01*
X149855000Y-100332102D01*
X150050629Y-100804394D01*
X150412106Y-101165871D01*
X150884398Y-101361500D01*
X151125000Y-101361500D01*
X151125000Y-101602102D01*
X151320629Y-102074394D01*
X151682106Y-102435871D01*
X152154398Y-102631500D01*
X152665602Y-102631500D01*
X153137894Y-102435871D01*
X153499371Y-102074394D01*
X153695000Y-101602102D01*
X153695000Y-101090898D01*
X153499371Y-100618606D01*
X153137894Y-100257129D01*
X152768062Y-100103940D01*
X153060000Y-100103940D01*
X153307765Y-100054657D01*
X153517809Y-99914309D01*
X153630348Y-99745884D01*
X153652386Y-99741500D01*
X153925119Y-99687250D01*
X154234397Y-99480597D01*
X154286561Y-99402528D01*
X157850705Y-95838384D01*
X157869250Y-95931618D01*
X158005146Y-96135000D01*
X158075904Y-96240897D01*
X158153970Y-96293059D01*
X160930073Y-99069162D01*
X160650629Y-99348606D01*
X160455000Y-99820898D01*
X160455000Y-100332102D01*
X160650629Y-100804394D01*
X161012106Y-101165871D01*
X161484398Y-101361500D01*
X161725000Y-101361500D01*
X161725000Y-101450631D01*
X158920633Y-104255000D01*
X153097930Y-104255000D01*
X152964577Y-104055423D01*
X152489909Y-103738260D01*
X152071333Y-103655000D01*
X151788667Y-103655000D01*
X151370091Y-103738260D01*
X150895423Y-104055423D01*
X150767920Y-104246244D01*
X150729700Y-104238642D01*
X150647463Y-104255000D01*
X150568434Y-104270720D01*
X150424577Y-104055423D01*
X149949909Y-103738260D01*
X149531333Y-103655000D01*
X149248667Y-103655000D01*
X148830091Y-103738260D01*
X148355423Y-104055423D01*
X148227920Y-104246245D01*
X148189700Y-104238642D01*
X148107463Y-104255000D01*
X148028434Y-104270720D01*
X147884577Y-104055423D01*
X147409909Y-103738260D01*
X146991333Y-103655000D01*
X146708667Y-103655000D01*
X146290091Y-103738260D01*
X146028630Y-103912962D01*
X142930757Y-100815090D01*
X142849371Y-100618606D01*
X142487894Y-100257129D01*
X142118062Y-100103940D01*
X142410000Y-100103940D01*
X142657765Y-100054657D01*
X142867809Y-99914309D01*
X142980348Y-99745884D01*
X143275119Y-99687250D01*
X143584397Y-99480597D01*
X143791050Y-99171319D01*
X143845300Y-98898586D01*
X143845300Y-98898585D01*
X143863617Y-98806500D01*
X143845300Y-98714414D01*
X143845300Y-98573189D01*
X147098604Y-95319885D01*
X147560091Y-95628240D01*
X147978667Y-95711500D01*
X148261333Y-95711500D01*
X148679909Y-95628240D01*
X149154577Y-95311077D01*
X149471740Y-94836409D01*
X149583113Y-94276500D01*
X149471740Y-93716591D01*
X149154577Y-93241923D01*
X148679909Y-92924760D01*
X148261333Y-92841500D01*
X147978667Y-92841500D01*
X147560091Y-92924760D01*
X147085423Y-93241923D01*
X147018888Y-93341500D01*
X146911786Y-93341500D01*
X146819700Y-93323183D01*
X146727614Y-93341500D01*
X146454881Y-93395750D01*
X146145603Y-93602403D01*
X146093439Y-93680472D01*
X142314272Y-97459639D01*
X142240308Y-97509060D01*
X141110000Y-97509060D01*
X140862235Y-97558343D01*
X140652191Y-97698691D01*
X140574175Y-97815449D01*
X140517614Y-97826700D01*
X138435000Y-97826700D01*
X138435000Y-95387612D01*
X138534577Y-95321077D01*
X138851740Y-94846409D01*
X138963113Y-94286500D01*
X138904347Y-93991061D01*
X139065000Y-93991061D01*
X139065000Y-94561939D01*
X139283466Y-95089362D01*
X139687138Y-95493034D01*
X140214561Y-95711500D01*
X140785439Y-95711500D01*
X141312862Y-95493034D01*
X141716534Y-95089362D01*
X141935000Y-94561939D01*
X141935000Y-93991061D01*
X141716534Y-93463638D01*
X141312862Y-93059966D01*
X140785439Y-92841500D01*
X140214561Y-92841500D01*
X139687138Y-93059966D01*
X139283466Y-93463638D01*
X139065000Y-93991061D01*
X138904347Y-93991061D01*
X138851740Y-93726591D01*
X138534577Y-93251923D01*
X138059909Y-92934760D01*
X137641333Y-92851500D01*
X137358667Y-92851500D01*
X136940091Y-92934760D01*
X136465423Y-93251923D01*
X136148260Y-93726591D01*
X136036887Y-94286500D01*
X136148260Y-94846409D01*
X136465423Y-95321077D01*
X136565001Y-95387613D01*
X136565001Y-95494711D01*
X136565000Y-95494715D01*
X136565001Y-97826700D01*
X132447186Y-97826700D01*
X132355100Y-97808383D01*
X132342745Y-97810840D01*
X132267809Y-97698691D01*
X132057765Y-97558343D01*
X131810000Y-97509060D01*
X130510000Y-97509060D01*
X130262235Y-97558343D01*
X130052191Y-97698691D01*
X129911843Y-97908735D01*
X129862560Y-98156500D01*
X129862560Y-98791500D01*
X129634398Y-98791500D01*
X129162106Y-98987129D01*
X128800629Y-99348606D01*
X128670540Y-99662671D01*
X125835000Y-96827133D01*
X125835000Y-87014441D01*
X126067767Y-86918026D01*
X126598026Y-86387767D01*
X126885000Y-85694950D01*
X126885000Y-84945050D01*
X126598026Y-84252233D01*
X126067767Y-83721974D01*
X125374950Y-83435000D01*
X124625050Y-83435000D01*
X123932233Y-83721974D01*
X123401974Y-84252233D01*
X123115000Y-84945050D01*
X123115000Y-85694950D01*
X123401974Y-86387767D01*
X123932233Y-86918026D01*
X124165000Y-87014441D01*
X124165000Y-89413923D01*
X124098026Y-89252233D01*
X123567767Y-88721974D01*
X122874950Y-88435000D01*
X122125050Y-88435000D01*
X121432233Y-88721974D01*
X120901974Y-89252233D01*
X120615000Y-89945050D01*
X120615000Y-90694950D01*
X120784741Y-91104741D01*
X120374950Y-90935000D01*
X119625050Y-90935000D01*
X118932233Y-91221974D01*
X118401974Y-91752233D01*
X118115000Y-92445050D01*
X118115000Y-93194950D01*
X118401974Y-93887767D01*
X118932233Y-94418026D01*
X119625050Y-94705000D01*
X120374950Y-94705000D01*
X120607717Y-94608585D01*
X120832901Y-94833769D01*
X120832901Y-96324689D01*
X120374950Y-96135000D01*
X119625050Y-96135000D01*
X118932233Y-96421974D01*
X118401974Y-96952233D01*
X118115000Y-97645050D01*
X118115000Y-98394950D01*
X118401974Y-99087767D01*
X118932233Y-99618026D01*
X119625050Y-99905000D01*
X119997001Y-99905000D01*
X119997000Y-103635000D01*
X119625050Y-103635000D01*
X118932233Y-103921974D01*
X118401974Y-104452233D01*
X118115000Y-105145050D01*
X118115000Y-105894950D01*
X118211415Y-106127717D01*
X117797220Y-106541913D01*
X117727499Y-106588499D01*
X117542948Y-106864700D01*
X117494500Y-107108264D01*
X117494500Y-107108267D01*
X117478143Y-107190500D01*
X117494500Y-107272733D01*
X117494501Y-113605462D01*
X117478143Y-113687700D01*
X117542948Y-114013500D01*
X117592572Y-114087767D01*
X117727500Y-114289701D01*
X117797218Y-114336285D01*
X118716115Y-115255182D01*
X118762699Y-115324901D01*
X118972372Y-115465000D01*
X118473691Y-115465000D01*
X118240302Y-115561673D01*
X118061673Y-115740301D01*
X118005861Y-115875044D01*
X117829507Y-115698690D01*
X117265330Y-115465000D01*
X116654670Y-115465000D01*
X116090493Y-115698690D01*
X115658690Y-116130493D01*
X115425000Y-116694670D01*
X108185000Y-116694670D01*
X108185000Y-110145050D01*
X108415000Y-110145050D01*
X108415000Y-110894950D01*
X108701974Y-111587767D01*
X109232233Y-112118026D01*
X109925050Y-112405000D01*
X110674950Y-112405000D01*
X111367767Y-112118026D01*
X111898026Y-111587767D01*
X112185000Y-110894950D01*
X112185000Y-110145050D01*
X111898026Y-109452233D01*
X111367767Y-108921974D01*
X110674950Y-108635000D01*
X109925050Y-108635000D01*
X109232233Y-108921974D01*
X108701974Y-109452233D01*
X108415000Y-110145050D01*
X108185000Y-110145050D01*
X108185000Y-100145050D01*
X108415000Y-100145050D01*
X108415000Y-100894950D01*
X108701974Y-101587767D01*
X109232233Y-102118026D01*
X109925050Y-102405000D01*
X110674950Y-102405000D01*
X111367767Y-102118026D01*
X111898026Y-101587767D01*
X112185000Y-100894950D01*
X112185000Y-100145050D01*
X111898026Y-99452233D01*
X111367767Y-98921974D01*
X110674950Y-98635000D01*
X109925050Y-98635000D01*
X109232233Y-98921974D01*
X108701974Y-99452233D01*
X108415000Y-100145050D01*
X108185000Y-100145050D01*
X108185000Y-89945050D01*
X108415000Y-89945050D01*
X108415000Y-90694950D01*
X108701974Y-91387767D01*
X109232233Y-91918026D01*
X109925050Y-92205000D01*
X110674950Y-92205000D01*
X111367767Y-91918026D01*
X111898026Y-91387767D01*
X112185000Y-90694950D01*
X112185000Y-89945050D01*
X111898026Y-89252233D01*
X111367767Y-88721974D01*
X110674950Y-88435000D01*
X109925050Y-88435000D01*
X109232233Y-88721974D01*
X108701974Y-89252233D01*
X108415000Y-89945050D01*
X108185000Y-89945050D01*
X108185000Y-84945050D01*
X118115000Y-84945050D01*
X118115000Y-85694950D01*
X118401974Y-86387767D01*
X118932233Y-86918026D01*
X119625050Y-87205000D01*
X120374950Y-87205000D01*
X121067767Y-86918026D01*
X121598026Y-86387767D01*
X121885000Y-85694950D01*
X121885000Y-84945050D01*
X121598026Y-84252233D01*
X121067767Y-83721974D01*
X120374950Y-83435000D01*
X119625050Y-83435000D01*
X118932233Y-83721974D01*
X118401974Y-84252233D01*
X118115000Y-84945050D01*
X108185000Y-84945050D01*
X108185000Y-79945050D01*
X108415000Y-79945050D01*
X108415000Y-80694950D01*
X108701974Y-81387767D01*
X109232233Y-81918026D01*
X109925050Y-82205000D01*
X110674950Y-82205000D01*
X111367767Y-81918026D01*
X111632473Y-81653320D01*
X121346285Y-81653320D01*
X121475533Y-81946123D01*
X122175806Y-82214388D01*
X122925435Y-82194250D01*
X123524467Y-81946123D01*
X123653715Y-81653320D01*
X122500000Y-80499605D01*
X121346285Y-81653320D01*
X111632473Y-81653320D01*
X111898026Y-81387767D01*
X112185000Y-80694950D01*
X112185000Y-79945050D01*
X111898026Y-79252233D01*
X111367767Y-78721974D01*
X110674950Y-78435000D01*
X109925050Y-78435000D01*
X109232233Y-78721974D01*
X108701974Y-79252233D01*
X108415000Y-79945050D01*
X108185000Y-79945050D01*
X108185000Y-77445050D01*
X118115000Y-77445050D01*
X118115000Y-78194950D01*
X118401974Y-78887767D01*
X118932233Y-79418026D01*
X119625050Y-79705000D01*
X120374950Y-79705000D01*
X120781532Y-79536588D01*
X120605612Y-79995806D01*
X120625750Y-80745435D01*
X120873877Y-81344467D01*
X121166680Y-81473715D01*
X122320395Y-80320000D01*
X122679605Y-80320000D01*
X123833320Y-81473715D01*
X124126123Y-81344467D01*
X124394388Y-80644194D01*
X124374250Y-79894565D01*
X124126123Y-79295533D01*
X123833320Y-79166285D01*
X122679605Y-80320000D01*
X122320395Y-80320000D01*
X122306253Y-80305858D01*
X122485858Y-80126253D01*
X122500000Y-80140395D01*
X123653715Y-78986680D01*
X123524467Y-78693877D01*
X122824194Y-78425612D01*
X122074565Y-78445750D01*
X121720340Y-78592475D01*
X121885000Y-78194950D01*
X121885000Y-77445050D01*
X121598026Y-76752233D01*
X121067767Y-76221974D01*
X120374950Y-75935000D01*
X119625050Y-75935000D01*
X118932233Y-76221974D01*
X118401974Y-76752233D01*
X118115000Y-77445050D01*
X108185000Y-77445050D01*
X108185000Y-73702060D01*
X110347545Y-73702060D01*
X110430884Y-73955953D01*
X110995306Y-74161590D01*
X111595458Y-74135579D01*
X112029116Y-73955953D01*
X112035000Y-73938027D01*
X112035000Y-74235167D01*
X112291526Y-74854476D01*
X112765524Y-75328474D01*
X113384833Y-75585000D01*
X114055167Y-75585000D01*
X114674476Y-75328474D01*
X115148474Y-74854476D01*
X115405000Y-74235167D01*
X115405000Y-73564833D01*
X115148474Y-72945524D01*
X114674476Y-72471526D01*
X114055167Y-72215000D01*
X113384833Y-72215000D01*
X112765524Y-72471526D01*
X112735421Y-72501629D01*
X112725579Y-72274542D01*
X112545953Y-71840884D01*
X112292060Y-71757545D01*
X111409605Y-72640000D01*
X111423748Y-72654143D01*
X111244143Y-72833748D01*
X111230000Y-72819605D01*
X110347545Y-73702060D01*
X108185000Y-73702060D01*
X108185000Y-72405306D01*
X109708410Y-72405306D01*
X109734421Y-73005458D01*
X109914047Y-73439116D01*
X110167940Y-73522455D01*
X111050395Y-72640000D01*
X110167940Y-71757545D01*
X109914047Y-71840884D01*
X109708410Y-72405306D01*
X108185000Y-72405306D01*
X108185000Y-71577940D01*
X110347545Y-71577940D01*
X111230000Y-72460395D01*
X112112455Y-71577940D01*
X112029116Y-71324047D01*
X111464694Y-71118410D01*
X110864542Y-71144421D01*
X110430884Y-71324047D01*
X110347545Y-71577940D01*
X108185000Y-71577940D01*
X108185000Y-70880191D01*
X127799414Y-70880191D01*
X128105472Y-71323659D01*
X129330252Y-71833725D01*
X130656995Y-71836262D01*
X131883716Y-71330883D01*
X131894528Y-71323659D01*
X132200586Y-70880191D01*
X130000000Y-68679605D01*
X127799414Y-70880191D01*
X108185000Y-70880191D01*
X108185000Y-68537095D01*
X108254603Y-67896386D01*
X108448264Y-67320936D01*
X108760977Y-66800491D01*
X109178153Y-66359339D01*
X109680328Y-66018061D01*
X110244074Y-65792579D01*
X110870431Y-65688886D01*
X111009566Y-65685000D01*
X112542050Y-65685000D01*
X112291526Y-65935524D01*
G36*
X122611600Y-106685768D02*
X122611600Y-106845331D01*
X119467720Y-109989213D01*
X119397999Y-110035799D01*
X119213448Y-110312000D01*
X119165000Y-110555564D01*
X119165000Y-110555567D01*
X119164500Y-110558081D01*
X119164500Y-107536367D01*
X119392283Y-107308585D01*
X119625050Y-107405000D01*
X120374950Y-107405000D01*
X121067767Y-107118026D01*
X121598026Y-106587767D01*
X121866191Y-105940359D01*
X122611600Y-106685768D01*
X122611600Y-106685768D01*
G37*
X122611600Y-106685768D02*
X122611600Y-106845331D01*
X119467720Y-109989213D01*
X119397999Y-110035799D01*
X119213448Y-110312000D01*
X119165000Y-110555564D01*
X119165000Y-110555567D01*
X119164500Y-110558081D01*
X119164500Y-107536367D01*
X119392283Y-107308585D01*
X119625050Y-107405000D01*
X120374950Y-107405000D01*
X121067767Y-107118026D01*
X121598026Y-106587767D01*
X121866191Y-105940359D01*
X122611600Y-106685768D01*
G36*
X146135492Y-106338440D02*
X142788933Y-109685000D01*
X124194441Y-109685000D01*
X124098026Y-109452233D01*
X123567767Y-108921974D01*
X123093247Y-108725421D01*
X123792469Y-108026200D01*
X143839267Y-108026200D01*
X143921500Y-108042557D01*
X144003733Y-108026200D01*
X144003737Y-108026200D01*
X144247301Y-107977752D01*
X144523501Y-107793201D01*
X144570087Y-107723480D01*
X146027371Y-106266196D01*
X146135492Y-106338440D01*
X146135492Y-106338440D01*
G37*
X146135492Y-106338440D02*
X142788933Y-109685000D01*
X124194441Y-109685000D01*
X124098026Y-109452233D01*
X123567767Y-108921974D01*
X123093247Y-108725421D01*
X123792469Y-108026200D01*
X143839267Y-108026200D01*
X143921500Y-108042557D01*
X144003733Y-108026200D01*
X144003737Y-108026200D01*
X144247301Y-107977752D01*
X144523501Y-107793201D01*
X144570087Y-107723480D01*
X146027371Y-106266196D01*
X146135492Y-106338440D01*
G36*
X130432106Y-102435871D02*
X130904398Y-102631500D01*
X131415602Y-102631500D01*
X131887894Y-102435871D01*
X132142265Y-102181500D01*
X139869133Y-102181500D01*
X141330192Y-103642560D01*
X140970000Y-103642560D01*
X140722235Y-103691843D01*
X140512191Y-103832191D01*
X140371843Y-104042235D01*
X140322560Y-104290000D01*
X140322560Y-105890000D01*
X140371843Y-106137765D01*
X140512191Y-106347809D01*
X140524749Y-106356200D01*
X136822895Y-106356200D01*
X137154577Y-106134577D01*
X137471740Y-105659909D01*
X137583113Y-105100000D01*
X137471740Y-104540091D01*
X137154577Y-104065423D01*
X136679909Y-103748260D01*
X136261333Y-103665000D01*
X135978667Y-103665000D01*
X135560091Y-103748260D01*
X135085423Y-104065423D01*
X134768260Y-104540091D01*
X134656887Y-105100000D01*
X134768260Y-105659909D01*
X135085423Y-106134577D01*
X135417105Y-106356200D01*
X129217100Y-106356200D01*
X129312862Y-106316534D01*
X129716534Y-105912862D01*
X129935000Y-105385439D01*
X129935000Y-104814561D01*
X129716534Y-104287138D01*
X129312862Y-103883466D01*
X128785439Y-103665000D01*
X128214561Y-103665000D01*
X127909513Y-103791355D01*
X129519369Y-102181500D01*
X130177735Y-102181500D01*
X130432106Y-102435871D01*
X130432106Y-102435871D01*
G37*
X130432106Y-102435871D02*
X130904398Y-102631500D01*
X131415602Y-102631500D01*
X131887894Y-102435871D01*
X132142265Y-102181500D01*
X139869133Y-102181500D01*
X141330192Y-103642560D01*
X140970000Y-103642560D01*
X140722235Y-103691843D01*
X140512191Y-103832191D01*
X140371843Y-104042235D01*
X140322560Y-104290000D01*
X140322560Y-105890000D01*
X140371843Y-106137765D01*
X140512191Y-106347809D01*
X140524749Y-106356200D01*
X136822895Y-106356200D01*
X137154577Y-106134577D01*
X137471740Y-105659909D01*
X137583113Y-105100000D01*
X137471740Y-104540091D01*
X137154577Y-104065423D01*
X136679909Y-103748260D01*
X136261333Y-103665000D01*
X135978667Y-103665000D01*
X135560091Y-103748260D01*
X135085423Y-104065423D01*
X134768260Y-104540091D01*
X134656887Y-105100000D01*
X134768260Y-105659909D01*
X135085423Y-106134577D01*
X135417105Y-106356200D01*
X129217100Y-106356200D01*
X129312862Y-106316534D01*
X129716534Y-105912862D01*
X129935000Y-105385439D01*
X129935000Y-104814561D01*
X129716534Y-104287138D01*
X129312862Y-103883466D01*
X128785439Y-103665000D01*
X128214561Y-103665000D01*
X127909513Y-103791355D01*
X129519369Y-102181500D01*
X130177735Y-102181500D01*
X130432106Y-102435871D01*
G36*
X124165001Y-97090762D02*
X124148643Y-97173000D01*
X124213448Y-97498800D01*
X124274299Y-97589870D01*
X124398000Y-97775001D01*
X124467718Y-97821585D01*
X127992631Y-101346500D01*
X125607717Y-103731415D01*
X125374950Y-103635000D01*
X124625050Y-103635000D01*
X123932233Y-103921974D01*
X123401974Y-104452233D01*
X123208028Y-104920460D01*
X121667000Y-103379433D01*
X121667000Y-102219471D01*
X122175806Y-102414388D01*
X122925435Y-102394250D01*
X123524467Y-102146123D01*
X123653715Y-101853320D01*
X122500000Y-100699605D01*
X122485858Y-100713748D01*
X122306253Y-100534143D01*
X122320395Y-100520000D01*
X122679605Y-100520000D01*
X123833320Y-101673715D01*
X124126123Y-101544467D01*
X124394388Y-100844194D01*
X124374250Y-100094565D01*
X124126123Y-99495533D01*
X123833320Y-99366285D01*
X122679605Y-100520000D01*
X122320395Y-100520000D01*
X122306253Y-100505858D01*
X122485858Y-100326253D01*
X122500000Y-100340395D01*
X123653715Y-99186680D01*
X123524467Y-98893877D01*
X122824194Y-98625612D01*
X122502900Y-98634243D01*
X122502900Y-94570137D01*
X122519258Y-94487900D01*
X122454452Y-94162099D01*
X122372895Y-94040041D01*
X122269901Y-93885899D01*
X122200183Y-93839315D01*
X121788585Y-93427717D01*
X121885000Y-93194950D01*
X121885000Y-92445050D01*
X121715259Y-92035259D01*
X122125050Y-92205000D01*
X122874950Y-92205000D01*
X123567767Y-91918026D01*
X124098026Y-91387767D01*
X124165000Y-91226076D01*
X124165001Y-97090762D01*
X124165001Y-97090762D01*
G37*
X124165001Y-97090762D02*
X124148643Y-97173000D01*
X124213448Y-97498800D01*
X124274299Y-97589870D01*
X124398000Y-97775001D01*
X124467718Y-97821585D01*
X127992631Y-101346500D01*
X125607717Y-103731415D01*
X125374950Y-103635000D01*
X124625050Y-103635000D01*
X123932233Y-103921974D01*
X123401974Y-104452233D01*
X123208028Y-104920460D01*
X121667000Y-103379433D01*
X121667000Y-102219471D01*
X122175806Y-102414388D01*
X122925435Y-102394250D01*
X123524467Y-102146123D01*
X123653715Y-101853320D01*
X122500000Y-100699605D01*
X122485858Y-100713748D01*
X122306253Y-100534143D01*
X122320395Y-100520000D01*
X122679605Y-100520000D01*
X123833320Y-101673715D01*
X124126123Y-101544467D01*
X124394388Y-100844194D01*
X124374250Y-100094565D01*
X124126123Y-99495533D01*
X123833320Y-99366285D01*
X122679605Y-100520000D01*
X122320395Y-100520000D01*
X122306253Y-100505858D01*
X122485858Y-100326253D01*
X122500000Y-100340395D01*
X123653715Y-99186680D01*
X123524467Y-98893877D01*
X122824194Y-98625612D01*
X122502900Y-98634243D01*
X122502900Y-94570137D01*
X122519258Y-94487900D01*
X122454452Y-94162099D01*
X122372895Y-94040041D01*
X122269901Y-93885899D01*
X122200183Y-93839315D01*
X121788585Y-93427717D01*
X121885000Y-93194950D01*
X121885000Y-92445050D01*
X121715259Y-92035259D01*
X122125050Y-92205000D01*
X122874950Y-92205000D01*
X123567767Y-91918026D01*
X124098026Y-91387767D01*
X124165000Y-91226076D01*
X124165001Y-97090762D01*
G36*
X144676815Y-72415483D02*
X144723399Y-72485201D01*
X144955072Y-72640000D01*
X144999599Y-72669752D01*
X145325400Y-72734558D01*
X145407637Y-72718200D01*
X148376933Y-72718200D01*
X168668260Y-93009528D01*
X168335423Y-93231923D01*
X168268888Y-93331500D01*
X168161786Y-93331500D01*
X168069700Y-93313183D01*
X167977614Y-93331500D01*
X167704881Y-93385750D01*
X167395603Y-93592403D01*
X167343439Y-93670472D01*
X163564272Y-97449639D01*
X163486203Y-97501803D01*
X163481354Y-97509060D01*
X162360000Y-97509060D01*
X162112235Y-97558343D01*
X162083220Y-97577730D01*
X159793385Y-95287895D01*
X160101740Y-94826409D01*
X160213113Y-94266500D01*
X160124713Y-93822081D01*
X160315000Y-94012369D01*
X160315000Y-94551939D01*
X160533466Y-95079362D01*
X160937138Y-95483034D01*
X161464561Y-95701500D01*
X162035439Y-95701500D01*
X162562862Y-95483034D01*
X162966534Y-95079362D01*
X163185000Y-94551939D01*
X163185000Y-93981061D01*
X162966534Y-93453638D01*
X162562862Y-93049966D01*
X162035439Y-92831500D01*
X161495869Y-92831500D01*
X142055000Y-73390633D01*
X142055000Y-71207565D01*
X142343744Y-71265000D01*
X142636256Y-71265000D01*
X143069418Y-71178839D01*
X143291669Y-71030336D01*
X144676815Y-72415483D01*
X144676815Y-72415483D01*
G37*
X144676815Y-72415483D02*
X144723399Y-72485201D01*
X144955072Y-72640000D01*
X144999599Y-72669752D01*
X145325400Y-72734558D01*
X145407637Y-72718200D01*
X148376933Y-72718200D01*
X168668260Y-93009528D01*
X168335423Y-93231923D01*
X168268888Y-93331500D01*
X168161786Y-93331500D01*
X168069700Y-93313183D01*
X167977614Y-93331500D01*
X167704881Y-93385750D01*
X167395603Y-93592403D01*
X167343439Y-93670472D01*
X163564272Y-97449639D01*
X163486203Y-97501803D01*
X163481354Y-97509060D01*
X162360000Y-97509060D01*
X162112235Y-97558343D01*
X162083220Y-97577730D01*
X159793385Y-95287895D01*
X160101740Y-94826409D01*
X160213113Y-94266500D01*
X160124713Y-93822081D01*
X160315000Y-94012369D01*
X160315000Y-94551939D01*
X160533466Y-95079362D01*
X160937138Y-95483034D01*
X161464561Y-95701500D01*
X162035439Y-95701500D01*
X162562862Y-95483034D01*
X162966534Y-95079362D01*
X163185000Y-94551939D01*
X163185000Y-93981061D01*
X162966534Y-93453638D01*
X162562862Y-93049966D01*
X162035439Y-92831500D01*
X161495869Y-92831500D01*
X142055000Y-73390633D01*
X142055000Y-71207565D01*
X142343744Y-71265000D01*
X142636256Y-71265000D01*
X143069418Y-71178839D01*
X143291669Y-71030336D01*
X144676815Y-72415483D01*
G36*
X145157000Y-69653000D02*
X145177000Y-69653000D01*
X145177000Y-69907000D01*
X145157000Y-69907000D01*
X145157000Y-69927000D01*
X144903000Y-69927000D01*
X144903000Y-69907000D01*
X144883000Y-69907000D01*
X144883000Y-69653000D01*
X144903000Y-69653000D01*
X144903000Y-69633000D01*
X145157000Y-69633000D01*
X145157000Y-69653000D01*
X145157000Y-69653000D01*
G37*
X145157000Y-69653000D02*
X145177000Y-69653000D01*
X145177000Y-69907000D01*
X145157000Y-69907000D01*
X145157000Y-69927000D01*
X144903000Y-69927000D01*
X144903000Y-69907000D01*
X144883000Y-69907000D01*
X144883000Y-69653000D01*
X144903000Y-69653000D01*
X144903000Y-69633000D01*
X145157000Y-69633000D01*
X145157000Y-69653000D01*
M02*
