G04 #@! TF.GenerationSoftware,KiCad,Pcbnew,(5.0.0-rc2-dev-756-g45dad4ded)*
G04 #@! TF.CreationDate,2018-05-20T06:56:17+02:00*
G04 #@! TF.ProjectId,Pi1541 Ad-on Board,5069313534312041642D6F6E20426F61,0.97*
G04 #@! TF.SameCoordinates,Original*
G04 #@! TF.FileFunction,Copper,L1,Top,Signal*
G04 #@! TF.FilePolarity,Positive*
%FSLAX46Y46*%
G04 Gerber Fmt 4.6, Leading zero omitted, Abs format (unit mm)*
G04 Created by KiCad (PCBNEW (5.0.0-rc2-dev-756-g45dad4ded)) date Sun May 20 06:56:17 2018*
%MOMM*%
%LPD*%
G01*
G04 APERTURE LIST*
G04 #@! TA.AperFunction,NonConductor*
%ADD10C,0.100000*%
G04 #@! TD*
G04 #@! TA.AperFunction,ComponentPad*
%ADD11C,2.500000*%
G04 #@! TD*
G04 #@! TA.AperFunction,ComponentPad*
%ADD12R,1.850000X1.850000*%
G04 #@! TD*
G04 #@! TA.AperFunction,ComponentPad*
%ADD13C,1.850000*%
G04 #@! TD*
G04 #@! TA.AperFunction,ComponentPad*
%ADD14R,1.800000X1.800000*%
G04 #@! TD*
G04 #@! TA.AperFunction,ComponentPad*
%ADD15C,1.800000*%
G04 #@! TD*
G04 #@! TA.AperFunction,ComponentPad*
%ADD16C,5.400000*%
G04 #@! TD*
G04 #@! TA.AperFunction,ComponentPad*
%ADD17C,2.100000*%
G04 #@! TD*
G04 #@! TA.AperFunction,ComponentPad*
%ADD18C,1.750000*%
G04 #@! TD*
G04 #@! TA.AperFunction,ComponentPad*
%ADD19R,1.700000X1.700000*%
G04 #@! TD*
G04 #@! TA.AperFunction,ComponentPad*
%ADD20O,1.700000X1.700000*%
G04 #@! TD*
G04 #@! TA.AperFunction,ViaPad*
%ADD21C,0.800000*%
G04 #@! TD*
G04 #@! TA.AperFunction,Conductor*
%ADD22C,0.400000*%
G04 #@! TD*
G04 #@! TA.AperFunction,Conductor*
%ADD23C,0.254000*%
G04 #@! TD*
G04 APERTURE END LIST*
D10*
X111000000Y-121000000D02*
G75*
G02X107500000Y-117500000I0J3500000D01*
G01*
X107500000Y-68500000D02*
G75*
G02X111000000Y-65000000I3500000J0D01*
G01*
X107500000Y-68500000D02*
X107500000Y-117500000D01*
X191500000Y-117500000D02*
G75*
G02X188000000Y-121000000I-3500000J0D01*
G01*
X188000000Y-65000000D02*
G75*
G02X191500000Y-68500000I0J-3500000D01*
G01*
X191500000Y-117500000D02*
X191500000Y-68500000D01*
X111000000Y-121000000D02*
X188000000Y-121000000D01*
X111000000Y-65000000D02*
X188000000Y-65000000D01*
D11*
G04 #@! TO.P,J2,6*
G04 #@! TO.N,IEC-~RESET*
X125000000Y-85320000D03*
G04 #@! TO.P,J2,2*
G04 #@! TO.N,GND*
X122500000Y-80320000D03*
G04 #@! TO.P,J2,4*
G04 #@! TO.N,IEC-CLK*
X122500000Y-90320000D03*
G04 #@! TO.P,J2,1*
G04 #@! TO.N,IEC-SRQ*
X120000000Y-77820000D03*
G04 #@! TO.P,J2,3*
G04 #@! TO.N,IEC-ATN*
X120000000Y-85320000D03*
G04 #@! TO.P,J2,5*
G04 #@! TO.N,IEC-DATA*
X120000000Y-92820000D03*
G04 #@! TO.P,J2,*
G04 #@! TO.N,*
X110300000Y-90320000D03*
X110300000Y-80320000D03*
G04 #@! TD*
G04 #@! TO.P,J3,*
G04 #@! TO.N,*
X110300000Y-100520000D03*
X110300000Y-110520000D03*
G04 #@! TO.P,J3,5*
G04 #@! TO.N,IEC-DATA*
X120000000Y-113020000D03*
G04 #@! TO.P,J3,3*
G04 #@! TO.N,IEC-ATN*
X120000000Y-105520000D03*
G04 #@! TO.P,J3,1*
G04 #@! TO.N,IEC-SRQ*
X120000000Y-98020000D03*
G04 #@! TO.P,J3,4*
G04 #@! TO.N,IEC-CLK*
X122500000Y-110520000D03*
G04 #@! TO.P,J3,2*
G04 #@! TO.N,GND*
X122500000Y-100520000D03*
G04 #@! TO.P,J3,6*
G04 #@! TO.N,IEC-~RESET*
X125000000Y-105520000D03*
G04 #@! TD*
D12*
G04 #@! TO.P,PIEZO1,1*
G04 #@! TO.N,GND*
X185380000Y-103320000D03*
D13*
G04 #@! TO.P,PIEZO1,2*
G04 #@! TO.N,PIEZO*
X180380000Y-103320000D03*
G04 #@! TD*
D14*
G04 #@! TO.P,D1,1*
G04 #@! TO.N,GND*
X119500000Y-117000000D03*
D15*
G04 #@! TO.P,D1,2*
G04 #@! TO.N,Net-(D1-Pad2)*
X116960000Y-117000000D03*
G04 #@! TD*
D16*
G04 #@! TO.P,MK1,1*
G04 #@! TO.N,GND*
X130000000Y-68500000D03*
G04 #@! TD*
G04 #@! TO.P,MK2,1*
G04 #@! TO.N,GND*
X188000000Y-68500000D03*
G04 #@! TD*
G04 #@! TO.P,MK3,1*
G04 #@! TO.N,GND*
X188000000Y-117500000D03*
G04 #@! TD*
G04 #@! TO.P,MK4,1*
G04 #@! TO.N,GND*
X130000000Y-117500000D03*
G04 #@! TD*
D17*
G04 #@! TO.P,SW1,*
G04 #@! TO.N,*
X143010000Y-115660000D03*
D18*
G04 #@! TO.P,SW1,2*
G04 #@! TO.N,GND*
X141750000Y-118150000D03*
G04 #@! TO.P,SW1,1*
G04 #@! TO.N,SW1_BTN*
X137250000Y-118150000D03*
D17*
G04 #@! TO.P,SW1,*
G04 #@! TO.N,*
X136000000Y-115660000D03*
G04 #@! TD*
G04 #@! TO.P,SW2,*
G04 #@! TO.N,*
X145750000Y-115660000D03*
D18*
G04 #@! TO.P,SW2,1*
G04 #@! TO.N,SW2_BTN*
X147000000Y-118150000D03*
G04 #@! TO.P,SW2,2*
G04 #@! TO.N,GND*
X151500000Y-118150000D03*
D17*
G04 #@! TO.P,SW2,*
G04 #@! TO.N,*
X152760000Y-115660000D03*
G04 #@! TD*
G04 #@! TO.P,SW3,*
G04 #@! TO.N,*
X162510000Y-115660000D03*
D18*
G04 #@! TO.P,SW3,2*
G04 #@! TO.N,GND*
X161250000Y-118150000D03*
G04 #@! TO.P,SW3,1*
G04 #@! TO.N,SW3_BTN*
X156750000Y-118150000D03*
D17*
G04 #@! TO.P,SW3,*
G04 #@! TO.N,*
X155500000Y-115660000D03*
G04 #@! TD*
G04 #@! TO.P,SW4,*
G04 #@! TO.N,*
X165250000Y-115660000D03*
D18*
G04 #@! TO.P,SW4,1*
G04 #@! TO.N,SW4_BTN*
X166500000Y-118150000D03*
G04 #@! TO.P,SW4,2*
G04 #@! TO.N,GND*
X171000000Y-118150000D03*
D17*
G04 #@! TO.P,SW4,*
G04 #@! TO.N,*
X172260000Y-115660000D03*
G04 #@! TD*
G04 #@! TO.P,SW5,*
G04 #@! TO.N,*
X182010000Y-115660000D03*
D18*
G04 #@! TO.P,SW5,2*
G04 #@! TO.N,GND*
X180750000Y-118150000D03*
G04 #@! TO.P,SW5,1*
G04 #@! TO.N,SW5_BTN*
X176250000Y-118150000D03*
D17*
G04 #@! TO.P,SW5,*
G04 #@! TO.N,*
X175000000Y-115660000D03*
G04 #@! TD*
G04 #@! TO.P,SW6,*
G04 #@! TO.N,*
X113720000Y-73900000D03*
D18*
G04 #@! TO.P,SW6,2*
G04 #@! TO.N,GND*
X111230000Y-72640000D03*
G04 #@! TO.P,SW6,1*
G04 #@! TO.N,IEC-~RESET*
X111230000Y-68140000D03*
D17*
G04 #@! TO.P,SW6,*
G04 #@! TO.N,*
X113720000Y-66890000D03*
G04 #@! TD*
D19*
G04 #@! TO.P,J4,1*
G04 #@! TO.N,+3V3*
X145140000Y-93340000D03*
D20*
G04 #@! TO.P,J4,2*
G04 #@! TO.N,SRQ*
X147680000Y-93340000D03*
G04 #@! TO.P,J4,3*
G04 #@! TO.N,ATN*
X150220000Y-93340000D03*
G04 #@! TO.P,J4,4*
G04 #@! TO.N,CLK*
X152760000Y-93340000D03*
G04 #@! TO.P,J4,5*
G04 #@! TO.N,DATA*
X155300000Y-93340000D03*
G04 #@! TO.P,J4,6*
G04 #@! TO.N,~RESET*
X157840000Y-93340000D03*
G04 #@! TO.P,J4,7*
G04 #@! TO.N,N/C*
X160380000Y-93340000D03*
G04 #@! TO.P,J4,8*
X162920000Y-93340000D03*
G04 #@! TO.P,J4,9*
X165460000Y-93340000D03*
G04 #@! TO.P,J4,10*
G04 #@! TO.N,+3V3*
X168000000Y-93340000D03*
G04 #@! TD*
G04 #@! TO.P,J5,10*
G04 #@! TO.N,GND*
X168000000Y-106040000D03*
G04 #@! TO.P,J5,9*
G04 #@! TO.N,N/C*
X165460000Y-106040000D03*
G04 #@! TO.P,J5,8*
X162920000Y-106040000D03*
G04 #@! TO.P,J5,7*
X160380000Y-106040000D03*
G04 #@! TO.P,J5,6*
G04 #@! TO.N,IEC-~RESET*
X157840000Y-106040000D03*
G04 #@! TO.P,J5,5*
G04 #@! TO.N,IEC-DATA*
X155300000Y-106040000D03*
G04 #@! TO.P,J5,4*
G04 #@! TO.N,IEC-CLK*
X152760000Y-106040000D03*
G04 #@! TO.P,J5,3*
G04 #@! TO.N,IEC-ATN*
X150220000Y-106040000D03*
G04 #@! TO.P,J5,2*
G04 #@! TO.N,IEC-SRQ*
X147680000Y-106040000D03*
D19*
G04 #@! TO.P,J5,1*
G04 #@! TO.N,+5V*
X145140000Y-106040000D03*
G04 #@! TD*
G04 #@! TO.P,J1,1*
G04 #@! TO.N,+3V3*
X134900000Y-69760000D03*
D20*
G04 #@! TO.P,J1,2*
G04 #@! TO.N,+5V*
X134900000Y-67220000D03*
G04 #@! TO.P,J1,3*
G04 #@! TO.N,ATN*
X137440000Y-69760000D03*
G04 #@! TO.P,J1,4*
G04 #@! TO.N,+5V*
X137440000Y-67220000D03*
G04 #@! TO.P,J1,5*
G04 #@! TO.N,~RESET*
X139980000Y-69760000D03*
G04 #@! TO.P,J1,6*
G04 #@! TO.N,GND*
X139980000Y-67220000D03*
G04 #@! TO.P,J1,7*
G04 #@! TO.N,SW4_BTN*
X142520000Y-69760000D03*
G04 #@! TO.P,J1,8*
G04 #@! TO.N,N/C*
X142520000Y-67220000D03*
G04 #@! TO.P,J1,9*
G04 #@! TO.N,GND*
X145060000Y-69760000D03*
G04 #@! TO.P,J1,10*
G04 #@! TO.N,N/C*
X145060000Y-67220000D03*
G04 #@! TO.P,J1,11*
G04 #@! TO.N,CLK*
X147600000Y-69760000D03*
G04 #@! TO.P,J1,12*
G04 #@! TO.N,DATA*
X147600000Y-67220000D03*
G04 #@! TO.P,J1,13*
G04 #@! TO.N,SW1_BTN*
X150140000Y-69760000D03*
G04 #@! TO.P,J1,14*
G04 #@! TO.N,GND*
X150140000Y-67220000D03*
G04 #@! TO.P,J1,15*
G04 #@! TO.N,SW2_BTN*
X152680000Y-69760000D03*
G04 #@! TO.P,J1,16*
G04 #@! TO.N,SW3_BTN*
X152680000Y-67220000D03*
G04 #@! TO.P,J1,17*
G04 #@! TO.N,+3V3*
X155220000Y-69760000D03*
G04 #@! TO.P,J1,18*
G04 #@! TO.N,N/C*
X155220000Y-67220000D03*
G04 #@! TO.P,J1,19*
X157760000Y-69760000D03*
G04 #@! TO.P,J1,20*
G04 #@! TO.N,GND*
X157760000Y-67220000D03*
G04 #@! TO.P,J1,21*
G04 #@! TO.N,N/C*
X160300000Y-69760000D03*
G04 #@! TO.P,J1,22*
X160300000Y-67220000D03*
G04 #@! TO.P,J1,23*
X162840000Y-69760000D03*
G04 #@! TO.P,J1,24*
X162840000Y-67220000D03*
G04 #@! TO.P,J1,25*
G04 #@! TO.N,GND*
X165380000Y-69760000D03*
G04 #@! TO.P,J1,26*
G04 #@! TO.N,N/C*
X165380000Y-67220000D03*
G04 #@! TO.P,J1,27*
X167920000Y-69760000D03*
G04 #@! TO.P,J1,28*
X167920000Y-67220000D03*
G04 #@! TO.P,J1,29*
G04 #@! TO.N,SW5_BTN*
X170460000Y-69760000D03*
G04 #@! TO.P,J1,30*
G04 #@! TO.N,GND*
X170460000Y-67220000D03*
G04 #@! TO.P,J1,31*
G04 #@! TO.N,N/C*
X173000000Y-69760000D03*
G04 #@! TO.P,J1,32*
X173000000Y-67220000D03*
G04 #@! TO.P,J1,33*
G04 #@! TO.N,PIEZO*
X175540000Y-69760000D03*
G04 #@! TO.P,J1,34*
G04 #@! TO.N,GND*
X175540000Y-67220000D03*
G04 #@! TO.P,J1,35*
G04 #@! TO.N,SRQ*
X178080000Y-69760000D03*
G04 #@! TO.P,J1,36*
G04 #@! TO.N,ACT_LED*
X178080000Y-67220000D03*
G04 #@! TO.P,J1,37*
G04 #@! TO.N,N/C*
X180620000Y-69760000D03*
G04 #@! TO.P,J1,38*
X180620000Y-67220000D03*
G04 #@! TO.P,J1,39*
G04 #@! TO.N,GND*
X183160000Y-69760000D03*
G04 #@! TO.P,J1,40*
G04 #@! TO.N,N/C*
X183160000Y-67220000D03*
G04 #@! TD*
D21*
G04 #@! TO.N,GND*
X155026600Y-103913100D03*
X119900000Y-109200000D03*
X125100000Y-108500000D03*
X125100000Y-111900000D03*
X121300000Y-95600000D03*
X176600000Y-109100000D03*
X178400000Y-99700000D03*
X138000000Y-73700000D03*
X150700000Y-73700000D03*
X155700000Y-78600000D03*
X155300000Y-72300000D03*
X141200000Y-91900000D03*
X149900000Y-86300000D03*
X148000000Y-96300000D03*
X148000000Y-102700000D03*
X160200000Y-98500000D03*
X162800000Y-98500000D03*
X162900000Y-86300000D03*
G04 #@! TO.N,+3V3*
X156555600Y-94617300D03*
G04 #@! TO.N,SW1_BTN*
X164078100Y-104763400D03*
G04 #@! TD*
D22*
G04 #@! TO.N,GND*
X157760000Y-67220000D02*
X159010300Y-67220000D01*
X165978200Y-69760000D02*
X164708200Y-68490000D01*
X164708200Y-68490000D02*
X159762200Y-68490000D01*
X159762200Y-68490000D02*
X159010300Y-67738100D01*
X159010300Y-67738100D02*
X159010300Y-67220000D01*
X165978200Y-69760000D02*
X166630300Y-69760000D01*
X165380000Y-69760000D02*
X165978200Y-69760000D01*
X170759100Y-67220000D02*
X169489100Y-68490000D01*
X169489100Y-68490000D02*
X167382200Y-68490000D01*
X167382200Y-68490000D02*
X166630300Y-69241900D01*
X166630300Y-69241900D02*
X166630300Y-69760000D01*
X170759100Y-67220000D02*
X171058200Y-67220000D01*
X170460000Y-67220000D02*
X170759100Y-67220000D01*
X175540000Y-68470300D02*
X172308500Y-68470300D01*
X172308500Y-68470300D02*
X171058200Y-67220000D01*
X181909700Y-69760000D02*
X181909700Y-69213000D01*
X181909700Y-69213000D02*
X181167000Y-68470300D01*
X181167000Y-68470300D02*
X175540000Y-68470300D01*
X175540000Y-67220000D02*
X175540000Y-68470300D01*
X183160000Y-69760000D02*
X181909700Y-69760000D01*
X188000000Y-68500000D02*
X186740000Y-69760000D01*
X186740000Y-69760000D02*
X183160000Y-69760000D01*
X168000000Y-106040000D02*
X166749700Y-106040000D01*
X166749700Y-106040000D02*
X166749700Y-105493000D01*
X166749700Y-105493000D02*
X165169800Y-103913100D01*
X165169800Y-103913100D02*
X155026600Y-103913100D01*
X141750000Y-118150000D02*
X140456400Y-119443600D01*
X140456400Y-119443600D02*
X131943600Y-119443600D01*
X131943600Y-119443600D02*
X130000000Y-117500000D01*
X130000000Y-68500000D02*
X130000000Y-72820000D01*
X130000000Y-72820000D02*
X122500000Y-80320000D01*
X138729700Y-67220000D02*
X138729700Y-66673000D01*
X138729700Y-66673000D02*
X138024300Y-65967600D01*
X138024300Y-65967600D02*
X132532400Y-65967600D01*
X132532400Y-65967600D02*
X130000000Y-68500000D01*
X139980000Y-67220000D02*
X138729700Y-67220000D01*
X180750000Y-118150000D02*
X179474600Y-119425400D01*
X179474600Y-119425400D02*
X172275400Y-119425400D01*
X172275400Y-119425400D02*
X171000000Y-118150000D01*
X188000000Y-117500000D02*
X181400000Y-117500000D01*
X181400000Y-117500000D02*
X180750000Y-118150000D01*
X119500000Y-117000000D02*
X120800300Y-117000000D01*
X130000000Y-117500000D02*
X121300300Y-117500000D01*
X121300300Y-117500000D02*
X120800300Y-117000000D01*
X157760000Y-67220000D02*
X156509700Y-67220000D01*
X150140000Y-67220000D02*
X151390300Y-67220000D01*
X151390300Y-67220000D02*
X151390300Y-66673000D01*
X151390300Y-66673000D02*
X152102100Y-65961200D01*
X152102100Y-65961200D02*
X155769000Y-65961200D01*
X155769000Y-65961200D02*
X156509700Y-66701900D01*
X156509700Y-66701900D02*
X156509700Y-67220000D01*
G04 #@! TO.N,+3V3*
X145140000Y-93340000D02*
X146390300Y-93340000D01*
X156555600Y-94617300D02*
X147120600Y-94617300D01*
X147120600Y-94617300D02*
X146390300Y-93887000D01*
X146390300Y-93887000D02*
X146390300Y-93340000D01*
X145140000Y-93340000D02*
X145140000Y-92089700D01*
X146330000Y-68509700D02*
X146330000Y-90899700D01*
X146330000Y-90899700D02*
X145140000Y-92089700D01*
X146330000Y-68509700D02*
X136853500Y-68509700D01*
X136853500Y-68509700D02*
X136150300Y-69212900D01*
X136150300Y-69212900D02*
X136150300Y-69760000D01*
X153969700Y-69760000D02*
X153969700Y-69213000D01*
X153969700Y-69213000D02*
X153266400Y-68509700D01*
X153266400Y-68509700D02*
X146330000Y-68509700D01*
X134900000Y-69760000D02*
X136150300Y-69760000D01*
X155220000Y-69760000D02*
X153969700Y-69760000D01*
X156555600Y-94617300D02*
X165990500Y-94617300D01*
X165990500Y-94617300D02*
X166749700Y-93858100D01*
X166749700Y-93858100D02*
X166749700Y-93340000D01*
X168000000Y-93340000D02*
X166749700Y-93340000D01*
G04 #@! TO.N,IEC-CLK*
X152760000Y-106040000D02*
X151509700Y-106040000D01*
X151509700Y-106040000D02*
X151509700Y-106587000D01*
X151509700Y-106587000D02*
X147576700Y-110520000D01*
X147576700Y-110520000D02*
X122500000Y-110520000D01*
G04 #@! TO.N,IEC-ATN*
X150220000Y-106040000D02*
X148969700Y-106040000D01*
X148969700Y-106040000D02*
X148969700Y-106587000D01*
X148969700Y-106587000D02*
X148221100Y-107335600D01*
X148221100Y-107335600D02*
X121815600Y-107335600D01*
X121815600Y-107335600D02*
X120000000Y-105520000D01*
G04 #@! TO.N,IEC-DATA*
X120000000Y-113020000D02*
X118308700Y-111328700D01*
X118308700Y-111328700D02*
X118308700Y-94511300D01*
X118308700Y-94511300D02*
X120000000Y-92820000D01*
X154049700Y-106040000D02*
X154049700Y-106587000D01*
X154049700Y-106587000D02*
X147616700Y-113020000D01*
X147616700Y-113020000D02*
X120000000Y-113020000D01*
X155300000Y-106040000D02*
X154049700Y-106040000D01*
G04 #@! TO.N,SW4_BTN*
X142520000Y-69760000D02*
X142520000Y-92989800D01*
X142520000Y-92989800D02*
X152048200Y-102518000D01*
X152048200Y-102518000D02*
X166251600Y-102518000D01*
X166251600Y-102518000D02*
X169259400Y-105525800D01*
X169259400Y-105525800D02*
X169259400Y-115390600D01*
X169259400Y-115390600D02*
X166500000Y-118150000D01*
G04 #@! TO.N,SW1_BTN*
X164078100Y-104763400D02*
X157310100Y-104763400D01*
X157310100Y-104763400D02*
X156570000Y-105503500D01*
X156570000Y-105503500D02*
X156570000Y-106586200D01*
X156570000Y-106586200D02*
X149453600Y-113702600D01*
X149453600Y-113702600D02*
X141697400Y-113702600D01*
X141697400Y-113702600D02*
X137250000Y-118150000D01*
G04 #@! TO.N,IEC-SRQ*
X124173500Y-98020000D02*
X120000000Y-98020000D01*
X146429700Y-106040000D02*
X146429700Y-105024100D01*
X146429700Y-105024100D02*
X139425600Y-98020000D01*
X139425600Y-98020000D02*
X124173500Y-98020000D01*
X124173500Y-98020000D02*
X124173500Y-87159400D01*
X124173500Y-87159400D02*
X120000000Y-82985900D01*
X120000000Y-82985900D02*
X120000000Y-77820000D01*
X147680000Y-106040000D02*
X146429700Y-106040000D01*
G04 #@! TO.N,SRQ*
X147680000Y-93340000D02*
X148930300Y-93340000D01*
X178080000Y-69760000D02*
X176829700Y-69760000D01*
X176829700Y-69760000D02*
X176829700Y-70307100D01*
X176829700Y-70307100D02*
X176126500Y-71010300D01*
X176126500Y-71010300D02*
X170741900Y-71010300D01*
X170741900Y-71010300D02*
X148930300Y-92821900D01*
X148930300Y-92821900D02*
X148930300Y-93340000D01*
G04 #@! TD*
D23*
G04 #@! TO.N,GND*
G36*
X112291526Y-65935524D02*
X112035000Y-66554833D01*
X112035000Y-66839030D01*
X111530358Y-66630000D01*
X110929642Y-66630000D01*
X110374654Y-66859884D01*
X109949884Y-67284654D01*
X109720000Y-67839642D01*
X109720000Y-68440358D01*
X109949884Y-68995346D01*
X110374654Y-69420116D01*
X110929642Y-69650000D01*
X111530358Y-69650000D01*
X112085346Y-69420116D01*
X112348467Y-69156995D01*
X126663738Y-69156995D01*
X127169117Y-70383716D01*
X127176341Y-70394528D01*
X127619809Y-70700586D01*
X129820395Y-68500000D01*
X130179605Y-68500000D01*
X132380191Y-70700586D01*
X132823659Y-70394528D01*
X133333725Y-69169748D01*
X133336262Y-67843005D01*
X132830883Y-66616284D01*
X132823659Y-66605472D01*
X132380191Y-66299414D01*
X130179605Y-68500000D01*
X129820395Y-68500000D01*
X127619809Y-66299414D01*
X127176341Y-66605472D01*
X126666275Y-67830252D01*
X126663738Y-69156995D01*
X112348467Y-69156995D01*
X112510116Y-68995346D01*
X112740000Y-68440358D01*
X112740000Y-68292950D01*
X112765524Y-68318474D01*
X113384833Y-68575000D01*
X114055167Y-68575000D01*
X114674476Y-68318474D01*
X115148474Y-67844476D01*
X115405000Y-67225167D01*
X115405000Y-66554833D01*
X115148474Y-65935524D01*
X114897950Y-65685000D01*
X128099496Y-65685000D01*
X127799414Y-66119809D01*
X130000000Y-68320395D01*
X132200586Y-66119809D01*
X131900504Y-65685000D01*
X186099496Y-65685000D01*
X185799414Y-66119809D01*
X188000000Y-68320395D01*
X188014143Y-68306253D01*
X188193748Y-68485858D01*
X188179605Y-68500000D01*
X190380191Y-70700586D01*
X190815001Y-70400503D01*
X190815000Y-115599496D01*
X190380191Y-115299414D01*
X188179605Y-117500000D01*
X188193748Y-117514143D01*
X188014143Y-117693748D01*
X188000000Y-117679605D01*
X185799414Y-119880191D01*
X186099496Y-120315000D01*
X131900504Y-120315000D01*
X132200586Y-119880191D01*
X130000000Y-117679605D01*
X127799414Y-119880191D01*
X128099496Y-120315000D01*
X111037095Y-120315000D01*
X110396386Y-120245397D01*
X109820936Y-120051736D01*
X109300490Y-119739021D01*
X108859337Y-119321844D01*
X108518062Y-118819672D01*
X108292579Y-118255925D01*
X108188886Y-117629568D01*
X108185000Y-117490434D01*
X108185000Y-116694670D01*
X115425000Y-116694670D01*
X115425000Y-117305330D01*
X115658690Y-117869507D01*
X116090493Y-118301310D01*
X116654670Y-118535000D01*
X117265330Y-118535000D01*
X117829507Y-118301310D01*
X118005861Y-118124956D01*
X118061673Y-118259699D01*
X118240302Y-118438327D01*
X118473691Y-118535000D01*
X119214250Y-118535000D01*
X119373000Y-118376250D01*
X119373000Y-117127000D01*
X119627000Y-117127000D01*
X119627000Y-118376250D01*
X119785750Y-118535000D01*
X120526309Y-118535000D01*
X120759698Y-118438327D01*
X120938327Y-118259699D01*
X120980868Y-118156995D01*
X126663738Y-118156995D01*
X127169117Y-119383716D01*
X127176341Y-119394528D01*
X127619809Y-119700586D01*
X129820395Y-117500000D01*
X130179605Y-117500000D01*
X132380191Y-119700586D01*
X132823659Y-119394528D01*
X133333725Y-118169748D01*
X133336262Y-116843005D01*
X132830883Y-115616284D01*
X132823659Y-115605472D01*
X132380191Y-115299414D01*
X130179605Y-117500000D01*
X129820395Y-117500000D01*
X127619809Y-115299414D01*
X127176341Y-115605472D01*
X126666275Y-116830252D01*
X126663738Y-118156995D01*
X120980868Y-118156995D01*
X121035000Y-118026310D01*
X121035000Y-117285750D01*
X120876250Y-117127000D01*
X119627000Y-117127000D01*
X119373000Y-117127000D01*
X119353000Y-117127000D01*
X119353000Y-116873000D01*
X119373000Y-116873000D01*
X119373000Y-115623750D01*
X119627000Y-115623750D01*
X119627000Y-116873000D01*
X120876250Y-116873000D01*
X121035000Y-116714250D01*
X121035000Y-115973690D01*
X120938327Y-115740301D01*
X120759698Y-115561673D01*
X120526309Y-115465000D01*
X119785750Y-115465000D01*
X119627000Y-115623750D01*
X119373000Y-115623750D01*
X119214250Y-115465000D01*
X118473691Y-115465000D01*
X118240302Y-115561673D01*
X118061673Y-115740301D01*
X118005861Y-115875044D01*
X117829507Y-115698690D01*
X117265330Y-115465000D01*
X116654670Y-115465000D01*
X116090493Y-115698690D01*
X115658690Y-116130493D01*
X115425000Y-116694670D01*
X108185000Y-116694670D01*
X108185000Y-115119809D01*
X127799414Y-115119809D01*
X130000000Y-117320395D01*
X132200586Y-115119809D01*
X131894528Y-114676341D01*
X130669748Y-114166275D01*
X129343005Y-114163738D01*
X128116284Y-114669117D01*
X128105472Y-114676341D01*
X127799414Y-115119809D01*
X108185000Y-115119809D01*
X108185000Y-110145050D01*
X108415000Y-110145050D01*
X108415000Y-110894950D01*
X108701974Y-111587767D01*
X109232233Y-112118026D01*
X109925050Y-112405000D01*
X110674950Y-112405000D01*
X111367767Y-112118026D01*
X111898026Y-111587767D01*
X112185000Y-110894950D01*
X112185000Y-110145050D01*
X111898026Y-109452233D01*
X111367767Y-108921974D01*
X110674950Y-108635000D01*
X109925050Y-108635000D01*
X109232233Y-108921974D01*
X108701974Y-109452233D01*
X108415000Y-110145050D01*
X108185000Y-110145050D01*
X108185000Y-100145050D01*
X108415000Y-100145050D01*
X108415000Y-100894950D01*
X108701974Y-101587767D01*
X109232233Y-102118026D01*
X109925050Y-102405000D01*
X110674950Y-102405000D01*
X111367767Y-102118026D01*
X111898026Y-101587767D01*
X112185000Y-100894950D01*
X112185000Y-100145050D01*
X111898026Y-99452233D01*
X111367767Y-98921974D01*
X110674950Y-98635000D01*
X109925050Y-98635000D01*
X109232233Y-98921974D01*
X108701974Y-99452233D01*
X108415000Y-100145050D01*
X108185000Y-100145050D01*
X108185000Y-94511300D01*
X117457343Y-94511300D01*
X117473701Y-94593538D01*
X117473700Y-111246467D01*
X117457343Y-111328700D01*
X117473700Y-111410933D01*
X117473700Y-111410936D01*
X117522148Y-111654500D01*
X117706699Y-111930701D01*
X117776420Y-111977287D01*
X118211415Y-112412283D01*
X118115000Y-112645050D01*
X118115000Y-113394950D01*
X118401974Y-114087767D01*
X118932233Y-114618026D01*
X119625050Y-114905000D01*
X120374950Y-114905000D01*
X121067767Y-114618026D01*
X121598026Y-114087767D01*
X121694441Y-113855000D01*
X140364131Y-113855000D01*
X137570705Y-116648428D01*
X137550358Y-116640000D01*
X137402950Y-116640000D01*
X137428474Y-116614476D01*
X137685000Y-115995167D01*
X137685000Y-115324833D01*
X137428474Y-114705524D01*
X136954476Y-114231526D01*
X136335167Y-113975000D01*
X135664833Y-113975000D01*
X135045524Y-114231526D01*
X134571526Y-114705524D01*
X134315000Y-115324833D01*
X134315000Y-115995167D01*
X134571526Y-116614476D01*
X135045524Y-117088474D01*
X135664833Y-117345000D01*
X135949030Y-117345000D01*
X135740000Y-117849642D01*
X135740000Y-118450358D01*
X135969884Y-119005346D01*
X136394654Y-119430116D01*
X136949642Y-119660000D01*
X137550358Y-119660000D01*
X138105346Y-119430116D01*
X138323402Y-119212060D01*
X140867545Y-119212060D01*
X140950884Y-119465953D01*
X141515306Y-119671590D01*
X142115458Y-119645579D01*
X142549116Y-119465953D01*
X142632455Y-119212060D01*
X141750000Y-118329605D01*
X140867545Y-119212060D01*
X138323402Y-119212060D01*
X138530116Y-119005346D01*
X138760000Y-118450358D01*
X138760000Y-117915306D01*
X140228410Y-117915306D01*
X140254421Y-118515458D01*
X140434047Y-118949116D01*
X140687940Y-119032455D01*
X141570395Y-118150000D01*
X140687940Y-117267545D01*
X140434047Y-117350884D01*
X140228410Y-117915306D01*
X138760000Y-117915306D01*
X138760000Y-117849642D01*
X138751572Y-117829295D01*
X141373765Y-115207103D01*
X141325000Y-115324833D01*
X141325000Y-115995167D01*
X141581526Y-116614476D01*
X141611629Y-116644579D01*
X141384542Y-116654421D01*
X140950884Y-116834047D01*
X140867545Y-117087940D01*
X141750000Y-117970395D01*
X141764143Y-117956253D01*
X141943748Y-118135858D01*
X141929605Y-118150000D01*
X142812060Y-119032455D01*
X143065953Y-118949116D01*
X143271590Y-118384694D01*
X143245579Y-117784542D01*
X143065953Y-117350884D01*
X143048027Y-117345000D01*
X143345167Y-117345000D01*
X143964476Y-117088474D01*
X144380000Y-116672950D01*
X144795524Y-117088474D01*
X145414833Y-117345000D01*
X145699030Y-117345000D01*
X145490000Y-117849642D01*
X145490000Y-118450358D01*
X145719884Y-119005346D01*
X146144654Y-119430116D01*
X146699642Y-119660000D01*
X147300358Y-119660000D01*
X147855346Y-119430116D01*
X148073402Y-119212060D01*
X150617545Y-119212060D01*
X150700884Y-119465953D01*
X151265306Y-119671590D01*
X151865458Y-119645579D01*
X152299116Y-119465953D01*
X152382455Y-119212060D01*
X151500000Y-118329605D01*
X150617545Y-119212060D01*
X148073402Y-119212060D01*
X148280116Y-119005346D01*
X148510000Y-118450358D01*
X148510000Y-117915306D01*
X149978410Y-117915306D01*
X150004421Y-118515458D01*
X150184047Y-118949116D01*
X150437940Y-119032455D01*
X151320395Y-118150000D01*
X150437940Y-117267545D01*
X150184047Y-117350884D01*
X149978410Y-117915306D01*
X148510000Y-117915306D01*
X148510000Y-117849642D01*
X148280116Y-117294654D01*
X148073402Y-117087940D01*
X150617545Y-117087940D01*
X151500000Y-117970395D01*
X151514143Y-117956253D01*
X151693748Y-118135858D01*
X151679605Y-118150000D01*
X152562060Y-119032455D01*
X152815953Y-118949116D01*
X153021590Y-118384694D01*
X152995579Y-117784542D01*
X152815953Y-117350884D01*
X152798027Y-117345000D01*
X153095167Y-117345000D01*
X153714476Y-117088474D01*
X154130000Y-116672950D01*
X154545524Y-117088474D01*
X155164833Y-117345000D01*
X155449030Y-117345000D01*
X155240000Y-117849642D01*
X155240000Y-118450358D01*
X155469884Y-119005346D01*
X155894654Y-119430116D01*
X156449642Y-119660000D01*
X157050358Y-119660000D01*
X157605346Y-119430116D01*
X157823402Y-119212060D01*
X160367545Y-119212060D01*
X160450884Y-119465953D01*
X161015306Y-119671590D01*
X161615458Y-119645579D01*
X162049116Y-119465953D01*
X162132455Y-119212060D01*
X161250000Y-118329605D01*
X160367545Y-119212060D01*
X157823402Y-119212060D01*
X158030116Y-119005346D01*
X158260000Y-118450358D01*
X158260000Y-117915306D01*
X159728410Y-117915306D01*
X159754421Y-118515458D01*
X159934047Y-118949116D01*
X160187940Y-119032455D01*
X161070395Y-118150000D01*
X160187940Y-117267545D01*
X159934047Y-117350884D01*
X159728410Y-117915306D01*
X158260000Y-117915306D01*
X158260000Y-117849642D01*
X158030116Y-117294654D01*
X157605346Y-116869884D01*
X157050358Y-116640000D01*
X156902950Y-116640000D01*
X156928474Y-116614476D01*
X157185000Y-115995167D01*
X157185000Y-115324833D01*
X156928474Y-114705524D01*
X156454476Y-114231526D01*
X155835167Y-113975000D01*
X155164833Y-113975000D01*
X154545524Y-114231526D01*
X154130000Y-114647050D01*
X153714476Y-114231526D01*
X153095167Y-113975000D01*
X152424833Y-113975000D01*
X151805524Y-114231526D01*
X151331526Y-114705524D01*
X151075000Y-115324833D01*
X151075000Y-115995167D01*
X151331526Y-116614476D01*
X151361629Y-116644579D01*
X151134542Y-116654421D01*
X150700884Y-116834047D01*
X150617545Y-117087940D01*
X148073402Y-117087940D01*
X147855346Y-116869884D01*
X147300358Y-116640000D01*
X147152950Y-116640000D01*
X147178474Y-116614476D01*
X147435000Y-115995167D01*
X147435000Y-115324833D01*
X147178474Y-114705524D01*
X147010550Y-114537600D01*
X149371367Y-114537600D01*
X149453600Y-114553957D01*
X149535833Y-114537600D01*
X149535837Y-114537600D01*
X149779401Y-114489152D01*
X150055601Y-114304601D01*
X150102187Y-114234880D01*
X157043368Y-107293701D01*
X157260582Y-107438839D01*
X157693744Y-107525000D01*
X157986256Y-107525000D01*
X158419418Y-107438839D01*
X158910625Y-107110625D01*
X159110000Y-106812239D01*
X159309375Y-107110625D01*
X159800582Y-107438839D01*
X160233744Y-107525000D01*
X160526256Y-107525000D01*
X160959418Y-107438839D01*
X161450625Y-107110625D01*
X161650000Y-106812239D01*
X161849375Y-107110625D01*
X162340582Y-107438839D01*
X162773744Y-107525000D01*
X163066256Y-107525000D01*
X163499418Y-107438839D01*
X163990625Y-107110625D01*
X164190000Y-106812239D01*
X164389375Y-107110625D01*
X164880582Y-107438839D01*
X165313744Y-107525000D01*
X165606256Y-107525000D01*
X166039418Y-107438839D01*
X166530625Y-107110625D01*
X166743843Y-106791522D01*
X166804817Y-106921358D01*
X167233076Y-107311645D01*
X167643110Y-107481476D01*
X167873000Y-107360155D01*
X167873000Y-106167000D01*
X167853000Y-106167000D01*
X167853000Y-105913000D01*
X167873000Y-105913000D01*
X167873000Y-105893000D01*
X168127000Y-105893000D01*
X168127000Y-105913000D01*
X168147000Y-105913000D01*
X168147000Y-106167000D01*
X168127000Y-106167000D01*
X168127000Y-107360155D01*
X168356890Y-107481476D01*
X168424400Y-107453514D01*
X168424401Y-115044731D01*
X166820705Y-116648428D01*
X166800358Y-116640000D01*
X166652950Y-116640000D01*
X166678474Y-116614476D01*
X166935000Y-115995167D01*
X166935000Y-115324833D01*
X166678474Y-114705524D01*
X166204476Y-114231526D01*
X165585167Y-113975000D01*
X164914833Y-113975000D01*
X164295524Y-114231526D01*
X163880000Y-114647050D01*
X163464476Y-114231526D01*
X162845167Y-113975000D01*
X162174833Y-113975000D01*
X161555524Y-114231526D01*
X161081526Y-114705524D01*
X160825000Y-115324833D01*
X160825000Y-115995167D01*
X161081526Y-116614476D01*
X161111629Y-116644579D01*
X160884542Y-116654421D01*
X160450884Y-116834047D01*
X160367545Y-117087940D01*
X161250000Y-117970395D01*
X161264143Y-117956253D01*
X161443748Y-118135858D01*
X161429605Y-118150000D01*
X162312060Y-119032455D01*
X162565953Y-118949116D01*
X162771590Y-118384694D01*
X162745579Y-117784542D01*
X162565953Y-117350884D01*
X162548027Y-117345000D01*
X162845167Y-117345000D01*
X163464476Y-117088474D01*
X163880000Y-116672950D01*
X164295524Y-117088474D01*
X164914833Y-117345000D01*
X165199030Y-117345000D01*
X164990000Y-117849642D01*
X164990000Y-118450358D01*
X165219884Y-119005346D01*
X165644654Y-119430116D01*
X166199642Y-119660000D01*
X166800358Y-119660000D01*
X167355346Y-119430116D01*
X167573402Y-119212060D01*
X170117545Y-119212060D01*
X170200884Y-119465953D01*
X170765306Y-119671590D01*
X171365458Y-119645579D01*
X171799116Y-119465953D01*
X171882455Y-119212060D01*
X171000000Y-118329605D01*
X170117545Y-119212060D01*
X167573402Y-119212060D01*
X167780116Y-119005346D01*
X168010000Y-118450358D01*
X168010000Y-117915306D01*
X169478410Y-117915306D01*
X169504421Y-118515458D01*
X169684047Y-118949116D01*
X169937940Y-119032455D01*
X170820395Y-118150000D01*
X169937940Y-117267545D01*
X169684047Y-117350884D01*
X169478410Y-117915306D01*
X168010000Y-117915306D01*
X168010000Y-117849642D01*
X168001572Y-117829295D01*
X168742927Y-117087940D01*
X170117545Y-117087940D01*
X171000000Y-117970395D01*
X171014143Y-117956253D01*
X171193748Y-118135858D01*
X171179605Y-118150000D01*
X172062060Y-119032455D01*
X172315953Y-118949116D01*
X172521590Y-118384694D01*
X172495579Y-117784542D01*
X172315953Y-117350884D01*
X172298027Y-117345000D01*
X172595167Y-117345000D01*
X173214476Y-117088474D01*
X173630000Y-116672950D01*
X174045524Y-117088474D01*
X174664833Y-117345000D01*
X174949030Y-117345000D01*
X174740000Y-117849642D01*
X174740000Y-118450358D01*
X174969884Y-119005346D01*
X175394654Y-119430116D01*
X175949642Y-119660000D01*
X176550358Y-119660000D01*
X177105346Y-119430116D01*
X177323402Y-119212060D01*
X179867545Y-119212060D01*
X179950884Y-119465953D01*
X180515306Y-119671590D01*
X181115458Y-119645579D01*
X181549116Y-119465953D01*
X181632455Y-119212060D01*
X180750000Y-118329605D01*
X179867545Y-119212060D01*
X177323402Y-119212060D01*
X177530116Y-119005346D01*
X177760000Y-118450358D01*
X177760000Y-117915306D01*
X179228410Y-117915306D01*
X179254421Y-118515458D01*
X179434047Y-118949116D01*
X179687940Y-119032455D01*
X180570395Y-118150000D01*
X179687940Y-117267545D01*
X179434047Y-117350884D01*
X179228410Y-117915306D01*
X177760000Y-117915306D01*
X177760000Y-117849642D01*
X177530116Y-117294654D01*
X177323402Y-117087940D01*
X179867545Y-117087940D01*
X180750000Y-117970395D01*
X180764143Y-117956253D01*
X180943748Y-118135858D01*
X180929605Y-118150000D01*
X181812060Y-119032455D01*
X182065953Y-118949116D01*
X182271590Y-118384694D01*
X182261722Y-118156995D01*
X184663738Y-118156995D01*
X185169117Y-119383716D01*
X185176341Y-119394528D01*
X185619809Y-119700586D01*
X187820395Y-117500000D01*
X185619809Y-115299414D01*
X185176341Y-115605472D01*
X184666275Y-116830252D01*
X184663738Y-118156995D01*
X182261722Y-118156995D01*
X182245579Y-117784542D01*
X182065953Y-117350884D01*
X182048027Y-117345000D01*
X182345167Y-117345000D01*
X182964476Y-117088474D01*
X183438474Y-116614476D01*
X183695000Y-115995167D01*
X183695000Y-115324833D01*
X183610077Y-115119809D01*
X185799414Y-115119809D01*
X188000000Y-117320395D01*
X190200586Y-115119809D01*
X189894528Y-114676341D01*
X188669748Y-114166275D01*
X187343005Y-114163738D01*
X186116284Y-114669117D01*
X186105472Y-114676341D01*
X185799414Y-115119809D01*
X183610077Y-115119809D01*
X183438474Y-114705524D01*
X182964476Y-114231526D01*
X182345167Y-113975000D01*
X181674833Y-113975000D01*
X181055524Y-114231526D01*
X180581526Y-114705524D01*
X180325000Y-115324833D01*
X180325000Y-115995167D01*
X180581526Y-116614476D01*
X180611629Y-116644579D01*
X180384542Y-116654421D01*
X179950884Y-116834047D01*
X179867545Y-117087940D01*
X177323402Y-117087940D01*
X177105346Y-116869884D01*
X176550358Y-116640000D01*
X176402950Y-116640000D01*
X176428474Y-116614476D01*
X176685000Y-115995167D01*
X176685000Y-115324833D01*
X176428474Y-114705524D01*
X175954476Y-114231526D01*
X175335167Y-113975000D01*
X174664833Y-113975000D01*
X174045524Y-114231526D01*
X173630000Y-114647050D01*
X173214476Y-114231526D01*
X172595167Y-113975000D01*
X171924833Y-113975000D01*
X171305524Y-114231526D01*
X170831526Y-114705524D01*
X170575000Y-115324833D01*
X170575000Y-115995167D01*
X170831526Y-116614476D01*
X170861629Y-116644579D01*
X170634542Y-116654421D01*
X170200884Y-116834047D01*
X170117545Y-117087940D01*
X168742927Y-117087940D01*
X169791683Y-116039185D01*
X169861401Y-115992601D01*
X170045952Y-115716401D01*
X170094400Y-115472837D01*
X170110758Y-115390600D01*
X170094400Y-115308363D01*
X170094400Y-105608037D01*
X170110758Y-105525800D01*
X170089964Y-105421263D01*
X170045952Y-105199999D01*
X169861401Y-104923799D01*
X169791683Y-104877215D01*
X167924165Y-103009697D01*
X178820000Y-103009697D01*
X178820000Y-103630303D01*
X179057496Y-104203669D01*
X179496331Y-104642504D01*
X180069697Y-104880000D01*
X180690303Y-104880000D01*
X181263669Y-104642504D01*
X181702504Y-104203669D01*
X181940000Y-103630303D01*
X181940000Y-103605750D01*
X183820000Y-103605750D01*
X183820000Y-104371309D01*
X183916673Y-104604698D01*
X184095301Y-104783327D01*
X184328690Y-104880000D01*
X185094250Y-104880000D01*
X185253000Y-104721250D01*
X185253000Y-103447000D01*
X185507000Y-103447000D01*
X185507000Y-104721250D01*
X185665750Y-104880000D01*
X186431310Y-104880000D01*
X186664699Y-104783327D01*
X186843327Y-104604698D01*
X186940000Y-104371309D01*
X186940000Y-103605750D01*
X186781250Y-103447000D01*
X185507000Y-103447000D01*
X185253000Y-103447000D01*
X183978750Y-103447000D01*
X183820000Y-103605750D01*
X181940000Y-103605750D01*
X181940000Y-103009697D01*
X181702504Y-102436331D01*
X181534864Y-102268691D01*
X183820000Y-102268691D01*
X183820000Y-103034250D01*
X183978750Y-103193000D01*
X185253000Y-103193000D01*
X185253000Y-101918750D01*
X185507000Y-101918750D01*
X185507000Y-103193000D01*
X186781250Y-103193000D01*
X186940000Y-103034250D01*
X186940000Y-102268691D01*
X186843327Y-102035302D01*
X186664699Y-101856673D01*
X186431310Y-101760000D01*
X185665750Y-101760000D01*
X185507000Y-101918750D01*
X185253000Y-101918750D01*
X185094250Y-101760000D01*
X184328690Y-101760000D01*
X184095301Y-101856673D01*
X183916673Y-102035302D01*
X183820000Y-102268691D01*
X181534864Y-102268691D01*
X181263669Y-101997496D01*
X180690303Y-101760000D01*
X180069697Y-101760000D01*
X179496331Y-101997496D01*
X179057496Y-102436331D01*
X178820000Y-103009697D01*
X167924165Y-103009697D01*
X166900187Y-101985720D01*
X166853601Y-101915999D01*
X166577401Y-101731448D01*
X166333837Y-101683000D01*
X166333833Y-101683000D01*
X166251600Y-101666643D01*
X166169367Y-101683000D01*
X152394068Y-101683000D01*
X145548507Y-94837440D01*
X145990000Y-94837440D01*
X146131689Y-94809257D01*
X146472014Y-95149582D01*
X146518599Y-95219301D01*
X146794799Y-95403852D01*
X147038363Y-95452300D01*
X147038366Y-95452300D01*
X147120599Y-95468657D01*
X147202832Y-95452300D01*
X155926889Y-95452300D01*
X155969320Y-95494731D01*
X156349726Y-95652300D01*
X156761474Y-95652300D01*
X157141880Y-95494731D01*
X157184311Y-95452300D01*
X165908267Y-95452300D01*
X165990500Y-95468657D01*
X166072733Y-95452300D01*
X166072737Y-95452300D01*
X166316301Y-95403852D01*
X166592501Y-95219301D01*
X166639087Y-95149580D01*
X167198332Y-94590336D01*
X167420582Y-94738839D01*
X167853744Y-94825000D01*
X168146256Y-94825000D01*
X168579418Y-94738839D01*
X169070625Y-94410625D01*
X169398839Y-93919418D01*
X169514092Y-93340000D01*
X169398839Y-92760582D01*
X169070625Y-92269375D01*
X168579418Y-91941161D01*
X168146256Y-91855000D01*
X167853744Y-91855000D01*
X167420582Y-91941161D01*
X166929375Y-92269375D01*
X166778975Y-92494465D01*
X166749700Y-92488642D01*
X166685648Y-92501383D01*
X166530625Y-92269375D01*
X166039418Y-91941161D01*
X165606256Y-91855000D01*
X165313744Y-91855000D01*
X164880582Y-91941161D01*
X164389375Y-92269375D01*
X164190000Y-92567761D01*
X163990625Y-92269375D01*
X163499418Y-91941161D01*
X163066256Y-91855000D01*
X162773744Y-91855000D01*
X162340582Y-91941161D01*
X161849375Y-92269375D01*
X161650000Y-92567761D01*
X161450625Y-92269375D01*
X160959418Y-91941161D01*
X160526256Y-91855000D01*
X160233744Y-91855000D01*
X159800582Y-91941161D01*
X159309375Y-92269375D01*
X159110000Y-92567761D01*
X158910625Y-92269375D01*
X158419418Y-91941161D01*
X157986256Y-91855000D01*
X157693744Y-91855000D01*
X157260582Y-91941161D01*
X156769375Y-92269375D01*
X156570000Y-92567761D01*
X156370625Y-92269375D01*
X155879418Y-91941161D01*
X155446256Y-91855000D01*
X155153744Y-91855000D01*
X154720582Y-91941161D01*
X154229375Y-92269375D01*
X154030000Y-92567761D01*
X153830625Y-92269375D01*
X153339418Y-91941161D01*
X152906256Y-91855000D01*
X152613744Y-91855000D01*
X152180582Y-91941161D01*
X151689375Y-92269375D01*
X151490000Y-92567761D01*
X151290625Y-92269375D01*
X150914806Y-92018261D01*
X171087768Y-71845300D01*
X176044267Y-71845300D01*
X176126500Y-71861657D01*
X176208733Y-71845300D01*
X176208737Y-71845300D01*
X176452301Y-71796852D01*
X176728501Y-71612301D01*
X176775087Y-71542580D01*
X177295716Y-71021952D01*
X177500582Y-71158839D01*
X177933744Y-71245000D01*
X178226256Y-71245000D01*
X178659418Y-71158839D01*
X179150625Y-70830625D01*
X179350000Y-70532239D01*
X179549375Y-70830625D01*
X180040582Y-71158839D01*
X180473744Y-71245000D01*
X180766256Y-71245000D01*
X181199418Y-71158839D01*
X181690625Y-70830625D01*
X181903843Y-70511522D01*
X181964817Y-70641358D01*
X182393076Y-71031645D01*
X182803110Y-71201476D01*
X183033000Y-71080155D01*
X183033000Y-69887000D01*
X183287000Y-69887000D01*
X183287000Y-71080155D01*
X183516890Y-71201476D01*
X183926924Y-71031645D01*
X184093113Y-70880191D01*
X185799414Y-70880191D01*
X186105472Y-71323659D01*
X187330252Y-71833725D01*
X188656995Y-71836262D01*
X189883716Y-71330883D01*
X189894528Y-71323659D01*
X190200586Y-70880191D01*
X188000000Y-68679605D01*
X185799414Y-70880191D01*
X184093113Y-70880191D01*
X184355183Y-70641358D01*
X184601486Y-70116892D01*
X184480819Y-69887000D01*
X183287000Y-69887000D01*
X183033000Y-69887000D01*
X183013000Y-69887000D01*
X183013000Y-69633000D01*
X183033000Y-69633000D01*
X183033000Y-69613000D01*
X183287000Y-69613000D01*
X183287000Y-69633000D01*
X184480819Y-69633000D01*
X184601486Y-69403108D01*
X184485905Y-69156995D01*
X184663738Y-69156995D01*
X185169117Y-70383716D01*
X185176341Y-70394528D01*
X185619809Y-70700586D01*
X187820395Y-68500000D01*
X185619809Y-66299414D01*
X185176341Y-66605472D01*
X184666275Y-67830252D01*
X184663738Y-69156995D01*
X184485905Y-69156995D01*
X184355183Y-68878642D01*
X183930214Y-68491353D01*
X184230625Y-68290625D01*
X184558839Y-67799418D01*
X184674092Y-67220000D01*
X184558839Y-66640582D01*
X184230625Y-66149375D01*
X183739418Y-65821161D01*
X183306256Y-65735000D01*
X183013744Y-65735000D01*
X182580582Y-65821161D01*
X182089375Y-66149375D01*
X181890000Y-66447761D01*
X181690625Y-66149375D01*
X181199418Y-65821161D01*
X180766256Y-65735000D01*
X180473744Y-65735000D01*
X180040582Y-65821161D01*
X179549375Y-66149375D01*
X179350000Y-66447761D01*
X179150625Y-66149375D01*
X178659418Y-65821161D01*
X178226256Y-65735000D01*
X177933744Y-65735000D01*
X177500582Y-65821161D01*
X177009375Y-66149375D01*
X176796157Y-66468478D01*
X176735183Y-66338642D01*
X176306924Y-65948355D01*
X175896890Y-65778524D01*
X175667000Y-65899845D01*
X175667000Y-67093000D01*
X175687000Y-67093000D01*
X175687000Y-67347000D01*
X175667000Y-67347000D01*
X175667000Y-67367000D01*
X175413000Y-67367000D01*
X175413000Y-67347000D01*
X175393000Y-67347000D01*
X175393000Y-67093000D01*
X175413000Y-67093000D01*
X175413000Y-65899845D01*
X175183110Y-65778524D01*
X174773076Y-65948355D01*
X174344817Y-66338642D01*
X174283843Y-66468478D01*
X174070625Y-66149375D01*
X173579418Y-65821161D01*
X173146256Y-65735000D01*
X172853744Y-65735000D01*
X172420582Y-65821161D01*
X171929375Y-66149375D01*
X171716157Y-66468478D01*
X171655183Y-66338642D01*
X171226924Y-65948355D01*
X170816890Y-65778524D01*
X170587000Y-65899845D01*
X170587000Y-67093000D01*
X170607000Y-67093000D01*
X170607000Y-67347000D01*
X170587000Y-67347000D01*
X170587000Y-67367000D01*
X170333000Y-67367000D01*
X170333000Y-67347000D01*
X170313000Y-67347000D01*
X170313000Y-67093000D01*
X170333000Y-67093000D01*
X170333000Y-65899845D01*
X170103110Y-65778524D01*
X169693076Y-65948355D01*
X169264817Y-66338642D01*
X169203843Y-66468478D01*
X168990625Y-66149375D01*
X168499418Y-65821161D01*
X168066256Y-65735000D01*
X167773744Y-65735000D01*
X167340582Y-65821161D01*
X166849375Y-66149375D01*
X166650000Y-66447761D01*
X166450625Y-66149375D01*
X165959418Y-65821161D01*
X165526256Y-65735000D01*
X165233744Y-65735000D01*
X164800582Y-65821161D01*
X164309375Y-66149375D01*
X164110000Y-66447761D01*
X163910625Y-66149375D01*
X163419418Y-65821161D01*
X162986256Y-65735000D01*
X162693744Y-65735000D01*
X162260582Y-65821161D01*
X161769375Y-66149375D01*
X161570000Y-66447761D01*
X161370625Y-66149375D01*
X160879418Y-65821161D01*
X160446256Y-65735000D01*
X160153744Y-65735000D01*
X159720582Y-65821161D01*
X159229375Y-66149375D01*
X159016157Y-66468478D01*
X158955183Y-66338642D01*
X158526924Y-65948355D01*
X158116890Y-65778524D01*
X157887000Y-65899845D01*
X157887000Y-67093000D01*
X157907000Y-67093000D01*
X157907000Y-67347000D01*
X157887000Y-67347000D01*
X157887000Y-67367000D01*
X157633000Y-67367000D01*
X157633000Y-67347000D01*
X157613000Y-67347000D01*
X157613000Y-67093000D01*
X157633000Y-67093000D01*
X157633000Y-65899845D01*
X157403110Y-65778524D01*
X156993076Y-65948355D01*
X156564817Y-66338642D01*
X156503843Y-66468478D01*
X156290625Y-66149375D01*
X155799418Y-65821161D01*
X155366256Y-65735000D01*
X155073744Y-65735000D01*
X154640582Y-65821161D01*
X154149375Y-66149375D01*
X153950000Y-66447761D01*
X153750625Y-66149375D01*
X153259418Y-65821161D01*
X152826256Y-65735000D01*
X152533744Y-65735000D01*
X152100582Y-65821161D01*
X151609375Y-66149375D01*
X151396157Y-66468478D01*
X151335183Y-66338642D01*
X150906924Y-65948355D01*
X150496890Y-65778524D01*
X150267000Y-65899845D01*
X150267000Y-67093000D01*
X150287000Y-67093000D01*
X150287000Y-67347000D01*
X150267000Y-67347000D01*
X150267000Y-67367000D01*
X150013000Y-67367000D01*
X150013000Y-67347000D01*
X149993000Y-67347000D01*
X149993000Y-67093000D01*
X150013000Y-67093000D01*
X150013000Y-65899845D01*
X149783110Y-65778524D01*
X149373076Y-65948355D01*
X148944817Y-66338642D01*
X148883843Y-66468478D01*
X148670625Y-66149375D01*
X148179418Y-65821161D01*
X147746256Y-65735000D01*
X147453744Y-65735000D01*
X147020582Y-65821161D01*
X146529375Y-66149375D01*
X146330000Y-66447761D01*
X146130625Y-66149375D01*
X145639418Y-65821161D01*
X145206256Y-65735000D01*
X144913744Y-65735000D01*
X144480582Y-65821161D01*
X143989375Y-66149375D01*
X143790000Y-66447761D01*
X143590625Y-66149375D01*
X143099418Y-65821161D01*
X142666256Y-65735000D01*
X142373744Y-65735000D01*
X141940582Y-65821161D01*
X141449375Y-66149375D01*
X141236157Y-66468478D01*
X141175183Y-66338642D01*
X140746924Y-65948355D01*
X140336890Y-65778524D01*
X140107000Y-65899845D01*
X140107000Y-67093000D01*
X140127000Y-67093000D01*
X140127000Y-67347000D01*
X140107000Y-67347000D01*
X140107000Y-67367000D01*
X139853000Y-67367000D01*
X139853000Y-67347000D01*
X139833000Y-67347000D01*
X139833000Y-67093000D01*
X139853000Y-67093000D01*
X139853000Y-65899845D01*
X139623110Y-65778524D01*
X139213076Y-65948355D01*
X138784817Y-66338642D01*
X138723843Y-66468478D01*
X138510625Y-66149375D01*
X138019418Y-65821161D01*
X137586256Y-65735000D01*
X137293744Y-65735000D01*
X136860582Y-65821161D01*
X136369375Y-66149375D01*
X136170000Y-66447761D01*
X135970625Y-66149375D01*
X135479418Y-65821161D01*
X135046256Y-65735000D01*
X134753744Y-65735000D01*
X134320582Y-65821161D01*
X133829375Y-66149375D01*
X133501161Y-66640582D01*
X133385908Y-67220000D01*
X133501161Y-67799418D01*
X133829375Y-68290625D01*
X133847619Y-68302816D01*
X133802235Y-68311843D01*
X133592191Y-68452191D01*
X133451843Y-68662235D01*
X133402560Y-68910000D01*
X133402560Y-70610000D01*
X133451843Y-70857765D01*
X133592191Y-71067809D01*
X133802235Y-71208157D01*
X134050000Y-71257440D01*
X135750000Y-71257440D01*
X135997765Y-71208157D01*
X136207809Y-71067809D01*
X136348157Y-70857765D01*
X136357184Y-70812381D01*
X136369375Y-70830625D01*
X136860582Y-71158839D01*
X137293744Y-71245000D01*
X137586256Y-71245000D01*
X138019418Y-71158839D01*
X138510625Y-70830625D01*
X138710000Y-70532239D01*
X138909375Y-70830625D01*
X139400582Y-71158839D01*
X139833744Y-71245000D01*
X140126256Y-71245000D01*
X140559418Y-71158839D01*
X141050625Y-70830625D01*
X141250000Y-70532239D01*
X141449375Y-70830625D01*
X141685000Y-70988065D01*
X141685001Y-92907562D01*
X141668643Y-92989800D01*
X141733448Y-93315600D01*
X141733449Y-93315601D01*
X141918000Y-93591801D01*
X141987718Y-93638385D01*
X151399615Y-103050283D01*
X151446199Y-103120001D01*
X151722399Y-103304552D01*
X151965963Y-103353000D01*
X152048200Y-103369358D01*
X152130437Y-103353000D01*
X165905733Y-103353000D01*
X167295311Y-104742578D01*
X167233076Y-104768355D01*
X166804817Y-105158642D01*
X166743843Y-105288478D01*
X166530625Y-104969375D01*
X166039418Y-104641161D01*
X165606256Y-104555000D01*
X165313744Y-104555000D01*
X165113100Y-104594910D01*
X165113100Y-104557526D01*
X164955531Y-104177120D01*
X164664380Y-103885969D01*
X164283974Y-103728400D01*
X163872226Y-103728400D01*
X163491820Y-103885969D01*
X163449389Y-103928400D01*
X157392332Y-103928400D01*
X157310099Y-103912043D01*
X157227866Y-103928400D01*
X157227863Y-103928400D01*
X156984299Y-103976848D01*
X156708099Y-104161399D01*
X156661516Y-104231115D01*
X156102448Y-104790185D01*
X155879418Y-104641161D01*
X155446256Y-104555000D01*
X155153744Y-104555000D01*
X154720582Y-104641161D01*
X154229375Y-104969375D01*
X154078975Y-105194465D01*
X154049700Y-105188642D01*
X153985648Y-105201383D01*
X153830625Y-104969375D01*
X153339418Y-104641161D01*
X152906256Y-104555000D01*
X152613744Y-104555000D01*
X152180582Y-104641161D01*
X151689375Y-104969375D01*
X151538975Y-105194465D01*
X151509700Y-105188642D01*
X151445648Y-105201383D01*
X151290625Y-104969375D01*
X150799418Y-104641161D01*
X150366256Y-104555000D01*
X150073744Y-104555000D01*
X149640582Y-104641161D01*
X149149375Y-104969375D01*
X148998975Y-105194465D01*
X148969700Y-105188642D01*
X148905648Y-105201383D01*
X148750625Y-104969375D01*
X148259418Y-104641161D01*
X147826256Y-104555000D01*
X147533744Y-104555000D01*
X147168983Y-104627555D01*
X147031701Y-104422099D01*
X146961983Y-104375515D01*
X140074187Y-97487720D01*
X140027601Y-97417999D01*
X139751401Y-97233448D01*
X139507837Y-97185000D01*
X139507833Y-97185000D01*
X139425600Y-97168643D01*
X139343367Y-97185000D01*
X125008500Y-97185000D01*
X125008500Y-87241632D01*
X125015786Y-87205000D01*
X125374950Y-87205000D01*
X126067767Y-86918026D01*
X126598026Y-86387767D01*
X126885000Y-85694950D01*
X126885000Y-84945050D01*
X126598026Y-84252233D01*
X126067767Y-83721974D01*
X125374950Y-83435000D01*
X124625050Y-83435000D01*
X123932233Y-83721974D01*
X123401974Y-84252233D01*
X123122328Y-84927359D01*
X120835000Y-82640033D01*
X120835000Y-81653320D01*
X121346285Y-81653320D01*
X121475533Y-81946123D01*
X122175806Y-82214388D01*
X122925435Y-82194250D01*
X123524467Y-81946123D01*
X123653715Y-81653320D01*
X122500000Y-80499605D01*
X121346285Y-81653320D01*
X120835000Y-81653320D01*
X120835000Y-81250610D01*
X120873877Y-81344467D01*
X121166680Y-81473715D01*
X122320395Y-80320000D01*
X122679605Y-80320000D01*
X123833320Y-81473715D01*
X124126123Y-81344467D01*
X124394388Y-80644194D01*
X124374250Y-79894565D01*
X124126123Y-79295533D01*
X123833320Y-79166285D01*
X122679605Y-80320000D01*
X122320395Y-80320000D01*
X122306253Y-80305858D01*
X122485858Y-80126253D01*
X122500000Y-80140395D01*
X123653715Y-78986680D01*
X123524467Y-78693877D01*
X122824194Y-78425612D01*
X122074565Y-78445750D01*
X121720340Y-78592475D01*
X121885000Y-78194950D01*
X121885000Y-77445050D01*
X121598026Y-76752233D01*
X121067767Y-76221974D01*
X120374950Y-75935000D01*
X119625050Y-75935000D01*
X118932233Y-76221974D01*
X118401974Y-76752233D01*
X118115000Y-77445050D01*
X118115000Y-78194950D01*
X118401974Y-78887767D01*
X118932233Y-79418026D01*
X119165001Y-79514441D01*
X119165000Y-82903667D01*
X119148643Y-82985900D01*
X119165000Y-83068133D01*
X119165000Y-83068136D01*
X119213448Y-83311700D01*
X119367199Y-83541805D01*
X118932233Y-83721974D01*
X118401974Y-84252233D01*
X118115000Y-84945050D01*
X118115000Y-85694950D01*
X118401974Y-86387767D01*
X118932233Y-86918026D01*
X119625050Y-87205000D01*
X120374950Y-87205000D01*
X121067767Y-86918026D01*
X121598026Y-86387767D01*
X121780490Y-85947259D01*
X123338501Y-87505270D01*
X123338501Y-88627009D01*
X122874950Y-88435000D01*
X122125050Y-88435000D01*
X121432233Y-88721974D01*
X120901974Y-89252233D01*
X120615000Y-89945050D01*
X120615000Y-90694950D01*
X120784741Y-91104741D01*
X120374950Y-90935000D01*
X119625050Y-90935000D01*
X118932233Y-91221974D01*
X118401974Y-91752233D01*
X118115000Y-92445050D01*
X118115000Y-93194950D01*
X118211415Y-93427717D01*
X117776418Y-93862715D01*
X117706700Y-93909299D01*
X117660116Y-93979017D01*
X117522148Y-94185500D01*
X117457343Y-94511300D01*
X108185000Y-94511300D01*
X108185000Y-89945050D01*
X108415000Y-89945050D01*
X108415000Y-90694950D01*
X108701974Y-91387767D01*
X109232233Y-91918026D01*
X109925050Y-92205000D01*
X110674950Y-92205000D01*
X111367767Y-91918026D01*
X111898026Y-91387767D01*
X112185000Y-90694950D01*
X112185000Y-89945050D01*
X111898026Y-89252233D01*
X111367767Y-88721974D01*
X110674950Y-88435000D01*
X109925050Y-88435000D01*
X109232233Y-88721974D01*
X108701974Y-89252233D01*
X108415000Y-89945050D01*
X108185000Y-89945050D01*
X108185000Y-79945050D01*
X108415000Y-79945050D01*
X108415000Y-80694950D01*
X108701974Y-81387767D01*
X109232233Y-81918026D01*
X109925050Y-82205000D01*
X110674950Y-82205000D01*
X111367767Y-81918026D01*
X111898026Y-81387767D01*
X112185000Y-80694950D01*
X112185000Y-79945050D01*
X111898026Y-79252233D01*
X111367767Y-78721974D01*
X110674950Y-78435000D01*
X109925050Y-78435000D01*
X109232233Y-78721974D01*
X108701974Y-79252233D01*
X108415000Y-79945050D01*
X108185000Y-79945050D01*
X108185000Y-73702060D01*
X110347545Y-73702060D01*
X110430884Y-73955953D01*
X110995306Y-74161590D01*
X111595458Y-74135579D01*
X112029116Y-73955953D01*
X112035000Y-73938027D01*
X112035000Y-74235167D01*
X112291526Y-74854476D01*
X112765524Y-75328474D01*
X113384833Y-75585000D01*
X114055167Y-75585000D01*
X114674476Y-75328474D01*
X115148474Y-74854476D01*
X115405000Y-74235167D01*
X115405000Y-73564833D01*
X115148474Y-72945524D01*
X114674476Y-72471526D01*
X114055167Y-72215000D01*
X113384833Y-72215000D01*
X112765524Y-72471526D01*
X112735421Y-72501629D01*
X112725579Y-72274542D01*
X112545953Y-71840884D01*
X112292060Y-71757545D01*
X111409605Y-72640000D01*
X111423748Y-72654143D01*
X111244143Y-72833748D01*
X111230000Y-72819605D01*
X110347545Y-73702060D01*
X108185000Y-73702060D01*
X108185000Y-72405306D01*
X109708410Y-72405306D01*
X109734421Y-73005458D01*
X109914047Y-73439116D01*
X110167940Y-73522455D01*
X111050395Y-72640000D01*
X110167940Y-71757545D01*
X109914047Y-71840884D01*
X109708410Y-72405306D01*
X108185000Y-72405306D01*
X108185000Y-71577940D01*
X110347545Y-71577940D01*
X111230000Y-72460395D01*
X112112455Y-71577940D01*
X112029116Y-71324047D01*
X111464694Y-71118410D01*
X110864542Y-71144421D01*
X110430884Y-71324047D01*
X110347545Y-71577940D01*
X108185000Y-71577940D01*
X108185000Y-70880191D01*
X127799414Y-70880191D01*
X128105472Y-71323659D01*
X129330252Y-71833725D01*
X130656995Y-71836262D01*
X131883716Y-71330883D01*
X131894528Y-71323659D01*
X132200586Y-70880191D01*
X130000000Y-68679605D01*
X127799414Y-70880191D01*
X108185000Y-70880191D01*
X108185000Y-68537095D01*
X108254603Y-67896386D01*
X108448264Y-67320936D01*
X108760977Y-66800491D01*
X109178153Y-66359339D01*
X109680328Y-66018061D01*
X110244074Y-65792579D01*
X110870431Y-65688886D01*
X111009566Y-65685000D01*
X112542050Y-65685000D01*
X112291526Y-65935524D01*
X112291526Y-65935524D01*
G37*
X112291526Y-65935524D02*
X112035000Y-66554833D01*
X112035000Y-66839030D01*
X111530358Y-66630000D01*
X110929642Y-66630000D01*
X110374654Y-66859884D01*
X109949884Y-67284654D01*
X109720000Y-67839642D01*
X109720000Y-68440358D01*
X109949884Y-68995346D01*
X110374654Y-69420116D01*
X110929642Y-69650000D01*
X111530358Y-69650000D01*
X112085346Y-69420116D01*
X112348467Y-69156995D01*
X126663738Y-69156995D01*
X127169117Y-70383716D01*
X127176341Y-70394528D01*
X127619809Y-70700586D01*
X129820395Y-68500000D01*
X130179605Y-68500000D01*
X132380191Y-70700586D01*
X132823659Y-70394528D01*
X133333725Y-69169748D01*
X133336262Y-67843005D01*
X132830883Y-66616284D01*
X132823659Y-66605472D01*
X132380191Y-66299414D01*
X130179605Y-68500000D01*
X129820395Y-68500000D01*
X127619809Y-66299414D01*
X127176341Y-66605472D01*
X126666275Y-67830252D01*
X126663738Y-69156995D01*
X112348467Y-69156995D01*
X112510116Y-68995346D01*
X112740000Y-68440358D01*
X112740000Y-68292950D01*
X112765524Y-68318474D01*
X113384833Y-68575000D01*
X114055167Y-68575000D01*
X114674476Y-68318474D01*
X115148474Y-67844476D01*
X115405000Y-67225167D01*
X115405000Y-66554833D01*
X115148474Y-65935524D01*
X114897950Y-65685000D01*
X128099496Y-65685000D01*
X127799414Y-66119809D01*
X130000000Y-68320395D01*
X132200586Y-66119809D01*
X131900504Y-65685000D01*
X186099496Y-65685000D01*
X185799414Y-66119809D01*
X188000000Y-68320395D01*
X188014143Y-68306253D01*
X188193748Y-68485858D01*
X188179605Y-68500000D01*
X190380191Y-70700586D01*
X190815001Y-70400503D01*
X190815000Y-115599496D01*
X190380191Y-115299414D01*
X188179605Y-117500000D01*
X188193748Y-117514143D01*
X188014143Y-117693748D01*
X188000000Y-117679605D01*
X185799414Y-119880191D01*
X186099496Y-120315000D01*
X131900504Y-120315000D01*
X132200586Y-119880191D01*
X130000000Y-117679605D01*
X127799414Y-119880191D01*
X128099496Y-120315000D01*
X111037095Y-120315000D01*
X110396386Y-120245397D01*
X109820936Y-120051736D01*
X109300490Y-119739021D01*
X108859337Y-119321844D01*
X108518062Y-118819672D01*
X108292579Y-118255925D01*
X108188886Y-117629568D01*
X108185000Y-117490434D01*
X108185000Y-116694670D01*
X115425000Y-116694670D01*
X115425000Y-117305330D01*
X115658690Y-117869507D01*
X116090493Y-118301310D01*
X116654670Y-118535000D01*
X117265330Y-118535000D01*
X117829507Y-118301310D01*
X118005861Y-118124956D01*
X118061673Y-118259699D01*
X118240302Y-118438327D01*
X118473691Y-118535000D01*
X119214250Y-118535000D01*
X119373000Y-118376250D01*
X119373000Y-117127000D01*
X119627000Y-117127000D01*
X119627000Y-118376250D01*
X119785750Y-118535000D01*
X120526309Y-118535000D01*
X120759698Y-118438327D01*
X120938327Y-118259699D01*
X120980868Y-118156995D01*
X126663738Y-118156995D01*
X127169117Y-119383716D01*
X127176341Y-119394528D01*
X127619809Y-119700586D01*
X129820395Y-117500000D01*
X130179605Y-117500000D01*
X132380191Y-119700586D01*
X132823659Y-119394528D01*
X133333725Y-118169748D01*
X133336262Y-116843005D01*
X132830883Y-115616284D01*
X132823659Y-115605472D01*
X132380191Y-115299414D01*
X130179605Y-117500000D01*
X129820395Y-117500000D01*
X127619809Y-115299414D01*
X127176341Y-115605472D01*
X126666275Y-116830252D01*
X126663738Y-118156995D01*
X120980868Y-118156995D01*
X121035000Y-118026310D01*
X121035000Y-117285750D01*
X120876250Y-117127000D01*
X119627000Y-117127000D01*
X119373000Y-117127000D01*
X119353000Y-117127000D01*
X119353000Y-116873000D01*
X119373000Y-116873000D01*
X119373000Y-115623750D01*
X119627000Y-115623750D01*
X119627000Y-116873000D01*
X120876250Y-116873000D01*
X121035000Y-116714250D01*
X121035000Y-115973690D01*
X120938327Y-115740301D01*
X120759698Y-115561673D01*
X120526309Y-115465000D01*
X119785750Y-115465000D01*
X119627000Y-115623750D01*
X119373000Y-115623750D01*
X119214250Y-115465000D01*
X118473691Y-115465000D01*
X118240302Y-115561673D01*
X118061673Y-115740301D01*
X118005861Y-115875044D01*
X117829507Y-115698690D01*
X117265330Y-115465000D01*
X116654670Y-115465000D01*
X116090493Y-115698690D01*
X115658690Y-116130493D01*
X115425000Y-116694670D01*
X108185000Y-116694670D01*
X108185000Y-115119809D01*
X127799414Y-115119809D01*
X130000000Y-117320395D01*
X132200586Y-115119809D01*
X131894528Y-114676341D01*
X130669748Y-114166275D01*
X129343005Y-114163738D01*
X128116284Y-114669117D01*
X128105472Y-114676341D01*
X127799414Y-115119809D01*
X108185000Y-115119809D01*
X108185000Y-110145050D01*
X108415000Y-110145050D01*
X108415000Y-110894950D01*
X108701974Y-111587767D01*
X109232233Y-112118026D01*
X109925050Y-112405000D01*
X110674950Y-112405000D01*
X111367767Y-112118026D01*
X111898026Y-111587767D01*
X112185000Y-110894950D01*
X112185000Y-110145050D01*
X111898026Y-109452233D01*
X111367767Y-108921974D01*
X110674950Y-108635000D01*
X109925050Y-108635000D01*
X109232233Y-108921974D01*
X108701974Y-109452233D01*
X108415000Y-110145050D01*
X108185000Y-110145050D01*
X108185000Y-100145050D01*
X108415000Y-100145050D01*
X108415000Y-100894950D01*
X108701974Y-101587767D01*
X109232233Y-102118026D01*
X109925050Y-102405000D01*
X110674950Y-102405000D01*
X111367767Y-102118026D01*
X111898026Y-101587767D01*
X112185000Y-100894950D01*
X112185000Y-100145050D01*
X111898026Y-99452233D01*
X111367767Y-98921974D01*
X110674950Y-98635000D01*
X109925050Y-98635000D01*
X109232233Y-98921974D01*
X108701974Y-99452233D01*
X108415000Y-100145050D01*
X108185000Y-100145050D01*
X108185000Y-94511300D01*
X117457343Y-94511300D01*
X117473701Y-94593538D01*
X117473700Y-111246467D01*
X117457343Y-111328700D01*
X117473700Y-111410933D01*
X117473700Y-111410936D01*
X117522148Y-111654500D01*
X117706699Y-111930701D01*
X117776420Y-111977287D01*
X118211415Y-112412283D01*
X118115000Y-112645050D01*
X118115000Y-113394950D01*
X118401974Y-114087767D01*
X118932233Y-114618026D01*
X119625050Y-114905000D01*
X120374950Y-114905000D01*
X121067767Y-114618026D01*
X121598026Y-114087767D01*
X121694441Y-113855000D01*
X140364131Y-113855000D01*
X137570705Y-116648428D01*
X137550358Y-116640000D01*
X137402950Y-116640000D01*
X137428474Y-116614476D01*
X137685000Y-115995167D01*
X137685000Y-115324833D01*
X137428474Y-114705524D01*
X136954476Y-114231526D01*
X136335167Y-113975000D01*
X135664833Y-113975000D01*
X135045524Y-114231526D01*
X134571526Y-114705524D01*
X134315000Y-115324833D01*
X134315000Y-115995167D01*
X134571526Y-116614476D01*
X135045524Y-117088474D01*
X135664833Y-117345000D01*
X135949030Y-117345000D01*
X135740000Y-117849642D01*
X135740000Y-118450358D01*
X135969884Y-119005346D01*
X136394654Y-119430116D01*
X136949642Y-119660000D01*
X137550358Y-119660000D01*
X138105346Y-119430116D01*
X138323402Y-119212060D01*
X140867545Y-119212060D01*
X140950884Y-119465953D01*
X141515306Y-119671590D01*
X142115458Y-119645579D01*
X142549116Y-119465953D01*
X142632455Y-119212060D01*
X141750000Y-118329605D01*
X140867545Y-119212060D01*
X138323402Y-119212060D01*
X138530116Y-119005346D01*
X138760000Y-118450358D01*
X138760000Y-117915306D01*
X140228410Y-117915306D01*
X140254421Y-118515458D01*
X140434047Y-118949116D01*
X140687940Y-119032455D01*
X141570395Y-118150000D01*
X140687940Y-117267545D01*
X140434047Y-117350884D01*
X140228410Y-117915306D01*
X138760000Y-117915306D01*
X138760000Y-117849642D01*
X138751572Y-117829295D01*
X141373765Y-115207103D01*
X141325000Y-115324833D01*
X141325000Y-115995167D01*
X141581526Y-116614476D01*
X141611629Y-116644579D01*
X141384542Y-116654421D01*
X140950884Y-116834047D01*
X140867545Y-117087940D01*
X141750000Y-117970395D01*
X141764143Y-117956253D01*
X141943748Y-118135858D01*
X141929605Y-118150000D01*
X142812060Y-119032455D01*
X143065953Y-118949116D01*
X143271590Y-118384694D01*
X143245579Y-117784542D01*
X143065953Y-117350884D01*
X143048027Y-117345000D01*
X143345167Y-117345000D01*
X143964476Y-117088474D01*
X144380000Y-116672950D01*
X144795524Y-117088474D01*
X145414833Y-117345000D01*
X145699030Y-117345000D01*
X145490000Y-117849642D01*
X145490000Y-118450358D01*
X145719884Y-119005346D01*
X146144654Y-119430116D01*
X146699642Y-119660000D01*
X147300358Y-119660000D01*
X147855346Y-119430116D01*
X148073402Y-119212060D01*
X150617545Y-119212060D01*
X150700884Y-119465953D01*
X151265306Y-119671590D01*
X151865458Y-119645579D01*
X152299116Y-119465953D01*
X152382455Y-119212060D01*
X151500000Y-118329605D01*
X150617545Y-119212060D01*
X148073402Y-119212060D01*
X148280116Y-119005346D01*
X148510000Y-118450358D01*
X148510000Y-117915306D01*
X149978410Y-117915306D01*
X150004421Y-118515458D01*
X150184047Y-118949116D01*
X150437940Y-119032455D01*
X151320395Y-118150000D01*
X150437940Y-117267545D01*
X150184047Y-117350884D01*
X149978410Y-117915306D01*
X148510000Y-117915306D01*
X148510000Y-117849642D01*
X148280116Y-117294654D01*
X148073402Y-117087940D01*
X150617545Y-117087940D01*
X151500000Y-117970395D01*
X151514143Y-117956253D01*
X151693748Y-118135858D01*
X151679605Y-118150000D01*
X152562060Y-119032455D01*
X152815953Y-118949116D01*
X153021590Y-118384694D01*
X152995579Y-117784542D01*
X152815953Y-117350884D01*
X152798027Y-117345000D01*
X153095167Y-117345000D01*
X153714476Y-117088474D01*
X154130000Y-116672950D01*
X154545524Y-117088474D01*
X155164833Y-117345000D01*
X155449030Y-117345000D01*
X155240000Y-117849642D01*
X155240000Y-118450358D01*
X155469884Y-119005346D01*
X155894654Y-119430116D01*
X156449642Y-119660000D01*
X157050358Y-119660000D01*
X157605346Y-119430116D01*
X157823402Y-119212060D01*
X160367545Y-119212060D01*
X160450884Y-119465953D01*
X161015306Y-119671590D01*
X161615458Y-119645579D01*
X162049116Y-119465953D01*
X162132455Y-119212060D01*
X161250000Y-118329605D01*
X160367545Y-119212060D01*
X157823402Y-119212060D01*
X158030116Y-119005346D01*
X158260000Y-118450358D01*
X158260000Y-117915306D01*
X159728410Y-117915306D01*
X159754421Y-118515458D01*
X159934047Y-118949116D01*
X160187940Y-119032455D01*
X161070395Y-118150000D01*
X160187940Y-117267545D01*
X159934047Y-117350884D01*
X159728410Y-117915306D01*
X158260000Y-117915306D01*
X158260000Y-117849642D01*
X158030116Y-117294654D01*
X157605346Y-116869884D01*
X157050358Y-116640000D01*
X156902950Y-116640000D01*
X156928474Y-116614476D01*
X157185000Y-115995167D01*
X157185000Y-115324833D01*
X156928474Y-114705524D01*
X156454476Y-114231526D01*
X155835167Y-113975000D01*
X155164833Y-113975000D01*
X154545524Y-114231526D01*
X154130000Y-114647050D01*
X153714476Y-114231526D01*
X153095167Y-113975000D01*
X152424833Y-113975000D01*
X151805524Y-114231526D01*
X151331526Y-114705524D01*
X151075000Y-115324833D01*
X151075000Y-115995167D01*
X151331526Y-116614476D01*
X151361629Y-116644579D01*
X151134542Y-116654421D01*
X150700884Y-116834047D01*
X150617545Y-117087940D01*
X148073402Y-117087940D01*
X147855346Y-116869884D01*
X147300358Y-116640000D01*
X147152950Y-116640000D01*
X147178474Y-116614476D01*
X147435000Y-115995167D01*
X147435000Y-115324833D01*
X147178474Y-114705524D01*
X147010550Y-114537600D01*
X149371367Y-114537600D01*
X149453600Y-114553957D01*
X149535833Y-114537600D01*
X149535837Y-114537600D01*
X149779401Y-114489152D01*
X150055601Y-114304601D01*
X150102187Y-114234880D01*
X157043368Y-107293701D01*
X157260582Y-107438839D01*
X157693744Y-107525000D01*
X157986256Y-107525000D01*
X158419418Y-107438839D01*
X158910625Y-107110625D01*
X159110000Y-106812239D01*
X159309375Y-107110625D01*
X159800582Y-107438839D01*
X160233744Y-107525000D01*
X160526256Y-107525000D01*
X160959418Y-107438839D01*
X161450625Y-107110625D01*
X161650000Y-106812239D01*
X161849375Y-107110625D01*
X162340582Y-107438839D01*
X162773744Y-107525000D01*
X163066256Y-107525000D01*
X163499418Y-107438839D01*
X163990625Y-107110625D01*
X164190000Y-106812239D01*
X164389375Y-107110625D01*
X164880582Y-107438839D01*
X165313744Y-107525000D01*
X165606256Y-107525000D01*
X166039418Y-107438839D01*
X166530625Y-107110625D01*
X166743843Y-106791522D01*
X166804817Y-106921358D01*
X167233076Y-107311645D01*
X167643110Y-107481476D01*
X167873000Y-107360155D01*
X167873000Y-106167000D01*
X167853000Y-106167000D01*
X167853000Y-105913000D01*
X167873000Y-105913000D01*
X167873000Y-105893000D01*
X168127000Y-105893000D01*
X168127000Y-105913000D01*
X168147000Y-105913000D01*
X168147000Y-106167000D01*
X168127000Y-106167000D01*
X168127000Y-107360155D01*
X168356890Y-107481476D01*
X168424400Y-107453514D01*
X168424401Y-115044731D01*
X166820705Y-116648428D01*
X166800358Y-116640000D01*
X166652950Y-116640000D01*
X166678474Y-116614476D01*
X166935000Y-115995167D01*
X166935000Y-115324833D01*
X166678474Y-114705524D01*
X166204476Y-114231526D01*
X165585167Y-113975000D01*
X164914833Y-113975000D01*
X164295524Y-114231526D01*
X163880000Y-114647050D01*
X163464476Y-114231526D01*
X162845167Y-113975000D01*
X162174833Y-113975000D01*
X161555524Y-114231526D01*
X161081526Y-114705524D01*
X160825000Y-115324833D01*
X160825000Y-115995167D01*
X161081526Y-116614476D01*
X161111629Y-116644579D01*
X160884542Y-116654421D01*
X160450884Y-116834047D01*
X160367545Y-117087940D01*
X161250000Y-117970395D01*
X161264143Y-117956253D01*
X161443748Y-118135858D01*
X161429605Y-118150000D01*
X162312060Y-119032455D01*
X162565953Y-118949116D01*
X162771590Y-118384694D01*
X162745579Y-117784542D01*
X162565953Y-117350884D01*
X162548027Y-117345000D01*
X162845167Y-117345000D01*
X163464476Y-117088474D01*
X163880000Y-116672950D01*
X164295524Y-117088474D01*
X164914833Y-117345000D01*
X165199030Y-117345000D01*
X164990000Y-117849642D01*
X164990000Y-118450358D01*
X165219884Y-119005346D01*
X165644654Y-119430116D01*
X166199642Y-119660000D01*
X166800358Y-119660000D01*
X167355346Y-119430116D01*
X167573402Y-119212060D01*
X170117545Y-119212060D01*
X170200884Y-119465953D01*
X170765306Y-119671590D01*
X171365458Y-119645579D01*
X171799116Y-119465953D01*
X171882455Y-119212060D01*
X171000000Y-118329605D01*
X170117545Y-119212060D01*
X167573402Y-119212060D01*
X167780116Y-119005346D01*
X168010000Y-118450358D01*
X168010000Y-117915306D01*
X169478410Y-117915306D01*
X169504421Y-118515458D01*
X169684047Y-118949116D01*
X169937940Y-119032455D01*
X170820395Y-118150000D01*
X169937940Y-117267545D01*
X169684047Y-117350884D01*
X169478410Y-117915306D01*
X168010000Y-117915306D01*
X168010000Y-117849642D01*
X168001572Y-117829295D01*
X168742927Y-117087940D01*
X170117545Y-117087940D01*
X171000000Y-117970395D01*
X171014143Y-117956253D01*
X171193748Y-118135858D01*
X171179605Y-118150000D01*
X172062060Y-119032455D01*
X172315953Y-118949116D01*
X172521590Y-118384694D01*
X172495579Y-117784542D01*
X172315953Y-117350884D01*
X172298027Y-117345000D01*
X172595167Y-117345000D01*
X173214476Y-117088474D01*
X173630000Y-116672950D01*
X174045524Y-117088474D01*
X174664833Y-117345000D01*
X174949030Y-117345000D01*
X174740000Y-117849642D01*
X174740000Y-118450358D01*
X174969884Y-119005346D01*
X175394654Y-119430116D01*
X175949642Y-119660000D01*
X176550358Y-119660000D01*
X177105346Y-119430116D01*
X177323402Y-119212060D01*
X179867545Y-119212060D01*
X179950884Y-119465953D01*
X180515306Y-119671590D01*
X181115458Y-119645579D01*
X181549116Y-119465953D01*
X181632455Y-119212060D01*
X180750000Y-118329605D01*
X179867545Y-119212060D01*
X177323402Y-119212060D01*
X177530116Y-119005346D01*
X177760000Y-118450358D01*
X177760000Y-117915306D01*
X179228410Y-117915306D01*
X179254421Y-118515458D01*
X179434047Y-118949116D01*
X179687940Y-119032455D01*
X180570395Y-118150000D01*
X179687940Y-117267545D01*
X179434047Y-117350884D01*
X179228410Y-117915306D01*
X177760000Y-117915306D01*
X177760000Y-117849642D01*
X177530116Y-117294654D01*
X177323402Y-117087940D01*
X179867545Y-117087940D01*
X180750000Y-117970395D01*
X180764143Y-117956253D01*
X180943748Y-118135858D01*
X180929605Y-118150000D01*
X181812060Y-119032455D01*
X182065953Y-118949116D01*
X182271590Y-118384694D01*
X182261722Y-118156995D01*
X184663738Y-118156995D01*
X185169117Y-119383716D01*
X185176341Y-119394528D01*
X185619809Y-119700586D01*
X187820395Y-117500000D01*
X185619809Y-115299414D01*
X185176341Y-115605472D01*
X184666275Y-116830252D01*
X184663738Y-118156995D01*
X182261722Y-118156995D01*
X182245579Y-117784542D01*
X182065953Y-117350884D01*
X182048027Y-117345000D01*
X182345167Y-117345000D01*
X182964476Y-117088474D01*
X183438474Y-116614476D01*
X183695000Y-115995167D01*
X183695000Y-115324833D01*
X183610077Y-115119809D01*
X185799414Y-115119809D01*
X188000000Y-117320395D01*
X190200586Y-115119809D01*
X189894528Y-114676341D01*
X188669748Y-114166275D01*
X187343005Y-114163738D01*
X186116284Y-114669117D01*
X186105472Y-114676341D01*
X185799414Y-115119809D01*
X183610077Y-115119809D01*
X183438474Y-114705524D01*
X182964476Y-114231526D01*
X182345167Y-113975000D01*
X181674833Y-113975000D01*
X181055524Y-114231526D01*
X180581526Y-114705524D01*
X180325000Y-115324833D01*
X180325000Y-115995167D01*
X180581526Y-116614476D01*
X180611629Y-116644579D01*
X180384542Y-116654421D01*
X179950884Y-116834047D01*
X179867545Y-117087940D01*
X177323402Y-117087940D01*
X177105346Y-116869884D01*
X176550358Y-116640000D01*
X176402950Y-116640000D01*
X176428474Y-116614476D01*
X176685000Y-115995167D01*
X176685000Y-115324833D01*
X176428474Y-114705524D01*
X175954476Y-114231526D01*
X175335167Y-113975000D01*
X174664833Y-113975000D01*
X174045524Y-114231526D01*
X173630000Y-114647050D01*
X173214476Y-114231526D01*
X172595167Y-113975000D01*
X171924833Y-113975000D01*
X171305524Y-114231526D01*
X170831526Y-114705524D01*
X170575000Y-115324833D01*
X170575000Y-115995167D01*
X170831526Y-116614476D01*
X170861629Y-116644579D01*
X170634542Y-116654421D01*
X170200884Y-116834047D01*
X170117545Y-117087940D01*
X168742927Y-117087940D01*
X169791683Y-116039185D01*
X169861401Y-115992601D01*
X170045952Y-115716401D01*
X170094400Y-115472837D01*
X170110758Y-115390600D01*
X170094400Y-115308363D01*
X170094400Y-105608037D01*
X170110758Y-105525800D01*
X170089964Y-105421263D01*
X170045952Y-105199999D01*
X169861401Y-104923799D01*
X169791683Y-104877215D01*
X167924165Y-103009697D01*
X178820000Y-103009697D01*
X178820000Y-103630303D01*
X179057496Y-104203669D01*
X179496331Y-104642504D01*
X180069697Y-104880000D01*
X180690303Y-104880000D01*
X181263669Y-104642504D01*
X181702504Y-104203669D01*
X181940000Y-103630303D01*
X181940000Y-103605750D01*
X183820000Y-103605750D01*
X183820000Y-104371309D01*
X183916673Y-104604698D01*
X184095301Y-104783327D01*
X184328690Y-104880000D01*
X185094250Y-104880000D01*
X185253000Y-104721250D01*
X185253000Y-103447000D01*
X185507000Y-103447000D01*
X185507000Y-104721250D01*
X185665750Y-104880000D01*
X186431310Y-104880000D01*
X186664699Y-104783327D01*
X186843327Y-104604698D01*
X186940000Y-104371309D01*
X186940000Y-103605750D01*
X186781250Y-103447000D01*
X185507000Y-103447000D01*
X185253000Y-103447000D01*
X183978750Y-103447000D01*
X183820000Y-103605750D01*
X181940000Y-103605750D01*
X181940000Y-103009697D01*
X181702504Y-102436331D01*
X181534864Y-102268691D01*
X183820000Y-102268691D01*
X183820000Y-103034250D01*
X183978750Y-103193000D01*
X185253000Y-103193000D01*
X185253000Y-101918750D01*
X185507000Y-101918750D01*
X185507000Y-103193000D01*
X186781250Y-103193000D01*
X186940000Y-103034250D01*
X186940000Y-102268691D01*
X186843327Y-102035302D01*
X186664699Y-101856673D01*
X186431310Y-101760000D01*
X185665750Y-101760000D01*
X185507000Y-101918750D01*
X185253000Y-101918750D01*
X185094250Y-101760000D01*
X184328690Y-101760000D01*
X184095301Y-101856673D01*
X183916673Y-102035302D01*
X183820000Y-102268691D01*
X181534864Y-102268691D01*
X181263669Y-101997496D01*
X180690303Y-101760000D01*
X180069697Y-101760000D01*
X179496331Y-101997496D01*
X179057496Y-102436331D01*
X178820000Y-103009697D01*
X167924165Y-103009697D01*
X166900187Y-101985720D01*
X166853601Y-101915999D01*
X166577401Y-101731448D01*
X166333837Y-101683000D01*
X166333833Y-101683000D01*
X166251600Y-101666643D01*
X166169367Y-101683000D01*
X152394068Y-101683000D01*
X145548507Y-94837440D01*
X145990000Y-94837440D01*
X146131689Y-94809257D01*
X146472014Y-95149582D01*
X146518599Y-95219301D01*
X146794799Y-95403852D01*
X147038363Y-95452300D01*
X147038366Y-95452300D01*
X147120599Y-95468657D01*
X147202832Y-95452300D01*
X155926889Y-95452300D01*
X155969320Y-95494731D01*
X156349726Y-95652300D01*
X156761474Y-95652300D01*
X157141880Y-95494731D01*
X157184311Y-95452300D01*
X165908267Y-95452300D01*
X165990500Y-95468657D01*
X166072733Y-95452300D01*
X166072737Y-95452300D01*
X166316301Y-95403852D01*
X166592501Y-95219301D01*
X166639087Y-95149580D01*
X167198332Y-94590336D01*
X167420582Y-94738839D01*
X167853744Y-94825000D01*
X168146256Y-94825000D01*
X168579418Y-94738839D01*
X169070625Y-94410625D01*
X169398839Y-93919418D01*
X169514092Y-93340000D01*
X169398839Y-92760582D01*
X169070625Y-92269375D01*
X168579418Y-91941161D01*
X168146256Y-91855000D01*
X167853744Y-91855000D01*
X167420582Y-91941161D01*
X166929375Y-92269375D01*
X166778975Y-92494465D01*
X166749700Y-92488642D01*
X166685648Y-92501383D01*
X166530625Y-92269375D01*
X166039418Y-91941161D01*
X165606256Y-91855000D01*
X165313744Y-91855000D01*
X164880582Y-91941161D01*
X164389375Y-92269375D01*
X164190000Y-92567761D01*
X163990625Y-92269375D01*
X163499418Y-91941161D01*
X163066256Y-91855000D01*
X162773744Y-91855000D01*
X162340582Y-91941161D01*
X161849375Y-92269375D01*
X161650000Y-92567761D01*
X161450625Y-92269375D01*
X160959418Y-91941161D01*
X160526256Y-91855000D01*
X160233744Y-91855000D01*
X159800582Y-91941161D01*
X159309375Y-92269375D01*
X159110000Y-92567761D01*
X158910625Y-92269375D01*
X158419418Y-91941161D01*
X157986256Y-91855000D01*
X157693744Y-91855000D01*
X157260582Y-91941161D01*
X156769375Y-92269375D01*
X156570000Y-92567761D01*
X156370625Y-92269375D01*
X155879418Y-91941161D01*
X155446256Y-91855000D01*
X155153744Y-91855000D01*
X154720582Y-91941161D01*
X154229375Y-92269375D01*
X154030000Y-92567761D01*
X153830625Y-92269375D01*
X153339418Y-91941161D01*
X152906256Y-91855000D01*
X152613744Y-91855000D01*
X152180582Y-91941161D01*
X151689375Y-92269375D01*
X151490000Y-92567761D01*
X151290625Y-92269375D01*
X150914806Y-92018261D01*
X171087768Y-71845300D01*
X176044267Y-71845300D01*
X176126500Y-71861657D01*
X176208733Y-71845300D01*
X176208737Y-71845300D01*
X176452301Y-71796852D01*
X176728501Y-71612301D01*
X176775087Y-71542580D01*
X177295716Y-71021952D01*
X177500582Y-71158839D01*
X177933744Y-71245000D01*
X178226256Y-71245000D01*
X178659418Y-71158839D01*
X179150625Y-70830625D01*
X179350000Y-70532239D01*
X179549375Y-70830625D01*
X180040582Y-71158839D01*
X180473744Y-71245000D01*
X180766256Y-71245000D01*
X181199418Y-71158839D01*
X181690625Y-70830625D01*
X181903843Y-70511522D01*
X181964817Y-70641358D01*
X182393076Y-71031645D01*
X182803110Y-71201476D01*
X183033000Y-71080155D01*
X183033000Y-69887000D01*
X183287000Y-69887000D01*
X183287000Y-71080155D01*
X183516890Y-71201476D01*
X183926924Y-71031645D01*
X184093113Y-70880191D01*
X185799414Y-70880191D01*
X186105472Y-71323659D01*
X187330252Y-71833725D01*
X188656995Y-71836262D01*
X189883716Y-71330883D01*
X189894528Y-71323659D01*
X190200586Y-70880191D01*
X188000000Y-68679605D01*
X185799414Y-70880191D01*
X184093113Y-70880191D01*
X184355183Y-70641358D01*
X184601486Y-70116892D01*
X184480819Y-69887000D01*
X183287000Y-69887000D01*
X183033000Y-69887000D01*
X183013000Y-69887000D01*
X183013000Y-69633000D01*
X183033000Y-69633000D01*
X183033000Y-69613000D01*
X183287000Y-69613000D01*
X183287000Y-69633000D01*
X184480819Y-69633000D01*
X184601486Y-69403108D01*
X184485905Y-69156995D01*
X184663738Y-69156995D01*
X185169117Y-70383716D01*
X185176341Y-70394528D01*
X185619809Y-70700586D01*
X187820395Y-68500000D01*
X185619809Y-66299414D01*
X185176341Y-66605472D01*
X184666275Y-67830252D01*
X184663738Y-69156995D01*
X184485905Y-69156995D01*
X184355183Y-68878642D01*
X183930214Y-68491353D01*
X184230625Y-68290625D01*
X184558839Y-67799418D01*
X184674092Y-67220000D01*
X184558839Y-66640582D01*
X184230625Y-66149375D01*
X183739418Y-65821161D01*
X183306256Y-65735000D01*
X183013744Y-65735000D01*
X182580582Y-65821161D01*
X182089375Y-66149375D01*
X181890000Y-66447761D01*
X181690625Y-66149375D01*
X181199418Y-65821161D01*
X180766256Y-65735000D01*
X180473744Y-65735000D01*
X180040582Y-65821161D01*
X179549375Y-66149375D01*
X179350000Y-66447761D01*
X179150625Y-66149375D01*
X178659418Y-65821161D01*
X178226256Y-65735000D01*
X177933744Y-65735000D01*
X177500582Y-65821161D01*
X177009375Y-66149375D01*
X176796157Y-66468478D01*
X176735183Y-66338642D01*
X176306924Y-65948355D01*
X175896890Y-65778524D01*
X175667000Y-65899845D01*
X175667000Y-67093000D01*
X175687000Y-67093000D01*
X175687000Y-67347000D01*
X175667000Y-67347000D01*
X175667000Y-67367000D01*
X175413000Y-67367000D01*
X175413000Y-67347000D01*
X175393000Y-67347000D01*
X175393000Y-67093000D01*
X175413000Y-67093000D01*
X175413000Y-65899845D01*
X175183110Y-65778524D01*
X174773076Y-65948355D01*
X174344817Y-66338642D01*
X174283843Y-66468478D01*
X174070625Y-66149375D01*
X173579418Y-65821161D01*
X173146256Y-65735000D01*
X172853744Y-65735000D01*
X172420582Y-65821161D01*
X171929375Y-66149375D01*
X171716157Y-66468478D01*
X171655183Y-66338642D01*
X171226924Y-65948355D01*
X170816890Y-65778524D01*
X170587000Y-65899845D01*
X170587000Y-67093000D01*
X170607000Y-67093000D01*
X170607000Y-67347000D01*
X170587000Y-67347000D01*
X170587000Y-67367000D01*
X170333000Y-67367000D01*
X170333000Y-67347000D01*
X170313000Y-67347000D01*
X170313000Y-67093000D01*
X170333000Y-67093000D01*
X170333000Y-65899845D01*
X170103110Y-65778524D01*
X169693076Y-65948355D01*
X169264817Y-66338642D01*
X169203843Y-66468478D01*
X168990625Y-66149375D01*
X168499418Y-65821161D01*
X168066256Y-65735000D01*
X167773744Y-65735000D01*
X167340582Y-65821161D01*
X166849375Y-66149375D01*
X166650000Y-66447761D01*
X166450625Y-66149375D01*
X165959418Y-65821161D01*
X165526256Y-65735000D01*
X165233744Y-65735000D01*
X164800582Y-65821161D01*
X164309375Y-66149375D01*
X164110000Y-66447761D01*
X163910625Y-66149375D01*
X163419418Y-65821161D01*
X162986256Y-65735000D01*
X162693744Y-65735000D01*
X162260582Y-65821161D01*
X161769375Y-66149375D01*
X161570000Y-66447761D01*
X161370625Y-66149375D01*
X160879418Y-65821161D01*
X160446256Y-65735000D01*
X160153744Y-65735000D01*
X159720582Y-65821161D01*
X159229375Y-66149375D01*
X159016157Y-66468478D01*
X158955183Y-66338642D01*
X158526924Y-65948355D01*
X158116890Y-65778524D01*
X157887000Y-65899845D01*
X157887000Y-67093000D01*
X157907000Y-67093000D01*
X157907000Y-67347000D01*
X157887000Y-67347000D01*
X157887000Y-67367000D01*
X157633000Y-67367000D01*
X157633000Y-67347000D01*
X157613000Y-67347000D01*
X157613000Y-67093000D01*
X157633000Y-67093000D01*
X157633000Y-65899845D01*
X157403110Y-65778524D01*
X156993076Y-65948355D01*
X156564817Y-66338642D01*
X156503843Y-66468478D01*
X156290625Y-66149375D01*
X155799418Y-65821161D01*
X155366256Y-65735000D01*
X155073744Y-65735000D01*
X154640582Y-65821161D01*
X154149375Y-66149375D01*
X153950000Y-66447761D01*
X153750625Y-66149375D01*
X153259418Y-65821161D01*
X152826256Y-65735000D01*
X152533744Y-65735000D01*
X152100582Y-65821161D01*
X151609375Y-66149375D01*
X151396157Y-66468478D01*
X151335183Y-66338642D01*
X150906924Y-65948355D01*
X150496890Y-65778524D01*
X150267000Y-65899845D01*
X150267000Y-67093000D01*
X150287000Y-67093000D01*
X150287000Y-67347000D01*
X150267000Y-67347000D01*
X150267000Y-67367000D01*
X150013000Y-67367000D01*
X150013000Y-67347000D01*
X149993000Y-67347000D01*
X149993000Y-67093000D01*
X150013000Y-67093000D01*
X150013000Y-65899845D01*
X149783110Y-65778524D01*
X149373076Y-65948355D01*
X148944817Y-66338642D01*
X148883843Y-66468478D01*
X148670625Y-66149375D01*
X148179418Y-65821161D01*
X147746256Y-65735000D01*
X147453744Y-65735000D01*
X147020582Y-65821161D01*
X146529375Y-66149375D01*
X146330000Y-66447761D01*
X146130625Y-66149375D01*
X145639418Y-65821161D01*
X145206256Y-65735000D01*
X144913744Y-65735000D01*
X144480582Y-65821161D01*
X143989375Y-66149375D01*
X143790000Y-66447761D01*
X143590625Y-66149375D01*
X143099418Y-65821161D01*
X142666256Y-65735000D01*
X142373744Y-65735000D01*
X141940582Y-65821161D01*
X141449375Y-66149375D01*
X141236157Y-66468478D01*
X141175183Y-66338642D01*
X140746924Y-65948355D01*
X140336890Y-65778524D01*
X140107000Y-65899845D01*
X140107000Y-67093000D01*
X140127000Y-67093000D01*
X140127000Y-67347000D01*
X140107000Y-67347000D01*
X140107000Y-67367000D01*
X139853000Y-67367000D01*
X139853000Y-67347000D01*
X139833000Y-67347000D01*
X139833000Y-67093000D01*
X139853000Y-67093000D01*
X139853000Y-65899845D01*
X139623110Y-65778524D01*
X139213076Y-65948355D01*
X138784817Y-66338642D01*
X138723843Y-66468478D01*
X138510625Y-66149375D01*
X138019418Y-65821161D01*
X137586256Y-65735000D01*
X137293744Y-65735000D01*
X136860582Y-65821161D01*
X136369375Y-66149375D01*
X136170000Y-66447761D01*
X135970625Y-66149375D01*
X135479418Y-65821161D01*
X135046256Y-65735000D01*
X134753744Y-65735000D01*
X134320582Y-65821161D01*
X133829375Y-66149375D01*
X133501161Y-66640582D01*
X133385908Y-67220000D01*
X133501161Y-67799418D01*
X133829375Y-68290625D01*
X133847619Y-68302816D01*
X133802235Y-68311843D01*
X133592191Y-68452191D01*
X133451843Y-68662235D01*
X133402560Y-68910000D01*
X133402560Y-70610000D01*
X133451843Y-70857765D01*
X133592191Y-71067809D01*
X133802235Y-71208157D01*
X134050000Y-71257440D01*
X135750000Y-71257440D01*
X135997765Y-71208157D01*
X136207809Y-71067809D01*
X136348157Y-70857765D01*
X136357184Y-70812381D01*
X136369375Y-70830625D01*
X136860582Y-71158839D01*
X137293744Y-71245000D01*
X137586256Y-71245000D01*
X138019418Y-71158839D01*
X138510625Y-70830625D01*
X138710000Y-70532239D01*
X138909375Y-70830625D01*
X139400582Y-71158839D01*
X139833744Y-71245000D01*
X140126256Y-71245000D01*
X140559418Y-71158839D01*
X141050625Y-70830625D01*
X141250000Y-70532239D01*
X141449375Y-70830625D01*
X141685000Y-70988065D01*
X141685001Y-92907562D01*
X141668643Y-92989800D01*
X141733448Y-93315600D01*
X141733449Y-93315601D01*
X141918000Y-93591801D01*
X141987718Y-93638385D01*
X151399615Y-103050283D01*
X151446199Y-103120001D01*
X151722399Y-103304552D01*
X151965963Y-103353000D01*
X152048200Y-103369358D01*
X152130437Y-103353000D01*
X165905733Y-103353000D01*
X167295311Y-104742578D01*
X167233076Y-104768355D01*
X166804817Y-105158642D01*
X166743843Y-105288478D01*
X166530625Y-104969375D01*
X166039418Y-104641161D01*
X165606256Y-104555000D01*
X165313744Y-104555000D01*
X165113100Y-104594910D01*
X165113100Y-104557526D01*
X164955531Y-104177120D01*
X164664380Y-103885969D01*
X164283974Y-103728400D01*
X163872226Y-103728400D01*
X163491820Y-103885969D01*
X163449389Y-103928400D01*
X157392332Y-103928400D01*
X157310099Y-103912043D01*
X157227866Y-103928400D01*
X157227863Y-103928400D01*
X156984299Y-103976848D01*
X156708099Y-104161399D01*
X156661516Y-104231115D01*
X156102448Y-104790185D01*
X155879418Y-104641161D01*
X155446256Y-104555000D01*
X155153744Y-104555000D01*
X154720582Y-104641161D01*
X154229375Y-104969375D01*
X154078975Y-105194465D01*
X154049700Y-105188642D01*
X153985648Y-105201383D01*
X153830625Y-104969375D01*
X153339418Y-104641161D01*
X152906256Y-104555000D01*
X152613744Y-104555000D01*
X152180582Y-104641161D01*
X151689375Y-104969375D01*
X151538975Y-105194465D01*
X151509700Y-105188642D01*
X151445648Y-105201383D01*
X151290625Y-104969375D01*
X150799418Y-104641161D01*
X150366256Y-104555000D01*
X150073744Y-104555000D01*
X149640582Y-104641161D01*
X149149375Y-104969375D01*
X148998975Y-105194465D01*
X148969700Y-105188642D01*
X148905648Y-105201383D01*
X148750625Y-104969375D01*
X148259418Y-104641161D01*
X147826256Y-104555000D01*
X147533744Y-104555000D01*
X147168983Y-104627555D01*
X147031701Y-104422099D01*
X146961983Y-104375515D01*
X140074187Y-97487720D01*
X140027601Y-97417999D01*
X139751401Y-97233448D01*
X139507837Y-97185000D01*
X139507833Y-97185000D01*
X139425600Y-97168643D01*
X139343367Y-97185000D01*
X125008500Y-97185000D01*
X125008500Y-87241632D01*
X125015786Y-87205000D01*
X125374950Y-87205000D01*
X126067767Y-86918026D01*
X126598026Y-86387767D01*
X126885000Y-85694950D01*
X126885000Y-84945050D01*
X126598026Y-84252233D01*
X126067767Y-83721974D01*
X125374950Y-83435000D01*
X124625050Y-83435000D01*
X123932233Y-83721974D01*
X123401974Y-84252233D01*
X123122328Y-84927359D01*
X120835000Y-82640033D01*
X120835000Y-81653320D01*
X121346285Y-81653320D01*
X121475533Y-81946123D01*
X122175806Y-82214388D01*
X122925435Y-82194250D01*
X123524467Y-81946123D01*
X123653715Y-81653320D01*
X122500000Y-80499605D01*
X121346285Y-81653320D01*
X120835000Y-81653320D01*
X120835000Y-81250610D01*
X120873877Y-81344467D01*
X121166680Y-81473715D01*
X122320395Y-80320000D01*
X122679605Y-80320000D01*
X123833320Y-81473715D01*
X124126123Y-81344467D01*
X124394388Y-80644194D01*
X124374250Y-79894565D01*
X124126123Y-79295533D01*
X123833320Y-79166285D01*
X122679605Y-80320000D01*
X122320395Y-80320000D01*
X122306253Y-80305858D01*
X122485858Y-80126253D01*
X122500000Y-80140395D01*
X123653715Y-78986680D01*
X123524467Y-78693877D01*
X122824194Y-78425612D01*
X122074565Y-78445750D01*
X121720340Y-78592475D01*
X121885000Y-78194950D01*
X121885000Y-77445050D01*
X121598026Y-76752233D01*
X121067767Y-76221974D01*
X120374950Y-75935000D01*
X119625050Y-75935000D01*
X118932233Y-76221974D01*
X118401974Y-76752233D01*
X118115000Y-77445050D01*
X118115000Y-78194950D01*
X118401974Y-78887767D01*
X118932233Y-79418026D01*
X119165001Y-79514441D01*
X119165000Y-82903667D01*
X119148643Y-82985900D01*
X119165000Y-83068133D01*
X119165000Y-83068136D01*
X119213448Y-83311700D01*
X119367199Y-83541805D01*
X118932233Y-83721974D01*
X118401974Y-84252233D01*
X118115000Y-84945050D01*
X118115000Y-85694950D01*
X118401974Y-86387767D01*
X118932233Y-86918026D01*
X119625050Y-87205000D01*
X120374950Y-87205000D01*
X121067767Y-86918026D01*
X121598026Y-86387767D01*
X121780490Y-85947259D01*
X123338501Y-87505270D01*
X123338501Y-88627009D01*
X122874950Y-88435000D01*
X122125050Y-88435000D01*
X121432233Y-88721974D01*
X120901974Y-89252233D01*
X120615000Y-89945050D01*
X120615000Y-90694950D01*
X120784741Y-91104741D01*
X120374950Y-90935000D01*
X119625050Y-90935000D01*
X118932233Y-91221974D01*
X118401974Y-91752233D01*
X118115000Y-92445050D01*
X118115000Y-93194950D01*
X118211415Y-93427717D01*
X117776418Y-93862715D01*
X117706700Y-93909299D01*
X117660116Y-93979017D01*
X117522148Y-94185500D01*
X117457343Y-94511300D01*
X108185000Y-94511300D01*
X108185000Y-89945050D01*
X108415000Y-89945050D01*
X108415000Y-90694950D01*
X108701974Y-91387767D01*
X109232233Y-91918026D01*
X109925050Y-92205000D01*
X110674950Y-92205000D01*
X111367767Y-91918026D01*
X111898026Y-91387767D01*
X112185000Y-90694950D01*
X112185000Y-89945050D01*
X111898026Y-89252233D01*
X111367767Y-88721974D01*
X110674950Y-88435000D01*
X109925050Y-88435000D01*
X109232233Y-88721974D01*
X108701974Y-89252233D01*
X108415000Y-89945050D01*
X108185000Y-89945050D01*
X108185000Y-79945050D01*
X108415000Y-79945050D01*
X108415000Y-80694950D01*
X108701974Y-81387767D01*
X109232233Y-81918026D01*
X109925050Y-82205000D01*
X110674950Y-82205000D01*
X111367767Y-81918026D01*
X111898026Y-81387767D01*
X112185000Y-80694950D01*
X112185000Y-79945050D01*
X111898026Y-79252233D01*
X111367767Y-78721974D01*
X110674950Y-78435000D01*
X109925050Y-78435000D01*
X109232233Y-78721974D01*
X108701974Y-79252233D01*
X108415000Y-79945050D01*
X108185000Y-79945050D01*
X108185000Y-73702060D01*
X110347545Y-73702060D01*
X110430884Y-73955953D01*
X110995306Y-74161590D01*
X111595458Y-74135579D01*
X112029116Y-73955953D01*
X112035000Y-73938027D01*
X112035000Y-74235167D01*
X112291526Y-74854476D01*
X112765524Y-75328474D01*
X113384833Y-75585000D01*
X114055167Y-75585000D01*
X114674476Y-75328474D01*
X115148474Y-74854476D01*
X115405000Y-74235167D01*
X115405000Y-73564833D01*
X115148474Y-72945524D01*
X114674476Y-72471526D01*
X114055167Y-72215000D01*
X113384833Y-72215000D01*
X112765524Y-72471526D01*
X112735421Y-72501629D01*
X112725579Y-72274542D01*
X112545953Y-71840884D01*
X112292060Y-71757545D01*
X111409605Y-72640000D01*
X111423748Y-72654143D01*
X111244143Y-72833748D01*
X111230000Y-72819605D01*
X110347545Y-73702060D01*
X108185000Y-73702060D01*
X108185000Y-72405306D01*
X109708410Y-72405306D01*
X109734421Y-73005458D01*
X109914047Y-73439116D01*
X110167940Y-73522455D01*
X111050395Y-72640000D01*
X110167940Y-71757545D01*
X109914047Y-71840884D01*
X109708410Y-72405306D01*
X108185000Y-72405306D01*
X108185000Y-71577940D01*
X110347545Y-71577940D01*
X111230000Y-72460395D01*
X112112455Y-71577940D01*
X112029116Y-71324047D01*
X111464694Y-71118410D01*
X110864542Y-71144421D01*
X110430884Y-71324047D01*
X110347545Y-71577940D01*
X108185000Y-71577940D01*
X108185000Y-70880191D01*
X127799414Y-70880191D01*
X128105472Y-71323659D01*
X129330252Y-71833725D01*
X130656995Y-71836262D01*
X131883716Y-71330883D01*
X131894528Y-71323659D01*
X132200586Y-70880191D01*
X130000000Y-68679605D01*
X127799414Y-70880191D01*
X108185000Y-70880191D01*
X108185000Y-68537095D01*
X108254603Y-67896386D01*
X108448264Y-67320936D01*
X108760977Y-66800491D01*
X109178153Y-66359339D01*
X109680328Y-66018061D01*
X110244074Y-65792579D01*
X110870431Y-65688886D01*
X111009566Y-65685000D01*
X112542050Y-65685000D01*
X112291526Y-65935524D01*
G36*
X152082518Y-107373315D02*
X147270833Y-112185000D01*
X123406077Y-112185000D01*
X123567767Y-112118026D01*
X124098026Y-111587767D01*
X124194441Y-111355000D01*
X147494467Y-111355000D01*
X147576700Y-111371357D01*
X147658933Y-111355000D01*
X147658937Y-111355000D01*
X147902501Y-111306552D01*
X148178701Y-111122001D01*
X148225287Y-111052280D01*
X151975656Y-107301912D01*
X152082518Y-107373315D01*
X152082518Y-107373315D01*
G37*
X152082518Y-107373315D02*
X147270833Y-112185000D01*
X123406077Y-112185000D01*
X123567767Y-112118026D01*
X124098026Y-111587767D01*
X124194441Y-111355000D01*
X147494467Y-111355000D01*
X147576700Y-111371357D01*
X147658933Y-111355000D01*
X147658937Y-111355000D01*
X147902501Y-111306552D01*
X148178701Y-111122001D01*
X148225287Y-111052280D01*
X151975656Y-107301912D01*
X152082518Y-107373315D01*
G36*
X119625050Y-107405000D02*
X120374950Y-107405000D01*
X120607717Y-107308585D01*
X121167015Y-107867883D01*
X121213599Y-107937601D01*
X121489799Y-108122152D01*
X121733363Y-108170600D01*
X121733366Y-108170600D01*
X121815599Y-108186957D01*
X121897832Y-108170600D01*
X148138867Y-108170600D01*
X148221100Y-108186957D01*
X148303333Y-108170600D01*
X148303337Y-108170600D01*
X148546901Y-108122152D01*
X148823101Y-107937601D01*
X148869687Y-107867881D01*
X149435656Y-107301912D01*
X149542518Y-107373315D01*
X147230833Y-109685000D01*
X124194441Y-109685000D01*
X124098026Y-109452233D01*
X123567767Y-108921974D01*
X122874950Y-108635000D01*
X122125050Y-108635000D01*
X121432233Y-108921974D01*
X120901974Y-109452233D01*
X120615000Y-110145050D01*
X120615000Y-110894950D01*
X120784741Y-111304741D01*
X120374950Y-111135000D01*
X119625050Y-111135000D01*
X119392283Y-111231415D01*
X119143700Y-110982833D01*
X119143700Y-107205618D01*
X119625050Y-107405000D01*
X119625050Y-107405000D01*
G37*
X119625050Y-107405000D02*
X120374950Y-107405000D01*
X120607717Y-107308585D01*
X121167015Y-107867883D01*
X121213599Y-107937601D01*
X121489799Y-108122152D01*
X121733363Y-108170600D01*
X121733366Y-108170600D01*
X121815599Y-108186957D01*
X121897832Y-108170600D01*
X148138867Y-108170600D01*
X148221100Y-108186957D01*
X148303333Y-108170600D01*
X148303337Y-108170600D01*
X148546901Y-108122152D01*
X148823101Y-107937601D01*
X148869687Y-107867881D01*
X149435656Y-107301912D01*
X149542518Y-107373315D01*
X147230833Y-109685000D01*
X124194441Y-109685000D01*
X124098026Y-109452233D01*
X123567767Y-108921974D01*
X122874950Y-108635000D01*
X122125050Y-108635000D01*
X121432233Y-108921974D01*
X120901974Y-109452233D01*
X120615000Y-110145050D01*
X120615000Y-110894950D01*
X120784741Y-111304741D01*
X120374950Y-111135000D01*
X119625050Y-111135000D01*
X119392283Y-111231415D01*
X119143700Y-110982833D01*
X119143700Y-107205618D01*
X119625050Y-107405000D01*
G36*
X124173500Y-98871358D02*
X124255737Y-98855000D01*
X139079733Y-98855000D01*
X144767292Y-104542560D01*
X144290000Y-104542560D01*
X144042235Y-104591843D01*
X143832191Y-104732191D01*
X143691843Y-104942235D01*
X143642560Y-105190000D01*
X143642560Y-106500600D01*
X126634132Y-106500600D01*
X126885000Y-105894950D01*
X126885000Y-105145050D01*
X126598026Y-104452233D01*
X126067767Y-103921974D01*
X125374950Y-103635000D01*
X124625050Y-103635000D01*
X123932233Y-103921974D01*
X123401974Y-104452233D01*
X123115000Y-105145050D01*
X123115000Y-105894950D01*
X123365868Y-106500600D01*
X122161468Y-106500600D01*
X121788585Y-106127717D01*
X121885000Y-105894950D01*
X121885000Y-105145050D01*
X121598026Y-104452233D01*
X121067767Y-103921974D01*
X120374950Y-103635000D01*
X119625050Y-103635000D01*
X119143700Y-103834382D01*
X119143700Y-101853320D01*
X121346285Y-101853320D01*
X121475533Y-102146123D01*
X122175806Y-102414388D01*
X122925435Y-102394250D01*
X123524467Y-102146123D01*
X123653715Y-101853320D01*
X122500000Y-100699605D01*
X121346285Y-101853320D01*
X119143700Y-101853320D01*
X119143700Y-99705618D01*
X119625050Y-99905000D01*
X120374950Y-99905000D01*
X120781532Y-99736588D01*
X120605612Y-100195806D01*
X120625750Y-100945435D01*
X120873877Y-101544467D01*
X121166680Y-101673715D01*
X122320395Y-100520000D01*
X122679605Y-100520000D01*
X123833320Y-101673715D01*
X124126123Y-101544467D01*
X124394388Y-100844194D01*
X124374250Y-100094565D01*
X124126123Y-99495533D01*
X123833320Y-99366285D01*
X122679605Y-100520000D01*
X122320395Y-100520000D01*
X122306253Y-100505858D01*
X122485858Y-100326253D01*
X122500000Y-100340395D01*
X123653715Y-99186680D01*
X123524467Y-98893877D01*
X123422983Y-98855000D01*
X124091263Y-98855000D01*
X124173500Y-98871358D01*
X124173500Y-98871358D01*
G37*
X124173500Y-98871358D02*
X124255737Y-98855000D01*
X139079733Y-98855000D01*
X144767292Y-104542560D01*
X144290000Y-104542560D01*
X144042235Y-104591843D01*
X143832191Y-104732191D01*
X143691843Y-104942235D01*
X143642560Y-105190000D01*
X143642560Y-106500600D01*
X126634132Y-106500600D01*
X126885000Y-105894950D01*
X126885000Y-105145050D01*
X126598026Y-104452233D01*
X126067767Y-103921974D01*
X125374950Y-103635000D01*
X124625050Y-103635000D01*
X123932233Y-103921974D01*
X123401974Y-104452233D01*
X123115000Y-105145050D01*
X123115000Y-105894950D01*
X123365868Y-106500600D01*
X122161468Y-106500600D01*
X121788585Y-106127717D01*
X121885000Y-105894950D01*
X121885000Y-105145050D01*
X121598026Y-104452233D01*
X121067767Y-103921974D01*
X120374950Y-103635000D01*
X119625050Y-103635000D01*
X119143700Y-103834382D01*
X119143700Y-101853320D01*
X121346285Y-101853320D01*
X121475533Y-102146123D01*
X122175806Y-102414388D01*
X122925435Y-102394250D01*
X123524467Y-102146123D01*
X123653715Y-101853320D01*
X122500000Y-100699605D01*
X121346285Y-101853320D01*
X119143700Y-101853320D01*
X119143700Y-99705618D01*
X119625050Y-99905000D01*
X120374950Y-99905000D01*
X120781532Y-99736588D01*
X120605612Y-100195806D01*
X120625750Y-100945435D01*
X120873877Y-101544467D01*
X121166680Y-101673715D01*
X122320395Y-100520000D01*
X122679605Y-100520000D01*
X123833320Y-101673715D01*
X124126123Y-101544467D01*
X124394388Y-100844194D01*
X124374250Y-100094565D01*
X124126123Y-99495533D01*
X123833320Y-99366285D01*
X122679605Y-100520000D01*
X122320395Y-100520000D01*
X122306253Y-100505858D01*
X122485858Y-100326253D01*
X122500000Y-100340395D01*
X123653715Y-99186680D01*
X123524467Y-98893877D01*
X123422983Y-98855000D01*
X124091263Y-98855000D01*
X124173500Y-98871358D01*
G36*
X123338500Y-97185000D02*
X121694441Y-97185000D01*
X121598026Y-96952233D01*
X121067767Y-96421974D01*
X120374950Y-96135000D01*
X119625050Y-96135000D01*
X119143700Y-96334382D01*
X119143700Y-94857167D01*
X119392283Y-94608585D01*
X119625050Y-94705000D01*
X120374950Y-94705000D01*
X121067767Y-94418026D01*
X121598026Y-93887767D01*
X121885000Y-93194950D01*
X121885000Y-92445050D01*
X121715259Y-92035259D01*
X122125050Y-92205000D01*
X122874950Y-92205000D01*
X123338501Y-92012991D01*
X123338500Y-97185000D01*
X123338500Y-97185000D01*
G37*
X123338500Y-97185000D02*
X121694441Y-97185000D01*
X121598026Y-96952233D01*
X121067767Y-96421974D01*
X120374950Y-96135000D01*
X119625050Y-96135000D01*
X119143700Y-96334382D01*
X119143700Y-94857167D01*
X119392283Y-94608585D01*
X119625050Y-94705000D01*
X120374950Y-94705000D01*
X121067767Y-94418026D01*
X121598026Y-93887767D01*
X121885000Y-93194950D01*
X121885000Y-92445050D01*
X121715259Y-92035259D01*
X122125050Y-92205000D01*
X122874950Y-92205000D01*
X123338501Y-92012991D01*
X123338500Y-97185000D01*
G36*
X145187000Y-69633000D02*
X145207000Y-69633000D01*
X145207000Y-69887000D01*
X145187000Y-69887000D01*
X145187000Y-71080155D01*
X145416890Y-71201476D01*
X145495000Y-71169124D01*
X145495001Y-90553831D01*
X144607718Y-91441115D01*
X144538000Y-91487699D01*
X144491416Y-91557417D01*
X144353448Y-91763900D01*
X144337802Y-91842560D01*
X144290000Y-91842560D01*
X144042235Y-91891843D01*
X143832191Y-92032191D01*
X143691843Y-92242235D01*
X143642560Y-92490000D01*
X143642560Y-92931493D01*
X143355000Y-92643933D01*
X143355000Y-70988065D01*
X143590625Y-70830625D01*
X143803843Y-70511522D01*
X143864817Y-70641358D01*
X144293076Y-71031645D01*
X144703110Y-71201476D01*
X144933000Y-71080155D01*
X144933000Y-69887000D01*
X144913000Y-69887000D01*
X144913000Y-69633000D01*
X144933000Y-69633000D01*
X144933000Y-69613000D01*
X145187000Y-69613000D01*
X145187000Y-69633000D01*
X145187000Y-69633000D01*
G37*
X145187000Y-69633000D02*
X145207000Y-69633000D01*
X145207000Y-69887000D01*
X145187000Y-69887000D01*
X145187000Y-71080155D01*
X145416890Y-71201476D01*
X145495000Y-71169124D01*
X145495001Y-90553831D01*
X144607718Y-91441115D01*
X144538000Y-91487699D01*
X144491416Y-91557417D01*
X144353448Y-91763900D01*
X144337802Y-91842560D01*
X144290000Y-91842560D01*
X144042235Y-91891843D01*
X143832191Y-92032191D01*
X143691843Y-92242235D01*
X143642560Y-92490000D01*
X143642560Y-92931493D01*
X143355000Y-92643933D01*
X143355000Y-70988065D01*
X143590625Y-70830625D01*
X143803843Y-70511522D01*
X143864817Y-70641358D01*
X144293076Y-71031645D01*
X144703110Y-71201476D01*
X144933000Y-71080155D01*
X144933000Y-69887000D01*
X144913000Y-69887000D01*
X144913000Y-69633000D01*
X144933000Y-69633000D01*
X144933000Y-69613000D01*
X145187000Y-69613000D01*
X145187000Y-69633000D01*
G36*
X165507000Y-69633000D02*
X165527000Y-69633000D01*
X165527000Y-69887000D01*
X165507000Y-69887000D01*
X165507000Y-71080155D01*
X165736890Y-71201476D01*
X166146924Y-71031645D01*
X166575183Y-70641358D01*
X166636157Y-70511522D01*
X166849375Y-70830625D01*
X167340582Y-71158839D01*
X167773744Y-71245000D01*
X168066256Y-71245000D01*
X168499418Y-71158839D01*
X168990625Y-70830625D01*
X169190000Y-70532239D01*
X169389375Y-70830625D01*
X169599983Y-70971349D01*
X148481669Y-92089664D01*
X148259418Y-91941161D01*
X147826256Y-91855000D01*
X147533744Y-91855000D01*
X147100582Y-91941161D01*
X146609375Y-92269375D01*
X146597184Y-92287619D01*
X146588157Y-92242235D01*
X146447809Y-92032191D01*
X146406187Y-92004380D01*
X146862282Y-91548285D01*
X146932001Y-91501701D01*
X147116552Y-91225501D01*
X147165000Y-90981937D01*
X147165000Y-90981934D01*
X147181357Y-90899701D01*
X147165000Y-90817468D01*
X147165000Y-71187565D01*
X147453744Y-71245000D01*
X147746256Y-71245000D01*
X148179418Y-71158839D01*
X148670625Y-70830625D01*
X148870000Y-70532239D01*
X149069375Y-70830625D01*
X149560582Y-71158839D01*
X149993744Y-71245000D01*
X150286256Y-71245000D01*
X150719418Y-71158839D01*
X151210625Y-70830625D01*
X151410000Y-70532239D01*
X151609375Y-70830625D01*
X152100582Y-71158839D01*
X152533744Y-71245000D01*
X152826256Y-71245000D01*
X153259418Y-71158839D01*
X153750625Y-70830625D01*
X153905648Y-70598617D01*
X153969700Y-70611358D01*
X153998975Y-70605535D01*
X154149375Y-70830625D01*
X154640582Y-71158839D01*
X155073744Y-71245000D01*
X155366256Y-71245000D01*
X155799418Y-71158839D01*
X156290625Y-70830625D01*
X156490000Y-70532239D01*
X156689375Y-70830625D01*
X157180582Y-71158839D01*
X157613744Y-71245000D01*
X157906256Y-71245000D01*
X158339418Y-71158839D01*
X158830625Y-70830625D01*
X159030000Y-70532239D01*
X159229375Y-70830625D01*
X159720582Y-71158839D01*
X160153744Y-71245000D01*
X160446256Y-71245000D01*
X160879418Y-71158839D01*
X161370625Y-70830625D01*
X161570000Y-70532239D01*
X161769375Y-70830625D01*
X162260582Y-71158839D01*
X162693744Y-71245000D01*
X162986256Y-71245000D01*
X163419418Y-71158839D01*
X163910625Y-70830625D01*
X164123843Y-70511522D01*
X164184817Y-70641358D01*
X164613076Y-71031645D01*
X165023110Y-71201476D01*
X165253000Y-71080155D01*
X165253000Y-69887000D01*
X165233000Y-69887000D01*
X165233000Y-69633000D01*
X165253000Y-69633000D01*
X165253000Y-69613000D01*
X165507000Y-69613000D01*
X165507000Y-69633000D01*
X165507000Y-69633000D01*
G37*
X165507000Y-69633000D02*
X165527000Y-69633000D01*
X165527000Y-69887000D01*
X165507000Y-69887000D01*
X165507000Y-71080155D01*
X165736890Y-71201476D01*
X166146924Y-71031645D01*
X166575183Y-70641358D01*
X166636157Y-70511522D01*
X166849375Y-70830625D01*
X167340582Y-71158839D01*
X167773744Y-71245000D01*
X168066256Y-71245000D01*
X168499418Y-71158839D01*
X168990625Y-70830625D01*
X169190000Y-70532239D01*
X169389375Y-70830625D01*
X169599983Y-70971349D01*
X148481669Y-92089664D01*
X148259418Y-91941161D01*
X147826256Y-91855000D01*
X147533744Y-91855000D01*
X147100582Y-91941161D01*
X146609375Y-92269375D01*
X146597184Y-92287619D01*
X146588157Y-92242235D01*
X146447809Y-92032191D01*
X146406187Y-92004380D01*
X146862282Y-91548285D01*
X146932001Y-91501701D01*
X147116552Y-91225501D01*
X147165000Y-90981937D01*
X147165000Y-90981934D01*
X147181357Y-90899701D01*
X147165000Y-90817468D01*
X147165000Y-71187565D01*
X147453744Y-71245000D01*
X147746256Y-71245000D01*
X148179418Y-71158839D01*
X148670625Y-70830625D01*
X148870000Y-70532239D01*
X149069375Y-70830625D01*
X149560582Y-71158839D01*
X149993744Y-71245000D01*
X150286256Y-71245000D01*
X150719418Y-71158839D01*
X151210625Y-70830625D01*
X151410000Y-70532239D01*
X151609375Y-70830625D01*
X152100582Y-71158839D01*
X152533744Y-71245000D01*
X152826256Y-71245000D01*
X153259418Y-71158839D01*
X153750625Y-70830625D01*
X153905648Y-70598617D01*
X153969700Y-70611358D01*
X153998975Y-70605535D01*
X154149375Y-70830625D01*
X154640582Y-71158839D01*
X155073744Y-71245000D01*
X155366256Y-71245000D01*
X155799418Y-71158839D01*
X156290625Y-70830625D01*
X156490000Y-70532239D01*
X156689375Y-70830625D01*
X157180582Y-71158839D01*
X157613744Y-71245000D01*
X157906256Y-71245000D01*
X158339418Y-71158839D01*
X158830625Y-70830625D01*
X159030000Y-70532239D01*
X159229375Y-70830625D01*
X159720582Y-71158839D01*
X160153744Y-71245000D01*
X160446256Y-71245000D01*
X160879418Y-71158839D01*
X161370625Y-70830625D01*
X161570000Y-70532239D01*
X161769375Y-70830625D01*
X162260582Y-71158839D01*
X162693744Y-71245000D01*
X162986256Y-71245000D01*
X163419418Y-71158839D01*
X163910625Y-70830625D01*
X164123843Y-70511522D01*
X164184817Y-70641358D01*
X164613076Y-71031645D01*
X165023110Y-71201476D01*
X165253000Y-71080155D01*
X165253000Y-69887000D01*
X165233000Y-69887000D01*
X165233000Y-69633000D01*
X165253000Y-69633000D01*
X165253000Y-69613000D01*
X165507000Y-69613000D01*
X165507000Y-69633000D01*
G36*
X169264817Y-68101358D02*
X169689786Y-68488647D01*
X169389375Y-68689375D01*
X169190000Y-68987761D01*
X168990625Y-68689375D01*
X168692239Y-68490000D01*
X168990625Y-68290625D01*
X169203843Y-67971522D01*
X169264817Y-68101358D01*
X169264817Y-68101358D01*
G37*
X169264817Y-68101358D02*
X169689786Y-68488647D01*
X169389375Y-68689375D01*
X169190000Y-68987761D01*
X168990625Y-68689375D01*
X168692239Y-68490000D01*
X168990625Y-68290625D01*
X169203843Y-67971522D01*
X169264817Y-68101358D01*
G04 #@! TD*
M02*
