G04 #@! TF.GenerationSoftware,KiCad,Pcbnew,5.0.0-rc2-dev-unknown-482fd86~64~ubuntu18.04.1*
G04 #@! TF.CreationDate,2018-05-09T13:23:50+02:00*
G04 #@! TF.ProjectId,Pi1541 Ad-on Board,5069313534312041642D6F6E20426F61,0.9*
G04 #@! TF.SameCoordinates,Original*
G04 #@! TF.FileFunction,Copper,L2,Bot,Signal*
G04 #@! TF.FilePolarity,Positive*
%FSLAX46Y46*%
G04 Gerber Fmt 4.6, Leading zero omitted, Abs format (unit mm)*
G04 Created by KiCad (PCBNEW 5.0.0-rc2-dev-unknown-482fd86~64~ubuntu18.04.1) date Wed May  9 13:23:50 2018*
%MOMM*%
%LPD*%
G01*
G04 APERTURE LIST*
%ADD10C,0.100000*%
%ADD11C,2.500000*%
%ADD12C,1.300000*%
%ADD13R,1.300000X1.300000*%
%ADD14R,1.600000X1.600000*%
%ADD15O,1.600000X1.600000*%
%ADD16C,5.400000*%
%ADD17C,1.600000*%
%ADD18R,1.850000X1.850000*%
%ADD19C,1.850000*%
%ADD20R,1.700000X1.700000*%
%ADD21O,1.700000X1.700000*%
%ADD22C,2.100000*%
%ADD23C,1.750000*%
%ADD24R,1.800000X1.800000*%
%ADD25C,1.800000*%
%ADD26C,0.800000*%
%ADD27C,0.600000*%
%ADD28C,0.400000*%
%ADD29C,0.254000*%
G04 APERTURE END LIST*
D10*
X111000000Y-121000000D02*
G75*
G02X107500000Y-117500000I0J3500000D01*
G01*
X107500000Y-68500000D02*
G75*
G02X111000000Y-65000000I3500000J0D01*
G01*
X107500000Y-68500000D02*
X107500000Y-117500000D01*
X191500000Y-117500000D02*
G75*
G02X188000000Y-121000000I-3500000J0D01*
G01*
X188000000Y-65000000D02*
G75*
G02X191500000Y-68500000I0J-3500000D01*
G01*
X191500000Y-117500000D02*
X191500000Y-68500000D01*
X111000000Y-121000000D02*
X188000000Y-121000000D01*
X111000000Y-65000000D02*
X188000000Y-65000000D01*
D11*
X125000000Y-82850000D03*
X122500000Y-77850000D03*
X122500000Y-87850000D03*
X120000000Y-75350000D03*
X120000000Y-82850000D03*
X120000000Y-90350000D03*
X110300000Y-87850000D03*
X110300000Y-77850000D03*
X110300000Y-98050000D03*
X110300000Y-108050000D03*
X120000000Y-110550000D03*
X120000000Y-103050000D03*
X120000000Y-95550000D03*
X122500000Y-108050000D03*
X122500000Y-98050000D03*
X125000000Y-103050000D03*
D12*
X129890000Y-98870000D03*
X131160000Y-100140000D03*
D13*
X131160000Y-97600000D03*
X141760000Y-97600000D03*
D12*
X141760000Y-100140000D03*
X140490000Y-98870000D03*
X151140000Y-98870000D03*
X152410000Y-100140000D03*
D13*
X152410000Y-97600000D03*
X163010000Y-97600000D03*
D12*
X163010000Y-100140000D03*
X161740000Y-98870000D03*
D14*
X141770000Y-105090000D03*
D15*
X144310000Y-105090000D03*
X146850000Y-105090000D03*
X149390000Y-105090000D03*
X151930000Y-105090000D03*
D16*
X130000000Y-68500000D03*
X188000000Y-68500000D03*
X188000000Y-117500000D03*
X130000000Y-117500000D03*
D17*
X129880000Y-93080000D03*
D15*
X137500000Y-93080000D03*
X148120000Y-93070000D03*
D17*
X140500000Y-93070000D03*
X151130000Y-93060000D03*
D15*
X158750000Y-93060000D03*
X169370000Y-93060000D03*
D17*
X161750000Y-93060000D03*
D18*
X183000000Y-103000000D03*
D19*
X178000000Y-103000000D03*
D17*
X128500000Y-105100000D03*
D15*
X136120000Y-105100000D03*
D20*
X134870000Y-69780000D03*
D21*
X134870000Y-67240000D03*
X137410000Y-69780000D03*
X137410000Y-67240000D03*
X139950000Y-69780000D03*
X139950000Y-67240000D03*
X142490000Y-69780000D03*
X142490000Y-67240000D03*
X145030000Y-69780000D03*
X145030000Y-67240000D03*
X147570000Y-69780000D03*
X147570000Y-67240000D03*
X150110000Y-69780000D03*
X150110000Y-67240000D03*
X152650000Y-69780000D03*
X152650000Y-67240000D03*
X155190000Y-69780000D03*
X155190000Y-67240000D03*
X157730000Y-69780000D03*
X157730000Y-67240000D03*
X160270000Y-69780000D03*
X160270000Y-67240000D03*
X162810000Y-69780000D03*
X162810000Y-67240000D03*
X165350000Y-69780000D03*
X165350000Y-67240000D03*
X167890000Y-69780000D03*
X167890000Y-67240000D03*
X170430000Y-69780000D03*
X170430000Y-67240000D03*
X172970000Y-69780000D03*
X172970000Y-67240000D03*
X175510000Y-69780000D03*
X175510000Y-67240000D03*
X178050000Y-69780000D03*
X178050000Y-67240000D03*
X180590000Y-69780000D03*
X180590000Y-67240000D03*
X183130000Y-69780000D03*
X183130000Y-67240000D03*
D22*
X136000000Y-115660000D03*
D23*
X137250000Y-118150000D03*
X141750000Y-118150000D03*
D22*
X143010000Y-115660000D03*
X152760000Y-115660000D03*
D23*
X151500000Y-118150000D03*
X147000000Y-118150000D03*
D22*
X145750000Y-115660000D03*
X155500000Y-115660000D03*
D23*
X156750000Y-118150000D03*
X161250000Y-118150000D03*
D22*
X162510000Y-115660000D03*
X172260000Y-115660000D03*
D23*
X171000000Y-118150000D03*
X166500000Y-118150000D03*
D22*
X165250000Y-115660000D03*
X175000000Y-115660000D03*
D23*
X176250000Y-118150000D03*
X180750000Y-118150000D03*
D22*
X182010000Y-115660000D03*
D24*
X119500000Y-117000000D03*
D25*
X116960000Y-117000000D03*
D26*
X120000000Y-106500000D03*
X135000000Y-109000000D03*
X137500000Y-76500000D03*
X131500000Y-87500000D03*
X136000000Y-97000000D03*
X134000000Y-102000000D03*
X148000000Y-80000000D03*
X121000000Y-93000000D03*
X119500000Y-100000000D03*
X147500000Y-111000000D03*
X159000000Y-107500000D03*
X157500000Y-100000000D03*
X169500000Y-79500000D03*
X175000000Y-73000000D03*
X158500000Y-86500000D03*
X155000000Y-92000000D03*
X158000000Y-73500000D03*
X150500000Y-90500000D03*
X167500000Y-111500000D03*
X146500000Y-96000000D03*
X159632500Y-78456800D03*
D27*
X123303100Y-98050000D02*
X122500000Y-98050000D01*
X130000000Y-117500000D02*
X130000000Y-104746900D01*
X130000000Y-104746900D02*
X123303100Y-98050000D01*
X122500000Y-77850000D02*
X122500000Y-85207300D01*
X122500000Y-85207300D02*
X124258900Y-86966200D01*
X124258900Y-86966200D02*
X124258900Y-97094200D01*
X124258900Y-97094200D02*
X123303100Y-98050000D01*
X141770000Y-105090000D02*
X140469700Y-105090000D01*
X134870000Y-67240000D02*
X133519600Y-68590400D01*
X133519600Y-68590400D02*
X133519600Y-83729100D01*
X133519600Y-83729100D02*
X127747300Y-89501400D01*
X127747300Y-89501400D02*
X127747300Y-98380700D01*
X127747300Y-98380700D02*
X133156300Y-103789700D01*
X133156300Y-103789700D02*
X139169400Y-103789700D01*
X139169400Y-103789700D02*
X140469700Y-105090000D01*
X158750000Y-93060000D02*
X158750000Y-91759700D01*
X155190000Y-69780000D02*
X155190000Y-88199700D01*
X155190000Y-88199700D02*
X158750000Y-91759700D01*
X137500000Y-93080000D02*
X138800300Y-93080000D01*
X141760000Y-97600000D02*
X141760000Y-96449700D01*
X141760000Y-96449700D02*
X138800300Y-93490000D01*
X138800300Y-93490000D02*
X138800300Y-93080000D01*
X153560300Y-97600000D02*
X157449700Y-93710600D01*
X157449700Y-93710600D02*
X157449700Y-93060000D01*
X169370000Y-93060000D02*
X168069700Y-93060000D01*
X168069700Y-93060000D02*
X164680000Y-96449700D01*
X164680000Y-96449700D02*
X163010000Y-96449700D01*
X163010000Y-97600000D02*
X163010000Y-96449700D01*
X163010000Y-96449700D02*
X160050300Y-93490000D01*
X160050300Y-93490000D02*
X160050300Y-93060000D01*
X158750000Y-93060000D02*
X160050300Y-93060000D01*
X152410000Y-97600000D02*
X153560300Y-97600000D01*
X158750000Y-93060000D02*
X157449700Y-93060000D01*
X137500000Y-93080000D02*
X136199700Y-93080000D01*
X136199700Y-93080000D02*
X132830000Y-96449700D01*
X132830000Y-96449700D02*
X131160000Y-96449700D01*
X131160000Y-97600000D02*
X131160000Y-96449700D01*
X134870000Y-69780000D02*
X134870000Y-86189500D01*
X134870000Y-86189500D02*
X128559900Y-92499600D01*
X128559900Y-92499600D02*
X128559900Y-93849600D01*
X128559900Y-93849600D02*
X131160000Y-96449700D01*
D28*
X139950000Y-69780000D02*
X139950000Y-83010000D01*
X139950000Y-83010000D02*
X129880000Y-93080000D01*
X147570000Y-69780000D02*
X148820300Y-69780000D01*
X148820300Y-69780000D02*
X148820300Y-69233000D01*
X148820300Y-69233000D02*
X149523700Y-68529600D01*
X149523700Y-68529600D02*
X150640400Y-68529600D01*
X150640400Y-68529600D02*
X151380000Y-69269200D01*
X151380000Y-69269200D02*
X151380000Y-92810000D01*
X151380000Y-92810000D02*
X151130000Y-93060000D01*
X140500000Y-93070000D02*
X142810400Y-95380400D01*
X142810400Y-95380400D02*
X142810400Y-98417300D01*
X142810400Y-98417300D02*
X142357700Y-98870000D01*
X142357700Y-98870000D02*
X140490000Y-98870000D01*
X147570000Y-68490300D02*
X147022900Y-68490300D01*
X147022900Y-68490300D02*
X146319700Y-69193500D01*
X146319700Y-69193500D02*
X146319700Y-87250300D01*
X146319700Y-87250300D02*
X140500000Y-93070000D01*
X147570000Y-67240000D02*
X147570000Y-68490300D01*
X144310000Y-105090000D02*
X143109700Y-105090000D01*
X143109700Y-105090000D02*
X143109700Y-104189800D01*
X143109700Y-104189800D02*
X139059900Y-100140000D01*
X139059900Y-100140000D02*
X131160000Y-100140000D01*
X122500000Y-108050000D02*
X122500000Y-101516800D01*
X122500000Y-101516800D02*
X120832000Y-99848800D01*
X120832000Y-99848800D02*
X120832000Y-97218000D01*
X120832000Y-97218000D02*
X122500000Y-95550000D01*
X122500000Y-95550000D02*
X122500000Y-87850000D01*
X153130300Y-105090000D02*
X158060000Y-105090000D01*
X158060000Y-105090000D02*
X163010000Y-100140000D01*
X151930000Y-105090000D02*
X153130300Y-105090000D01*
X120000000Y-103050000D02*
X118344800Y-101394800D01*
X118344800Y-101394800D02*
X118344800Y-84505200D01*
X118344800Y-84505200D02*
X120000000Y-82850000D01*
X146850000Y-105090000D02*
X145649700Y-105090000D01*
X145649700Y-105090000D02*
X145649700Y-104029700D01*
X145649700Y-104029700D02*
X141760000Y-100140000D01*
X116960000Y-117000000D02*
X128500000Y-105460000D01*
X128500000Y-105460000D02*
X128500000Y-105100000D01*
X175510000Y-69780000D02*
X175510000Y-71030300D01*
X175510000Y-71030300D02*
X178000000Y-73520300D01*
X178000000Y-73520300D02*
X178000000Y-103000000D01*
X176799700Y-67240000D02*
X176799700Y-67787100D01*
X176799700Y-67787100D02*
X176096500Y-68490300D01*
X176096500Y-68490300D02*
X169883500Y-68490300D01*
X169883500Y-68490300D02*
X169160000Y-69213800D01*
X169160000Y-69213800D02*
X169160000Y-70278200D01*
X169160000Y-70278200D02*
X160981400Y-78456800D01*
X160981400Y-78456800D02*
X159632500Y-78456800D01*
X178050000Y-67240000D02*
X176799700Y-67240000D01*
X166500000Y-118150000D02*
X171216900Y-113433100D01*
X171216900Y-113433100D02*
X171216900Y-91481700D01*
X171216900Y-91481700D02*
X158807900Y-79072700D01*
X158807900Y-79072700D02*
X158807900Y-77920500D01*
X158807900Y-77920500D02*
X159000000Y-77728400D01*
X159000000Y-77728400D02*
X159000000Y-66736700D01*
X159000000Y-66736700D02*
X158225700Y-65962400D01*
X158225700Y-65962400D02*
X144512700Y-65962400D01*
X144512700Y-65962400D02*
X143760000Y-66715100D01*
X143760000Y-66715100D02*
X143760000Y-67777800D01*
X143760000Y-67777800D02*
X143008100Y-68529700D01*
X143008100Y-68529700D02*
X142490000Y-68529700D01*
X142490000Y-69780000D02*
X142490000Y-68529700D01*
X150110000Y-69780000D02*
X150110000Y-71030300D01*
X137250000Y-118150000D02*
X148120000Y-107280000D01*
X148120000Y-107280000D02*
X148120000Y-97602800D01*
X148120000Y-97602800D02*
X149625000Y-96097800D01*
X149625000Y-96097800D02*
X149625000Y-71515300D01*
X149625000Y-71515300D02*
X150110000Y-71030300D01*
X152650000Y-69780000D02*
X152650000Y-94356200D01*
X152650000Y-94356200D02*
X150043500Y-96962700D01*
X150043500Y-96962700D02*
X150043500Y-101122200D01*
X150043500Y-101122200D02*
X150598400Y-101677100D01*
X150598400Y-101677100D02*
X150598400Y-114551600D01*
X150598400Y-114551600D02*
X147000000Y-118150000D01*
X152650000Y-67240000D02*
X153900300Y-67240000D01*
X156750000Y-118150000D02*
X170616500Y-104283500D01*
X170616500Y-104283500D02*
X170616500Y-92608700D01*
X170616500Y-92608700D02*
X156440400Y-78432600D01*
X156440400Y-78432600D02*
X156440400Y-69194200D01*
X156440400Y-69194200D02*
X155756200Y-68510000D01*
X155756200Y-68510000D02*
X154652200Y-68510000D01*
X154652200Y-68510000D02*
X153900300Y-67758100D01*
X153900300Y-67758100D02*
X153900300Y-67240000D01*
X170430000Y-71030300D02*
X176462300Y-77062600D01*
X176462300Y-77062600D02*
X176462300Y-117937700D01*
X176462300Y-117937700D02*
X176250000Y-118150000D01*
X170430000Y-69780000D02*
X170430000Y-71030300D01*
D29*
G36*
X127799414Y-66119809D02*
X130000000Y-68320395D01*
X132200586Y-66119809D01*
X131900504Y-65685000D01*
X143609232Y-65685000D01*
X143299402Y-65994831D01*
X143069418Y-65841161D01*
X142636256Y-65755000D01*
X142343744Y-65755000D01*
X141910582Y-65841161D01*
X141419375Y-66169375D01*
X141206157Y-66488478D01*
X141145183Y-66358642D01*
X140716924Y-65968355D01*
X140306890Y-65798524D01*
X140077000Y-65919845D01*
X140077000Y-67113000D01*
X140097000Y-67113000D01*
X140097000Y-67367000D01*
X140077000Y-67367000D01*
X140077000Y-67387000D01*
X139823000Y-67387000D01*
X139823000Y-67367000D01*
X139803000Y-67367000D01*
X139803000Y-67113000D01*
X139823000Y-67113000D01*
X139823000Y-65919845D01*
X139593110Y-65798524D01*
X139183076Y-65968355D01*
X138754817Y-66358642D01*
X138693843Y-66488478D01*
X138480625Y-66169375D01*
X137989418Y-65841161D01*
X137556256Y-65755000D01*
X137263744Y-65755000D01*
X136830582Y-65841161D01*
X136339375Y-66169375D01*
X136140000Y-66467761D01*
X135940625Y-66169375D01*
X135449418Y-65841161D01*
X135016256Y-65755000D01*
X134723744Y-65755000D01*
X134290582Y-65841161D01*
X133799375Y-66169375D01*
X133471161Y-66660582D01*
X133355908Y-67240000D01*
X133387730Y-67399981D01*
X133222017Y-67565694D01*
X132830883Y-66616284D01*
X132823659Y-66605472D01*
X132380191Y-66299414D01*
X130179605Y-68500000D01*
X132380191Y-70700586D01*
X132584600Y-70559514D01*
X132584601Y-83341809D01*
X127151272Y-88775139D01*
X127073203Y-88827303D01*
X126904056Y-89080450D01*
X126866550Y-89136582D01*
X126793983Y-89501400D01*
X126812300Y-89593486D01*
X126812301Y-98288610D01*
X126793983Y-98380700D01*
X126866550Y-98745518D01*
X126968061Y-98897440D01*
X127073204Y-99054797D01*
X127151270Y-99106959D01*
X132430040Y-104385730D01*
X132482203Y-104463797D01*
X132560269Y-104515959D01*
X132791481Y-104670450D01*
X133156299Y-104743017D01*
X133248385Y-104724700D01*
X134731539Y-104724700D01*
X134656887Y-105100000D01*
X134768260Y-105659909D01*
X135085423Y-106134577D01*
X135560091Y-106451740D01*
X135978667Y-106535000D01*
X136261333Y-106535000D01*
X136679909Y-106451740D01*
X137154577Y-106134577D01*
X137471740Y-105659909D01*
X137583113Y-105100000D01*
X137508461Y-104724700D01*
X138782111Y-104724700D01*
X139743441Y-105686031D01*
X139795603Y-105764097D01*
X139873669Y-105816259D01*
X140104881Y-105970750D01*
X140348251Y-106019159D01*
X140371843Y-106137765D01*
X140512191Y-106347809D01*
X140722235Y-106488157D01*
X140970000Y-106537440D01*
X142570000Y-106537440D01*
X142817765Y-106488157D01*
X143027809Y-106347809D01*
X143168157Y-106137765D01*
X143194785Y-106003894D01*
X143275423Y-106124577D01*
X143750091Y-106441740D01*
X144168667Y-106525000D01*
X144451333Y-106525000D01*
X144869909Y-106441740D01*
X145344577Y-106124577D01*
X145488434Y-105909280D01*
X145649700Y-105941358D01*
X145687920Y-105933755D01*
X145815423Y-106124577D01*
X146290091Y-106441740D01*
X146708667Y-106525000D01*
X146991333Y-106525000D01*
X147285000Y-106466586D01*
X147285000Y-106934131D01*
X137570705Y-116648428D01*
X137550358Y-116640000D01*
X137402950Y-116640000D01*
X137428474Y-116614476D01*
X137685000Y-115995167D01*
X137685000Y-115324833D01*
X137428474Y-114705524D01*
X136954476Y-114231526D01*
X136335167Y-113975000D01*
X135664833Y-113975000D01*
X135045524Y-114231526D01*
X134571526Y-114705524D01*
X134315000Y-115324833D01*
X134315000Y-115995167D01*
X134571526Y-116614476D01*
X135045524Y-117088474D01*
X135664833Y-117345000D01*
X135949030Y-117345000D01*
X135740000Y-117849642D01*
X135740000Y-118450358D01*
X135969884Y-119005346D01*
X136394654Y-119430116D01*
X136949642Y-119660000D01*
X137550358Y-119660000D01*
X138105346Y-119430116D01*
X138323402Y-119212060D01*
X140867545Y-119212060D01*
X140950884Y-119465953D01*
X141515306Y-119671590D01*
X142115458Y-119645579D01*
X142549116Y-119465953D01*
X142632455Y-119212060D01*
X141750000Y-118329605D01*
X140867545Y-119212060D01*
X138323402Y-119212060D01*
X138530116Y-119005346D01*
X138760000Y-118450358D01*
X138760000Y-117915306D01*
X140228410Y-117915306D01*
X140254421Y-118515458D01*
X140434047Y-118949116D01*
X140687940Y-119032455D01*
X141570395Y-118150000D01*
X140687940Y-117267545D01*
X140434047Y-117350884D01*
X140228410Y-117915306D01*
X138760000Y-117915306D01*
X138760000Y-117849642D01*
X138751572Y-117829295D01*
X141373766Y-115207102D01*
X141325000Y-115324833D01*
X141325000Y-115995167D01*
X141581526Y-116614476D01*
X141611629Y-116644579D01*
X141384542Y-116654421D01*
X140950884Y-116834047D01*
X140867545Y-117087940D01*
X141750000Y-117970395D01*
X141764143Y-117956253D01*
X141943748Y-118135858D01*
X141929605Y-118150000D01*
X142812060Y-119032455D01*
X143065953Y-118949116D01*
X143271590Y-118384694D01*
X143245579Y-117784542D01*
X143065953Y-117350884D01*
X143048027Y-117345000D01*
X143345167Y-117345000D01*
X143964476Y-117088474D01*
X144380000Y-116672950D01*
X144795524Y-117088474D01*
X145414833Y-117345000D01*
X145699030Y-117345000D01*
X145490000Y-117849642D01*
X145490000Y-118450358D01*
X145719884Y-119005346D01*
X146144654Y-119430116D01*
X146699642Y-119660000D01*
X147300358Y-119660000D01*
X147855346Y-119430116D01*
X148073402Y-119212060D01*
X150617545Y-119212060D01*
X150700884Y-119465953D01*
X151265306Y-119671590D01*
X151865458Y-119645579D01*
X152299116Y-119465953D01*
X152382455Y-119212060D01*
X151500000Y-118329605D01*
X150617545Y-119212060D01*
X148073402Y-119212060D01*
X148280116Y-119005346D01*
X148510000Y-118450358D01*
X148510000Y-117915306D01*
X149978410Y-117915306D01*
X150004421Y-118515458D01*
X150184047Y-118949116D01*
X150437940Y-119032455D01*
X151320395Y-118150000D01*
X150437940Y-117267545D01*
X150184047Y-117350884D01*
X149978410Y-117915306D01*
X148510000Y-117915306D01*
X148510000Y-117849642D01*
X148501572Y-117829295D01*
X151123766Y-115207102D01*
X151075000Y-115324833D01*
X151075000Y-115995167D01*
X151331526Y-116614476D01*
X151361629Y-116644579D01*
X151134542Y-116654421D01*
X150700884Y-116834047D01*
X150617545Y-117087940D01*
X151500000Y-117970395D01*
X151514143Y-117956253D01*
X151693748Y-118135858D01*
X151679605Y-118150000D01*
X152562060Y-119032455D01*
X152815953Y-118949116D01*
X153021590Y-118384694D01*
X152995579Y-117784542D01*
X152815953Y-117350884D01*
X152798027Y-117345000D01*
X153095167Y-117345000D01*
X153714476Y-117088474D01*
X154130000Y-116672950D01*
X154545524Y-117088474D01*
X155164833Y-117345000D01*
X155449030Y-117345000D01*
X155240000Y-117849642D01*
X155240000Y-118450358D01*
X155469884Y-119005346D01*
X155894654Y-119430116D01*
X156449642Y-119660000D01*
X157050358Y-119660000D01*
X157605346Y-119430116D01*
X157823402Y-119212060D01*
X160367545Y-119212060D01*
X160450884Y-119465953D01*
X161015306Y-119671590D01*
X161615458Y-119645579D01*
X162049116Y-119465953D01*
X162132455Y-119212060D01*
X161250000Y-118329605D01*
X160367545Y-119212060D01*
X157823402Y-119212060D01*
X158030116Y-119005346D01*
X158260000Y-118450358D01*
X158260000Y-117915306D01*
X159728410Y-117915306D01*
X159754421Y-118515458D01*
X159934047Y-118949116D01*
X160187940Y-119032455D01*
X161070395Y-118150000D01*
X160187940Y-117267545D01*
X159934047Y-117350884D01*
X159728410Y-117915306D01*
X158260000Y-117915306D01*
X158260000Y-117849642D01*
X158251572Y-117829295D01*
X160873766Y-115207102D01*
X160825000Y-115324833D01*
X160825000Y-115995167D01*
X161081526Y-116614476D01*
X161111629Y-116644579D01*
X160884542Y-116654421D01*
X160450884Y-116834047D01*
X160367545Y-117087940D01*
X161250000Y-117970395D01*
X161264143Y-117956253D01*
X161443748Y-118135858D01*
X161429605Y-118150000D01*
X162312060Y-119032455D01*
X162565953Y-118949116D01*
X162771590Y-118384694D01*
X162745579Y-117784542D01*
X162565953Y-117350884D01*
X162548027Y-117345000D01*
X162845167Y-117345000D01*
X163464476Y-117088474D01*
X163880000Y-116672950D01*
X164295524Y-117088474D01*
X164914833Y-117345000D01*
X165199030Y-117345000D01*
X164990000Y-117849642D01*
X164990000Y-118450358D01*
X165219884Y-119005346D01*
X165644654Y-119430116D01*
X166199642Y-119660000D01*
X166800358Y-119660000D01*
X167355346Y-119430116D01*
X167573402Y-119212060D01*
X170117545Y-119212060D01*
X170200884Y-119465953D01*
X170765306Y-119671590D01*
X171365458Y-119645579D01*
X171799116Y-119465953D01*
X171882455Y-119212060D01*
X171000000Y-118329605D01*
X170117545Y-119212060D01*
X167573402Y-119212060D01*
X167780116Y-119005346D01*
X168010000Y-118450358D01*
X168010000Y-117915306D01*
X169478410Y-117915306D01*
X169504421Y-118515458D01*
X169684047Y-118949116D01*
X169937940Y-119032455D01*
X170820395Y-118150000D01*
X169937940Y-117267545D01*
X169684047Y-117350884D01*
X169478410Y-117915306D01*
X168010000Y-117915306D01*
X168010000Y-117849642D01*
X168001572Y-117829295D01*
X170623766Y-115207102D01*
X170575000Y-115324833D01*
X170575000Y-115995167D01*
X170831526Y-116614476D01*
X170861629Y-116644579D01*
X170634542Y-116654421D01*
X170200884Y-116834047D01*
X170117545Y-117087940D01*
X171000000Y-117970395D01*
X171014143Y-117956253D01*
X171193748Y-118135858D01*
X171179605Y-118150000D01*
X172062060Y-119032455D01*
X172315953Y-118949116D01*
X172521590Y-118384694D01*
X172495579Y-117784542D01*
X172315953Y-117350884D01*
X172298027Y-117345000D01*
X172595167Y-117345000D01*
X173214476Y-117088474D01*
X173630000Y-116672950D01*
X174045524Y-117088474D01*
X174664833Y-117345000D01*
X174949030Y-117345000D01*
X174740000Y-117849642D01*
X174740000Y-118450358D01*
X174969884Y-119005346D01*
X175394654Y-119430116D01*
X175949642Y-119660000D01*
X176550358Y-119660000D01*
X177105346Y-119430116D01*
X177323402Y-119212060D01*
X179867545Y-119212060D01*
X179950884Y-119465953D01*
X180515306Y-119671590D01*
X181115458Y-119645579D01*
X181549116Y-119465953D01*
X181632455Y-119212060D01*
X180750000Y-118329605D01*
X179867545Y-119212060D01*
X177323402Y-119212060D01*
X177530116Y-119005346D01*
X177760000Y-118450358D01*
X177760000Y-117915306D01*
X179228410Y-117915306D01*
X179254421Y-118515458D01*
X179434047Y-118949116D01*
X179687940Y-119032455D01*
X180570395Y-118150000D01*
X179687940Y-117267545D01*
X179434047Y-117350884D01*
X179228410Y-117915306D01*
X177760000Y-117915306D01*
X177760000Y-117849642D01*
X177530116Y-117294654D01*
X177323402Y-117087940D01*
X179867545Y-117087940D01*
X180750000Y-117970395D01*
X180764143Y-117956253D01*
X180943748Y-118135858D01*
X180929605Y-118150000D01*
X181812060Y-119032455D01*
X182065953Y-118949116D01*
X182271590Y-118384694D01*
X182261722Y-118156995D01*
X184663738Y-118156995D01*
X185169117Y-119383716D01*
X185176341Y-119394528D01*
X185619809Y-119700586D01*
X187820395Y-117500000D01*
X185619809Y-115299414D01*
X185176341Y-115605472D01*
X184666275Y-116830252D01*
X184663738Y-118156995D01*
X182261722Y-118156995D01*
X182245579Y-117784542D01*
X182065953Y-117350884D01*
X182048027Y-117345000D01*
X182345167Y-117345000D01*
X182964476Y-117088474D01*
X183438474Y-116614476D01*
X183695000Y-115995167D01*
X183695000Y-115324833D01*
X183610077Y-115119809D01*
X185799414Y-115119809D01*
X188000000Y-117320395D01*
X190200586Y-115119809D01*
X189894528Y-114676341D01*
X188669748Y-114166275D01*
X187343005Y-114163738D01*
X186116284Y-114669117D01*
X186105472Y-114676341D01*
X185799414Y-115119809D01*
X183610077Y-115119809D01*
X183438474Y-114705524D01*
X182964476Y-114231526D01*
X182345167Y-113975000D01*
X181674833Y-113975000D01*
X181055524Y-114231526D01*
X180581526Y-114705524D01*
X180325000Y-115324833D01*
X180325000Y-115995167D01*
X180581526Y-116614476D01*
X180611629Y-116644579D01*
X180384542Y-116654421D01*
X179950884Y-116834047D01*
X179867545Y-117087940D01*
X177323402Y-117087940D01*
X177297300Y-117061838D01*
X177297300Y-104397464D01*
X177689697Y-104560000D01*
X178310303Y-104560000D01*
X178883669Y-104322504D01*
X179322504Y-103883669D01*
X179560000Y-103310303D01*
X179560000Y-103285750D01*
X181440000Y-103285750D01*
X181440000Y-104051309D01*
X181536673Y-104284698D01*
X181715301Y-104463327D01*
X181948690Y-104560000D01*
X182714250Y-104560000D01*
X182873000Y-104401250D01*
X182873000Y-103127000D01*
X183127000Y-103127000D01*
X183127000Y-104401250D01*
X183285750Y-104560000D01*
X184051310Y-104560000D01*
X184284699Y-104463327D01*
X184463327Y-104284698D01*
X184560000Y-104051309D01*
X184560000Y-103285750D01*
X184401250Y-103127000D01*
X183127000Y-103127000D01*
X182873000Y-103127000D01*
X181598750Y-103127000D01*
X181440000Y-103285750D01*
X179560000Y-103285750D01*
X179560000Y-102689697D01*
X179322504Y-102116331D01*
X179154864Y-101948691D01*
X181440000Y-101948691D01*
X181440000Y-102714250D01*
X181598750Y-102873000D01*
X182873000Y-102873000D01*
X182873000Y-101598750D01*
X183127000Y-101598750D01*
X183127000Y-102873000D01*
X184401250Y-102873000D01*
X184560000Y-102714250D01*
X184560000Y-101948691D01*
X184463327Y-101715302D01*
X184284699Y-101536673D01*
X184051310Y-101440000D01*
X183285750Y-101440000D01*
X183127000Y-101598750D01*
X182873000Y-101598750D01*
X182714250Y-101440000D01*
X181948690Y-101440000D01*
X181715301Y-101536673D01*
X181536673Y-101715302D01*
X181440000Y-101948691D01*
X179154864Y-101948691D01*
X178883669Y-101677496D01*
X178835000Y-101657337D01*
X178835000Y-73602537D01*
X178851358Y-73520300D01*
X178786552Y-73194500D01*
X178786552Y-73194499D01*
X178602001Y-72918299D01*
X178532283Y-72871715D01*
X176539003Y-70878436D01*
X176580625Y-70850625D01*
X176780000Y-70552239D01*
X176979375Y-70850625D01*
X177470582Y-71178839D01*
X177903744Y-71265000D01*
X178196256Y-71265000D01*
X178629418Y-71178839D01*
X179120625Y-70850625D01*
X179320000Y-70552239D01*
X179519375Y-70850625D01*
X180010582Y-71178839D01*
X180443744Y-71265000D01*
X180736256Y-71265000D01*
X181169418Y-71178839D01*
X181660625Y-70850625D01*
X181873843Y-70531522D01*
X181934817Y-70661358D01*
X182363076Y-71051645D01*
X182773110Y-71221476D01*
X183003000Y-71100155D01*
X183003000Y-69907000D01*
X183257000Y-69907000D01*
X183257000Y-71100155D01*
X183486890Y-71221476D01*
X183896924Y-71051645D01*
X184085059Y-70880191D01*
X185799414Y-70880191D01*
X186105472Y-71323659D01*
X187330252Y-71833725D01*
X188656995Y-71836262D01*
X189883716Y-71330883D01*
X189894528Y-71323659D01*
X190200586Y-70880191D01*
X188000000Y-68679605D01*
X185799414Y-70880191D01*
X184085059Y-70880191D01*
X184325183Y-70661358D01*
X184571486Y-70136892D01*
X184450819Y-69907000D01*
X183257000Y-69907000D01*
X183003000Y-69907000D01*
X182983000Y-69907000D01*
X182983000Y-69653000D01*
X183003000Y-69653000D01*
X183003000Y-69633000D01*
X183257000Y-69633000D01*
X183257000Y-69653000D01*
X184450819Y-69653000D01*
X184571486Y-69423108D01*
X184446513Y-69156995D01*
X184663738Y-69156995D01*
X185169117Y-70383716D01*
X185176341Y-70394528D01*
X185619809Y-70700586D01*
X187820395Y-68500000D01*
X185619809Y-66299414D01*
X185176341Y-66605472D01*
X184666275Y-67830252D01*
X184663738Y-69156995D01*
X184446513Y-69156995D01*
X184325183Y-68898642D01*
X183900214Y-68511353D01*
X184200625Y-68310625D01*
X184528839Y-67819418D01*
X184644092Y-67240000D01*
X184528839Y-66660582D01*
X184200625Y-66169375D01*
X183709418Y-65841161D01*
X183276256Y-65755000D01*
X182983744Y-65755000D01*
X182550582Y-65841161D01*
X182059375Y-66169375D01*
X181860000Y-66467761D01*
X181660625Y-66169375D01*
X181169418Y-65841161D01*
X180736256Y-65755000D01*
X180443744Y-65755000D01*
X180010582Y-65841161D01*
X179519375Y-66169375D01*
X179320000Y-66467761D01*
X179120625Y-66169375D01*
X178629418Y-65841161D01*
X178196256Y-65755000D01*
X177903744Y-65755000D01*
X177470582Y-65841161D01*
X176979375Y-66169375D01*
X176828975Y-66394465D01*
X176799700Y-66388642D01*
X176726143Y-66403273D01*
X176705183Y-66358642D01*
X176276924Y-65968355D01*
X175866890Y-65798524D01*
X175637000Y-65919845D01*
X175637000Y-67113000D01*
X175657000Y-67113000D01*
X175657000Y-67367000D01*
X175637000Y-67367000D01*
X175637000Y-67387000D01*
X175383000Y-67387000D01*
X175383000Y-67367000D01*
X175363000Y-67367000D01*
X175363000Y-67113000D01*
X175383000Y-67113000D01*
X175383000Y-65919845D01*
X175153110Y-65798524D01*
X174743076Y-65968355D01*
X174314817Y-66358642D01*
X174253843Y-66488478D01*
X174040625Y-66169375D01*
X173549418Y-65841161D01*
X173116256Y-65755000D01*
X172823744Y-65755000D01*
X172390582Y-65841161D01*
X171899375Y-66169375D01*
X171686157Y-66488478D01*
X171625183Y-66358642D01*
X171196924Y-65968355D01*
X170786890Y-65798524D01*
X170557000Y-65919845D01*
X170557000Y-67113000D01*
X170577000Y-67113000D01*
X170577000Y-67367000D01*
X170557000Y-67367000D01*
X170557000Y-67387000D01*
X170303000Y-67387000D01*
X170303000Y-67367000D01*
X170283000Y-67367000D01*
X170283000Y-67113000D01*
X170303000Y-67113000D01*
X170303000Y-65919845D01*
X170073110Y-65798524D01*
X169663076Y-65968355D01*
X169234817Y-66358642D01*
X169173843Y-66488478D01*
X168960625Y-66169375D01*
X168469418Y-65841161D01*
X168036256Y-65755000D01*
X167743744Y-65755000D01*
X167310582Y-65841161D01*
X166819375Y-66169375D01*
X166620000Y-66467761D01*
X166420625Y-66169375D01*
X165929418Y-65841161D01*
X165496256Y-65755000D01*
X165203744Y-65755000D01*
X164770582Y-65841161D01*
X164279375Y-66169375D01*
X164080000Y-66467761D01*
X163880625Y-66169375D01*
X163389418Y-65841161D01*
X162956256Y-65755000D01*
X162663744Y-65755000D01*
X162230582Y-65841161D01*
X161739375Y-66169375D01*
X161540000Y-66467761D01*
X161340625Y-66169375D01*
X160849418Y-65841161D01*
X160416256Y-65755000D01*
X160123744Y-65755000D01*
X159690582Y-65841161D01*
X159447650Y-66003483D01*
X159129167Y-65685000D01*
X186099496Y-65685000D01*
X185799414Y-66119809D01*
X188000000Y-68320395D01*
X188014143Y-68306253D01*
X188193748Y-68485858D01*
X188179605Y-68500000D01*
X190380191Y-70700586D01*
X190815001Y-70400503D01*
X190815000Y-115599496D01*
X190380191Y-115299414D01*
X188179605Y-117500000D01*
X188193748Y-117514143D01*
X188014143Y-117693748D01*
X188000000Y-117679605D01*
X185799414Y-119880191D01*
X186099496Y-120315000D01*
X131900504Y-120315000D01*
X132200586Y-119880191D01*
X130000000Y-117679605D01*
X127799414Y-119880191D01*
X128099496Y-120315000D01*
X111037095Y-120315000D01*
X110396386Y-120245397D01*
X109820936Y-120051736D01*
X109300490Y-119739021D01*
X108859337Y-119321844D01*
X108518062Y-118819672D01*
X108292579Y-118255925D01*
X108188886Y-117629568D01*
X108185000Y-117490434D01*
X108185000Y-116694670D01*
X115425000Y-116694670D01*
X115425000Y-117305330D01*
X115658690Y-117869507D01*
X116090493Y-118301310D01*
X116654670Y-118535000D01*
X117265330Y-118535000D01*
X117829507Y-118301310D01*
X118005861Y-118124956D01*
X118061673Y-118259699D01*
X118240302Y-118438327D01*
X118473691Y-118535000D01*
X119214250Y-118535000D01*
X119373000Y-118376250D01*
X119373000Y-117127000D01*
X119627000Y-117127000D01*
X119627000Y-118376250D01*
X119785750Y-118535000D01*
X120526309Y-118535000D01*
X120759698Y-118438327D01*
X120938327Y-118259699D01*
X120980868Y-118156995D01*
X126663738Y-118156995D01*
X127169117Y-119383716D01*
X127176341Y-119394528D01*
X127619809Y-119700586D01*
X129820395Y-117500000D01*
X130179605Y-117500000D01*
X132380191Y-119700586D01*
X132823659Y-119394528D01*
X133333725Y-118169748D01*
X133336262Y-116843005D01*
X132830883Y-115616284D01*
X132823659Y-115605472D01*
X132380191Y-115299414D01*
X130179605Y-117500000D01*
X129820395Y-117500000D01*
X127619809Y-115299414D01*
X127176341Y-115605472D01*
X126666275Y-116830252D01*
X126663738Y-118156995D01*
X120980868Y-118156995D01*
X121035000Y-118026310D01*
X121035000Y-117285750D01*
X120876250Y-117127000D01*
X119627000Y-117127000D01*
X119373000Y-117127000D01*
X119353000Y-117127000D01*
X119353000Y-116873000D01*
X119373000Y-116873000D01*
X119373000Y-116853000D01*
X119627000Y-116853000D01*
X119627000Y-116873000D01*
X120876250Y-116873000D01*
X121035000Y-116714250D01*
X121035000Y-115973690D01*
X120938327Y-115740301D01*
X120759698Y-115561673D01*
X120526309Y-115465000D01*
X119785750Y-115465000D01*
X119627002Y-115623748D01*
X119627002Y-115513865D01*
X120021058Y-115119809D01*
X127799414Y-115119809D01*
X130000000Y-117320395D01*
X132200586Y-115119809D01*
X131894528Y-114676341D01*
X130669748Y-114166275D01*
X129343005Y-114163738D01*
X128116284Y-114669117D01*
X128105472Y-114676341D01*
X127799414Y-115119809D01*
X120021058Y-115119809D01*
X128605868Y-106535000D01*
X128785439Y-106535000D01*
X129312862Y-106316534D01*
X129716534Y-105912862D01*
X129935000Y-105385439D01*
X129935000Y-104814561D01*
X129716534Y-104287138D01*
X129312862Y-103883466D01*
X128785439Y-103665000D01*
X128214561Y-103665000D01*
X127687138Y-103883466D01*
X127283466Y-104287138D01*
X127065000Y-104814561D01*
X127065000Y-105385439D01*
X127161272Y-105617860D01*
X124385000Y-108394132D01*
X124385000Y-107675050D01*
X124098026Y-106982233D01*
X123567767Y-106451974D01*
X123335000Y-106355559D01*
X123335000Y-103956077D01*
X123401974Y-104117767D01*
X123932233Y-104648026D01*
X124625050Y-104935000D01*
X125374950Y-104935000D01*
X126067767Y-104648026D01*
X126598026Y-104117767D01*
X126885000Y-103424950D01*
X126885000Y-102675050D01*
X126598026Y-101982233D01*
X126067767Y-101451974D01*
X125374950Y-101165000D01*
X124625050Y-101165000D01*
X123932233Y-101451974D01*
X123401974Y-101982233D01*
X123335000Y-102143923D01*
X123335000Y-101599032D01*
X123351357Y-101516799D01*
X123335000Y-101434566D01*
X123335000Y-101434563D01*
X123286552Y-101190999D01*
X123102001Y-100914799D01*
X123032283Y-100868215D01*
X122066633Y-99902565D01*
X122175806Y-99944388D01*
X122925435Y-99924250D01*
X123524467Y-99676123D01*
X123653715Y-99383320D01*
X122500000Y-98229605D01*
X122485858Y-98243748D01*
X122306253Y-98064143D01*
X122320395Y-98050000D01*
X122679605Y-98050000D01*
X123833320Y-99203715D01*
X124126123Y-99074467D01*
X124394388Y-98374194D01*
X124374250Y-97624565D01*
X124126123Y-97025533D01*
X123833320Y-96896285D01*
X122679605Y-98050000D01*
X122320395Y-98050000D01*
X122306253Y-98035858D01*
X122485858Y-97856253D01*
X122500000Y-97870395D01*
X123653715Y-96716680D01*
X123524467Y-96423877D01*
X123005717Y-96225151D01*
X123032283Y-96198585D01*
X123102001Y-96152001D01*
X123286552Y-95875801D01*
X123335000Y-95632237D01*
X123335000Y-95632234D01*
X123351357Y-95550001D01*
X123335000Y-95467768D01*
X123335000Y-89544441D01*
X123567767Y-89448026D01*
X124098026Y-88917767D01*
X124385000Y-88224950D01*
X124385000Y-87475050D01*
X124098026Y-86782233D01*
X123567767Y-86251974D01*
X122874950Y-85965000D01*
X122125050Y-85965000D01*
X121432233Y-86251974D01*
X120901974Y-86782233D01*
X120615000Y-87475050D01*
X120615000Y-88224950D01*
X120784741Y-88634741D01*
X120374950Y-88465000D01*
X119625050Y-88465000D01*
X119179800Y-88649428D01*
X119179800Y-84851067D01*
X119392283Y-84638585D01*
X119625050Y-84735000D01*
X120374950Y-84735000D01*
X121067767Y-84448026D01*
X121598026Y-83917767D01*
X121885000Y-83224950D01*
X121885000Y-82475050D01*
X123115000Y-82475050D01*
X123115000Y-83224950D01*
X123401974Y-83917767D01*
X123932233Y-84448026D01*
X124625050Y-84735000D01*
X125374950Y-84735000D01*
X126067767Y-84448026D01*
X126598026Y-83917767D01*
X126885000Y-83224950D01*
X126885000Y-82475050D01*
X126598026Y-81782233D01*
X126067767Y-81251974D01*
X125374950Y-80965000D01*
X124625050Y-80965000D01*
X123932233Y-81251974D01*
X123401974Y-81782233D01*
X123115000Y-82475050D01*
X121885000Y-82475050D01*
X121598026Y-81782233D01*
X121067767Y-81251974D01*
X120374950Y-80965000D01*
X119625050Y-80965000D01*
X118932233Y-81251974D01*
X118401974Y-81782233D01*
X118115000Y-82475050D01*
X118115000Y-83224950D01*
X118211415Y-83457717D01*
X117812518Y-83856615D01*
X117742800Y-83903199D01*
X117696216Y-83972917D01*
X117558248Y-84179400D01*
X117493443Y-84505200D01*
X117509801Y-84587438D01*
X117509800Y-101312567D01*
X117493443Y-101394800D01*
X117509800Y-101477033D01*
X117509800Y-101477036D01*
X117558248Y-101720600D01*
X117742799Y-101996801D01*
X117812520Y-102043387D01*
X118211415Y-102442283D01*
X118115000Y-102675050D01*
X118115000Y-103424950D01*
X118401974Y-104117767D01*
X118932233Y-104648026D01*
X119625050Y-104935000D01*
X120374950Y-104935000D01*
X121067767Y-104648026D01*
X121598026Y-104117767D01*
X121665001Y-103956077D01*
X121665000Y-106355559D01*
X121432233Y-106451974D01*
X120901974Y-106982233D01*
X120615000Y-107675050D01*
X120615000Y-108424950D01*
X120784741Y-108834741D01*
X120374950Y-108665000D01*
X119625050Y-108665000D01*
X118932233Y-108951974D01*
X118401974Y-109482233D01*
X118115000Y-110175050D01*
X118115000Y-110924950D01*
X118401974Y-111617767D01*
X118932233Y-112148026D01*
X119625050Y-112435000D01*
X120344133Y-112435000D01*
X117299839Y-115479294D01*
X117265330Y-115465000D01*
X116654670Y-115465000D01*
X116090493Y-115698690D01*
X115658690Y-116130493D01*
X115425000Y-116694670D01*
X108185000Y-116694670D01*
X108185000Y-107675050D01*
X108415000Y-107675050D01*
X108415000Y-108424950D01*
X108701974Y-109117767D01*
X109232233Y-109648026D01*
X109925050Y-109935000D01*
X110674950Y-109935000D01*
X111367767Y-109648026D01*
X111898026Y-109117767D01*
X112185000Y-108424950D01*
X112185000Y-107675050D01*
X111898026Y-106982233D01*
X111367767Y-106451974D01*
X110674950Y-106165000D01*
X109925050Y-106165000D01*
X109232233Y-106451974D01*
X108701974Y-106982233D01*
X108415000Y-107675050D01*
X108185000Y-107675050D01*
X108185000Y-97675050D01*
X108415000Y-97675050D01*
X108415000Y-98424950D01*
X108701974Y-99117767D01*
X109232233Y-99648026D01*
X109925050Y-99935000D01*
X110674950Y-99935000D01*
X111367767Y-99648026D01*
X111898026Y-99117767D01*
X112185000Y-98424950D01*
X112185000Y-97675050D01*
X111898026Y-96982233D01*
X111367767Y-96451974D01*
X110674950Y-96165000D01*
X109925050Y-96165000D01*
X109232233Y-96451974D01*
X108701974Y-96982233D01*
X108415000Y-97675050D01*
X108185000Y-97675050D01*
X108185000Y-87475050D01*
X108415000Y-87475050D01*
X108415000Y-88224950D01*
X108701974Y-88917767D01*
X109232233Y-89448026D01*
X109925050Y-89735000D01*
X110674950Y-89735000D01*
X111367767Y-89448026D01*
X111898026Y-88917767D01*
X112185000Y-88224950D01*
X112185000Y-87475050D01*
X111898026Y-86782233D01*
X111367767Y-86251974D01*
X110674950Y-85965000D01*
X109925050Y-85965000D01*
X109232233Y-86251974D01*
X108701974Y-86782233D01*
X108415000Y-87475050D01*
X108185000Y-87475050D01*
X108185000Y-77475050D01*
X108415000Y-77475050D01*
X108415000Y-78224950D01*
X108701974Y-78917767D01*
X109232233Y-79448026D01*
X109925050Y-79735000D01*
X110674950Y-79735000D01*
X111367767Y-79448026D01*
X111632473Y-79183320D01*
X121346285Y-79183320D01*
X121475533Y-79476123D01*
X122175806Y-79744388D01*
X122925435Y-79724250D01*
X123524467Y-79476123D01*
X123653715Y-79183320D01*
X122500000Y-78029605D01*
X121346285Y-79183320D01*
X111632473Y-79183320D01*
X111898026Y-78917767D01*
X112185000Y-78224950D01*
X112185000Y-77475050D01*
X111898026Y-76782233D01*
X111367767Y-76251974D01*
X110674950Y-75965000D01*
X109925050Y-75965000D01*
X109232233Y-76251974D01*
X108701974Y-76782233D01*
X108415000Y-77475050D01*
X108185000Y-77475050D01*
X108185000Y-74975050D01*
X118115000Y-74975050D01*
X118115000Y-75724950D01*
X118401974Y-76417767D01*
X118932233Y-76948026D01*
X119625050Y-77235000D01*
X120374950Y-77235000D01*
X120781532Y-77066588D01*
X120605612Y-77525806D01*
X120625750Y-78275435D01*
X120873877Y-78874467D01*
X121166680Y-79003715D01*
X122320395Y-77850000D01*
X122679605Y-77850000D01*
X123833320Y-79003715D01*
X124126123Y-78874467D01*
X124394388Y-78174194D01*
X124374250Y-77424565D01*
X124126123Y-76825533D01*
X123833320Y-76696285D01*
X122679605Y-77850000D01*
X122320395Y-77850000D01*
X122306253Y-77835858D01*
X122485858Y-77656253D01*
X122500000Y-77670395D01*
X123653715Y-76516680D01*
X123524467Y-76223877D01*
X122824194Y-75955612D01*
X122074565Y-75975750D01*
X121720340Y-76122475D01*
X121885000Y-75724950D01*
X121885000Y-74975050D01*
X121598026Y-74282233D01*
X121067767Y-73751974D01*
X120374950Y-73465000D01*
X119625050Y-73465000D01*
X118932233Y-73751974D01*
X118401974Y-74282233D01*
X118115000Y-74975050D01*
X108185000Y-74975050D01*
X108185000Y-70880191D01*
X127799414Y-70880191D01*
X128105472Y-71323659D01*
X129330252Y-71833725D01*
X130656995Y-71836262D01*
X131883716Y-71330883D01*
X131894528Y-71323659D01*
X132200586Y-70880191D01*
X130000000Y-68679605D01*
X127799414Y-70880191D01*
X108185000Y-70880191D01*
X108185000Y-69156995D01*
X126663738Y-69156995D01*
X127169117Y-70383716D01*
X127176341Y-70394528D01*
X127619809Y-70700586D01*
X129820395Y-68500000D01*
X127619809Y-66299414D01*
X127176341Y-66605472D01*
X126666275Y-67830252D01*
X126663738Y-69156995D01*
X108185000Y-69156995D01*
X108185000Y-68537095D01*
X108254603Y-67896386D01*
X108448264Y-67320936D01*
X108760977Y-66800491D01*
X109178153Y-66359339D01*
X109680328Y-66018061D01*
X110244074Y-65792579D01*
X110870431Y-65688886D01*
X111009566Y-65685000D01*
X128099496Y-65685000D01*
X127799414Y-66119809D01*
X127799414Y-66119809D01*
G37*
X127799414Y-66119809D02*
X130000000Y-68320395D01*
X132200586Y-66119809D01*
X131900504Y-65685000D01*
X143609232Y-65685000D01*
X143299402Y-65994831D01*
X143069418Y-65841161D01*
X142636256Y-65755000D01*
X142343744Y-65755000D01*
X141910582Y-65841161D01*
X141419375Y-66169375D01*
X141206157Y-66488478D01*
X141145183Y-66358642D01*
X140716924Y-65968355D01*
X140306890Y-65798524D01*
X140077000Y-65919845D01*
X140077000Y-67113000D01*
X140097000Y-67113000D01*
X140097000Y-67367000D01*
X140077000Y-67367000D01*
X140077000Y-67387000D01*
X139823000Y-67387000D01*
X139823000Y-67367000D01*
X139803000Y-67367000D01*
X139803000Y-67113000D01*
X139823000Y-67113000D01*
X139823000Y-65919845D01*
X139593110Y-65798524D01*
X139183076Y-65968355D01*
X138754817Y-66358642D01*
X138693843Y-66488478D01*
X138480625Y-66169375D01*
X137989418Y-65841161D01*
X137556256Y-65755000D01*
X137263744Y-65755000D01*
X136830582Y-65841161D01*
X136339375Y-66169375D01*
X136140000Y-66467761D01*
X135940625Y-66169375D01*
X135449418Y-65841161D01*
X135016256Y-65755000D01*
X134723744Y-65755000D01*
X134290582Y-65841161D01*
X133799375Y-66169375D01*
X133471161Y-66660582D01*
X133355908Y-67240000D01*
X133387730Y-67399981D01*
X133222017Y-67565694D01*
X132830883Y-66616284D01*
X132823659Y-66605472D01*
X132380191Y-66299414D01*
X130179605Y-68500000D01*
X132380191Y-70700586D01*
X132584600Y-70559514D01*
X132584601Y-83341809D01*
X127151272Y-88775139D01*
X127073203Y-88827303D01*
X126904056Y-89080450D01*
X126866550Y-89136582D01*
X126793983Y-89501400D01*
X126812300Y-89593486D01*
X126812301Y-98288610D01*
X126793983Y-98380700D01*
X126866550Y-98745518D01*
X126968061Y-98897440D01*
X127073204Y-99054797D01*
X127151270Y-99106959D01*
X132430040Y-104385730D01*
X132482203Y-104463797D01*
X132560269Y-104515959D01*
X132791481Y-104670450D01*
X133156299Y-104743017D01*
X133248385Y-104724700D01*
X134731539Y-104724700D01*
X134656887Y-105100000D01*
X134768260Y-105659909D01*
X135085423Y-106134577D01*
X135560091Y-106451740D01*
X135978667Y-106535000D01*
X136261333Y-106535000D01*
X136679909Y-106451740D01*
X137154577Y-106134577D01*
X137471740Y-105659909D01*
X137583113Y-105100000D01*
X137508461Y-104724700D01*
X138782111Y-104724700D01*
X139743441Y-105686031D01*
X139795603Y-105764097D01*
X139873669Y-105816259D01*
X140104881Y-105970750D01*
X140348251Y-106019159D01*
X140371843Y-106137765D01*
X140512191Y-106347809D01*
X140722235Y-106488157D01*
X140970000Y-106537440D01*
X142570000Y-106537440D01*
X142817765Y-106488157D01*
X143027809Y-106347809D01*
X143168157Y-106137765D01*
X143194785Y-106003894D01*
X143275423Y-106124577D01*
X143750091Y-106441740D01*
X144168667Y-106525000D01*
X144451333Y-106525000D01*
X144869909Y-106441740D01*
X145344577Y-106124577D01*
X145488434Y-105909280D01*
X145649700Y-105941358D01*
X145687920Y-105933755D01*
X145815423Y-106124577D01*
X146290091Y-106441740D01*
X146708667Y-106525000D01*
X146991333Y-106525000D01*
X147285000Y-106466586D01*
X147285000Y-106934131D01*
X137570705Y-116648428D01*
X137550358Y-116640000D01*
X137402950Y-116640000D01*
X137428474Y-116614476D01*
X137685000Y-115995167D01*
X137685000Y-115324833D01*
X137428474Y-114705524D01*
X136954476Y-114231526D01*
X136335167Y-113975000D01*
X135664833Y-113975000D01*
X135045524Y-114231526D01*
X134571526Y-114705524D01*
X134315000Y-115324833D01*
X134315000Y-115995167D01*
X134571526Y-116614476D01*
X135045524Y-117088474D01*
X135664833Y-117345000D01*
X135949030Y-117345000D01*
X135740000Y-117849642D01*
X135740000Y-118450358D01*
X135969884Y-119005346D01*
X136394654Y-119430116D01*
X136949642Y-119660000D01*
X137550358Y-119660000D01*
X138105346Y-119430116D01*
X138323402Y-119212060D01*
X140867545Y-119212060D01*
X140950884Y-119465953D01*
X141515306Y-119671590D01*
X142115458Y-119645579D01*
X142549116Y-119465953D01*
X142632455Y-119212060D01*
X141750000Y-118329605D01*
X140867545Y-119212060D01*
X138323402Y-119212060D01*
X138530116Y-119005346D01*
X138760000Y-118450358D01*
X138760000Y-117915306D01*
X140228410Y-117915306D01*
X140254421Y-118515458D01*
X140434047Y-118949116D01*
X140687940Y-119032455D01*
X141570395Y-118150000D01*
X140687940Y-117267545D01*
X140434047Y-117350884D01*
X140228410Y-117915306D01*
X138760000Y-117915306D01*
X138760000Y-117849642D01*
X138751572Y-117829295D01*
X141373766Y-115207102D01*
X141325000Y-115324833D01*
X141325000Y-115995167D01*
X141581526Y-116614476D01*
X141611629Y-116644579D01*
X141384542Y-116654421D01*
X140950884Y-116834047D01*
X140867545Y-117087940D01*
X141750000Y-117970395D01*
X141764143Y-117956253D01*
X141943748Y-118135858D01*
X141929605Y-118150000D01*
X142812060Y-119032455D01*
X143065953Y-118949116D01*
X143271590Y-118384694D01*
X143245579Y-117784542D01*
X143065953Y-117350884D01*
X143048027Y-117345000D01*
X143345167Y-117345000D01*
X143964476Y-117088474D01*
X144380000Y-116672950D01*
X144795524Y-117088474D01*
X145414833Y-117345000D01*
X145699030Y-117345000D01*
X145490000Y-117849642D01*
X145490000Y-118450358D01*
X145719884Y-119005346D01*
X146144654Y-119430116D01*
X146699642Y-119660000D01*
X147300358Y-119660000D01*
X147855346Y-119430116D01*
X148073402Y-119212060D01*
X150617545Y-119212060D01*
X150700884Y-119465953D01*
X151265306Y-119671590D01*
X151865458Y-119645579D01*
X152299116Y-119465953D01*
X152382455Y-119212060D01*
X151500000Y-118329605D01*
X150617545Y-119212060D01*
X148073402Y-119212060D01*
X148280116Y-119005346D01*
X148510000Y-118450358D01*
X148510000Y-117915306D01*
X149978410Y-117915306D01*
X150004421Y-118515458D01*
X150184047Y-118949116D01*
X150437940Y-119032455D01*
X151320395Y-118150000D01*
X150437940Y-117267545D01*
X150184047Y-117350884D01*
X149978410Y-117915306D01*
X148510000Y-117915306D01*
X148510000Y-117849642D01*
X148501572Y-117829295D01*
X151123766Y-115207102D01*
X151075000Y-115324833D01*
X151075000Y-115995167D01*
X151331526Y-116614476D01*
X151361629Y-116644579D01*
X151134542Y-116654421D01*
X150700884Y-116834047D01*
X150617545Y-117087940D01*
X151500000Y-117970395D01*
X151514143Y-117956253D01*
X151693748Y-118135858D01*
X151679605Y-118150000D01*
X152562060Y-119032455D01*
X152815953Y-118949116D01*
X153021590Y-118384694D01*
X152995579Y-117784542D01*
X152815953Y-117350884D01*
X152798027Y-117345000D01*
X153095167Y-117345000D01*
X153714476Y-117088474D01*
X154130000Y-116672950D01*
X154545524Y-117088474D01*
X155164833Y-117345000D01*
X155449030Y-117345000D01*
X155240000Y-117849642D01*
X155240000Y-118450358D01*
X155469884Y-119005346D01*
X155894654Y-119430116D01*
X156449642Y-119660000D01*
X157050358Y-119660000D01*
X157605346Y-119430116D01*
X157823402Y-119212060D01*
X160367545Y-119212060D01*
X160450884Y-119465953D01*
X161015306Y-119671590D01*
X161615458Y-119645579D01*
X162049116Y-119465953D01*
X162132455Y-119212060D01*
X161250000Y-118329605D01*
X160367545Y-119212060D01*
X157823402Y-119212060D01*
X158030116Y-119005346D01*
X158260000Y-118450358D01*
X158260000Y-117915306D01*
X159728410Y-117915306D01*
X159754421Y-118515458D01*
X159934047Y-118949116D01*
X160187940Y-119032455D01*
X161070395Y-118150000D01*
X160187940Y-117267545D01*
X159934047Y-117350884D01*
X159728410Y-117915306D01*
X158260000Y-117915306D01*
X158260000Y-117849642D01*
X158251572Y-117829295D01*
X160873766Y-115207102D01*
X160825000Y-115324833D01*
X160825000Y-115995167D01*
X161081526Y-116614476D01*
X161111629Y-116644579D01*
X160884542Y-116654421D01*
X160450884Y-116834047D01*
X160367545Y-117087940D01*
X161250000Y-117970395D01*
X161264143Y-117956253D01*
X161443748Y-118135858D01*
X161429605Y-118150000D01*
X162312060Y-119032455D01*
X162565953Y-118949116D01*
X162771590Y-118384694D01*
X162745579Y-117784542D01*
X162565953Y-117350884D01*
X162548027Y-117345000D01*
X162845167Y-117345000D01*
X163464476Y-117088474D01*
X163880000Y-116672950D01*
X164295524Y-117088474D01*
X164914833Y-117345000D01*
X165199030Y-117345000D01*
X164990000Y-117849642D01*
X164990000Y-118450358D01*
X165219884Y-119005346D01*
X165644654Y-119430116D01*
X166199642Y-119660000D01*
X166800358Y-119660000D01*
X167355346Y-119430116D01*
X167573402Y-119212060D01*
X170117545Y-119212060D01*
X170200884Y-119465953D01*
X170765306Y-119671590D01*
X171365458Y-119645579D01*
X171799116Y-119465953D01*
X171882455Y-119212060D01*
X171000000Y-118329605D01*
X170117545Y-119212060D01*
X167573402Y-119212060D01*
X167780116Y-119005346D01*
X168010000Y-118450358D01*
X168010000Y-117915306D01*
X169478410Y-117915306D01*
X169504421Y-118515458D01*
X169684047Y-118949116D01*
X169937940Y-119032455D01*
X170820395Y-118150000D01*
X169937940Y-117267545D01*
X169684047Y-117350884D01*
X169478410Y-117915306D01*
X168010000Y-117915306D01*
X168010000Y-117849642D01*
X168001572Y-117829295D01*
X170623766Y-115207102D01*
X170575000Y-115324833D01*
X170575000Y-115995167D01*
X170831526Y-116614476D01*
X170861629Y-116644579D01*
X170634542Y-116654421D01*
X170200884Y-116834047D01*
X170117545Y-117087940D01*
X171000000Y-117970395D01*
X171014143Y-117956253D01*
X171193748Y-118135858D01*
X171179605Y-118150000D01*
X172062060Y-119032455D01*
X172315953Y-118949116D01*
X172521590Y-118384694D01*
X172495579Y-117784542D01*
X172315953Y-117350884D01*
X172298027Y-117345000D01*
X172595167Y-117345000D01*
X173214476Y-117088474D01*
X173630000Y-116672950D01*
X174045524Y-117088474D01*
X174664833Y-117345000D01*
X174949030Y-117345000D01*
X174740000Y-117849642D01*
X174740000Y-118450358D01*
X174969884Y-119005346D01*
X175394654Y-119430116D01*
X175949642Y-119660000D01*
X176550358Y-119660000D01*
X177105346Y-119430116D01*
X177323402Y-119212060D01*
X179867545Y-119212060D01*
X179950884Y-119465953D01*
X180515306Y-119671590D01*
X181115458Y-119645579D01*
X181549116Y-119465953D01*
X181632455Y-119212060D01*
X180750000Y-118329605D01*
X179867545Y-119212060D01*
X177323402Y-119212060D01*
X177530116Y-119005346D01*
X177760000Y-118450358D01*
X177760000Y-117915306D01*
X179228410Y-117915306D01*
X179254421Y-118515458D01*
X179434047Y-118949116D01*
X179687940Y-119032455D01*
X180570395Y-118150000D01*
X179687940Y-117267545D01*
X179434047Y-117350884D01*
X179228410Y-117915306D01*
X177760000Y-117915306D01*
X177760000Y-117849642D01*
X177530116Y-117294654D01*
X177323402Y-117087940D01*
X179867545Y-117087940D01*
X180750000Y-117970395D01*
X180764143Y-117956253D01*
X180943748Y-118135858D01*
X180929605Y-118150000D01*
X181812060Y-119032455D01*
X182065953Y-118949116D01*
X182271590Y-118384694D01*
X182261722Y-118156995D01*
X184663738Y-118156995D01*
X185169117Y-119383716D01*
X185176341Y-119394528D01*
X185619809Y-119700586D01*
X187820395Y-117500000D01*
X185619809Y-115299414D01*
X185176341Y-115605472D01*
X184666275Y-116830252D01*
X184663738Y-118156995D01*
X182261722Y-118156995D01*
X182245579Y-117784542D01*
X182065953Y-117350884D01*
X182048027Y-117345000D01*
X182345167Y-117345000D01*
X182964476Y-117088474D01*
X183438474Y-116614476D01*
X183695000Y-115995167D01*
X183695000Y-115324833D01*
X183610077Y-115119809D01*
X185799414Y-115119809D01*
X188000000Y-117320395D01*
X190200586Y-115119809D01*
X189894528Y-114676341D01*
X188669748Y-114166275D01*
X187343005Y-114163738D01*
X186116284Y-114669117D01*
X186105472Y-114676341D01*
X185799414Y-115119809D01*
X183610077Y-115119809D01*
X183438474Y-114705524D01*
X182964476Y-114231526D01*
X182345167Y-113975000D01*
X181674833Y-113975000D01*
X181055524Y-114231526D01*
X180581526Y-114705524D01*
X180325000Y-115324833D01*
X180325000Y-115995167D01*
X180581526Y-116614476D01*
X180611629Y-116644579D01*
X180384542Y-116654421D01*
X179950884Y-116834047D01*
X179867545Y-117087940D01*
X177323402Y-117087940D01*
X177297300Y-117061838D01*
X177297300Y-104397464D01*
X177689697Y-104560000D01*
X178310303Y-104560000D01*
X178883669Y-104322504D01*
X179322504Y-103883669D01*
X179560000Y-103310303D01*
X179560000Y-103285750D01*
X181440000Y-103285750D01*
X181440000Y-104051309D01*
X181536673Y-104284698D01*
X181715301Y-104463327D01*
X181948690Y-104560000D01*
X182714250Y-104560000D01*
X182873000Y-104401250D01*
X182873000Y-103127000D01*
X183127000Y-103127000D01*
X183127000Y-104401250D01*
X183285750Y-104560000D01*
X184051310Y-104560000D01*
X184284699Y-104463327D01*
X184463327Y-104284698D01*
X184560000Y-104051309D01*
X184560000Y-103285750D01*
X184401250Y-103127000D01*
X183127000Y-103127000D01*
X182873000Y-103127000D01*
X181598750Y-103127000D01*
X181440000Y-103285750D01*
X179560000Y-103285750D01*
X179560000Y-102689697D01*
X179322504Y-102116331D01*
X179154864Y-101948691D01*
X181440000Y-101948691D01*
X181440000Y-102714250D01*
X181598750Y-102873000D01*
X182873000Y-102873000D01*
X182873000Y-101598750D01*
X183127000Y-101598750D01*
X183127000Y-102873000D01*
X184401250Y-102873000D01*
X184560000Y-102714250D01*
X184560000Y-101948691D01*
X184463327Y-101715302D01*
X184284699Y-101536673D01*
X184051310Y-101440000D01*
X183285750Y-101440000D01*
X183127000Y-101598750D01*
X182873000Y-101598750D01*
X182714250Y-101440000D01*
X181948690Y-101440000D01*
X181715301Y-101536673D01*
X181536673Y-101715302D01*
X181440000Y-101948691D01*
X179154864Y-101948691D01*
X178883669Y-101677496D01*
X178835000Y-101657337D01*
X178835000Y-73602537D01*
X178851358Y-73520300D01*
X178786552Y-73194500D01*
X178786552Y-73194499D01*
X178602001Y-72918299D01*
X178532283Y-72871715D01*
X176539003Y-70878436D01*
X176580625Y-70850625D01*
X176780000Y-70552239D01*
X176979375Y-70850625D01*
X177470582Y-71178839D01*
X177903744Y-71265000D01*
X178196256Y-71265000D01*
X178629418Y-71178839D01*
X179120625Y-70850625D01*
X179320000Y-70552239D01*
X179519375Y-70850625D01*
X180010582Y-71178839D01*
X180443744Y-71265000D01*
X180736256Y-71265000D01*
X181169418Y-71178839D01*
X181660625Y-70850625D01*
X181873843Y-70531522D01*
X181934817Y-70661358D01*
X182363076Y-71051645D01*
X182773110Y-71221476D01*
X183003000Y-71100155D01*
X183003000Y-69907000D01*
X183257000Y-69907000D01*
X183257000Y-71100155D01*
X183486890Y-71221476D01*
X183896924Y-71051645D01*
X184085059Y-70880191D01*
X185799414Y-70880191D01*
X186105472Y-71323659D01*
X187330252Y-71833725D01*
X188656995Y-71836262D01*
X189883716Y-71330883D01*
X189894528Y-71323659D01*
X190200586Y-70880191D01*
X188000000Y-68679605D01*
X185799414Y-70880191D01*
X184085059Y-70880191D01*
X184325183Y-70661358D01*
X184571486Y-70136892D01*
X184450819Y-69907000D01*
X183257000Y-69907000D01*
X183003000Y-69907000D01*
X182983000Y-69907000D01*
X182983000Y-69653000D01*
X183003000Y-69653000D01*
X183003000Y-69633000D01*
X183257000Y-69633000D01*
X183257000Y-69653000D01*
X184450819Y-69653000D01*
X184571486Y-69423108D01*
X184446513Y-69156995D01*
X184663738Y-69156995D01*
X185169117Y-70383716D01*
X185176341Y-70394528D01*
X185619809Y-70700586D01*
X187820395Y-68500000D01*
X185619809Y-66299414D01*
X185176341Y-66605472D01*
X184666275Y-67830252D01*
X184663738Y-69156995D01*
X184446513Y-69156995D01*
X184325183Y-68898642D01*
X183900214Y-68511353D01*
X184200625Y-68310625D01*
X184528839Y-67819418D01*
X184644092Y-67240000D01*
X184528839Y-66660582D01*
X184200625Y-66169375D01*
X183709418Y-65841161D01*
X183276256Y-65755000D01*
X182983744Y-65755000D01*
X182550582Y-65841161D01*
X182059375Y-66169375D01*
X181860000Y-66467761D01*
X181660625Y-66169375D01*
X181169418Y-65841161D01*
X180736256Y-65755000D01*
X180443744Y-65755000D01*
X180010582Y-65841161D01*
X179519375Y-66169375D01*
X179320000Y-66467761D01*
X179120625Y-66169375D01*
X178629418Y-65841161D01*
X178196256Y-65755000D01*
X177903744Y-65755000D01*
X177470582Y-65841161D01*
X176979375Y-66169375D01*
X176828975Y-66394465D01*
X176799700Y-66388642D01*
X176726143Y-66403273D01*
X176705183Y-66358642D01*
X176276924Y-65968355D01*
X175866890Y-65798524D01*
X175637000Y-65919845D01*
X175637000Y-67113000D01*
X175657000Y-67113000D01*
X175657000Y-67367000D01*
X175637000Y-67367000D01*
X175637000Y-67387000D01*
X175383000Y-67387000D01*
X175383000Y-67367000D01*
X175363000Y-67367000D01*
X175363000Y-67113000D01*
X175383000Y-67113000D01*
X175383000Y-65919845D01*
X175153110Y-65798524D01*
X174743076Y-65968355D01*
X174314817Y-66358642D01*
X174253843Y-66488478D01*
X174040625Y-66169375D01*
X173549418Y-65841161D01*
X173116256Y-65755000D01*
X172823744Y-65755000D01*
X172390582Y-65841161D01*
X171899375Y-66169375D01*
X171686157Y-66488478D01*
X171625183Y-66358642D01*
X171196924Y-65968355D01*
X170786890Y-65798524D01*
X170557000Y-65919845D01*
X170557000Y-67113000D01*
X170577000Y-67113000D01*
X170577000Y-67367000D01*
X170557000Y-67367000D01*
X170557000Y-67387000D01*
X170303000Y-67387000D01*
X170303000Y-67367000D01*
X170283000Y-67367000D01*
X170283000Y-67113000D01*
X170303000Y-67113000D01*
X170303000Y-65919845D01*
X170073110Y-65798524D01*
X169663076Y-65968355D01*
X169234817Y-66358642D01*
X169173843Y-66488478D01*
X168960625Y-66169375D01*
X168469418Y-65841161D01*
X168036256Y-65755000D01*
X167743744Y-65755000D01*
X167310582Y-65841161D01*
X166819375Y-66169375D01*
X166620000Y-66467761D01*
X166420625Y-66169375D01*
X165929418Y-65841161D01*
X165496256Y-65755000D01*
X165203744Y-65755000D01*
X164770582Y-65841161D01*
X164279375Y-66169375D01*
X164080000Y-66467761D01*
X163880625Y-66169375D01*
X163389418Y-65841161D01*
X162956256Y-65755000D01*
X162663744Y-65755000D01*
X162230582Y-65841161D01*
X161739375Y-66169375D01*
X161540000Y-66467761D01*
X161340625Y-66169375D01*
X160849418Y-65841161D01*
X160416256Y-65755000D01*
X160123744Y-65755000D01*
X159690582Y-65841161D01*
X159447650Y-66003483D01*
X159129167Y-65685000D01*
X186099496Y-65685000D01*
X185799414Y-66119809D01*
X188000000Y-68320395D01*
X188014143Y-68306253D01*
X188193748Y-68485858D01*
X188179605Y-68500000D01*
X190380191Y-70700586D01*
X190815001Y-70400503D01*
X190815000Y-115599496D01*
X190380191Y-115299414D01*
X188179605Y-117500000D01*
X188193748Y-117514143D01*
X188014143Y-117693748D01*
X188000000Y-117679605D01*
X185799414Y-119880191D01*
X186099496Y-120315000D01*
X131900504Y-120315000D01*
X132200586Y-119880191D01*
X130000000Y-117679605D01*
X127799414Y-119880191D01*
X128099496Y-120315000D01*
X111037095Y-120315000D01*
X110396386Y-120245397D01*
X109820936Y-120051736D01*
X109300490Y-119739021D01*
X108859337Y-119321844D01*
X108518062Y-118819672D01*
X108292579Y-118255925D01*
X108188886Y-117629568D01*
X108185000Y-117490434D01*
X108185000Y-116694670D01*
X115425000Y-116694670D01*
X115425000Y-117305330D01*
X115658690Y-117869507D01*
X116090493Y-118301310D01*
X116654670Y-118535000D01*
X117265330Y-118535000D01*
X117829507Y-118301310D01*
X118005861Y-118124956D01*
X118061673Y-118259699D01*
X118240302Y-118438327D01*
X118473691Y-118535000D01*
X119214250Y-118535000D01*
X119373000Y-118376250D01*
X119373000Y-117127000D01*
X119627000Y-117127000D01*
X119627000Y-118376250D01*
X119785750Y-118535000D01*
X120526309Y-118535000D01*
X120759698Y-118438327D01*
X120938327Y-118259699D01*
X120980868Y-118156995D01*
X126663738Y-118156995D01*
X127169117Y-119383716D01*
X127176341Y-119394528D01*
X127619809Y-119700586D01*
X129820395Y-117500000D01*
X130179605Y-117500000D01*
X132380191Y-119700586D01*
X132823659Y-119394528D01*
X133333725Y-118169748D01*
X133336262Y-116843005D01*
X132830883Y-115616284D01*
X132823659Y-115605472D01*
X132380191Y-115299414D01*
X130179605Y-117500000D01*
X129820395Y-117500000D01*
X127619809Y-115299414D01*
X127176341Y-115605472D01*
X126666275Y-116830252D01*
X126663738Y-118156995D01*
X120980868Y-118156995D01*
X121035000Y-118026310D01*
X121035000Y-117285750D01*
X120876250Y-117127000D01*
X119627000Y-117127000D01*
X119373000Y-117127000D01*
X119353000Y-117127000D01*
X119353000Y-116873000D01*
X119373000Y-116873000D01*
X119373000Y-116853000D01*
X119627000Y-116853000D01*
X119627000Y-116873000D01*
X120876250Y-116873000D01*
X121035000Y-116714250D01*
X121035000Y-115973690D01*
X120938327Y-115740301D01*
X120759698Y-115561673D01*
X120526309Y-115465000D01*
X119785750Y-115465000D01*
X119627002Y-115623748D01*
X119627002Y-115513865D01*
X120021058Y-115119809D01*
X127799414Y-115119809D01*
X130000000Y-117320395D01*
X132200586Y-115119809D01*
X131894528Y-114676341D01*
X130669748Y-114166275D01*
X129343005Y-114163738D01*
X128116284Y-114669117D01*
X128105472Y-114676341D01*
X127799414Y-115119809D01*
X120021058Y-115119809D01*
X128605868Y-106535000D01*
X128785439Y-106535000D01*
X129312862Y-106316534D01*
X129716534Y-105912862D01*
X129935000Y-105385439D01*
X129935000Y-104814561D01*
X129716534Y-104287138D01*
X129312862Y-103883466D01*
X128785439Y-103665000D01*
X128214561Y-103665000D01*
X127687138Y-103883466D01*
X127283466Y-104287138D01*
X127065000Y-104814561D01*
X127065000Y-105385439D01*
X127161272Y-105617860D01*
X124385000Y-108394132D01*
X124385000Y-107675050D01*
X124098026Y-106982233D01*
X123567767Y-106451974D01*
X123335000Y-106355559D01*
X123335000Y-103956077D01*
X123401974Y-104117767D01*
X123932233Y-104648026D01*
X124625050Y-104935000D01*
X125374950Y-104935000D01*
X126067767Y-104648026D01*
X126598026Y-104117767D01*
X126885000Y-103424950D01*
X126885000Y-102675050D01*
X126598026Y-101982233D01*
X126067767Y-101451974D01*
X125374950Y-101165000D01*
X124625050Y-101165000D01*
X123932233Y-101451974D01*
X123401974Y-101982233D01*
X123335000Y-102143923D01*
X123335000Y-101599032D01*
X123351357Y-101516799D01*
X123335000Y-101434566D01*
X123335000Y-101434563D01*
X123286552Y-101190999D01*
X123102001Y-100914799D01*
X123032283Y-100868215D01*
X122066633Y-99902565D01*
X122175806Y-99944388D01*
X122925435Y-99924250D01*
X123524467Y-99676123D01*
X123653715Y-99383320D01*
X122500000Y-98229605D01*
X122485858Y-98243748D01*
X122306253Y-98064143D01*
X122320395Y-98050000D01*
X122679605Y-98050000D01*
X123833320Y-99203715D01*
X124126123Y-99074467D01*
X124394388Y-98374194D01*
X124374250Y-97624565D01*
X124126123Y-97025533D01*
X123833320Y-96896285D01*
X122679605Y-98050000D01*
X122320395Y-98050000D01*
X122306253Y-98035858D01*
X122485858Y-97856253D01*
X122500000Y-97870395D01*
X123653715Y-96716680D01*
X123524467Y-96423877D01*
X123005717Y-96225151D01*
X123032283Y-96198585D01*
X123102001Y-96152001D01*
X123286552Y-95875801D01*
X123335000Y-95632237D01*
X123335000Y-95632234D01*
X123351357Y-95550001D01*
X123335000Y-95467768D01*
X123335000Y-89544441D01*
X123567767Y-89448026D01*
X124098026Y-88917767D01*
X124385000Y-88224950D01*
X124385000Y-87475050D01*
X124098026Y-86782233D01*
X123567767Y-86251974D01*
X122874950Y-85965000D01*
X122125050Y-85965000D01*
X121432233Y-86251974D01*
X120901974Y-86782233D01*
X120615000Y-87475050D01*
X120615000Y-88224950D01*
X120784741Y-88634741D01*
X120374950Y-88465000D01*
X119625050Y-88465000D01*
X119179800Y-88649428D01*
X119179800Y-84851067D01*
X119392283Y-84638585D01*
X119625050Y-84735000D01*
X120374950Y-84735000D01*
X121067767Y-84448026D01*
X121598026Y-83917767D01*
X121885000Y-83224950D01*
X121885000Y-82475050D01*
X123115000Y-82475050D01*
X123115000Y-83224950D01*
X123401974Y-83917767D01*
X123932233Y-84448026D01*
X124625050Y-84735000D01*
X125374950Y-84735000D01*
X126067767Y-84448026D01*
X126598026Y-83917767D01*
X126885000Y-83224950D01*
X126885000Y-82475050D01*
X126598026Y-81782233D01*
X126067767Y-81251974D01*
X125374950Y-80965000D01*
X124625050Y-80965000D01*
X123932233Y-81251974D01*
X123401974Y-81782233D01*
X123115000Y-82475050D01*
X121885000Y-82475050D01*
X121598026Y-81782233D01*
X121067767Y-81251974D01*
X120374950Y-80965000D01*
X119625050Y-80965000D01*
X118932233Y-81251974D01*
X118401974Y-81782233D01*
X118115000Y-82475050D01*
X118115000Y-83224950D01*
X118211415Y-83457717D01*
X117812518Y-83856615D01*
X117742800Y-83903199D01*
X117696216Y-83972917D01*
X117558248Y-84179400D01*
X117493443Y-84505200D01*
X117509801Y-84587438D01*
X117509800Y-101312567D01*
X117493443Y-101394800D01*
X117509800Y-101477033D01*
X117509800Y-101477036D01*
X117558248Y-101720600D01*
X117742799Y-101996801D01*
X117812520Y-102043387D01*
X118211415Y-102442283D01*
X118115000Y-102675050D01*
X118115000Y-103424950D01*
X118401974Y-104117767D01*
X118932233Y-104648026D01*
X119625050Y-104935000D01*
X120374950Y-104935000D01*
X121067767Y-104648026D01*
X121598026Y-104117767D01*
X121665001Y-103956077D01*
X121665000Y-106355559D01*
X121432233Y-106451974D01*
X120901974Y-106982233D01*
X120615000Y-107675050D01*
X120615000Y-108424950D01*
X120784741Y-108834741D01*
X120374950Y-108665000D01*
X119625050Y-108665000D01*
X118932233Y-108951974D01*
X118401974Y-109482233D01*
X118115000Y-110175050D01*
X118115000Y-110924950D01*
X118401974Y-111617767D01*
X118932233Y-112148026D01*
X119625050Y-112435000D01*
X120344133Y-112435000D01*
X117299839Y-115479294D01*
X117265330Y-115465000D01*
X116654670Y-115465000D01*
X116090493Y-115698690D01*
X115658690Y-116130493D01*
X115425000Y-116694670D01*
X108185000Y-116694670D01*
X108185000Y-107675050D01*
X108415000Y-107675050D01*
X108415000Y-108424950D01*
X108701974Y-109117767D01*
X109232233Y-109648026D01*
X109925050Y-109935000D01*
X110674950Y-109935000D01*
X111367767Y-109648026D01*
X111898026Y-109117767D01*
X112185000Y-108424950D01*
X112185000Y-107675050D01*
X111898026Y-106982233D01*
X111367767Y-106451974D01*
X110674950Y-106165000D01*
X109925050Y-106165000D01*
X109232233Y-106451974D01*
X108701974Y-106982233D01*
X108415000Y-107675050D01*
X108185000Y-107675050D01*
X108185000Y-97675050D01*
X108415000Y-97675050D01*
X108415000Y-98424950D01*
X108701974Y-99117767D01*
X109232233Y-99648026D01*
X109925050Y-99935000D01*
X110674950Y-99935000D01*
X111367767Y-99648026D01*
X111898026Y-99117767D01*
X112185000Y-98424950D01*
X112185000Y-97675050D01*
X111898026Y-96982233D01*
X111367767Y-96451974D01*
X110674950Y-96165000D01*
X109925050Y-96165000D01*
X109232233Y-96451974D01*
X108701974Y-96982233D01*
X108415000Y-97675050D01*
X108185000Y-97675050D01*
X108185000Y-87475050D01*
X108415000Y-87475050D01*
X108415000Y-88224950D01*
X108701974Y-88917767D01*
X109232233Y-89448026D01*
X109925050Y-89735000D01*
X110674950Y-89735000D01*
X111367767Y-89448026D01*
X111898026Y-88917767D01*
X112185000Y-88224950D01*
X112185000Y-87475050D01*
X111898026Y-86782233D01*
X111367767Y-86251974D01*
X110674950Y-85965000D01*
X109925050Y-85965000D01*
X109232233Y-86251974D01*
X108701974Y-86782233D01*
X108415000Y-87475050D01*
X108185000Y-87475050D01*
X108185000Y-77475050D01*
X108415000Y-77475050D01*
X108415000Y-78224950D01*
X108701974Y-78917767D01*
X109232233Y-79448026D01*
X109925050Y-79735000D01*
X110674950Y-79735000D01*
X111367767Y-79448026D01*
X111632473Y-79183320D01*
X121346285Y-79183320D01*
X121475533Y-79476123D01*
X122175806Y-79744388D01*
X122925435Y-79724250D01*
X123524467Y-79476123D01*
X123653715Y-79183320D01*
X122500000Y-78029605D01*
X121346285Y-79183320D01*
X111632473Y-79183320D01*
X111898026Y-78917767D01*
X112185000Y-78224950D01*
X112185000Y-77475050D01*
X111898026Y-76782233D01*
X111367767Y-76251974D01*
X110674950Y-75965000D01*
X109925050Y-75965000D01*
X109232233Y-76251974D01*
X108701974Y-76782233D01*
X108415000Y-77475050D01*
X108185000Y-77475050D01*
X108185000Y-74975050D01*
X118115000Y-74975050D01*
X118115000Y-75724950D01*
X118401974Y-76417767D01*
X118932233Y-76948026D01*
X119625050Y-77235000D01*
X120374950Y-77235000D01*
X120781532Y-77066588D01*
X120605612Y-77525806D01*
X120625750Y-78275435D01*
X120873877Y-78874467D01*
X121166680Y-79003715D01*
X122320395Y-77850000D01*
X122679605Y-77850000D01*
X123833320Y-79003715D01*
X124126123Y-78874467D01*
X124394388Y-78174194D01*
X124374250Y-77424565D01*
X124126123Y-76825533D01*
X123833320Y-76696285D01*
X122679605Y-77850000D01*
X122320395Y-77850000D01*
X122306253Y-77835858D01*
X122485858Y-77656253D01*
X122500000Y-77670395D01*
X123653715Y-76516680D01*
X123524467Y-76223877D01*
X122824194Y-75955612D01*
X122074565Y-75975750D01*
X121720340Y-76122475D01*
X121885000Y-75724950D01*
X121885000Y-74975050D01*
X121598026Y-74282233D01*
X121067767Y-73751974D01*
X120374950Y-73465000D01*
X119625050Y-73465000D01*
X118932233Y-73751974D01*
X118401974Y-74282233D01*
X118115000Y-74975050D01*
X108185000Y-74975050D01*
X108185000Y-70880191D01*
X127799414Y-70880191D01*
X128105472Y-71323659D01*
X129330252Y-71833725D01*
X130656995Y-71836262D01*
X131883716Y-71330883D01*
X131894528Y-71323659D01*
X132200586Y-70880191D01*
X130000000Y-68679605D01*
X127799414Y-70880191D01*
X108185000Y-70880191D01*
X108185000Y-69156995D01*
X126663738Y-69156995D01*
X127169117Y-70383716D01*
X127176341Y-70394528D01*
X127619809Y-70700586D01*
X129820395Y-68500000D01*
X127619809Y-66299414D01*
X127176341Y-66605472D01*
X126666275Y-67830252D01*
X126663738Y-69156995D01*
X108185000Y-69156995D01*
X108185000Y-68537095D01*
X108254603Y-67896386D01*
X108448264Y-67320936D01*
X108760977Y-66800491D01*
X109178153Y-66359339D01*
X109680328Y-66018061D01*
X110244074Y-65792579D01*
X110870431Y-65688886D01*
X111009566Y-65685000D01*
X128099496Y-65685000D01*
X127799414Y-66119809D01*
G36*
X119625050Y-97435000D02*
X119997001Y-97435000D01*
X119997000Y-99766567D01*
X119980643Y-99848800D01*
X119997000Y-99931033D01*
X119997000Y-99931036D01*
X120045448Y-100174600D01*
X120229999Y-100450801D01*
X120299720Y-100497387D01*
X121665001Y-101862669D01*
X121665001Y-102143925D01*
X121598026Y-101982233D01*
X121067767Y-101451974D01*
X120374950Y-101165000D01*
X119625050Y-101165000D01*
X119392283Y-101261415D01*
X119179800Y-101048933D01*
X119179800Y-97250572D01*
X119625050Y-97435000D01*
X119625050Y-97435000D01*
G37*
X119625050Y-97435000D02*
X119997001Y-97435000D01*
X119997000Y-99766567D01*
X119980643Y-99848800D01*
X119997000Y-99931033D01*
X119997000Y-99931036D01*
X120045448Y-100174600D01*
X120229999Y-100450801D01*
X120299720Y-100497387D01*
X121665001Y-101862669D01*
X121665001Y-102143925D01*
X121598026Y-101982233D01*
X121067767Y-101451974D01*
X120374950Y-101165000D01*
X119625050Y-101165000D01*
X119392283Y-101261415D01*
X119179800Y-101048933D01*
X119179800Y-97250572D01*
X119625050Y-97435000D01*
G36*
X121665000Y-94643923D02*
X121598026Y-94482233D01*
X121067767Y-93951974D01*
X120374950Y-93665000D01*
X119625050Y-93665000D01*
X119179800Y-93849428D01*
X119179800Y-92050572D01*
X119625050Y-92235000D01*
X120374950Y-92235000D01*
X121067767Y-91948026D01*
X121598026Y-91417767D01*
X121665001Y-91256076D01*
X121665000Y-94643923D01*
X121665000Y-94643923D01*
G37*
X121665000Y-94643923D02*
X121598026Y-94482233D01*
X121067767Y-93951974D01*
X120374950Y-93665000D01*
X119625050Y-93665000D01*
X119179800Y-93849428D01*
X119179800Y-92050572D01*
X119625050Y-92235000D01*
X120374950Y-92235000D01*
X121067767Y-91948026D01*
X121598026Y-91417767D01*
X121665001Y-91256076D01*
X121665000Y-94643923D01*
G36*
X168810091Y-94411740D02*
X169228667Y-94495000D01*
X169511333Y-94495000D01*
X169781501Y-94441260D01*
X169781500Y-103937631D01*
X157070705Y-116648428D01*
X157050358Y-116640000D01*
X156902950Y-116640000D01*
X156928474Y-116614476D01*
X157185000Y-115995167D01*
X157185000Y-115324833D01*
X156928474Y-114705524D01*
X156454476Y-114231526D01*
X155835167Y-113975000D01*
X155164833Y-113975000D01*
X154545524Y-114231526D01*
X154130000Y-114647050D01*
X153714476Y-114231526D01*
X153095167Y-113975000D01*
X152424833Y-113975000D01*
X151805524Y-114231526D01*
X151440895Y-114596155D01*
X151449757Y-114551601D01*
X151433400Y-114469368D01*
X151433400Y-106454333D01*
X151788667Y-106525000D01*
X152071333Y-106525000D01*
X152489909Y-106441740D01*
X152964577Y-106124577D01*
X153097930Y-105925000D01*
X157977767Y-105925000D01*
X158060000Y-105941357D01*
X158142233Y-105925000D01*
X158142237Y-105925000D01*
X158385801Y-105876552D01*
X158662001Y-105692001D01*
X158708587Y-105622280D01*
X162905868Y-101425000D01*
X163265602Y-101425000D01*
X163737894Y-101229371D01*
X164099371Y-100867894D01*
X164295000Y-100395602D01*
X164295000Y-99884398D01*
X164099371Y-99412106D01*
X163737894Y-99050629D01*
X163368062Y-98897440D01*
X163660000Y-98897440D01*
X163907765Y-98848157D01*
X164117809Y-98707809D01*
X164258157Y-98497765D01*
X164307440Y-98250000D01*
X164307440Y-97384700D01*
X164587914Y-97384700D01*
X164680000Y-97403017D01*
X164772086Y-97384700D01*
X165044819Y-97330450D01*
X165354097Y-97123797D01*
X165406261Y-97045728D01*
X168348605Y-94103385D01*
X168810091Y-94411740D01*
X168810091Y-94411740D01*
G37*
X168810091Y-94411740D02*
X169228667Y-94495000D01*
X169511333Y-94495000D01*
X169781501Y-94441260D01*
X169781500Y-103937631D01*
X157070705Y-116648428D01*
X157050358Y-116640000D01*
X156902950Y-116640000D01*
X156928474Y-116614476D01*
X157185000Y-115995167D01*
X157185000Y-115324833D01*
X156928474Y-114705524D01*
X156454476Y-114231526D01*
X155835167Y-113975000D01*
X155164833Y-113975000D01*
X154545524Y-114231526D01*
X154130000Y-114647050D01*
X153714476Y-114231526D01*
X153095167Y-113975000D01*
X152424833Y-113975000D01*
X151805524Y-114231526D01*
X151440895Y-114596155D01*
X151449757Y-114551601D01*
X151433400Y-114469368D01*
X151433400Y-106454333D01*
X151788667Y-106525000D01*
X152071333Y-106525000D01*
X152489909Y-106441740D01*
X152964577Y-106124577D01*
X153097930Y-105925000D01*
X157977767Y-105925000D01*
X158060000Y-105941357D01*
X158142233Y-105925000D01*
X158142237Y-105925000D01*
X158385801Y-105876552D01*
X158662001Y-105692001D01*
X158708587Y-105622280D01*
X162905868Y-101425000D01*
X163265602Y-101425000D01*
X163737894Y-101229371D01*
X164099371Y-100867894D01*
X164295000Y-100395602D01*
X164295000Y-99884398D01*
X164099371Y-99412106D01*
X163737894Y-99050629D01*
X163368062Y-98897440D01*
X163660000Y-98897440D01*
X163907765Y-98848157D01*
X164117809Y-98707809D01*
X164258157Y-98497765D01*
X164307440Y-98250000D01*
X164307440Y-97384700D01*
X164587914Y-97384700D01*
X164680000Y-97403017D01*
X164772086Y-97384700D01*
X165044819Y-97330450D01*
X165354097Y-97123797D01*
X165406261Y-97045728D01*
X168348605Y-94103385D01*
X168810091Y-94411740D01*
G36*
X149248667Y-106525000D02*
X149531333Y-106525000D01*
X149763400Y-106478839D01*
X149763401Y-114205731D01*
X147320705Y-116648428D01*
X147300358Y-116640000D01*
X147152950Y-116640000D01*
X147178474Y-116614476D01*
X147435000Y-115995167D01*
X147435000Y-115324833D01*
X147178474Y-114705524D01*
X146704476Y-114231526D01*
X146085167Y-113975000D01*
X145414833Y-113975000D01*
X144795524Y-114231526D01*
X144380000Y-114647050D01*
X143964476Y-114231526D01*
X143345167Y-113975000D01*
X142674833Y-113975000D01*
X142557102Y-114023766D01*
X148652286Y-107928583D01*
X148722001Y-107882001D01*
X148906552Y-107605801D01*
X148955000Y-107362237D01*
X148955000Y-107362234D01*
X148971357Y-107280001D01*
X148955000Y-107197768D01*
X148955000Y-106466586D01*
X149248667Y-106525000D01*
X149248667Y-106525000D01*
G37*
X149248667Y-106525000D02*
X149531333Y-106525000D01*
X149763400Y-106478839D01*
X149763401Y-114205731D01*
X147320705Y-116648428D01*
X147300358Y-116640000D01*
X147152950Y-116640000D01*
X147178474Y-116614476D01*
X147435000Y-115995167D01*
X147435000Y-115324833D01*
X147178474Y-114705524D01*
X146704476Y-114231526D01*
X146085167Y-113975000D01*
X145414833Y-113975000D01*
X144795524Y-114231526D01*
X144380000Y-114647050D01*
X143964476Y-114231526D01*
X143345167Y-113975000D01*
X142674833Y-113975000D01*
X142557102Y-114023766D01*
X148652286Y-107928583D01*
X148722001Y-107882001D01*
X148906552Y-107605801D01*
X148955000Y-107362237D01*
X148955000Y-107362234D01*
X148971357Y-107280001D01*
X148955000Y-107197768D01*
X148955000Y-106466586D01*
X149248667Y-106525000D01*
G36*
X170381900Y-113087232D02*
X166820705Y-116648428D01*
X166800358Y-116640000D01*
X166652950Y-116640000D01*
X166678474Y-116614476D01*
X166935000Y-115995167D01*
X166935000Y-115324833D01*
X166678474Y-114705524D01*
X166204476Y-114231526D01*
X165585167Y-113975000D01*
X164914833Y-113975000D01*
X164295524Y-114231526D01*
X163880000Y-114647050D01*
X163464476Y-114231526D01*
X162845167Y-113975000D01*
X162174833Y-113975000D01*
X162057102Y-114023766D01*
X170381900Y-105698969D01*
X170381900Y-113087232D01*
X170381900Y-113087232D01*
G37*
X170381900Y-113087232D02*
X166820705Y-116648428D01*
X166800358Y-116640000D01*
X166652950Y-116640000D01*
X166678474Y-116614476D01*
X166935000Y-115995167D01*
X166935000Y-115324833D01*
X166678474Y-114705524D01*
X166204476Y-114231526D01*
X165585167Y-113975000D01*
X164914833Y-113975000D01*
X164295524Y-114231526D01*
X163880000Y-114647050D01*
X163464476Y-114231526D01*
X162845167Y-113975000D01*
X162174833Y-113975000D01*
X162057102Y-114023766D01*
X170381900Y-105698969D01*
X170381900Y-113087232D01*
G36*
X169643448Y-71356100D02*
X169643449Y-71356101D01*
X169828000Y-71632301D01*
X169897718Y-71678885D01*
X175627300Y-77408469D01*
X175627301Y-114096006D01*
X175335167Y-113975000D01*
X174664833Y-113975000D01*
X174045524Y-114231526D01*
X173630000Y-114647050D01*
X173214476Y-114231526D01*
X172595167Y-113975000D01*
X171924833Y-113975000D01*
X171833889Y-114012670D01*
X172003452Y-113758901D01*
X172051900Y-113515337D01*
X172051900Y-113515336D01*
X172068258Y-113433100D01*
X172051900Y-113350863D01*
X172051900Y-91563932D01*
X172068257Y-91481699D01*
X172051900Y-91399466D01*
X172051900Y-91399463D01*
X172003452Y-91155899D01*
X171818901Y-90879699D01*
X171749183Y-90833115D01*
X160234539Y-79318472D01*
X160261211Y-79291800D01*
X160899167Y-79291800D01*
X160981400Y-79308157D01*
X161063633Y-79291800D01*
X161063637Y-79291800D01*
X161307201Y-79243352D01*
X161583401Y-79058801D01*
X161629987Y-78989080D01*
X169580323Y-71038745D01*
X169643448Y-71356100D01*
X169643448Y-71356100D01*
G37*
X169643448Y-71356100D02*
X169643449Y-71356101D01*
X169828000Y-71632301D01*
X169897718Y-71678885D01*
X175627300Y-77408469D01*
X175627301Y-114096006D01*
X175335167Y-113975000D01*
X174664833Y-113975000D01*
X174045524Y-114231526D01*
X173630000Y-114647050D01*
X173214476Y-114231526D01*
X172595167Y-113975000D01*
X171924833Y-113975000D01*
X171833889Y-114012670D01*
X172003452Y-113758901D01*
X172051900Y-113515337D01*
X172051900Y-113515336D01*
X172068258Y-113433100D01*
X172051900Y-113350863D01*
X172051900Y-91563932D01*
X172068257Y-91481699D01*
X172051900Y-91399466D01*
X172051900Y-91399463D01*
X172003452Y-91155899D01*
X171818901Y-90879699D01*
X171749183Y-90833115D01*
X160234539Y-79318472D01*
X160261211Y-79291800D01*
X160899167Y-79291800D01*
X160981400Y-79308157D01*
X161063633Y-79291800D01*
X161063637Y-79291800D01*
X161307201Y-79243352D01*
X161583401Y-79058801D01*
X161629987Y-78989080D01*
X169580323Y-71038745D01*
X169643448Y-71356100D01*
G36*
X161833301Y-96595291D02*
X161761843Y-96702235D01*
X161712560Y-96950000D01*
X161712560Y-97585000D01*
X161484398Y-97585000D01*
X161012106Y-97780629D01*
X160650629Y-98142106D01*
X160455000Y-98614398D01*
X160455000Y-99125602D01*
X160650629Y-99597894D01*
X161012106Y-99959371D01*
X161484398Y-100155000D01*
X161725000Y-100155000D01*
X161725000Y-100244132D01*
X157714133Y-104255000D01*
X153097930Y-104255000D01*
X152964577Y-104055423D01*
X152489909Y-103738260D01*
X152071333Y-103655000D01*
X151788667Y-103655000D01*
X151433400Y-103725667D01*
X151433400Y-101759332D01*
X151449757Y-101677099D01*
X151433400Y-101594864D01*
X151433400Y-101594863D01*
X151384952Y-101351299D01*
X151200401Y-101075099D01*
X151130683Y-101028515D01*
X150878500Y-100776333D01*
X150878500Y-100152557D01*
X150884398Y-100155000D01*
X151125000Y-100155000D01*
X151125000Y-100395602D01*
X151320629Y-100867894D01*
X151682106Y-101229371D01*
X152154398Y-101425000D01*
X152665602Y-101425000D01*
X153137894Y-101229371D01*
X153499371Y-100867894D01*
X153695000Y-100395602D01*
X153695000Y-99884398D01*
X153499371Y-99412106D01*
X153137894Y-99050629D01*
X152768062Y-98897440D01*
X153060000Y-98897440D01*
X153307765Y-98848157D01*
X153517809Y-98707809D01*
X153630348Y-98539384D01*
X153652386Y-98535000D01*
X153925119Y-98480750D01*
X154234397Y-98274097D01*
X154286561Y-98196028D01*
X158045731Y-94436859D01*
X158123797Y-94384697D01*
X158131767Y-94372769D01*
X158190091Y-94411740D01*
X158608667Y-94495000D01*
X158891333Y-94495000D01*
X159309909Y-94411740D01*
X159513629Y-94275618D01*
X161833301Y-96595291D01*
X161833301Y-96595291D01*
G37*
X161833301Y-96595291D02*
X161761843Y-96702235D01*
X161712560Y-96950000D01*
X161712560Y-97585000D01*
X161484398Y-97585000D01*
X161012106Y-97780629D01*
X160650629Y-98142106D01*
X160455000Y-98614398D01*
X160455000Y-99125602D01*
X160650629Y-99597894D01*
X161012106Y-99959371D01*
X161484398Y-100155000D01*
X161725000Y-100155000D01*
X161725000Y-100244132D01*
X157714133Y-104255000D01*
X153097930Y-104255000D01*
X152964577Y-104055423D01*
X152489909Y-103738260D01*
X152071333Y-103655000D01*
X151788667Y-103655000D01*
X151433400Y-103725667D01*
X151433400Y-101759332D01*
X151449757Y-101677099D01*
X151433400Y-101594864D01*
X151433400Y-101594863D01*
X151384952Y-101351299D01*
X151200401Y-101075099D01*
X151130683Y-101028515D01*
X150878500Y-100776333D01*
X150878500Y-100152557D01*
X150884398Y-100155000D01*
X151125000Y-100155000D01*
X151125000Y-100395602D01*
X151320629Y-100867894D01*
X151682106Y-101229371D01*
X152154398Y-101425000D01*
X152665602Y-101425000D01*
X153137894Y-101229371D01*
X153499371Y-100867894D01*
X153695000Y-100395602D01*
X153695000Y-99884398D01*
X153499371Y-99412106D01*
X153137894Y-99050629D01*
X152768062Y-98897440D01*
X153060000Y-98897440D01*
X153307765Y-98848157D01*
X153517809Y-98707809D01*
X153630348Y-98539384D01*
X153652386Y-98535000D01*
X153925119Y-98480750D01*
X154234397Y-98274097D01*
X154286561Y-98196028D01*
X158045731Y-94436859D01*
X158123797Y-94384697D01*
X158131767Y-94372769D01*
X158190091Y-94411740D01*
X158608667Y-94495000D01*
X158891333Y-94495000D01*
X159309909Y-94411740D01*
X159513629Y-94275618D01*
X161833301Y-96595291D01*
G36*
X141381592Y-103642560D02*
X140970000Y-103642560D01*
X140722235Y-103691843D01*
X140525373Y-103823383D01*
X139895661Y-103193672D01*
X139843497Y-103115603D01*
X139534219Y-102908950D01*
X139261486Y-102854700D01*
X139169400Y-102836383D01*
X139077314Y-102854700D01*
X133543590Y-102854700D01*
X131903077Y-101214188D01*
X132142265Y-100975000D01*
X138714033Y-100975000D01*
X141381592Y-103642560D01*
X141381592Y-103642560D01*
G37*
X141381592Y-103642560D02*
X140970000Y-103642560D01*
X140722235Y-103691843D01*
X140525373Y-103823383D01*
X139895661Y-103193672D01*
X139843497Y-103115603D01*
X139534219Y-102908950D01*
X139261486Y-102854700D01*
X139169400Y-102836383D01*
X139077314Y-102854700D01*
X133543590Y-102854700D01*
X131903077Y-101214188D01*
X132142265Y-100975000D01*
X138714033Y-100975000D01*
X141381592Y-103642560D01*
G36*
X149039375Y-70850625D02*
X149078087Y-70876491D01*
X149023000Y-70913299D01*
X148976416Y-70983017D01*
X148838448Y-71189500D01*
X148773643Y-71515300D01*
X148790001Y-71597538D01*
X148790000Y-91791821D01*
X148679909Y-91718260D01*
X148261333Y-91635000D01*
X147978667Y-91635000D01*
X147560091Y-91718260D01*
X147085423Y-92035423D01*
X146768260Y-92510091D01*
X146656887Y-93070000D01*
X146768260Y-93629909D01*
X147085423Y-94104577D01*
X147560091Y-94421740D01*
X147978667Y-94505000D01*
X148261333Y-94505000D01*
X148679909Y-94421740D01*
X148790000Y-94348180D01*
X148790000Y-95751931D01*
X147587718Y-96954215D01*
X147518000Y-97000799D01*
X147471416Y-97070517D01*
X147333448Y-97277000D01*
X147268643Y-97602800D01*
X147285001Y-97685038D01*
X147285000Y-103713414D01*
X146991333Y-103655000D01*
X146708667Y-103655000D01*
X146437264Y-103708985D01*
X146436252Y-103703899D01*
X146368166Y-103602001D01*
X146298284Y-103497415D01*
X146298283Y-103497414D01*
X146251701Y-103427699D01*
X146181986Y-103381117D01*
X143045000Y-100244133D01*
X143045000Y-99884398D01*
X142892719Y-99516757D01*
X142959701Y-99472001D01*
X143006287Y-99402280D01*
X143342682Y-99065886D01*
X143412401Y-99019301D01*
X143596952Y-98743101D01*
X143645400Y-98499537D01*
X143645400Y-98499534D01*
X143661757Y-98417301D01*
X143645400Y-98335068D01*
X143645400Y-95462632D01*
X143661757Y-95380399D01*
X143645400Y-95298164D01*
X143645400Y-95298163D01*
X143596952Y-95054599D01*
X143412401Y-94778399D01*
X143342683Y-94731815D01*
X141935000Y-93324133D01*
X141935000Y-92815867D01*
X146851983Y-87898885D01*
X146921701Y-87852301D01*
X147106252Y-87576101D01*
X147154700Y-87332537D01*
X147171058Y-87250300D01*
X147154700Y-87168063D01*
X147154700Y-71211484D01*
X147423744Y-71265000D01*
X147716256Y-71265000D01*
X148149418Y-71178839D01*
X148640625Y-70850625D01*
X148791025Y-70625535D01*
X148820300Y-70631358D01*
X148884352Y-70618617D01*
X149039375Y-70850625D01*
X149039375Y-70850625D01*
G37*
X149039375Y-70850625D02*
X149078087Y-70876491D01*
X149023000Y-70913299D01*
X148976416Y-70983017D01*
X148838448Y-71189500D01*
X148773643Y-71515300D01*
X148790001Y-71597538D01*
X148790000Y-91791821D01*
X148679909Y-91718260D01*
X148261333Y-91635000D01*
X147978667Y-91635000D01*
X147560091Y-91718260D01*
X147085423Y-92035423D01*
X146768260Y-92510091D01*
X146656887Y-93070000D01*
X146768260Y-93629909D01*
X147085423Y-94104577D01*
X147560091Y-94421740D01*
X147978667Y-94505000D01*
X148261333Y-94505000D01*
X148679909Y-94421740D01*
X148790000Y-94348180D01*
X148790000Y-95751931D01*
X147587718Y-96954215D01*
X147518000Y-97000799D01*
X147471416Y-97070517D01*
X147333448Y-97277000D01*
X147268643Y-97602800D01*
X147285001Y-97685038D01*
X147285000Y-103713414D01*
X146991333Y-103655000D01*
X146708667Y-103655000D01*
X146437264Y-103708985D01*
X146436252Y-103703899D01*
X146368166Y-103602001D01*
X146298284Y-103497415D01*
X146298283Y-103497414D01*
X146251701Y-103427699D01*
X146181986Y-103381117D01*
X143045000Y-100244133D01*
X143045000Y-99884398D01*
X142892719Y-99516757D01*
X142959701Y-99472001D01*
X143006287Y-99402280D01*
X143342682Y-99065886D01*
X143412401Y-99019301D01*
X143596952Y-98743101D01*
X143645400Y-98499537D01*
X143645400Y-98499534D01*
X143661757Y-98417301D01*
X143645400Y-98335068D01*
X143645400Y-95462632D01*
X143661757Y-95380399D01*
X143645400Y-95298164D01*
X143645400Y-95298163D01*
X143596952Y-95054599D01*
X143412401Y-94778399D01*
X143342683Y-94731815D01*
X141935000Y-93324133D01*
X141935000Y-92815867D01*
X146851983Y-87898885D01*
X146921701Y-87852301D01*
X147106252Y-87576101D01*
X147154700Y-87332537D01*
X147171058Y-87250300D01*
X147154700Y-87168063D01*
X147154700Y-71211484D01*
X147423744Y-71265000D01*
X147716256Y-71265000D01*
X148149418Y-71178839D01*
X148640625Y-70850625D01*
X148791025Y-70625535D01*
X148820300Y-70631358D01*
X148884352Y-70618617D01*
X149039375Y-70850625D01*
G36*
X136940091Y-94431740D02*
X137358667Y-94515000D01*
X137641333Y-94515000D01*
X138059909Y-94431740D01*
X138275618Y-94287608D01*
X140583301Y-96595291D01*
X140511843Y-96702235D01*
X140462560Y-96950000D01*
X140462560Y-97585000D01*
X140234398Y-97585000D01*
X139762106Y-97780629D01*
X139400629Y-98142106D01*
X139205000Y-98614398D01*
X139205000Y-99125602D01*
X139291625Y-99334735D01*
X139142137Y-99305000D01*
X139142133Y-99305000D01*
X139059900Y-99288643D01*
X138977667Y-99305000D01*
X132142265Y-99305000D01*
X131887894Y-99050629D01*
X131518062Y-98897440D01*
X131810000Y-98897440D01*
X132057765Y-98848157D01*
X132267809Y-98707809D01*
X132408157Y-98497765D01*
X132457440Y-98250000D01*
X132457440Y-97384700D01*
X132737914Y-97384700D01*
X132830000Y-97403017D01*
X132922086Y-97384700D01*
X133194819Y-97330450D01*
X133504097Y-97123797D01*
X133556261Y-97045728D01*
X136478605Y-94123385D01*
X136940091Y-94431740D01*
X136940091Y-94431740D01*
G37*
X136940091Y-94431740D02*
X137358667Y-94515000D01*
X137641333Y-94515000D01*
X138059909Y-94431740D01*
X138275618Y-94287608D01*
X140583301Y-96595291D01*
X140511843Y-96702235D01*
X140462560Y-96950000D01*
X140462560Y-97585000D01*
X140234398Y-97585000D01*
X139762106Y-97780629D01*
X139400629Y-98142106D01*
X139205000Y-98614398D01*
X139205000Y-99125602D01*
X139291625Y-99334735D01*
X139142137Y-99305000D01*
X139142133Y-99305000D01*
X139059900Y-99288643D01*
X138977667Y-99305000D01*
X132142265Y-99305000D01*
X131887894Y-99050629D01*
X131518062Y-98897440D01*
X131810000Y-98897440D01*
X132057765Y-98848157D01*
X132267809Y-98707809D01*
X132408157Y-98497765D01*
X132457440Y-98250000D01*
X132457440Y-97384700D01*
X132737914Y-97384700D01*
X132830000Y-97403017D01*
X132922086Y-97384700D01*
X133194819Y-97330450D01*
X133504097Y-97123797D01*
X133556261Y-97045728D01*
X136478605Y-94123385D01*
X136940091Y-94431740D01*
G36*
X154119375Y-70850625D02*
X154255000Y-70941247D01*
X154255001Y-88107609D01*
X154236683Y-88199700D01*
X154309250Y-88564518D01*
X154434504Y-88751974D01*
X154515904Y-88873797D01*
X154593970Y-88925959D01*
X157706615Y-92038605D01*
X157648888Y-92125000D01*
X157541786Y-92125000D01*
X157449700Y-92106683D01*
X157357614Y-92125000D01*
X157084881Y-92179250D01*
X156775603Y-92385903D01*
X156568950Y-92695181D01*
X156496383Y-93060000D01*
X156514700Y-93152085D01*
X156514700Y-93323310D01*
X153414709Y-96423301D01*
X153307765Y-96351843D01*
X153060000Y-96302560D01*
X151884507Y-96302560D01*
X153182283Y-95004785D01*
X153252001Y-94958201D01*
X153436552Y-94682001D01*
X153485000Y-94438437D01*
X153501358Y-94356200D01*
X153485000Y-94273963D01*
X153485000Y-71008065D01*
X153720625Y-70850625D01*
X153920000Y-70552239D01*
X154119375Y-70850625D01*
X154119375Y-70850625D01*
G37*
X154119375Y-70850625D02*
X154255000Y-70941247D01*
X154255001Y-88107609D01*
X154236683Y-88199700D01*
X154309250Y-88564518D01*
X154434504Y-88751974D01*
X154515904Y-88873797D01*
X154593970Y-88925959D01*
X157706615Y-92038605D01*
X157648888Y-92125000D01*
X157541786Y-92125000D01*
X157449700Y-92106683D01*
X157357614Y-92125000D01*
X157084881Y-92179250D01*
X156775603Y-92385903D01*
X156568950Y-92695181D01*
X156496383Y-93060000D01*
X156514700Y-93152085D01*
X156514700Y-93323310D01*
X153414709Y-96423301D01*
X153307765Y-96351843D01*
X153060000Y-96302560D01*
X151884507Y-96302560D01*
X153182283Y-95004785D01*
X153252001Y-94958201D01*
X153436552Y-94682001D01*
X153485000Y-94438437D01*
X153501358Y-94356200D01*
X153485000Y-94273963D01*
X153485000Y-71008065D01*
X153720625Y-70850625D01*
X153920000Y-70552239D01*
X154119375Y-70850625D01*
G36*
X168645301Y-91818369D02*
X168335423Y-92025423D01*
X168268888Y-92125000D01*
X168161786Y-92125000D01*
X168069700Y-92106683D01*
X167977614Y-92125000D01*
X167704881Y-92179250D01*
X167395603Y-92385903D01*
X167343441Y-92463969D01*
X164292711Y-95514700D01*
X163397290Y-95514700D01*
X162277376Y-94394786D01*
X162562862Y-94276534D01*
X162966534Y-93872862D01*
X163185000Y-93345439D01*
X163185000Y-92774561D01*
X162966534Y-92247138D01*
X162562862Y-91843466D01*
X162035439Y-91625000D01*
X161464561Y-91625000D01*
X160937138Y-91843466D01*
X160533466Y-92247138D01*
X160529836Y-92255901D01*
X160415119Y-92179250D01*
X160142386Y-92125000D01*
X160050300Y-92106683D01*
X159958214Y-92125000D01*
X159851112Y-92125000D01*
X159784577Y-92025423D01*
X159685000Y-91958888D01*
X159685000Y-91851781D01*
X159703316Y-91759699D01*
X159685000Y-91667617D01*
X159685000Y-91667614D01*
X159630750Y-91394881D01*
X159424097Y-91085603D01*
X159346031Y-91033441D01*
X156125000Y-87812411D01*
X156125000Y-79298067D01*
X168645301Y-91818369D01*
X168645301Y-91818369D01*
G37*
X168645301Y-91818369D02*
X168335423Y-92025423D01*
X168268888Y-92125000D01*
X168161786Y-92125000D01*
X168069700Y-92106683D01*
X167977614Y-92125000D01*
X167704881Y-92179250D01*
X167395603Y-92385903D01*
X167343441Y-92463969D01*
X164292711Y-95514700D01*
X163397290Y-95514700D01*
X162277376Y-94394786D01*
X162562862Y-94276534D01*
X162966534Y-93872862D01*
X163185000Y-93345439D01*
X163185000Y-92774561D01*
X162966534Y-92247138D01*
X162562862Y-91843466D01*
X162035439Y-91625000D01*
X161464561Y-91625000D01*
X160937138Y-91843466D01*
X160533466Y-92247138D01*
X160529836Y-92255901D01*
X160415119Y-92179250D01*
X160142386Y-92125000D01*
X160050300Y-92106683D01*
X159958214Y-92125000D01*
X159851112Y-92125000D01*
X159784577Y-92025423D01*
X159685000Y-91958888D01*
X159685000Y-91851781D01*
X159703316Y-91759699D01*
X159685000Y-91667617D01*
X159685000Y-91667614D01*
X159630750Y-91394881D01*
X159424097Y-91085603D01*
X159346031Y-91033441D01*
X156125000Y-87812411D01*
X156125000Y-79298067D01*
X168645301Y-91818369D01*
G36*
X145157000Y-69653000D02*
X145177000Y-69653000D01*
X145177000Y-69907000D01*
X145157000Y-69907000D01*
X145157000Y-71100155D01*
X145386890Y-71221476D01*
X145484700Y-71180964D01*
X145484701Y-86904431D01*
X140754133Y-91635000D01*
X140214561Y-91635000D01*
X139687138Y-91853466D01*
X139283466Y-92257138D01*
X139276592Y-92273734D01*
X139165119Y-92199250D01*
X138892386Y-92145000D01*
X138800300Y-92126683D01*
X138708214Y-92145000D01*
X138601112Y-92145000D01*
X138534577Y-92045423D01*
X138059909Y-91728260D01*
X137641333Y-91645000D01*
X137358667Y-91645000D01*
X136940091Y-91728260D01*
X136465423Y-92045423D01*
X136398888Y-92145000D01*
X136291780Y-92145000D01*
X136199699Y-92126684D01*
X136107618Y-92145000D01*
X136107614Y-92145000D01*
X135834881Y-92199250D01*
X135525603Y-92405903D01*
X135473441Y-92483969D01*
X132442711Y-95514700D01*
X131547289Y-95514700D01*
X130435660Y-94403071D01*
X130692862Y-94296534D01*
X131096534Y-93892862D01*
X131315000Y-93365439D01*
X131315000Y-92825867D01*
X140482283Y-83658585D01*
X140552001Y-83612001D01*
X140736552Y-83335801D01*
X140785000Y-83092237D01*
X140801358Y-83010000D01*
X140785000Y-82927763D01*
X140785000Y-71008065D01*
X141020625Y-70850625D01*
X141220000Y-70552239D01*
X141419375Y-70850625D01*
X141910582Y-71178839D01*
X142343744Y-71265000D01*
X142636256Y-71265000D01*
X143069418Y-71178839D01*
X143560625Y-70850625D01*
X143773843Y-70531522D01*
X143834817Y-70661358D01*
X144263076Y-71051645D01*
X144673110Y-71221476D01*
X144903000Y-71100155D01*
X144903000Y-69907000D01*
X144883000Y-69907000D01*
X144883000Y-69653000D01*
X144903000Y-69653000D01*
X144903000Y-69633000D01*
X145157000Y-69633000D01*
X145157000Y-69653000D01*
X145157000Y-69653000D01*
G37*
X145157000Y-69653000D02*
X145177000Y-69653000D01*
X145177000Y-69907000D01*
X145157000Y-69907000D01*
X145157000Y-71100155D01*
X145386890Y-71221476D01*
X145484700Y-71180964D01*
X145484701Y-86904431D01*
X140754133Y-91635000D01*
X140214561Y-91635000D01*
X139687138Y-91853466D01*
X139283466Y-92257138D01*
X139276592Y-92273734D01*
X139165119Y-92199250D01*
X138892386Y-92145000D01*
X138800300Y-92126683D01*
X138708214Y-92145000D01*
X138601112Y-92145000D01*
X138534577Y-92045423D01*
X138059909Y-91728260D01*
X137641333Y-91645000D01*
X137358667Y-91645000D01*
X136940091Y-91728260D01*
X136465423Y-92045423D01*
X136398888Y-92145000D01*
X136291780Y-92145000D01*
X136199699Y-92126684D01*
X136107618Y-92145000D01*
X136107614Y-92145000D01*
X135834881Y-92199250D01*
X135525603Y-92405903D01*
X135473441Y-92483969D01*
X132442711Y-95514700D01*
X131547289Y-95514700D01*
X130435660Y-94403071D01*
X130692862Y-94296534D01*
X131096534Y-93892862D01*
X131315000Y-93365439D01*
X131315000Y-92825867D01*
X140482283Y-83658585D01*
X140552001Y-83612001D01*
X140736552Y-83335801D01*
X140785000Y-83092237D01*
X140801358Y-83010000D01*
X140785000Y-82927763D01*
X140785000Y-71008065D01*
X141020625Y-70850625D01*
X141220000Y-70552239D01*
X141419375Y-70850625D01*
X141910582Y-71178839D01*
X142343744Y-71265000D01*
X142636256Y-71265000D01*
X143069418Y-71178839D01*
X143560625Y-70850625D01*
X143773843Y-70531522D01*
X143834817Y-70661358D01*
X144263076Y-71051645D01*
X144673110Y-71221476D01*
X144903000Y-71100155D01*
X144903000Y-69907000D01*
X144883000Y-69907000D01*
X144883000Y-69653000D01*
X144903000Y-69653000D01*
X144903000Y-69633000D01*
X145157000Y-69633000D01*
X145157000Y-69653000D01*
G36*
X150545001Y-91749082D02*
X150460000Y-91784291D01*
X150460000Y-71861167D01*
X150545000Y-71776167D01*
X150545001Y-91749082D01*
X150545001Y-91749082D01*
G37*
X150545001Y-91749082D02*
X150460000Y-91784291D01*
X150460000Y-71861167D01*
X150545000Y-71776167D01*
X150545001Y-91749082D01*
G36*
X133935001Y-85802209D02*
X128682300Y-91054911D01*
X128682300Y-89888689D01*
X133935001Y-84635989D01*
X133935001Y-85802209D01*
X133935001Y-85802209D01*
G37*
X133935001Y-85802209D02*
X128682300Y-91054911D01*
X128682300Y-89888689D01*
X133935001Y-84635989D01*
X133935001Y-85802209D01*
G36*
X138879375Y-70850625D02*
X139115000Y-71008065D01*
X139115001Y-82664131D01*
X135805000Y-85974132D01*
X135805000Y-71260533D01*
X135967765Y-71228157D01*
X136177809Y-71087809D01*
X136318157Y-70877765D01*
X136327184Y-70832381D01*
X136339375Y-70850625D01*
X136830582Y-71178839D01*
X137263744Y-71265000D01*
X137556256Y-71265000D01*
X137989418Y-71178839D01*
X138480625Y-70850625D01*
X138680000Y-70552239D01*
X138879375Y-70850625D01*
X138879375Y-70850625D01*
G37*
X138879375Y-70850625D02*
X139115000Y-71008065D01*
X139115001Y-82664131D01*
X135805000Y-85974132D01*
X135805000Y-71260533D01*
X135967765Y-71228157D01*
X136177809Y-71087809D01*
X136318157Y-70877765D01*
X136327184Y-70832381D01*
X136339375Y-70850625D01*
X136830582Y-71178839D01*
X137263744Y-71265000D01*
X137556256Y-71265000D01*
X137989418Y-71178839D01*
X138480625Y-70850625D01*
X138680000Y-70552239D01*
X138879375Y-70850625D01*
G36*
X157583744Y-71265000D02*
X157876256Y-71265000D01*
X158165001Y-71207565D01*
X158165000Y-77379710D01*
X158159316Y-77388217D01*
X158021348Y-77594700D01*
X157956543Y-77920500D01*
X157972901Y-78002737D01*
X157972900Y-78784233D01*
X157275400Y-78086733D01*
X157275400Y-71203667D01*
X157583744Y-71265000D01*
X157583744Y-71265000D01*
G37*
X157583744Y-71265000D02*
X157876256Y-71265000D01*
X158165001Y-71207565D01*
X158165000Y-77379710D01*
X158159316Y-77388217D01*
X158021348Y-77594700D01*
X157956543Y-77920500D01*
X157972901Y-78002737D01*
X157972900Y-78784233D01*
X157275400Y-78086733D01*
X157275400Y-71203667D01*
X157583744Y-71265000D01*
G36*
X165477000Y-69653000D02*
X165497000Y-69653000D01*
X165497000Y-69907000D01*
X165477000Y-69907000D01*
X165477000Y-71100155D01*
X165706890Y-71221476D01*
X166116924Y-71051645D01*
X166545183Y-70661358D01*
X166606157Y-70531522D01*
X166819375Y-70850625D01*
X167171455Y-71085877D01*
X160635533Y-77621800D01*
X160261211Y-77621800D01*
X160218780Y-77579369D01*
X159838374Y-77421800D01*
X159835000Y-77421800D01*
X159835000Y-71207565D01*
X160123744Y-71265000D01*
X160416256Y-71265000D01*
X160849418Y-71178839D01*
X161340625Y-70850625D01*
X161540000Y-70552239D01*
X161739375Y-70850625D01*
X162230582Y-71178839D01*
X162663744Y-71265000D01*
X162956256Y-71265000D01*
X163389418Y-71178839D01*
X163880625Y-70850625D01*
X164093843Y-70531522D01*
X164154817Y-70661358D01*
X164583076Y-71051645D01*
X164993110Y-71221476D01*
X165223000Y-71100155D01*
X165223000Y-69907000D01*
X165203000Y-69907000D01*
X165203000Y-69653000D01*
X165223000Y-69653000D01*
X165223000Y-69633000D01*
X165477000Y-69633000D01*
X165477000Y-69653000D01*
X165477000Y-69653000D01*
G37*
X165477000Y-69653000D02*
X165497000Y-69653000D01*
X165497000Y-69907000D01*
X165477000Y-69907000D01*
X165477000Y-71100155D01*
X165706890Y-71221476D01*
X166116924Y-71051645D01*
X166545183Y-70661358D01*
X166606157Y-70531522D01*
X166819375Y-70850625D01*
X167171455Y-71085877D01*
X160635533Y-77621800D01*
X160261211Y-77621800D01*
X160218780Y-77579369D01*
X159838374Y-77421800D01*
X159835000Y-77421800D01*
X159835000Y-71207565D01*
X160123744Y-71265000D01*
X160416256Y-71265000D01*
X160849418Y-71178839D01*
X161340625Y-70850625D01*
X161540000Y-70552239D01*
X161739375Y-70850625D01*
X162230582Y-71178839D01*
X162663744Y-71265000D01*
X162956256Y-71265000D01*
X163389418Y-71178839D01*
X163880625Y-70850625D01*
X164093843Y-70531522D01*
X164154817Y-70661358D01*
X164583076Y-71051645D01*
X164993110Y-71221476D01*
X165223000Y-71100155D01*
X165223000Y-69907000D01*
X165203000Y-69907000D01*
X165203000Y-69653000D01*
X165223000Y-69653000D01*
X165223000Y-69633000D01*
X165477000Y-69633000D01*
X165477000Y-69653000D01*
G36*
X174439375Y-70850625D02*
X174664466Y-71001026D01*
X174658643Y-71030300D01*
X174723448Y-71356100D01*
X174723449Y-71356101D01*
X174908000Y-71632301D01*
X174977718Y-71678885D01*
X177165000Y-73866168D01*
X177165000Y-76611306D01*
X177064301Y-76460599D01*
X176994586Y-76414017D01*
X171459003Y-70878436D01*
X171500625Y-70850625D01*
X171700000Y-70552239D01*
X171899375Y-70850625D01*
X172390582Y-71178839D01*
X172823744Y-71265000D01*
X173116256Y-71265000D01*
X173549418Y-71178839D01*
X174040625Y-70850625D01*
X174240000Y-70552239D01*
X174439375Y-70850625D01*
X174439375Y-70850625D01*
G37*
X174439375Y-70850625D02*
X174664466Y-71001026D01*
X174658643Y-71030300D01*
X174723448Y-71356100D01*
X174723449Y-71356101D01*
X174908000Y-71632301D01*
X174977718Y-71678885D01*
X177165000Y-73866168D01*
X177165000Y-76611306D01*
X177064301Y-76460599D01*
X176994586Y-76414017D01*
X171459003Y-70878436D01*
X171500625Y-70850625D01*
X171700000Y-70552239D01*
X171899375Y-70850625D01*
X172390582Y-71178839D01*
X172823744Y-71265000D01*
X173116256Y-71265000D01*
X173549418Y-71178839D01*
X174040625Y-70850625D01*
X174240000Y-70552239D01*
X174439375Y-70850625D01*
G36*
X150237000Y-67113000D02*
X150257000Y-67113000D01*
X150257000Y-67367000D01*
X150237000Y-67367000D01*
X150237000Y-67387000D01*
X149983000Y-67387000D01*
X149983000Y-67367000D01*
X149963000Y-67367000D01*
X149963000Y-67113000D01*
X149983000Y-67113000D01*
X149983000Y-67093000D01*
X150237000Y-67093000D01*
X150237000Y-67113000D01*
X150237000Y-67113000D01*
G37*
X150237000Y-67113000D02*
X150257000Y-67113000D01*
X150257000Y-67367000D01*
X150237000Y-67367000D01*
X150237000Y-67387000D01*
X149983000Y-67387000D01*
X149983000Y-67367000D01*
X149963000Y-67367000D01*
X149963000Y-67113000D01*
X149983000Y-67113000D01*
X149983000Y-67093000D01*
X150237000Y-67093000D01*
X150237000Y-67113000D01*
G36*
X157857000Y-67113000D02*
X157877000Y-67113000D01*
X157877000Y-67367000D01*
X157857000Y-67367000D01*
X157857000Y-67387000D01*
X157603000Y-67387000D01*
X157603000Y-67367000D01*
X157583000Y-67367000D01*
X157583000Y-67113000D01*
X157603000Y-67113000D01*
X157603000Y-67093000D01*
X157857000Y-67093000D01*
X157857000Y-67113000D01*
X157857000Y-67113000D01*
G37*
X157857000Y-67113000D02*
X157877000Y-67113000D01*
X157877000Y-67367000D01*
X157857000Y-67367000D01*
X157857000Y-67387000D01*
X157603000Y-67387000D01*
X157603000Y-67367000D01*
X157583000Y-67367000D01*
X157583000Y-67113000D01*
X157603000Y-67113000D01*
X157603000Y-67093000D01*
X157857000Y-67093000D01*
X157857000Y-67113000D01*
M02*
